<svg id="Layer_1" data-name="Layer 1" xmlns="http://www.w3.org/2000/svg" viewBox="0 0 341.59 817.69"><defs><style>.cls-1{fill:#22ad00;}.cls-11,.cls-12,.cls-13,.cls-14,.cls-2,.cls-3,.cls-4{fill:none;stroke-miterlimit:10;}.cls-2{stroke:#1c1c1c;}.cls-3{stroke:#ff9414;}.cls-12,.cls-3,.cls-4{stroke-dasharray:1 2;}.cls-14,.cls-4{stroke:#b0221d;}.cls-5{fill:#0277e2;}.cls-6{fill:#fff;}.cls-7{fill:#9fdf31;}.cls-8{fill:#ff9414;}.cls-9{fill:#b0221d;}.cls-10{fill:#00dc9b;}.cls-11{stroke:#9fdf31;}.cls-12{stroke:#0277e2;}.cls-13{stroke:#00dc9b;}.cls-15{fill:#1c1c1c;}</style></defs><title>Artboard 2sol</title><path class="cls-1" d="M136.81,808.63h-3.18v1.43a1.37,1.37,0,0,1,.58-.38,2.39,2.39,0,0,1,.82-.13,2.13,2.13,0,0,1,1.19.31,1.91,1.91,0,0,1,.71.85,2.94,2.94,0,0,1,.23,1.17,2.54,2.54,0,0,1-.65,1.83,2.44,2.44,0,0,1-1.83.68,3.13,3.13,0,0,1-1.39-.29,2.08,2.08,0,0,1-.91-.79,2.23,2.23,0,0,1-.34-1.18h1.67a1,1,0,0,0,.27.56.88.88,0,0,0,.62.22.8.8,0,0,0,.67-.29,1.24,1.24,0,0,0,.23-.77,1,1,0,0,0-.24-.71.88.88,0,0,0-.67-.25,1,1,0,0,0-.55.14.7.7,0,0,0-.3.38h-1.66v-4.28h4.73Z"/><path class="cls-1" d="M143.35,812.9v1.47h-.77a2.18,2.18,0,0,1-1.53-.49,2.06,2.06,0,0,1-.54-1.6v-2h-.75v-1.44h.75v-1.37h1.71v1.37h1.12v1.44h-1.12v2.08a.63.63,0,0,0,.13.46.68.68,0,0,0,.46.13Z"/><path class="cls-1" d="M148.4,809.06a2.48,2.48,0,0,1,1,1,3.23,3.23,0,0,1,0,3,2.52,2.52,0,0,1-1,1,3.33,3.33,0,0,1-3,0,2.54,2.54,0,0,1-1-1,3.31,3.31,0,0,1,0-3,2.5,2.5,0,0,1,1-1,3.41,3.41,0,0,1,3,0Zm-2.31,1.49a1.76,1.76,0,0,0,0,2.05,1.15,1.15,0,0,0,1.65,0,1.76,1.76,0,0,0,0-2.05,1.15,1.15,0,0,0-1.65,0Z"/><path class="cls-1" d="M152.22,808.9v-1.6h2.86v7.07h-1.8V808.9Z"/><path class="cls-1" d="M156.09,810.76a4.5,4.5,0,0,1,.67-2.62,2.85,2.85,0,0,1,4.27,0,4.5,4.5,0,0,1,.68,2.62,4.55,4.55,0,0,1-.68,2.63,2.83,2.83,0,0,1-4.27,0A4.56,4.56,0,0,1,156.09,810.76Zm3.92,0a3.7,3.7,0,0,0-.23-1.46.87.87,0,0,0-.88-.5.88.88,0,0,0-.9.51,3.51,3.51,0,0,0-.23,1.45,3.56,3.56,0,0,0,.23,1.46.89.89,0,0,0,.9.52.87.87,0,0,0,.88-.52A3.74,3.74,0,0,0,160,810.76Z"/><path class="cls-1" d="M167.92,809a1.67,1.67,0,0,1,.67.79V807h1.71v7.4h-1.71v-1a1.77,1.77,0,0,1-.67.79,2.07,2.07,0,0,1-1.1.29,2.27,2.27,0,0,1-1.24-.35,2.39,2.39,0,0,1-.86-1,3.91,3.91,0,0,1,0-3.05,2.39,2.39,0,0,1,.86-1,2.27,2.27,0,0,1,1.24-.34A2,2,0,0,1,167.92,809Zm-1.44,1.57a1.42,1.42,0,0,0-.33,1,1.44,1.44,0,0,0,.33,1,1.15,1.15,0,0,0,.89.36,1.17,1.17,0,0,0,.88-.37,1.59,1.59,0,0,0,0-2,1.27,1.27,0,0,0-1.77,0Z"/><path class="cls-1" d="M174.7,809a1.75,1.75,0,0,1,.68.79v-1h1.7v5.58h-1.7v-1a1.86,1.86,0,0,1-.68.79,2.07,2.07,0,0,1-1.1.29,2.27,2.27,0,0,1-1.24-.35,2.39,2.39,0,0,1-.86-1,3.91,3.91,0,0,1,0-3.05,2.39,2.39,0,0,1,.86-1,2.27,2.27,0,0,1,1.24-.34A2,2,0,0,1,174.7,809Zm-1.44,1.57a1.42,1.42,0,0,0-.33,1,1.44,1.44,0,0,0,.33,1,1.15,1.15,0,0,0,.89.36,1.17,1.17,0,0,0,.88-.37,1.59,1.59,0,0,0,0-2,1.27,1.27,0,0,0-1.77,0Z"/><path class="cls-1" d="M179.55,808.79l1.34,3.42,1.25-3.42H184L180.55,817h-1.88l1.31-2.87-2.34-5.37Z"/><path class="cls-1" d="M188.32,809.25a2.33,2.33,0,0,1,.8,1.4h-1.6a.93.93,0,0,0-.32-.54,1,1,0,0,0-.61-.19.68.68,0,0,0-.44.12.45.45,0,0,0-.15.36.42.42,0,0,0,.27.39,5,5,0,0,0,.87.26,10.25,10.25,0,0,1,1.05.3,1.77,1.77,0,0,1,.71.51,1.38,1.38,0,0,1,.3.94,1.47,1.47,0,0,1-.26.85,1.85,1.85,0,0,1-.75.58,3.44,3.44,0,0,1-3-.29,2.1,2.1,0,0,1-.83-1.43H186a.71.71,0,0,0,.3.55,1.22,1.22,0,0,0,.69.19.64.64,0,0,0,.44-.14.45.45,0,0,0,.15-.35.44.44,0,0,0-.28-.42,5.06,5.06,0,0,0-.89-.26,7.1,7.1,0,0,1-1-.28,1.68,1.68,0,0,1-.69-.49,1.31,1.31,0,0,1-.29-.91,1.5,1.5,0,0,1,.57-1.22,2.47,2.47,0,0,1,1.61-.46A2.52,2.52,0,0,1,188.32,809.25Z"/><path class="cls-2" d="M252,625.6H194.06c0,32.74-32.13,32.13-32.13,32.13v56"/><path class="cls-3" d="M191,389.05c0,30.24-29,31.45-29,31.45v56.24"/><path class="cls-4" d="M133.5,625.53c0-30.24,29-31.45,29-31.45V537.83"/><path d="M71.36,23.79V22.15h2.92v7.23H72.44V23.79Z"/><path d="M77,27.63v1.75H75.18V27.63Z"/><path d="M84.84,28.4a2,2,0,0,1-.85.76,3.06,3.06,0,0,1-1.38.29,3.25,3.25,0,0,1-2-.59,2.15,2.15,0,0,1-.86-1.66h1.86a1,1,0,0,0,.29.64.89.89,0,0,0,.64.24.74.74,0,0,0,.53-.18.67.67,0,0,0,.2-.5.65.65,0,0,0-.18-.46,1.48,1.48,0,0,0-.45-.3l-.73-.28a8.9,8.9,0,0,1-1.12-.45,2.13,2.13,0,0,1-.75-.66,1.87,1.87,0,0,1-.31-1.13A1.89,1.89,0,0,1,80.06,23a2.09,2.09,0,0,1,.9-.72A3.29,3.29,0,0,1,82.29,22a3,3,0,0,1,1.91.57,2.2,2.2,0,0,1,.8,1.58H83.11a1,1,0,0,0-.26-.57.76.76,0,0,0-.56-.21.73.73,0,0,0-.5.16.59.59,0,0,0-.19.48.64.64,0,0,0,.17.44,1.31,1.31,0,0,0,.42.29c.17.07.42.17.74.28a8.83,8.83,0,0,1,1.13.47,2.11,2.11,0,0,1,.76.67,1.9,1.9,0,0,1,.32,1.14A2,2,0,0,1,84.84,28.4Z"/><path d="M89.34,27.87v1.51h-.79a2.27,2.27,0,0,1-1.56-.5,2.11,2.11,0,0,1-.56-1.64V25.15h-.76V23.67h.76v-1.4h1.75v1.4h1.15v1.48H88.18v2.12a.5.5,0,0,0,.6.6Z"/><path d="M93.61,23.9a1.82,1.82,0,0,1,.69.81v-1H96v5.71H94.3v-1a1.76,1.76,0,0,1-.69.81,2.07,2.07,0,0,1-1.13.3,2.34,2.34,0,0,1-1.26-.35,2.52,2.52,0,0,1-.88-1,3.94,3.94,0,0,1,0-3.11,2.43,2.43,0,0,1,.88-1,2.26,2.26,0,0,1,1.26-.36A2.07,2.07,0,0,1,93.61,23.9Zm-1.47,1.6a1.72,1.72,0,0,0,0,2.05,1.2,1.2,0,0,0,.91.37,1.18,1.18,0,0,0,.9-.38,1.65,1.65,0,0,0,0-2,1.18,1.18,0,0,0-.9-.37A1.2,1.2,0,0,0,92.14,25.5Z"/><path d="M99.84,23.92a2.17,2.17,0,0,1,1.12-.31v1.87h-.5a1.69,1.69,0,0,0-1.08.3,1.18,1.18,0,0,0-.39,1v2.6H97.25V23.67H99v1.08A2.41,2.41,0,0,1,99.84,23.92Z"/><path d="M104.92,27.87v1.51h-.79a2.26,2.26,0,0,1-1.55-.5,2.07,2.07,0,0,1-.56-1.64V25.15h-.77V23.67H102v-1.4h1.75v1.4h1.14v1.48h-1.14v2.12a.64.64,0,0,0,.13.47.68.68,0,0,0,.47.13Z"/><path d="M61.6,41.73a2.24,2.24,0,0,1-1,.94A3.33,3.33,0,0,1,59.1,43H57.38V37.6H59.1a3.47,3.47,0,0,1,1.54.32,2.18,2.18,0,0,1,1,.94,3.29,3.29,0,0,1,0,2.87Zm-.94.1a2,2,0,0,0,.56-1.53,2.07,2.07,0,0,0-.55-1.54A2.24,2.24,0,0,0,59,38.21h-1v4.16h1A2.23,2.23,0,0,0,60.66,41.83Z"/><path d="M66.72,41.05H63.35a1.48,1.48,0,0,0,.41,1.08,1.36,1.36,0,0,0,.95.36,1.39,1.39,0,0,0,.85-.26,1.08,1.08,0,0,0,.41-.68h.75a1.83,1.83,0,0,1-.34.78,1.73,1.73,0,0,1-.69.53,2.24,2.24,0,0,1-1,.2,2.2,2.2,0,0,1-1.07-.26,1.82,1.82,0,0,1-.73-.75,2.58,2.58,0,0,1,0-2.3,1.82,1.82,0,0,1,.73-.75,2.2,2.2,0,0,1,1.07-.26,2.17,2.17,0,0,1,1.07.26,1.88,1.88,0,0,1,.7.7,2,2,0,0,1,.24,1A2.21,2.21,0,0,1,66.72,41.05Zm-.83-1.12a1.14,1.14,0,0,0-.48-.47,1.53,1.53,0,0,0-.67-.15,1.43,1.43,0,0,0-1,.35,1.45,1.45,0,0,0-.42,1.05H66A1.37,1.37,0,0,0,65.89,39.93Z"/><path d="M68.36,37.33V43h-.7V37.33Z"/><path d="M69.48,37.25a.51.51,0,0,1,.35-.12.47.47,0,0,1,.34.12.43.43,0,0,1,0,.62.47.47,0,0,1-.34.12.51.51,0,0,1-.35-.12.43.43,0,0,1,0-.62Zm.69,1.54V43h-.69V38.79Z"/><path d="M72.93,42.26l1.3-3.47H75L73.33,43H72.5l-1.64-4.21h.75Z"/><path d="M79.5,41.05H76.14a1.44,1.44,0,0,0,.41,1.08,1.31,1.31,0,0,0,.94.36,1.39,1.39,0,0,0,.85-.26,1,1,0,0,0,.42-.68h.74a1.71,1.71,0,0,1-.34.78,1.66,1.66,0,0,1-.69.53,2.34,2.34,0,0,1-2-.06,2,2,0,0,1-.73-.75,2.58,2.58,0,0,1,0-2.3,2,2,0,0,1,.73-.75,2.2,2.2,0,0,1,1.07-.26,2.15,2.15,0,0,1,1.07.26,1.81,1.81,0,0,1,.7.7,2,2,0,0,1,.24,1A2.21,2.21,0,0,1,79.5,41.05Zm-.83-1.12a1,1,0,0,0-.48-.47,1.5,1.5,0,0,0-.67-.15,1.4,1.4,0,0,0-1,.35,1.45,1.45,0,0,0-.42,1.05h2.69A1.45,1.45,0,0,0,78.67,39.93Z"/><path d="M81.75,39a1.79,1.79,0,0,1,1-.24v.76h-.22a1.49,1.49,0,0,0-1,.3,1.21,1.21,0,0,0-.38,1V43h-.7V38.79h.7v.86A1.5,1.5,0,0,1,81.75,39Z"/><path d="M83.68,38.79,85,42.11l1.27-3.32h.77L84.58,45h-.79l.88-2.07L82.9,38.79Z"/><path d="M89.62,37.25a.49.49,0,0,1,.34-.12.5.5,0,0,1,.35.12.43.43,0,0,1,0,.62A.5.5,0,0,1,90,38a.49.49,0,0,1-.34-.12.43.43,0,0,1,0-.62Zm.69,1.54V43h-.7V38.79Z"/><path d="M93.89,39.11a1.61,1.61,0,0,1,.53,1h-.67a.93.93,0,0,0-.31-.61,1,1,0,0,0-.71-.25.89.89,0,0,0-.59.19.6.6,0,0,0-.21.48.51.51,0,0,0,.14.37,1,1,0,0,0,.36.22,4.27,4.27,0,0,0,.58.15c.31.08.56.15.75.22a1.25,1.25,0,0,1,.49.36,1,1,0,0,1,.2.66,1,1,0,0,1-.38.83,1.53,1.53,0,0,1-1,.33,2,2,0,0,1-1.23-.36,1.45,1.45,0,0,1-.56-1h.68a.82.82,0,0,0,.33.62,1.19,1.19,0,0,0,.78.24.82.82,0,0,0,.56-.18.63.63,0,0,0,.2-.49.56.56,0,0,0-.14-.39,1.09,1.09,0,0,0-.36-.22l-.59-.16A6.18,6.18,0,0,1,92,40.9a1.2,1.2,0,0,1-.48-.35.93.93,0,0,1-.19-.63,1,1,0,0,1,.39-.85,1.61,1.61,0,0,1,1.07-.33A1.68,1.68,0,0,1,93.89,39.11Z"/><path d="M103.64,39.2a1.88,1.88,0,0,1,.45,1.36V43h-.7V40.62a1.35,1.35,0,0,0-.3-.95,1.07,1.07,0,0,0-.83-.33,1.15,1.15,0,0,0-.89.36,1.56,1.56,0,0,0-.33,1.07V43h-.7V40.62a1.31,1.31,0,0,0-.31-.95,1.06,1.06,0,0,0-.82-.33,1.18,1.18,0,0,0-.9.36A1.56,1.56,0,0,0,98,40.77V43h-.7V38.79H98v1a1.39,1.39,0,0,1,.55-.76,1.55,1.55,0,0,1,.91-.26,1.64,1.64,0,0,1,.93.27,1.48,1.48,0,0,1,.56.8,1.54,1.54,0,0,1,.59-.79,1.62,1.62,0,0,1,.94-.28A1.53,1.53,0,0,1,103.64,39.2Z"/><path d="M107.93,39.05a1.61,1.61,0,0,1,.6.82V38.79h.69V43h-.69V41.93a1.61,1.61,0,0,1-.6.82,1.76,1.76,0,0,1-1,.31,1.82,1.82,0,0,1-1.68-1,2.77,2.77,0,0,1,0-2.3,1.82,1.82,0,0,1,1.68-1A1.69,1.69,0,0,1,107.93,39.05Zm-1.87.72a1.58,1.58,0,0,0-.38,1.13,1.56,1.56,0,0,0,.38,1.13,1.33,1.33,0,0,0,1,.41,1.38,1.38,0,0,0,.74-.19,1.33,1.33,0,0,0,.51-.54,1.62,1.62,0,0,0,.19-.81,1.64,1.64,0,0,0-.19-.81,1.33,1.33,0,0,0-.51-.54,1.38,1.38,0,0,0-.74-.19A1.36,1.36,0,0,0,106.06,39.77Z"/><path d="M113.1,39.05a1.59,1.59,0,0,1,.59.82V37.33h.7V43h-.7V41.93a1.59,1.59,0,0,1-.59.82,1.78,1.78,0,0,1-1,.31,2,2,0,0,1-1-.26,1.83,1.83,0,0,1-.68-.75,2.77,2.77,0,0,1,0-2.3,1.83,1.83,0,0,1,.68-.75,2,2,0,0,1,1-.26A1.71,1.71,0,0,1,113.1,39.05Zm-1.87.72a1.58,1.58,0,0,0-.39,1.13,1.57,1.57,0,0,0,.39,1.13,1.33,1.33,0,0,0,1,.41,1.41,1.41,0,0,0,.74-.19,1.33,1.33,0,0,0,.51-.54,1.73,1.73,0,0,0,.18-.81,1.76,1.76,0,0,0-.18-.81,1.33,1.33,0,0,0-.51-.54,1.41,1.41,0,0,0-.74-.19A1.36,1.36,0,0,0,111.23,39.77Z"/><path d="M119.34,41.05H116a1.44,1.44,0,0,0,.41,1.08,1.31,1.31,0,0,0,.94.36,1.39,1.39,0,0,0,.85-.26,1,1,0,0,0,.42-.68h.74a1.71,1.71,0,0,1-.34.78,1.73,1.73,0,0,1-.69.53,2.34,2.34,0,0,1-2-.06,1.88,1.88,0,0,1-.73-.75,2.58,2.58,0,0,1,0-2.3,1.88,1.88,0,0,1,.73-.75,2.2,2.2,0,0,1,1.07-.26,2.15,2.15,0,0,1,1.07.26,1.81,1.81,0,0,1,.7.7,2,2,0,0,1,.24,1A2.21,2.21,0,0,1,119.34,41.05Zm-.83-1.12a1.09,1.09,0,0,0-.48-.47,1.5,1.5,0,0,0-.67-.15,1.4,1.4,0,0,0-1,.35,1.45,1.45,0,0,0-.42,1.05h2.69A1.45,1.45,0,0,0,118.51,39.93Z"/><circle class="cls-5" cx="163.3" cy="33.72" r="31.3"/><path class="cls-6" d="M174.63,39.34a3.31,3.31,0,0,0-2.33,1,3.24,3.24,0,0,0,0,4.62,3.31,3.31,0,0,0,2.33,1,3.27,3.27,0,0,0,0-6.54Zm0,5.09a1.82,1.82,0,1,1,0-3.64,1.82,1.82,0,0,1,0,3.64Zm.84-16a.69.69,0,0,0-.49-.19h-3.72a.73.73,0,0,0-.73.73v5.95a.73.73,0,0,0,.73.73h5.91a.73.73,0,0,0,.73-.73V31a.71.71,0,0,0-.24-.53Zm1,5.77H172V29.7h2.72l1.74,1.57Zm-19.56,5.12a3.27,3.27,0,0,0-2.32,1,3.21,3.21,0,0,0,0,4.62,3.26,3.26,0,1,0,2.32-5.58Zm0,5.09a1.82,1.82,0,1,1,0-3.64,1.82,1.82,0,0,1,0,3.64ZM152,40.23h-1.46V38.3a.73.73,0,1,0-1.46,0V41a.73.73,0,0,0,.73.73H152a.73.73,0,0,0,0-1.46Zm3.68-4a.73.73,0,0,0-.73-.72h-8.81a.73.73,0,0,0-.73.72.73.73,0,0,0,.73.73H155A.73.73,0,0,0,155.72,36.27Zm-8.07-2.62,8.82.05a.73.73,0,0,0,.73-.72.71.71,0,0,0-.72-.73l-8.81,0h0a.73.73,0,0,0,0,1.45Zm1.49-3.3H158a.73.73,0,0,0,.73-.73.73.73,0,0,0-.73-.72h-8.81a.73.73,0,0,0-.73.72A.73.73,0,0,0,149.14,30.35Zm31.73-1h0l-5.2-4.31a.71.71,0,0,0-.47-.17h-6.12V22.28a.73.73,0,0,0-.72-.73H149.85a.73.73,0,0,0-.73.73V27.6a.73.73,0,0,0,1.46,0V23h17.06V40.23h-6a.73.73,0,0,0,0,1.46h8.87a.73.73,0,0,0,0-1.46h-1.46V26.35H175l4.73,3.92-.05,10h-.75a.73.73,0,1,0,0,1.45h1.47a.73.73,0,0,0,.73-.72l.06-11A.77.77,0,0,0,180.87,29.37Z"/><circle class="cls-7" cx="163.34" cy="270.53" r="31.3"/><circle class="cls-8" cx="163.27" cy="507.62" r="31.3"/><circle class="cls-9" cx="283.05" cy="625.23" r="31.3"/><circle class="cls-10" cx="283.05" cy="151.05" r="31.3"/><line class="cls-11" x1="161.93" y1="301.95" x2="161.93" y2="358.2"/><path class="cls-12" d="M132.29,152.56c0-30.24,29.64-31.45,29.64-31.45V64.86"/><path class="cls-13" d="M252,151.43H194.06c0,32.73-32.13,32.13-32.13,32.13v56"/><path class="cls-11" d="M162.1,299.85v57.92c-32.73,0-32.12,32.13-32.12,32.13H74"/><path class="cls-13" d="M282.89,187s34.92-.6,36.26-35.15"/><polygon class="cls-10" points="320.73 153.96 319.11 152.19 317.34 153.8 317.41 152.36 319.18 150.75 320.8 152.52 320.73 153.96"/><path class="cls-14" d="M284,663.57c6.09-.47,34.61-4.36,35.15-36.23"/><polygon class="cls-9" points="286.13 665.13 284.33 663.54 285.92 661.75 284.48 661.84 282.89 663.63 284.69 665.22 286.13 665.13"/><path d="M230.34,203.85c0-.56-.24-.84-.73-.84a.67.67,0,0,0-.6.28,1.91,1.91,0,0,0-.21.9h-1.71a2.75,2.75,0,0,1,.8-2,2.69,2.69,0,0,1,1.87-.66,2.45,2.45,0,0,1,1.78.59,2.1,2.1,0,0,1,.6,1.55,3.27,3.27,0,0,1-.81,2.07,7.39,7.39,0,0,1-1.94,1.71h2.86v1.42h-5.17v-1.32C229.25,206,230.34,204.76,230.34,203.85Z"/><path d="M234.66,207.19V209h-1.82v-1.76Z"/><path d="M242.84,201.69v1.4h-2V209H239.1v-5.86h-1.95v-1.4Z"/><path d="M251.74,201.74V209H250v-4.51L248.42,209h-1.51l-1.58-4.52V209h-1.75v-7.21h2.14l2,5,1.92-5Z"/><path d="M257.88,208a2,2,0,0,1-.87.77,2.93,2.93,0,0,1-1.38.29,3.3,3.3,0,0,1-2-.59,2.16,2.16,0,0,1-.86-1.67h1.87a.94.94,0,0,0,.29.65.89.89,0,0,0,.64.24.79.79,0,0,0,.54-.19.64.64,0,0,0,.19-.49.62.62,0,0,0-.18-.46,1.34,1.34,0,0,0-.45-.31c-.17-.07-.42-.17-.74-.28a9.41,9.41,0,0,1-1.12-.46,2,2,0,0,1-.75-.65,1.9,1.9,0,0,1-.31-1.14,1.92,1.92,0,0,1,.33-1.12,2.15,2.15,0,0,1,.9-.72,3.29,3.29,0,0,1,1.33-.25,3,3,0,0,1,1.93.57,2.22,2.22,0,0,1,.81,1.58h-1.9a1,1,0,0,0-.27-.57.77.77,0,0,0-.57-.21.71.71,0,0,0-.49.17.68.68,0,0,0,0,.92,1.31,1.31,0,0,0,.42.29c.17.08.42.17.74.29a7.41,7.41,0,0,1,1.14.46,2.14,2.14,0,0,1,.76.68,1.91,1.91,0,0,1,.32,1.15A2,2,0,0,1,257.88,208Z"/><path d="M263.85,207.24l1.24-4H267l-2,5.73h-2.18l-2-5.73h1.86Z"/><path d="M271,203.45a1.78,1.78,0,0,1,.7.81v-1h1.75V209h-1.75v-1a1.68,1.68,0,0,1-.7.81,2,2,0,0,1-1.13.3,2.34,2.34,0,0,1-1.26-.35,2.47,2.47,0,0,1-.89-1,3.65,3.65,0,0,1-.32-1.56,3.6,3.6,0,0,1,.32-1.57,2.47,2.47,0,0,1,.89-1,2.34,2.34,0,0,1,1.26-.35A2,2,0,0,1,271,203.45Zm-1.47,1.61a1.46,1.46,0,0,0-.34,1,1.43,1.43,0,0,0,.34,1,1.29,1.29,0,0,0,1.82,0,1.44,1.44,0,0,0,.35-1,1.46,1.46,0,0,0-.35-1,1.2,1.2,0,0,0-.91-.37A1.17,1.17,0,0,0,269.52,205.06Z"/><path d="M276.41,201.35V209h-1.76v-7.6Z"/><path d="M277.74,201a1.05,1.05,0,0,1,.76-.27,1.07,1.07,0,0,1,.76.27.88.88,0,0,1,0,1.31,1.06,1.06,0,0,1-.76.26,1,1,0,0,1-.76-.26.88.88,0,0,1,0-1.31Zm1.63,2.27V209h-1.75v-5.73Z"/><path d="M283.89,203.45a1.76,1.76,0,0,1,.69.81v-2.91h1.75V209h-1.75v-1a1.66,1.66,0,0,1-.69.81,2,2,0,0,1-1.13.3,2.4,2.4,0,0,1-1.27-.35,2.52,2.52,0,0,1-.88-1,3.51,3.51,0,0,1-.32-1.56,3.47,3.47,0,0,1,.32-1.57,2.52,2.52,0,0,1,.88-1,2.4,2.4,0,0,1,1.27-.35A2,2,0,0,1,283.89,203.45Zm-1.47,1.61a1.46,1.46,0,0,0-.35,1,1.43,1.43,0,0,0,.35,1,1.17,1.17,0,0,0,.91.37,1.15,1.15,0,0,0,.9-.38,1.4,1.4,0,0,0,.36-1,1.42,1.42,0,0,0-.36-1,1.29,1.29,0,0,0-1.81,0Z"/><path d="M290.85,203.45a1.78,1.78,0,0,1,.7.81v-1h1.75V209h-1.75v-1a1.68,1.68,0,0,1-.7.81,2,2,0,0,1-1.13.3,2.4,2.4,0,0,1-1.27-.35,2.52,2.52,0,0,1-.88-1,3.65,3.65,0,0,1-.32-1.56,3.6,3.6,0,0,1,.32-1.57,2.52,2.52,0,0,1,.88-1,2.4,2.4,0,0,1,1.27-.35A2,2,0,0,1,290.85,203.45Zm-1.47,1.61a1.46,1.46,0,0,0-.35,1,1.43,1.43,0,0,0,.35,1,1.29,1.29,0,0,0,1.82,0,1.44,1.44,0,0,0,.35-1,1.46,1.46,0,0,0-.35-1,1.2,1.2,0,0,0-.91-.37A1.17,1.17,0,0,0,289.38,205.06Z"/><path d="M297.75,207.44V209H297a2.27,2.27,0,0,1-1.56-.5,2.08,2.08,0,0,1-.56-1.65v-2.1h-.77v-1.48h.77v-1.41h1.75v1.41h1.15v1.48h-1.15v2.14a.5.5,0,0,0,.61.6Z"/><path d="M304.13,206.4h-4a1.29,1.29,0,0,0,.33.93,1.15,1.15,0,0,0,1.41.09,1,1,0,0,0,.34-.5h1.86a2.43,2.43,0,0,1-.5,1.08,2.55,2.55,0,0,1-1,.75,3.1,3.1,0,0,1-1.31.27,3.15,3.15,0,0,1-1.49-.35,2.63,2.63,0,0,1-1-1,3.16,3.16,0,0,1-.37-1.56,3.22,3.22,0,0,1,.36-1.57,2.59,2.59,0,0,1,1-1,3.37,3.37,0,0,1,3,0,2.51,2.51,0,0,1,1,1,3,3,0,0,1,.35,1.45A2.69,2.69,0,0,1,304.13,206.4Zm-2-1.58a1.12,1.12,0,0,0-.78-.28,1.17,1.17,0,0,0-.8.28,1.24,1.24,0,0,0-.36.84h2.24A1,1,0,0,0,302.1,204.82Z"/><path d="M308.92,203.69a2.42,2.42,0,0,1,.81,1.44h-1.64a.93.93,0,0,0-.32-.55,1,1,0,0,0-.63-.2.7.7,0,0,0-.46.13.45.45,0,0,0-.15.36.41.41,0,0,0,.28.4,4.62,4.62,0,0,0,.89.27,9.44,9.44,0,0,1,1.08.31,1.85,1.85,0,0,1,.73.52,1.46,1.46,0,0,1,.31,1,1.45,1.45,0,0,1-.27.87,1.89,1.89,0,0,1-.77.6,3.58,3.58,0,0,1-3-.3,2.13,2.13,0,0,1-.85-1.47h1.69a.78.78,0,0,0,.31.57,1.21,1.21,0,0,0,.71.19.65.65,0,0,0,.45-.14.46.46,0,0,0,.15-.36.44.44,0,0,0-.28-.43,6.13,6.13,0,0,0-.92-.27,7.72,7.72,0,0,1-1-.29,1.68,1.68,0,0,1-.71-.5,1.38,1.38,0,0,1-.3-.94,1.51,1.51,0,0,1,.58-1.24,2.56,2.56,0,0,1,1.66-.48A2.66,2.66,0,0,1,308.92,203.69Z"/><path d="M318.24,206.4h-4a1.29,1.29,0,0,0,.33.93,1.15,1.15,0,0,0,1.41.09,1,1,0,0,0,.34-.5h1.86a2.43,2.43,0,0,1-.5,1.08,2.55,2.55,0,0,1-1,.75,3.33,3.33,0,0,1-2.8-.08,2.51,2.51,0,0,1-1-1,3.16,3.16,0,0,1-.37-1.56,3.22,3.22,0,0,1,.36-1.57,2.63,2.63,0,0,1,1-1,3.19,3.19,0,0,1,1.5-.35,3.13,3.13,0,0,1,1.5.35,2.42,2.42,0,0,1,1,1,2.86,2.86,0,0,1,.36,1.45A2.69,2.69,0,0,1,318.24,206.4Zm-2-1.58a1.12,1.12,0,0,0-.78-.28,1.15,1.15,0,0,0-.8.28,1.24,1.24,0,0,0-.36.84h2.24A1,1,0,0,0,316.21,204.82Z"/><path d="M321,206.4V209H319.2v-7.26h2.85a2.81,2.81,0,0,1,2,.64,2.28,2.28,0,0,1,.67,1.73,2.41,2.41,0,0,1-.3,1.21,2.08,2.08,0,0,1-.9.83,3.16,3.16,0,0,1-1.44.3Zm2-2.34c0-.63-.35-.95-1.06-.95H321V205h.89C322.56,205,322.91,204.69,322.91,204.06Z"/><path d="M330.87,202.06a3.42,3.42,0,0,1,1.32,1.32,3.8,3.8,0,0,1,.48,1.92,3.85,3.85,0,0,1-.48,1.92,3.51,3.51,0,0,1-1.33,1.32,3.82,3.82,0,0,1-3.71,0,3.49,3.49,0,0,1-1.32-1.32,3.76,3.76,0,0,1-.49-1.92,3.71,3.71,0,0,1,.49-1.92,3.49,3.49,0,0,1,1.32-1.32,3.84,3.84,0,0,1,3.72,0Zm-3.23,1.71a2.52,2.52,0,0,0,0,3,1.92,1.92,0,0,0,2.73,0,2.49,2.49,0,0,0,0-3,1.94,1.94,0,0,0-2.74,0Z"/><path d="M339.73,207.2a3.19,3.19,0,0,1-1.31,1.29,4.18,4.18,0,0,1-2,.46h-2.74v-7.26h2.74a4.27,4.27,0,0,1,2,.45,3.11,3.11,0,0,1,1.31,1.28,3.73,3.73,0,0,1,.46,1.89A3.78,3.78,0,0,1,339.73,207.2Zm-1.89-.36a2,2,0,0,0,.57-1.53,2,2,0,0,0-.57-1.53,2.18,2.18,0,0,0-1.59-.55h-.84v4.15h.84A2.22,2.22,0,0,0,337.84,206.84Z"/><path d="M226.83,217.87v-.66h1.55v5.43h-.73v-4.77Z"/><path d="M234.18,218.67a1.66,1.66,0,0,1,.6.82v-2.55h.7v5.7h-.7v-1.08a1.69,1.69,0,0,1-.6.83,1.78,1.78,0,0,1-1,.31,1.85,1.85,0,0,1-1-.27,1.68,1.68,0,0,1-.69-.75,2.44,2.44,0,0,1-.25-1.15,2.47,2.47,0,0,1,.25-1.15,1.76,1.76,0,0,1,.69-.76,1.93,1.93,0,0,1,1-.26A1.71,1.71,0,0,1,234.18,218.67Zm-1.88.73a1.57,1.57,0,0,0-.39,1.13,1.61,1.61,0,0,0,.39,1.14,1.39,1.39,0,0,0,1,.41,1.43,1.43,0,0,0,.74-.19,1.29,1.29,0,0,0,.51-.55,1.82,1.82,0,0,0,0-1.62,1.29,1.29,0,0,0-.51-.55,1.54,1.54,0,0,0-.74-.19A1.36,1.36,0,0,0,232.3,219.4Z"/><path d="M239.37,218.67a1.61,1.61,0,0,1,.6.82v-1.08h.7v4.23H240v-1.08a1.63,1.63,0,0,1-.6.83,1.78,1.78,0,0,1-1,.31,1.85,1.85,0,0,1-1-.27,1.68,1.68,0,0,1-.69-.75,2.44,2.44,0,0,1-.25-1.15,2.47,2.47,0,0,1,.25-1.15,1.76,1.76,0,0,1,.69-.76,1.93,1.93,0,0,1,1-.26A1.71,1.71,0,0,1,239.37,218.67Zm-1.88.73a1.57,1.57,0,0,0-.39,1.13,1.61,1.61,0,0,0,.39,1.14,1.39,1.39,0,0,0,1,.41,1.43,1.43,0,0,0,.74-.19,1.29,1.29,0,0,0,.51-.55,1.82,1.82,0,0,0,0-1.62,1.29,1.29,0,0,0-.51-.55,1.54,1.54,0,0,0-.74-.19A1.36,1.36,0,0,0,237.49,219.4Z"/><path d="M242.08,218.41l1.37,3.33,1.27-3.33h.78L243,224.64h-.8l.88-2.07-1.78-4.16Z"/><path d="M258.24,685.61a.78.78,0,0,0-.6-.22.87.87,0,0,0-.85.55,4.29,4.29,0,0,0-.23,1.69,1.35,1.35,0,0,1,.6-.67,2,2,0,0,1,1-.24,2.17,2.17,0,0,1,1.63.62,2.51,2.51,0,0,1,.59,1.78,2.74,2.74,0,0,1-.3,1.3,2.11,2.11,0,0,1-.87.88,2.88,2.88,0,0,1-1.39.31,2.36,2.36,0,0,1-2.2-1,5.11,5.11,0,0,1-.61-2.73,5.34,5.34,0,0,1,.65-3,2.36,2.36,0,0,1,2.1-.95,2.27,2.27,0,0,1,1.75.65,2.67,2.67,0,0,1,.67,1.65h-1.65A1.22,1.22,0,0,0,258.24,685.61Zm-1.28,4.2a1,1,0,0,0,1.77-.72.92.92,0,0,0-1-1,1.11,1.11,0,0,0-.74.25.9.9,0,0,0-.29.71A1.09,1.09,0,0,0,257,689.81Z"/><path d="M263,689.78v1.76h-1.82v-1.76Z"/><path d="M270.68,684.28v1.39h-3v1.6H270v1.33h-2.3v2.94H266v-7.26Z"/><path d="M271.71,683.53a1.09,1.09,0,0,1,.76-.26,1.11,1.11,0,0,1,.76.26.88.88,0,0,1,.29.67.86.86,0,0,1-.29.65,1.11,1.11,0,0,1-.76.26,1.09,1.09,0,0,1-.76-.26.86.86,0,0,1-.29-.65A.88.88,0,0,1,271.71,683.53Zm1.63,2.28v5.73h-1.76v-5.73Z"/><path d="M279.75,686.4a2.63,2.63,0,0,1,.58,1.81v3.33h-1.75v-3.12a1.22,1.22,0,0,0-.31-.9,1,1,0,0,0-.8-.33,1.12,1.12,0,0,0-.85.34,1.38,1.38,0,0,0-.31,1v3h-1.76v-5.73h1.76v1.05A1.87,1.87,0,0,1,277,686a2.26,2.26,0,0,1,1.15-.29A2,2,0,0,1,279.75,686.4Z"/><path d="M284.8,686a1.84,1.84,0,0,1,.7.81v-1h1.74v5.73H285.5v-1a1.84,1.84,0,0,1-.7.81,2.07,2.07,0,0,1-1.13.3,2.38,2.38,0,0,1-1.27-.35,2.42,2.42,0,0,1-.88-1,3.85,3.85,0,0,1,0-3.12,2.45,2.45,0,0,1,.88-1,2.29,2.29,0,0,1,1.27-.35A2.16,2.16,0,0,1,284.8,686Zm-1.47,1.62a1.42,1.42,0,0,0-.35,1,1.46,1.46,0,0,0,.35,1,1.16,1.16,0,0,0,.9.37,1.19,1.19,0,0,0,.91-.38,1.63,1.63,0,0,0,0-2,1.18,1.18,0,0,0-.91-.37A1.16,1.16,0,0,0,283.33,687.65Z"/><path d="M293.65,686.4a2.63,2.63,0,0,1,.58,1.81v3.33h-1.75v-3.12a1.25,1.25,0,0,0-.3-.9,1.06,1.06,0,0,0-.81-.33,1.12,1.12,0,0,0-.85.34,1.38,1.38,0,0,0-.31,1v3h-1.76v-5.73h1.76v1.05a1.87,1.87,0,0,1,.73-.82,2.26,2.26,0,0,1,1.15-.29A2,2,0,0,1,293.65,686.4Z"/><path d="M299.84,686.35a2.68,2.68,0,0,1,1,1.68h-1.86a1,1,0,0,0-.34-.58,1,1,0,0,0-.65-.2.94.94,0,0,0-.76.36,1.63,1.63,0,0,0-.3,1.06,1.66,1.66,0,0,0,.3,1.07.94.94,0,0,0,.76.36,1,1,0,0,0,.65-.21,1,1,0,0,0,.34-.57h1.86a2.73,2.73,0,0,1-1,1.68,2.83,2.83,0,0,1-1.86.61,3.12,3.12,0,0,1-1.49-.35,2.47,2.47,0,0,1-1-1,3.1,3.1,0,0,1-.37-1.56,3.21,3.21,0,0,1,.36-1.56,2.57,2.57,0,0,1,1-1,3.08,3.08,0,0,1,1.5-.35A2.83,2.83,0,0,1,299.84,686.35Z"/><path d="M301.82,683.53a1.13,1.13,0,0,1,.76-.26,1.09,1.09,0,0,1,.76.26.88.88,0,0,1,.29.67.86.86,0,0,1-.29.65,1.09,1.09,0,0,1-.76.26,1.13,1.13,0,0,1-.76-.26.85.85,0,0,1-.28-.65A.88.88,0,0,1,301.82,683.53Zm1.64,2.28v5.73H301.7v-5.73Z"/><path d="M309.87,686.4a2.63,2.63,0,0,1,.58,1.81v3.33h-1.76v-3.12a1.25,1.25,0,0,0-.3-.9,1,1,0,0,0-.81-.33,1.11,1.11,0,0,0-.84.34,1.38,1.38,0,0,0-.32,1v3h-1.75v-5.73h1.75v1.05a1.9,1.9,0,0,1,.74-.82,2.19,2.19,0,0,1,1.14-.29A2,2,0,0,1,309.87,686.4Z"/><path d="M314.91,686a1.78,1.78,0,0,1,.7.81v-1h1.75v5.7a3.24,3.24,0,0,1-.31,1.44,2.31,2.31,0,0,1-.94,1,3.12,3.12,0,0,1-1.59.38,3.2,3.2,0,0,1-2.06-.61,2.47,2.47,0,0,1-.93-1.66h1.73a.9.9,0,0,0,.38.55,1.34,1.34,0,0,0,.76.19,1.23,1.23,0,0,0,.88-.31,1.32,1.32,0,0,0,.33-1v-1a1.78,1.78,0,0,1-.7.81,2,2,0,0,1-1.13.3,2.34,2.34,0,0,1-1.26-.35,2.44,2.44,0,0,1-.89-1,4,4,0,0,1,0-3.12,2.47,2.47,0,0,1,.89-1,2.26,2.26,0,0,1,1.26-.35A2.13,2.13,0,0,1,314.91,686Zm-1.47,1.62a1.41,1.41,0,0,0-.34,1,1.46,1.46,0,0,0,.34,1,1.17,1.17,0,0,0,.91.37,1.21,1.21,0,0,0,.91-.38,1.66,1.66,0,0,0,0-2,1.2,1.2,0,0,0-.91-.37A1.17,1.17,0,0,0,313.44,687.65Z"/><path d="M259.52,702.53H256.8l-.45,1.33H254.5l2.66-7.21h2l2.66,7.21H260Zm-.45-1.33-.91-2.67-.91,2.67Z"/><path d="M267.36,698.41a2.45,2.45,0,0,1,.88,1,4,4,0,0,1,0,3.12,2.42,2.42,0,0,1-.88,1,2.38,2.38,0,0,1-1.27.35,2.07,2.07,0,0,1-1.13-.3,1.82,1.82,0,0,1-.69-.81v3.77h-1.75v-8.46h1.75v1a1.72,1.72,0,0,1,.69-.81,2.07,2.07,0,0,1,1.13-.3A2.38,2.38,0,0,1,267.36,698.41ZM264.62,700a1.62,1.62,0,0,0,0,2,1.29,1.29,0,0,0,1.82,0,1.5,1.5,0,0,0,.34-1,1.48,1.48,0,0,0-.34-1,1.3,1.3,0,0,0-1.82,0Z"/><path d="M274.32,698.41a2.45,2.45,0,0,1,.88,1,3.85,3.85,0,0,1,0,3.12,2.42,2.42,0,0,1-.88,1,2.38,2.38,0,0,1-1.27.35,2.07,2.07,0,0,1-1.13-.3,1.82,1.82,0,0,1-.69-.81v3.77h-1.75v-8.46h1.75v1a1.72,1.72,0,0,1,.69-.81,2.07,2.07,0,0,1,1.13-.3A2.38,2.38,0,0,1,274.32,698.41ZM271.58,700a1.66,1.66,0,0,0,0,2,1.29,1.29,0,0,0,1.82,0,1.46,1.46,0,0,0,.34-1,1.43,1.43,0,0,0-.34-1,1.3,1.3,0,0,0-1.82,0Z"/><path d="M279,698.38a2.14,2.14,0,0,1,1.13-.31V700h-.5a1.81,1.81,0,0,0-1.09.29,1.23,1.23,0,0,0-.38,1v2.61h-1.76v-5.73h1.76v1.08A2.47,2.47,0,0,1,279,698.38Z"/><path d="M285.11,698.41a2.67,2.67,0,0,1,1.06,1,3.06,3.06,0,0,1,.39,1.56,3,3,0,0,1-.39,1.56,2.63,2.63,0,0,1-1.06,1,3.27,3.27,0,0,1-1.52.35,3.32,3.32,0,0,1-1.53-.35,2.57,2.57,0,0,1-1.06-1,3,3,0,0,1-.39-1.56,3.06,3.06,0,0,1,.39-1.56,2.6,2.6,0,0,1,1.06-1,3.32,3.32,0,0,1,1.53-.35A3.27,3.27,0,0,1,285.11,698.41Zm-2.37,1.53a1.48,1.48,0,0,0-.34,1,1.46,1.46,0,0,0,.34,1,1.17,1.17,0,0,0,1.69,0,1.46,1.46,0,0,0,.34-1,1.48,1.48,0,0,0-.34-1,1.17,1.17,0,0,0-1.69,0Z"/><path d="M290.12,702.14l1.24-4h1.87l-2,5.73H289l-2-5.73h1.86Z"/><path d="M297.26,698.36a1.68,1.68,0,0,1,.7.81v-1h1.75v5.73H298v-1a1.78,1.78,0,0,1-.7.81,2,2,0,0,1-1.13.3,2.34,2.34,0,0,1-1.26-.35,2.44,2.44,0,0,1-.89-1,4,4,0,0,1,0-3.12,2.47,2.47,0,0,1,.89-1,2.34,2.34,0,0,1,1.26-.35A2,2,0,0,1,297.26,698.36ZM295.79,700a1.43,1.43,0,0,0-.34,1,1.46,1.46,0,0,0,.34,1,1.17,1.17,0,0,0,.91.37,1.21,1.21,0,0,0,.91-.38,1.66,1.66,0,0,0,0-2,1.2,1.2,0,0,0-.91-.37A1.17,1.17,0,0,0,295.79,700Z"/><path d="M302.68,696.26v7.6h-1.76v-7.6Z"/><path d="M254.75,712.55v-.65h1.55v5.43h-.74v-4.78Z"/><path d="M261.72,714.21v.59h-3.08v-.59Z"/><path d="M267.65,711.93a1.42,1.42,0,0,1,.57.51,1.5,1.5,0,0,1,.19.73,1.27,1.27,0,0,1-.3.86,1.31,1.31,0,0,1-.86.42v0a2,2,0,0,1,.92.48,1.15,1.15,0,0,1,.34.89,1.45,1.45,0,0,1-.45,1.1,1.8,1.8,0,0,1-1.28.42,2,2,0,0,1-1.36-.44,1.81,1.81,0,0,1-.61-1.27h.69a1.25,1.25,0,0,0,.39.81,1.2,1.2,0,0,0,.86.3,1.11,1.11,0,0,0,.8-.27.9.9,0,0,0,.27-.69.88.88,0,0,0-.39-.77,2,2,0,0,0-1.13-.27h-.19v-.58h.19c.94,0,1.42-.32,1.42-1a.84.84,0,0,0-.27-.66,1,1,0,0,0-.72-.25,1.09,1.09,0,0,0-1.15,1h-.68a1.73,1.73,0,0,1,.53-1.21,1.89,1.89,0,0,1,1.32-.43A2.09,2.09,0,0,1,267.65,711.93Z"/><path d="M274.22,713.35a1.69,1.69,0,0,1,.6.83v-2.55h.7v5.7h-.7v-1.08a1.66,1.66,0,0,1-.6.82,1.71,1.71,0,0,1-1,.31,2,2,0,0,1-1-.26,1.92,1.92,0,0,1-.69-.75,2.79,2.79,0,0,1,0-2.31,1.8,1.8,0,0,1,.69-.75,1.91,1.91,0,0,1,1-.27A1.78,1.78,0,0,1,274.22,713.35Zm-1.88.73a1.85,1.85,0,0,0,0,2.27,1.33,1.33,0,0,0,1,.41,1.43,1.43,0,0,0,.74-.19,1.33,1.33,0,0,0,.51-.54,1.84,1.84,0,0,0,0-1.63,1.21,1.21,0,0,0-.51-.54,1.43,1.43,0,0,0-.74-.19A1.33,1.33,0,0,0,272.34,714.08Z"/><path d="M279.41,713.35a1.69,1.69,0,0,1,.6.83V713.1h.7v4.23H280v-1.08a1.66,1.66,0,0,1-.6.82,1.71,1.71,0,0,1-1,.31,2,2,0,0,1-1-.26,1.83,1.83,0,0,1-.68-.75,2.79,2.79,0,0,1,0-2.31,1.71,1.71,0,0,1,.68-.75,1.91,1.91,0,0,1,1-.27A1.78,1.78,0,0,1,279.41,713.35Zm-1.88.73a1.85,1.85,0,0,0,0,2.27,1.33,1.33,0,0,0,1,.41,1.43,1.43,0,0,0,.74-.19,1.33,1.33,0,0,0,.51-.54,1.84,1.84,0,0,0,0-1.63,1.21,1.21,0,0,0-.51-.54,1.43,1.43,0,0,0-.74-.19A1.33,1.33,0,0,0,277.53,714.08Z"/><path d="M282.12,713.1l1.37,3.32,1.27-3.32h.78L283,719.33h-.79l.88-2.07-1.78-4.16Z"/><path d="M288.65,713.42a1.56,1.56,0,0,1,.53,1h-.67a1,1,0,0,0-.31-.62,1,1,0,0,0-.72-.24.9.9,0,0,0-.59.18.61.61,0,0,0-.21.49.51.51,0,0,0,.14.37,1,1,0,0,0,.36.22c.14,0,.33.1.58.16a4.81,4.81,0,0,1,.76.22,1.14,1.14,0,0,1,.49.35,1,1,0,0,1,.21.67,1.05,1.05,0,0,1-.39.84,1.61,1.61,0,0,1-1,.32,2,2,0,0,1-1.23-.36,1.42,1.42,0,0,1-.56-1h.67a.88.88,0,0,0,.34.62,1.21,1.21,0,0,0,.78.24.85.85,0,0,0,.57-.18.66.66,0,0,0,.2-.49.53.53,0,0,0-.15-.39.81.81,0,0,0-.36-.22,4.06,4.06,0,0,0-.59-.17,6.18,6.18,0,0,1-.75-.21,1.11,1.11,0,0,1-.48-.35.93.93,0,0,1-.19-.63,1.08,1.08,0,0,1,.39-.86,1.61,1.61,0,0,1,1.07-.33A1.7,1.7,0,0,1,288.65,713.42Z"/><path d="M31.45,254.23a2,2,0,0,1,.83.72,1.93,1.93,0,0,1,.28,1,1.73,1.73,0,0,1-.36,1.14,1.68,1.68,0,0,1-.91.54v.05a1.76,1.76,0,0,1,1.4,1.76,2.16,2.16,0,0,1-.28,1.11,1.94,1.94,0,0,1-.84.76,3.48,3.48,0,0,1-3.31-.34,2.48,2.48,0,0,1-.79-1.88h1.71a1.2,1.2,0,0,0,.27.76.92.92,0,0,0,.72.28.81.81,0,0,0,.6-.23.8.8,0,0,0,.22-.59c0-.59-.43-.89-1.29-.89h-.33V257h.32c.77,0,1.16-.26,1.16-.83a.79.79,0,0,0-.2-.57.77.77,0,0,0-.54-.2.72.72,0,0,0-.59.25,1.16,1.16,0,0,0-.25.68H27.56a2.41,2.41,0,0,1,.72-1.77,2.65,2.65,0,0,1,1.87-.62A3,3,0,0,1,31.45,254.23Z"/><path d="M35.37,259.8v1.75H33.56V259.8Z"/><path d="M43.73,259h-4a1.29,1.29,0,0,0,.33.93,1.06,1.06,0,0,0,.76.29,1,1,0,0,0,.64-.2.91.91,0,0,0,.34-.5h1.86a2.42,2.42,0,0,1-.49,1.08,2.67,2.67,0,0,1-1,.75,3.33,3.33,0,0,1-2.8-.08,2.63,2.63,0,0,1-1-1,3.27,3.27,0,0,1-.37-1.56,3.22,3.22,0,0,1,.37-1.57,2.51,2.51,0,0,1,1-1,3.19,3.19,0,0,1,1.5-.35,3.13,3.13,0,0,1,1.5.35,2.48,2.48,0,0,1,1,1,2.86,2.86,0,0,1,.35,1.45A2,2,0,0,1,43.73,259Zm-2-1.58a1.07,1.07,0,0,0-.77-.28,1.15,1.15,0,0,0-.8.28,1.26,1.26,0,0,0-.36.84H42A1.07,1.07,0,0,0,41.7,257.42Z"/><path d="M46.45,259v2.55H44.7v-7.26h2.84a2.79,2.79,0,0,1,2,.64,2.29,2.29,0,0,1,.68,1.73,2.39,2.39,0,0,1-.3,1.21,2.08,2.08,0,0,1-.9.83,3.2,3.2,0,0,1-1.45.3Zm1.95-2.34c0-.63-.35-1-1-1h-.9v1.89h.9C48.05,257.6,48.4,257.29,48.4,256.66Z"/><path d="M56.37,254.66A3.56,3.56,0,0,1,57.69,256a3.83,3.83,0,0,1,.48,1.92,3.76,3.76,0,0,1-.49,1.92,3.58,3.58,0,0,1-1.32,1.33,3.9,3.9,0,0,1-3.71,0,3.61,3.61,0,0,1-1.33-1.33,4.08,4.08,0,0,1,0-3.84,3.51,3.51,0,0,1,1.33-1.32,3.84,3.84,0,0,1,3.72,0Zm-3.24,1.71a2.18,2.18,0,0,0-.51,1.53,2.2,2.2,0,0,0,.51,1.52,2,2,0,0,0,2.74,0,2.2,2.2,0,0,0,.51-1.52,2.17,2.17,0,0,0-.51-1.52,1.74,1.74,0,0,0-1.37-.57A1.78,1.78,0,0,0,53.13,256.37Z"/><path d="M65.23,259.8a3.28,3.28,0,0,1-1.32,1.29,4.14,4.14,0,0,1-2,.46H59.15v-7.26H61.9a4.27,4.27,0,0,1,2,.45A3.17,3.17,0,0,1,65.23,256a3.83,3.83,0,0,1,.45,1.89A3.88,3.88,0,0,1,65.23,259.8Zm-1.89-.36a2,2,0,0,0,.57-1.53,2,2,0,0,0-.57-1.53,2.19,2.19,0,0,0-1.6-.55h-.83V260h.83A2.23,2.23,0,0,0,63.34,259.44Z"/><path d="M73.18,256.36a2.72,2.72,0,0,1,.94,1.68H72.27a1,1,0,0,0-.34-.58,1,1,0,0,0-.65-.2.94.94,0,0,0-.76.36,1.66,1.66,0,0,0-.3,1.07,1.63,1.63,0,0,0,.3,1.06.94.94,0,0,0,.76.36,1,1,0,0,0,.65-.2,1,1,0,0,0,.34-.58h1.85a2.69,2.69,0,0,1-.94,1.68,2.83,2.83,0,0,1-1.86.61,3,3,0,0,1-1.49-.35,2.51,2.51,0,0,1-1-1,3.16,3.16,0,0,1-.37-1.56,3.22,3.22,0,0,1,.36-1.57,2.51,2.51,0,0,1,1-1,3.19,3.19,0,0,1,1.5-.35A2.83,2.83,0,0,1,73.18,256.36Z"/><path d="M79.24,256.1a2.63,2.63,0,0,1,1.06,1,3,3,0,0,1,.39,1.56,3.06,3.06,0,0,1-.39,1.56,2.67,2.67,0,0,1-1.06,1,3.16,3.16,0,0,1-1.52.35,3.2,3.2,0,0,1-1.53-.35,2.6,2.6,0,0,1-1.06-1,3.06,3.06,0,0,1-.39-1.56,3,3,0,0,1,.39-1.56,2.57,2.57,0,0,1,1.06-1,3.32,3.32,0,0,1,1.53-.35A3.27,3.27,0,0,1,79.24,256.1Zm-2.37,1.53a1.5,1.5,0,0,0-.34,1.06,1.45,1.45,0,0,0,.34,1,1.17,1.17,0,0,0,1.69,0,1.45,1.45,0,0,0,.34-1,1.5,1.5,0,0,0-.34-1.06,1.17,1.17,0,0,0-1.69,0Z"/><path d="M86.8,256.42a2.6,2.6,0,0,1,.58,1.8v3.33H85.62v-3.12a1.29,1.29,0,0,0-.3-.9,1.06,1.06,0,0,0-.8-.32,1.09,1.09,0,0,0-.85.34,1.34,1.34,0,0,0-.31,1v3H81.6v-5.73h1.76v1.05a1.84,1.84,0,0,1,.73-.81,2.13,2.13,0,0,1,1.14-.3A2,2,0,0,1,86.8,256.42Z"/><path d="M91.35,255a.85.85,0,0,0-.62.19.87.87,0,0,0-.22.59h1v1.48h-1v4.25H88.76V257.3h-.69v-1.48h.69v-.06a2.13,2.13,0,0,1,.62-1.65,2.51,2.51,0,0,1,1.8-.58h.37v1.51Z"/><path d="M92.44,253.55a1.06,1.06,0,0,1,.76-.26,1,1,0,0,1,.76.26.88.88,0,0,1,0,1.31,1,1,0,0,1-.76.26,1.06,1.06,0,0,1-.76-.26.88.88,0,0,1,0-1.31Zm1.64,2.27v5.73H92.32v-5.73Z"/><path d="M97.89,256.07a2.1,2.1,0,0,1,1.12-.31v1.88h-.5a1.69,1.69,0,0,0-1.08.3,1.17,1.17,0,0,0-.39,1v2.61H95.29v-5.73H97v1.08A2.41,2.41,0,0,1,97.89,256.07Z"/><path d="M108.84,256.41a2.59,2.59,0,0,1,.61,1.81v3.33H107.7v-3.12a1.2,1.2,0,0,0-.29-.85,1.21,1.21,0,0,0-1.62,0,1.26,1.26,0,0,0-.31.91v3h-1.75v-3.12a1.2,1.2,0,0,0-.29-.85,1,1,0,0,0-.79-.3,1.1,1.1,0,0,0-.83.32,1.23,1.23,0,0,0-.31.91v3H99.75v-5.73h1.76v1a1.64,1.64,0,0,1,.69-.76,2.07,2.07,0,0,1,1.1-.28,2.25,2.25,0,0,1,1.16.3,2,2,0,0,1,.76.87,2.23,2.23,0,0,1,2-1.17A2.17,2.17,0,0,1,108.84,256.41Z"/><path d="M116,259h-4a1.29,1.29,0,0,0,.33.93,1.15,1.15,0,0,0,1.41.09,1,1,0,0,0,.34-.5H116a2.43,2.43,0,0,1-.5,1.08,2.55,2.55,0,0,1-1,.75,3.1,3.1,0,0,1-1.31.27,3,3,0,0,1-1.49-.35,2.63,2.63,0,0,1-1-1,3.16,3.16,0,0,1-.37-1.56,3.22,3.22,0,0,1,.36-1.57,2.59,2.59,0,0,1,1-1,3.37,3.37,0,0,1,3,0,2.42,2.42,0,0,1,1,1,2.86,2.86,0,0,1,.36,1.45A2.69,2.69,0,0,1,116,259Zm-2-1.58a1.12,1.12,0,0,0-.78-.28,1.17,1.17,0,0,0-.8.28,1.26,1.26,0,0,0-.36.84h2.24A1,1,0,0,0,114,257.42Z"/><path d="M120.28,256.05a1.82,1.82,0,0,1,.69.81V254h1.75v7.6H121v-1a1.79,1.79,0,0,1-.69.82,2.16,2.16,0,0,1-1.13.29,2.29,2.29,0,0,1-1.27-.35,2.45,2.45,0,0,1-.88-1,3.51,3.51,0,0,1-.33-1.56,3.46,3.46,0,0,1,.33-1.57,2.45,2.45,0,0,1,.88-1,2.38,2.38,0,0,1,1.27-.35A2.07,2.07,0,0,1,120.28,256.05Zm-1.47,1.61a1.46,1.46,0,0,0-.35,1,1.43,1.43,0,0,0,.35,1,1.28,1.28,0,0,0,1.81,0,1.4,1.4,0,0,0,.36-1,1.44,1.44,0,0,0-.36-1,1.18,1.18,0,0,0-.91-.37A1.15,1.15,0,0,0,118.81,257.66Z"/><path d="M48.21,270.25a2.48,2.48,0,0,1,.89,1.34h-.74a1.79,1.79,0,0,0-.67-.86,1.88,1.88,0,0,0-1.13-.32,1.7,1.7,0,0,0-1,.26,1.74,1.74,0,0,0-.66.73,2.41,2.41,0,0,0-.25,1.13,2.34,2.34,0,0,0,.25,1.12,1.74,1.74,0,0,0,.66.73,1.7,1.7,0,0,0,1,.26,1.88,1.88,0,0,0,1.13-.32,1.79,1.79,0,0,0,.67-.86h.74a2.48,2.48,0,0,1-.89,1.34,2.89,2.89,0,0,1-3,.14,2.33,2.33,0,0,1-.91-1,3,3,0,0,1-.33-1.43,3.06,3.06,0,0,1,.33-1.44,2.33,2.33,0,0,1,.91-1,2.89,2.89,0,0,1,3,.14Z"/><path d="M53.05,271.22a1.89,1.89,0,0,1,.75.76,2.36,2.36,0,0,1,.28,1.15,2.33,2.33,0,0,1-.28,1.15,1.89,1.89,0,0,1-.75.76,2.31,2.31,0,0,1-1.09.26,2.28,2.28,0,0,1-1.09-.26,1.92,1.92,0,0,1-.76-.76,2.23,2.23,0,0,1-.28-1.15,2.25,2.25,0,0,1,.28-1.15,1.92,1.92,0,0,1,.76-.76A2.28,2.28,0,0,1,52,271,2.31,2.31,0,0,1,53.05,271.22Zm-1.79.53a1.3,1.3,0,0,0-.52.52,2,2,0,0,0,0,1.72,1.3,1.3,0,0,0,.52.52,1.4,1.4,0,0,0,.7.17,1.36,1.36,0,0,0,.69-.17,1.19,1.19,0,0,0,.52-.52,1.95,1.95,0,0,0,0-1.72,1.19,1.19,0,0,0-.52-.52,1.36,1.36,0,0,0-.69-.17A1.4,1.4,0,0,0,51.26,271.75Z"/><path d="M58.41,271.42a1.92,1.92,0,0,1,.45,1.37v2.45h-.7v-2.39a1.32,1.32,0,0,0-.32-1,1.15,1.15,0,0,0-.88-.34,1.19,1.19,0,0,0-.92.37,1.55,1.55,0,0,0-.35,1.09v2.24H55V271h.7v1a1.45,1.45,0,0,1,.58-.8,1.68,1.68,0,0,1,.95-.27A1.55,1.55,0,0,1,58.41,271.42Z"/><path d="M62.42,271.34a1.58,1.58,0,0,1,.53,1h-.67a1,1,0,0,0-.32-.62,1,1,0,0,0-.71-.24.89.89,0,0,0-.59.18.61.61,0,0,0-.21.49.51.51,0,0,0,.14.37,1,1,0,0,0,.36.22,4.27,4.27,0,0,0,.58.15c.31.08.57.15.76.22a1.33,1.33,0,0,1,.49.36,1,1,0,0,1,.2.66,1,1,0,0,1-.38.84,1.56,1.56,0,0,1-1,.33,2,2,0,0,1-1.23-.36,1.43,1.43,0,0,1-.56-1h.67a.9.9,0,0,0,.34.62,1.21,1.21,0,0,0,.78.24.8.8,0,0,0,.57-.19.63.63,0,0,0,.2-.48.5.5,0,0,0-.15-.39.83.83,0,0,0-.36-.23c-.14-.05-.34-.1-.59-.16a6.18,6.18,0,0,1-.75-.21,1.2,1.2,0,0,1-.48-.35,1,1,0,0,1-.2-.63,1.07,1.07,0,0,1,.4-.86,1.61,1.61,0,0,1,1.07-.33A1.7,1.7,0,0,1,62.42,271.34Z"/><path d="M63.93,269.46a.5.5,0,0,1,.35-.12.51.51,0,0,1,.35.12.44.44,0,0,1,.13.32.44.44,0,0,1-.13.31.51.51,0,0,1-.35.12.5.5,0,0,1-.35-.12.4.4,0,0,1-.13-.31A.41.41,0,0,1,63.93,269.46Zm.7,1.56v4.22h-.71V271Z"/><path d="M68.53,271.27a1.59,1.59,0,0,1,.59.82V271h.7v4.29a2.19,2.19,0,0,1-.24,1,1.77,1.77,0,0,1-.7.71,2,2,0,0,1-1,.25,2.19,2.19,0,0,1-1.39-.41,1.81,1.81,0,0,1-.69-1.11h.7a1.27,1.27,0,0,0,.46.67,1.53,1.53,0,0,0,.89.24,1.27,1.27,0,0,0,.94-.37,1.35,1.35,0,0,0,.37-1v-1.14a1.63,1.63,0,0,1-.59.82,1.81,1.81,0,0,1-1,.31,2,2,0,0,1-1-.26,1.89,1.89,0,0,1-.69-.76,2.44,2.44,0,0,1-.25-1.15,2.47,2.47,0,0,1,.25-1.15,1.89,1.89,0,0,1,.69-.76,2,2,0,0,1,1-.26A1.74,1.74,0,0,1,68.53,271.27Zm-1.88.73a1.57,1.57,0,0,0-.39,1.13,1.59,1.59,0,0,0,.39,1.14,1.36,1.36,0,0,0,1,.41,1.44,1.44,0,0,0,.75-.19,1.47,1.47,0,0,0,.51-.54,1.8,1.8,0,0,0,.18-.82,1.76,1.76,0,0,0-.18-.81,1.43,1.43,0,0,0-.51-.55,1.54,1.54,0,0,0-.75-.18A1.33,1.33,0,0,0,66.65,272Z"/><path d="M74.36,271.42a1.92,1.92,0,0,1,.45,1.37v2.45h-.7v-2.39a1.37,1.37,0,0,0-.32-1,1.15,1.15,0,0,0-.88-.34,1.19,1.19,0,0,0-.92.37,1.55,1.55,0,0,0-.35,1.09v2.24h-.7V271h.7v1a1.48,1.48,0,0,1,.57-.8,1.74,1.74,0,0,1,1-.27A1.55,1.55,0,0,1,74.36,271.42Z"/><path d="M79.75,273.28H76.37a1.49,1.49,0,0,0,.41,1.09,1.36,1.36,0,0,0,1,.36,1.39,1.39,0,0,0,.85-.26,1,1,0,0,0,.42-.69h.75a1.92,1.92,0,0,1-.34.79,1.73,1.73,0,0,1-.69.53,2.39,2.39,0,0,1-2-.06,1.91,1.91,0,0,1-.73-.76,2.33,2.33,0,0,1-.27-1.15A2.35,2.35,0,0,1,76,272a1.91,1.91,0,0,1,.73-.76,2.27,2.27,0,0,1,1.08-.26,2.21,2.21,0,0,1,1.08.26,1.88,1.88,0,0,1,.7.7,2,2,0,0,1,.24,1A2.21,2.21,0,0,1,79.75,273.28Zm-.83-1.12a1.06,1.06,0,0,0-.49-.47,1.49,1.49,0,0,0-1.64.2,1.45,1.45,0,0,0-.42,1.05h2.7A1.37,1.37,0,0,0,78.92,272.16Z"/><path d="M84.56,273.28H81.17a1.53,1.53,0,0,0,.42,1.09,1.34,1.34,0,0,0,1,.36,1.39,1.39,0,0,0,.85-.26,1,1,0,0,0,.42-.69h.75a1.94,1.94,0,0,1-.35.79,1.6,1.6,0,0,1-.69.53,2.24,2.24,0,0,1-1,.2,2.21,2.21,0,0,1-1.08-.26,1.93,1.93,0,0,1-.74-.76,2.44,2.44,0,0,1-.26-1.15,2.47,2.47,0,0,1,.26-1.15,1.93,1.93,0,0,1,.74-.76,2.21,2.21,0,0,1,1.08-.26,2.15,2.15,0,0,1,1.07.26,1.81,1.81,0,0,1,.7.7,2,2,0,0,1,.25,1A2.21,2.21,0,0,1,84.56,273.28Zm-.84-1.12a1,1,0,0,0-.48-.47,1.41,1.41,0,0,0-.67-.16,1.37,1.37,0,0,0-1,.36,1.45,1.45,0,0,0-.43,1.05h2.71A1.45,1.45,0,0,0,83.72,272.16Z"/><path d="M89.88,271.34a1.54,1.54,0,0,1,.53,1h-.67a1,1,0,0,0-.31-.62,1,1,0,0,0-.72-.24.9.9,0,0,0-.59.18.61.61,0,0,0-.21.49.48.48,0,0,0,.15.37.84.84,0,0,0,.35.22,4.27,4.27,0,0,0,.58.15c.31.08.57.15.76.22a1.25,1.25,0,0,1,.49.36,1,1,0,0,1,.21.66,1,1,0,0,1-.39.84,1.56,1.56,0,0,1-1,.33,2,2,0,0,1-1.23-.36,1.43,1.43,0,0,1-.56-1h.67a.9.9,0,0,0,.34.62,1.21,1.21,0,0,0,.78.24.8.8,0,0,0,.57-.19.63.63,0,0,0,.2-.48.53.53,0,0,0-.14-.39.93.93,0,0,0-.37-.23c-.14-.05-.34-.1-.59-.16a6.18,6.18,0,0,1-.75-.21,1.2,1.2,0,0,1-.48-.35,1,1,0,0,1-.19-.63,1.06,1.06,0,0,1,.39-.86,1.61,1.61,0,0,1,1.07-.33A1.7,1.7,0,0,1,89.88,271.34Z"/><path d="M91.39,269.46a.57.57,0,0,1,.7,0,.44.44,0,0,1,.13.32.44.44,0,0,1-.13.31.57.57,0,0,1-.7,0,.44.44,0,0,1-.13-.31A.44.44,0,0,1,91.39,269.46Zm.7,1.56v4.22h-.7V271Z"/><path d="M96,271.27a1.59,1.59,0,0,1,.59.82V271h.71v4.29a2.19,2.19,0,0,1-.25,1,1.81,1.81,0,0,1-.69.71,2.08,2.08,0,0,1-1,.25,2.22,2.22,0,0,1-1.4-.41,1.75,1.75,0,0,1-.68-1.11h.69a1.24,1.24,0,0,0,.47.67,1.48,1.48,0,0,0,.88.24,1.27,1.27,0,0,0,.94-.37,1.35,1.35,0,0,0,.37-1v-1.14A1.63,1.63,0,0,1,96,275a1.81,1.81,0,0,1-1,.31,2,2,0,0,1-1-.26,1.89,1.89,0,0,1-.69-.76,2.57,2.57,0,0,1-.25-1.15,2.6,2.6,0,0,1,.25-1.15,1.89,1.89,0,0,1,.69-.76,2,2,0,0,1,1-.26A1.74,1.74,0,0,1,96,271.27Zm-1.88.73a1.57,1.57,0,0,0-.39,1.13,1.59,1.59,0,0,0,.39,1.14,1.36,1.36,0,0,0,1,.41,1.44,1.44,0,0,0,.75-.19,1.33,1.33,0,0,0,.51-.54,1.8,1.8,0,0,0,.18-.82,1.76,1.76,0,0,0-.18-.81,1.29,1.29,0,0,0-.51-.55,1.54,1.54,0,0,0-.75-.18A1.33,1.33,0,0,0,94.11,272Z"/><path d="M101.82,271.42a1.92,1.92,0,0,1,.45,1.37v2.45h-.7v-2.39a1.32,1.32,0,0,0-.32-1,1.14,1.14,0,0,0-.88-.34,1.19,1.19,0,0,0-.92.37A1.55,1.55,0,0,0,99.1,273v2.24h-.7V271h.7v1a1.45,1.45,0,0,1,.58-.8,1.68,1.68,0,0,1,.95-.27A1.55,1.55,0,0,1,101.82,271.42Z"/><path d="M105.83,271.34a1.58,1.58,0,0,1,.53,1h-.67a1,1,0,0,0-.32-.62,1,1,0,0,0-.71-.24.89.89,0,0,0-.59.18.61.61,0,0,0-.21.49.51.51,0,0,0,.14.37,1,1,0,0,0,.36.22,4.27,4.27,0,0,0,.58.15c.31.08.57.15.76.22a1.33,1.33,0,0,1,.49.36,1,1,0,0,1,.21.66,1,1,0,0,1-.39.84,1.56,1.56,0,0,1-1,.33,2,2,0,0,1-1.23-.36,1.43,1.43,0,0,1-.56-1h.67a.9.9,0,0,0,.34.62,1.21,1.21,0,0,0,.78.24.8.8,0,0,0,.57-.19.63.63,0,0,0,.2-.48.5.5,0,0,0-.15-.39.83.83,0,0,0-.36-.23c-.14-.05-.34-.1-.59-.16a6.18,6.18,0,0,1-.75-.21,1.2,1.2,0,0,1-.48-.35,1,1,0,0,1-.2-.63,1.07,1.07,0,0,1,.4-.86,1.61,1.61,0,0,1,1.07-.33A1.7,1.7,0,0,1,105.83,271.34Z"/><path d="M58.46,284.48l-1.19-1.3a.93.93,0,0,1-.05.3,1.18,1.18,0,0,1-.45.77,1.42,1.42,0,0,1-.89.29,1.7,1.7,0,0,1-.85-.21,1.39,1.39,0,0,1-.58-.57,1.64,1.64,0,0,1-.21-.84,1.81,1.81,0,0,1,.19-.83,1.34,1.34,0,0,1,1.21-.71l.17,0-.12-.15a2.69,2.69,0,0,1-.33-.5,1.31,1.31,0,0,1-.11-.55,1.24,1.24,0,0,1,.16-.59,1.18,1.18,0,0,1,.47-.44,1.64,1.64,0,0,1,.76-.17,1.41,1.41,0,0,1,1,.33,1.3,1.3,0,0,1,.41.83,1.41,1.41,0,0,1,0,.35.41.41,0,0,1,0,.12h-.66a.28.28,0,0,0,0-.13v-.1a.82.82,0,0,0-.22-.6.75.75,0,0,0-.57-.21.69.69,0,0,0-.54.2.65.65,0,0,0-.19.48.86.86,0,0,0,.08.41,2.43,2.43,0,0,0,.29.4l2.88,3.4Zm-1.89-.81a1,1,0,0,0,.12-1.23,1,1,0,0,0-.4-.37.94.94,0,0,0-.51-.14.89.89,0,0,0-.66.25,1,1,0,0,0-.26.73,1,1,0,0,0,.29.75,1.05,1.05,0,0,0,.73.28A.93.93,0,0,0,56.57,283.67Z"/><path d="M63.33,283.74l1.31-3.48h.76l-1.66,4.22h-.83l-1.66-4.22H62Z"/><path d="M68.86,280.51a1.61,1.61,0,0,1,.59.83v-1.08h.7v4.22h-.7v-1.07a1.59,1.59,0,0,1-.59.82,1.74,1.74,0,0,1-1,.31,2,2,0,0,1-1-.26,1.92,1.92,0,0,1-.69-.75,2.79,2.79,0,0,1,0-2.31,1.8,1.8,0,0,1,.69-.75,1.87,1.87,0,0,1,1-.27A1.81,1.81,0,0,1,68.86,280.51Zm-1.88.73a1.85,1.85,0,0,0,0,2.27,1.33,1.33,0,0,0,1,.41,1.44,1.44,0,0,0,.75-.19,1.4,1.4,0,0,0,.51-.54,1.8,1.8,0,0,0,.18-.82,1.76,1.76,0,0,0-.18-.81,1.36,1.36,0,0,0-.51-.55,1.54,1.54,0,0,0-.75-.18A1.33,1.33,0,0,0,67,281.24Z"/><path d="M72,278.79v5.69h-.7v-5.69Z"/><path d="M73.1,278.71a.57.57,0,0,1,.7,0,.41.41,0,0,1,.13.31.42.42,0,0,1-.13.31.57.57,0,0,1-.7,0A.42.42,0,0,1,73,279,.41.41,0,0,1,73.1,278.71Zm.7,1.55v4.22h-.7v-4.22Z"/><path d="M77.7,280.51a1.61,1.61,0,0,1,.59.83v-2.55H79v5.69h-.71v-1.07a1.59,1.59,0,0,1-.59.82,1.74,1.74,0,0,1-1,.31,2,2,0,0,1-1-.26,1.92,1.92,0,0,1-.69-.75,2.79,2.79,0,0,1,0-2.31,1.8,1.8,0,0,1,.69-.75,1.9,1.9,0,0,1,1-.27A1.81,1.81,0,0,1,77.7,280.51Zm-1.88.73a1.85,1.85,0,0,0,0,2.27,1.33,1.33,0,0,0,1,.41,1.44,1.44,0,0,0,.75-.19,1.33,1.33,0,0,0,.51-.54,1.8,1.8,0,0,0,.18-.82,1.76,1.76,0,0,0-.18-.81,1.29,1.29,0,0,0-.51-.55,1.54,1.54,0,0,0-.75-.18A1.33,1.33,0,0,0,75.82,281.24Z"/><path d="M82.89,280.51a1.61,1.61,0,0,1,.59.83v-1.08h.71v4.22h-.71v-1.07a1.59,1.59,0,0,1-.59.82,1.74,1.74,0,0,1-1,.31,2,2,0,0,1-1-.26,1.92,1.92,0,0,1-.69-.75,2.79,2.79,0,0,1,0-2.31,1.8,1.8,0,0,1,.69-.75,1.9,1.9,0,0,1,1-.27A1.81,1.81,0,0,1,82.89,280.51Zm-1.88.73a1.85,1.85,0,0,0,0,2.27,1.33,1.33,0,0,0,1,.41,1.44,1.44,0,0,0,.75-.19,1.33,1.33,0,0,0,.51-.54,1.8,1.8,0,0,0,.18-.82,1.76,1.76,0,0,0-.18-.81,1.29,1.29,0,0,0-.51-.55,1.54,1.54,0,0,0-.75-.18A1.33,1.33,0,0,0,81,281.24Z"/><path d="M87.32,283.87v.61H86.8a1.36,1.36,0,0,1-1-.3,1.42,1.42,0,0,1-.32-1v-2.27h-.63v-.61h.63V279.2h.71v1.06h1.09v.61H86.22v2.29a.8.8,0,0,0,.15.56.72.72,0,0,0,.52.15Z"/><path d="M92,282.52H88.65a1.51,1.51,0,0,0,.41,1.09,1.36,1.36,0,0,0,1,.36,1.41,1.41,0,0,0,.85-.26,1.13,1.13,0,0,0,.42-.69H92a1.75,1.75,0,0,1-.34.79,1.85,1.85,0,0,1-.69.54,2.4,2.4,0,0,1-1,.19,2.21,2.21,0,0,1-1.08-.26,1.91,1.91,0,0,1-.74-.75,2.7,2.7,0,0,1,0-2.31,1.78,1.78,0,0,1,.74-.75,2.11,2.11,0,0,1,1.08-.27,2.07,2.07,0,0,1,1.07.27,1.69,1.69,0,0,1,.7.7,2,2,0,0,1,.24,1A2.17,2.17,0,0,1,92,282.52Zm-.83-1.12a1.14,1.14,0,0,0-.48-.47,1.41,1.41,0,0,0-.67-.16,1.37,1.37,0,0,0-1,.36,1.42,1.42,0,0,0-.43,1.05h2.7A1.37,1.37,0,0,0,91.2,281.4Z"/><path d="M95.46,280.58a1.55,1.55,0,0,1,.52,1h-.67A1,1,0,0,0,95,281a1,1,0,0,0-.71-.24.89.89,0,0,0-.59.18.61.61,0,0,0-.21.49.51.51,0,0,0,.14.37A.91.91,0,0,0,94,282l.59.16a4.65,4.65,0,0,1,.75.22,1.17,1.17,0,0,1,.5.35,1.07,1.07,0,0,1,.2.67,1.05,1.05,0,0,1-.39.84,1.59,1.59,0,0,1-1,.32,2,2,0,0,1-1.24-.36,1.49,1.49,0,0,1-.56-1h.68a.9.9,0,0,0,.34.62,1.17,1.17,0,0,0,.78.24.76.76,0,0,0,.56-.19.6.6,0,0,0,.21-.48.51.51,0,0,0-.15-.39,1.11,1.11,0,0,0-.36-.23l-.59-.16a5.91,5.91,0,0,1-.76-.21A1.14,1.14,0,0,1,93,282a.93.93,0,0,1-.2-.63,1.06,1.06,0,0,1,.39-.86,1.63,1.63,0,0,1,1.07-.33A1.72,1.72,0,0,1,95.46,280.58Z"/><path d="M231.31,401.36v-.66h1.56v5.43h-.74v-4.77Z"/><path d="M238.66,402.16a1.55,1.55,0,0,1,.6.82v-2.55h.7v5.7h-.7v-1.08a1.58,1.58,0,0,1-.6.83,1.76,1.76,0,0,1-1,.31,1.87,1.87,0,0,1-1-.27,1.8,1.8,0,0,1-.69-.75,2.77,2.77,0,0,1,0-2.3,1.89,1.89,0,0,1,.69-.76,2,2,0,0,1,1-.26A1.69,1.69,0,0,1,238.66,402.16Zm-1.88.73a1.61,1.61,0,0,0-.38,1.13,1.65,1.65,0,0,0,.38,1.14,1.39,1.39,0,0,0,1,.41,1.48,1.48,0,0,0,.74-.19,1.38,1.38,0,0,0,.52-.55,1.91,1.91,0,0,0,0-1.62,1.38,1.38,0,0,0-.52-.55,1.48,1.48,0,0,0-.74-.19A1.36,1.36,0,0,0,236.78,402.89Z"/><path d="M243.85,402.16a1.55,1.55,0,0,1,.6.82V401.9h.7v4.23h-.7v-1.08a1.58,1.58,0,0,1-.6.83,1.76,1.76,0,0,1-1,.31,1.87,1.87,0,0,1-1-.27,1.8,1.8,0,0,1-.69-.75,2.77,2.77,0,0,1,0-2.3,1.89,1.89,0,0,1,.69-.76,2,2,0,0,1,1-.26A1.69,1.69,0,0,1,243.85,402.16Zm-1.87.73a1.57,1.57,0,0,0-.39,1.13,1.61,1.61,0,0,0,.39,1.14,1.35,1.35,0,0,0,1,.41,1.48,1.48,0,0,0,.74-.19,1.38,1.38,0,0,0,.52-.55,1.91,1.91,0,0,0,0-1.62,1.38,1.38,0,0,0-.52-.55,1.48,1.48,0,0,0-.74-.19A1.32,1.32,0,0,0,242,402.89Z"/><path d="M246.56,401.9l1.37,3.33,1.27-3.33H250l-2.51,6.23h-.79l.87-2.07-1.77-4.16Z"/><path d="M210.65,379.8v-1.47l3.32-4.55h1.89v4.49h.87v1.53h-.87v1.33h-1.78V379.8Zm3.58-4-1.79,2.46h1.79Z"/><path d="M219.22,379.38v1.75H217.4v-1.75Z"/><path d="M227.83,374.47a2.8,2.8,0,0,1,1.1,1.8h-1.86a1.45,1.45,0,0,0-.56-.62,1.79,1.79,0,0,0-.92-.23,1.71,1.71,0,0,0-1.33.56,2.17,2.17,0,0,0-.51,1.52,2.23,2.23,0,0,0,.53,1.59,2,2,0,0,0,1.51.55,1.84,1.84,0,0,0,1.1-.34,1.87,1.87,0,0,0,.66-1h-2.21v-1.26H229v1.73a3.46,3.46,0,0,1-.66,1.18,3.3,3.3,0,0,1-1.15.88,3.63,3.63,0,0,1-1.61.34,3.84,3.84,0,0,1-1.92-.46,3.27,3.27,0,0,1-1.27-1.31,4.41,4.41,0,0,1,0-3.84,3.21,3.21,0,0,1,1.27-1.31,3.77,3.77,0,0,1,1.9-.47A3.6,3.6,0,0,1,227.83,374.47Z"/><path d="M235.4,378.58h-4a1.29,1.29,0,0,0,.32.93,1.15,1.15,0,0,0,1.41.09,1,1,0,0,0,.34-.5h1.86a2.43,2.43,0,0,1-.5,1.08,2.55,2.55,0,0,1-1,.75,3.09,3.09,0,0,1-1.3.27,3.16,3.16,0,0,1-1.5-.35,2.63,2.63,0,0,1-1-1,3.16,3.16,0,0,1-.37-1.56,3.22,3.22,0,0,1,.36-1.57,2.59,2.59,0,0,1,1-1,3.37,3.37,0,0,1,3,0,2.45,2.45,0,0,1,1,1,3,3,0,0,1,.35,1.45A2.69,2.69,0,0,1,235.4,378.58Zm-2-1.58a1.11,1.11,0,0,0-.77-.28,1.18,1.18,0,0,0-.81.28,1.21,1.21,0,0,0-.35.85h2.23A1,1,0,0,0,233.37,377Z"/><path d="M241.56,376a2.62,2.62,0,0,1,.58,1.8v3.33h-1.75V378a1.29,1.29,0,0,0-.3-.9,1.1,1.1,0,0,0-.81-.32,1.09,1.09,0,0,0-.85.34,1.34,1.34,0,0,0-.31,1v3h-1.76V375.4h1.76v1.05a1.9,1.9,0,0,1,.73-.81,2.17,2.17,0,0,1,1.15-.3A2,2,0,0,1,241.56,376Z"/><path d="M248.7,378.58h-4a1.29,1.29,0,0,0,.33.93,1.15,1.15,0,0,0,1.41.09,1,1,0,0,0,.34-.5h1.85a2.42,2.42,0,0,1-.49,1.08,2.55,2.55,0,0,1-1,.75,3.33,3.33,0,0,1-2.8-.08,2.51,2.51,0,0,1-1-1,3.16,3.16,0,0,1-.37-1.56,3.22,3.22,0,0,1,.36-1.57,2.51,2.51,0,0,1,1-1,3.19,3.19,0,0,1,1.5-.35,3.13,3.13,0,0,1,1.5.35,2.42,2.42,0,0,1,1,1,2.86,2.86,0,0,1,.36,1.45A2.69,2.69,0,0,1,248.7,378.58Zm-2-1.58a1.12,1.12,0,0,0-.78-.28,1.15,1.15,0,0,0-.8.28,1.26,1.26,0,0,0-.36.85H247A1,1,0,0,0,246.67,377Z"/><path d="M252.26,375.65a2.14,2.14,0,0,1,1.13-.31v1.88h-.51a1.73,1.73,0,0,0-1.08.3,1.18,1.18,0,0,0-.38,1v2.61h-1.76V375.4h1.76v1.08A2.38,2.38,0,0,1,252.26,375.65Z"/><path d="M257.43,375.63a1.78,1.78,0,0,1,.7.81v-1h1.75v5.73h-1.75v-1a1.75,1.75,0,0,1-.7.82,2.13,2.13,0,0,1-1.13.29,2.34,2.34,0,0,1-1.26-.35,2.47,2.47,0,0,1-.89-1,3.65,3.65,0,0,1-.32-1.56,3.6,3.6,0,0,1,.32-1.57,2.47,2.47,0,0,1,.89-1,2.34,2.34,0,0,1,1.26-.35A2,2,0,0,1,257.43,375.63ZM256,377.24a1.46,1.46,0,0,0-.34,1,1.43,1.43,0,0,0,.34,1,1.29,1.29,0,0,0,1.82,0,1.65,1.65,0,0,0,0-2,1.21,1.21,0,0,0-.91-.38A1.17,1.17,0,0,0,256,377.24Z"/><path d="M264.33,379.62v1.51h-.79a2.22,2.22,0,0,1-1.56-.5,2.07,2.07,0,0,1-.56-1.64v-2.11h-.77V375.4h.77V374h1.75v1.4h1.15v1.48h-1.15V379a.5.5,0,0,0,.61.6Z"/><path d="M270.71,378.58h-4a1.29,1.29,0,0,0,.32.93,1.07,1.07,0,0,0,.76.29,1,1,0,0,0,.65-.2,1,1,0,0,0,.34-.5h1.86a2.53,2.53,0,0,1-.49,1.08,2.67,2.67,0,0,1-1,.75,3.05,3.05,0,0,1-1.3.27,3.16,3.16,0,0,1-1.5-.35,2.63,2.63,0,0,1-1-1,3.16,3.16,0,0,1-.37-1.56,3.12,3.12,0,0,1,.37-1.57,2.51,2.51,0,0,1,1-1,3.13,3.13,0,0,1,1.5-.35,3.19,3.19,0,0,1,1.5.35,2.48,2.48,0,0,1,1,1,3,3,0,0,1,.35,1.45A2.69,2.69,0,0,1,270.71,378.58Zm-2-1.58a1.11,1.11,0,0,0-.77-.28,1.13,1.13,0,0,0-.8.28,1.18,1.18,0,0,0-.36.85H269A1,1,0,0,0,268.68,377Z"/><path d="M218.36,386.19v1.4h-3v1.59h2.3v1.34h-2.3v2.93h-1.76v-7.26Z"/><path d="M221.87,388a2.13,2.13,0,0,1,1.12-.31v1.88h-.5a1.73,1.73,0,0,0-1.08.3,1.19,1.19,0,0,0-.39,1v2.6h-1.75v-5.73H221v1.08A2.59,2.59,0,0,1,221.87,388Z"/><path d="M229.12,390.91h-4a1.33,1.33,0,0,0,.33.93,1.09,1.09,0,0,0,.76.28,1.07,1.07,0,0,0,.65-.2.92.92,0,0,0,.34-.5h1.85a2.37,2.37,0,0,1-.49,1.08,2.55,2.55,0,0,1-1,.75,3.1,3.1,0,0,1-1.31.27,3,3,0,0,1-1.49-.35,2.51,2.51,0,0,1-1-1,3.16,3.16,0,0,1-.37-1.56,3.25,3.25,0,0,1,.36-1.57,2.42,2.42,0,0,1,1-1,3.08,3.08,0,0,1,1.5-.36,3.13,3.13,0,0,1,1.5.35,2.42,2.42,0,0,1,1,1,2.89,2.89,0,0,1,.36,1.45A2.1,2.1,0,0,1,229.12,390.91Zm-2-1.59a1.24,1.24,0,0,0-1.58,0,1.22,1.22,0,0,0-.36.84h2.24A1,1,0,0,0,227.1,389.32Z"/><path d="M230.21,385.45a1.06,1.06,0,0,1,.76-.26,1,1,0,0,1,.76.26.88.88,0,0,1,0,1.31,1.05,1.05,0,0,1-.76.27,1.07,1.07,0,0,1-.76-.27.91.91,0,0,1,0-1.31Zm1.64,2.27v5.73h-1.76v-5.73Z"/><path d="M236.36,388a1.78,1.78,0,0,1,.7.81v-1h1.75v5.7a3.31,3.31,0,0,1-.31,1.44,2.41,2.41,0,0,1-.95,1,3.05,3.05,0,0,1-1.58.38,3.31,3.31,0,0,1-2.07-.61A2.55,2.55,0,0,1,233,394h1.74a.88.88,0,0,0,.38.54,1.32,1.32,0,0,0,.76.2,1.24,1.24,0,0,0,.88-.32,1.32,1.32,0,0,0,.33-1v-1a1.78,1.78,0,0,1-.7.81,2,2,0,0,1-1.13.29,2.26,2.26,0,0,1-1.26-.35,2.47,2.47,0,0,1-.89-1,4,4,0,0,1,0-3.13,2.38,2.38,0,0,1,.89-1,2.26,2.26,0,0,1,1.26-.36A2,2,0,0,1,236.36,388Zm-1.47,1.61a1.73,1.73,0,0,0,0,2.06,1.2,1.2,0,0,0,.91.36,1.17,1.17,0,0,0,.91-.38,1.65,1.65,0,0,0,0-2,1.21,1.21,0,0,0-.91-.38A1.17,1.17,0,0,0,234.89,389.56Z"/><path d="M245.22,388.32a2.63,2.63,0,0,1,.58,1.81v3.32H244v-3.12a1.29,1.29,0,0,0-.3-.9,1.06,1.06,0,0,0-.8-.32,1.09,1.09,0,0,0-.85.34,1.35,1.35,0,0,0-.31,1v3H240v-7.6h1.76v2.92a1.84,1.84,0,0,1,.73-.81,2.13,2.13,0,0,1,1.14-.3A2,2,0,0,1,245.22,388.32Z"/><path d="M250.2,391.94v1.51h-.79a2.26,2.26,0,0,1-1.56-.49,2.11,2.11,0,0,1-.56-1.65V389.2h-.77v-1.48h.77v-1.4H249v1.4h1.16v1.48H249v2.14a.66.66,0,0,0,.14.47.68.68,0,0,0,.47.13Z"/><path d="M258.64,390.35a1.73,1.73,0,0,1,.38,1.12,1.79,1.79,0,0,1-.62,1.46,2.66,2.66,0,0,1-1.78.52h-3.38v-7.26h3.3a2.62,2.62,0,0,1,1.71.49,1.64,1.64,0,0,1,.61,1.37,1.74,1.74,0,0,1-.35,1.1,1.62,1.62,0,0,1-.91.57A1.8,1.8,0,0,1,258.64,390.35ZM255,389.16h1.15c.61,0,.91-.26.91-.78s-.31-.78-.93-.78H255Zm2.23,2.07a.78.78,0,0,0-.26-.62,1.12,1.12,0,0,0-.73-.22H255V392h1.25C256.9,392,257.23,391.76,257.23,391.23Z"/><path d="M260.07,385.45a1.06,1.06,0,0,1,.76-.26,1,1,0,0,1,.76.26.88.88,0,0,1,0,1.31,1.05,1.05,0,0,1-.76.27,1.07,1.07,0,0,1-.76-.27.88.88,0,0,1,0-1.31Zm1.63,2.27v5.73H260v-5.73Z"/><path d="M264.67,385.85v7.6h-1.75v-7.6Z"/><path d="M267.64,385.85v7.6h-1.76v-7.6Z"/><path d="M10.89,493H7.63v1.47a1.38,1.38,0,0,1,.6-.38,2.23,2.23,0,0,1,.83-.14,2.11,2.11,0,0,1,1.22.32,1.93,1.93,0,0,1,.73.87,2.92,2.92,0,0,1,.24,1.2,2.58,2.58,0,0,1-.67,1.88,2.45,2.45,0,0,1-1.88.7,3.16,3.16,0,0,1-1.42-.3,2.14,2.14,0,0,1-.94-.81A2.44,2.44,0,0,1,6,496.57H7.71a1,1,0,0,0,.28.57.85.85,0,0,0,.63.23.81.81,0,0,0,.69-.3,1.22,1.22,0,0,0,.24-.79,1,1,0,0,0-.25-.73.94.94,0,0,0-.69-.26,1,1,0,0,0-.56.15.69.69,0,0,0-.31.39H6v-4.4h4.86Z"/><path d="M13.82,497.11v1.76H12v-1.76Z"/><path d="M18.54,491.61v7.26H16.78v-7.26Z"/><path d="M25,493.73a2.63,2.63,0,0,1,.58,1.81v3.33H23.78v-3.12a1.22,1.22,0,0,0-.31-.9,1,1,0,0,0-.8-.33,1.12,1.12,0,0,0-.85.34,1.38,1.38,0,0,0-.31,1v3H19.75v-5.73h1.76v1a1.9,1.9,0,0,1,.73-.81,2.26,2.26,0,0,1,1.15-.29A2,2,0,0,1,25,493.73Z"/><path d="M29.34,497.15l1.24-4h1.87l-2,5.73H28.24l-2-5.73h1.87Z"/><path d="M37.39,493.42a2.64,2.64,0,0,1,1,1,3.06,3.06,0,0,1,.39,1.56,3,3,0,0,1-.39,1.56,2.52,2.52,0,0,1-1,1,3.43,3.43,0,0,1-3.06,0,2.54,2.54,0,0,1-1.06-1,3,3,0,0,1-.39-1.56,3.06,3.06,0,0,1,.39-1.56,2.67,2.67,0,0,1,1.06-1,3.43,3.43,0,0,1,3.06,0ZM35,495a1.79,1.79,0,0,0,0,2.1,1.14,1.14,0,0,0,.85.36,1.09,1.09,0,0,0,.84-.36,1.79,1.79,0,0,0,0-2.1,1.1,1.1,0,0,0-.84-.37A1.15,1.15,0,0,0,35,495Z"/><path d="M39.87,490.86a1.09,1.09,0,0,1,.76-.26,1.13,1.13,0,0,1,.76.26.87.87,0,0,1,.28.66.85.85,0,0,1-.28.66,1.13,1.13,0,0,1-.76.26,1.09,1.09,0,0,1-.76-.26.83.83,0,0,1-.29-.66A.84.84,0,0,1,39.87,490.86Zm1.63,2.28v5.73H39.74v-5.73Z"/><path d="M47.16,493.68a2.67,2.67,0,0,1,.94,1.67H46.24a1,1,0,0,0-.34-.57,1,1,0,0,0-.64-.21.94.94,0,0,0-.76.37,1.63,1.63,0,0,0-.3,1.06,1.61,1.61,0,0,0,.3,1.06.91.91,0,0,0,.76.37,1,1,0,0,0,.64-.21.92.92,0,0,0,.34-.57H48.1a2.72,2.72,0,0,1-.94,1.68,2.89,2.89,0,0,1-1.86.61,3.08,3.08,0,0,1-1.5-.36,2.5,2.5,0,0,1-1-1,3.21,3.21,0,0,1-.37-1.56,3.1,3.1,0,0,1,.37-1.56,2.45,2.45,0,0,1,1-1,3.08,3.08,0,0,1,1.5-.36A2.84,2.84,0,0,1,47.16,493.68Z"/><path d="M54.4,496.32h-4a1.33,1.33,0,0,0,.33.93,1.19,1.19,0,0,0,1.41.09,1,1,0,0,0,.34-.51h1.85a2.41,2.41,0,0,1-.49,1.09,2.77,2.77,0,0,1-1,.75,3.1,3.1,0,0,1-1.31.27,3,3,0,0,1-1.49-.36,2.39,2.39,0,0,1-1-1,3.1,3.1,0,0,1-.37-1.56,3.21,3.21,0,0,1,.36-1.56,2.45,2.45,0,0,1,1-1,3.08,3.08,0,0,1,1.5-.36,3.13,3.13,0,0,1,1.5.35,2.45,2.45,0,0,1,1,1,2.86,2.86,0,0,1,.36,1.45A2.09,2.09,0,0,1,54.4,496.32Zm-2-1.59a1.24,1.24,0,0,0-1.58,0,1.22,1.22,0,0,0-.36.84h2.24A1,1,0,0,0,52.38,494.73Z"/><path d="M59.18,496.32v2.55H57.42v-7.26h2.85a2.75,2.75,0,0,1,2,.64,2.27,2.27,0,0,1,.68,1.73,2.34,2.34,0,0,1-.31,1.21,2.11,2.11,0,0,1-.89.83,3.2,3.2,0,0,1-1.45.3Zm2-2.34c0-.64-.35-1-1.06-1h-.89v1.89h.89C60.78,494.91,61.13,494.6,61.13,494Z"/><path d="M66.38,493.38a2.22,2.22,0,0,1,1.13-.3V495H67a1.73,1.73,0,0,0-1.08.3,1.2,1.2,0,0,0-.38,1v2.61H63.78v-5.73h1.76v1.08A2.59,2.59,0,0,1,66.38,493.38Z"/><path d="M72.45,493.42a2.67,2.67,0,0,1,1.06,1,3.16,3.16,0,0,1,.38,1.56,3.11,3.11,0,0,1-.38,1.56,2.54,2.54,0,0,1-1.06,1,3.41,3.41,0,0,1-3,0,2.51,2.51,0,0,1-1.07-1A3.11,3.11,0,0,1,68,496a3.16,3.16,0,0,1,.38-1.56,2.63,2.63,0,0,1,1.07-1,3.41,3.41,0,0,1,3,0ZM70.08,495a1.75,1.75,0,0,0,0,2.1,1.17,1.17,0,0,0,1.69,0,1.79,1.79,0,0,0,0-2.1,1.15,1.15,0,0,0-1.69,0Z"/><path d="M79.25,493.68a2.68,2.68,0,0,1,1,1.67H78.34a1,1,0,0,0-.34-.57,1,1,0,0,0-.65-.21,1,1,0,0,0-.76.37A1.63,1.63,0,0,0,76.3,496a1.62,1.62,0,0,0,.29,1.06.94.94,0,0,0,.76.37,1,1,0,0,0,.65-.21,1,1,0,0,0,.34-.57H80.2a2.73,2.73,0,0,1-1,1.68,2.89,2.89,0,0,1-1.86.61,3,3,0,0,1-1.49-.36,2.5,2.5,0,0,1-1-1,3.1,3.1,0,0,1-.37-1.56,3.21,3.21,0,0,1,.36-1.56,2.53,2.53,0,0,1,1-1,3,3,0,0,1,1.49-.36A2.84,2.84,0,0,1,79.25,493.68Z"/><path d="M86.5,496.32h-4a1.33,1.33,0,0,0,.33.93,1.05,1.05,0,0,0,.76.28,1,1,0,0,0,.64-.19.9.9,0,0,0,.34-.51h1.86a2.41,2.41,0,0,1-.49,1.09,2.81,2.81,0,0,1-1,.75,3.05,3.05,0,0,1-1.3.27,3,3,0,0,1-1.49-.36,2.47,2.47,0,0,1-1-1,3.47,3.47,0,0,1,0-3.12,2.45,2.45,0,0,1,1-1,3.08,3.08,0,0,1,1.5-.36,3.13,3.13,0,0,1,1.5.35,2.51,2.51,0,0,1,1,1,2.86,2.86,0,0,1,.35,1.45A2,2,0,0,1,86.5,496.32Zm-2-1.59a1.12,1.12,0,0,0-.77-.28,1.16,1.16,0,0,0-.8.29,1.22,1.22,0,0,0-.36.84h2.24A1.08,1.08,0,0,0,84.47,494.73Z"/><path d="M91.29,493.61a2.33,2.33,0,0,1,.82,1.44H90.47a.89.89,0,0,0-.33-.55,1,1,0,0,0-.63-.2.65.65,0,0,0-.45.13.44.44,0,0,0-.16.36.43.43,0,0,0,.29.4,4.4,4.4,0,0,0,.89.27,8,8,0,0,1,1.07.31,1.79,1.79,0,0,1,.73.52,1.4,1.4,0,0,1,.31,1,1.5,1.5,0,0,1-.27.88,1.68,1.68,0,0,1-.77.59,2.87,2.87,0,0,1-1.19.22,3.1,3.1,0,0,1-1.86-.51,2.21,2.21,0,0,1-.85-1.47H89a.74.74,0,0,0,.31.56,1.18,1.18,0,0,0,.7.2.65.65,0,0,0,.45-.14.46.46,0,0,0,.16-.37.44.44,0,0,0-.28-.42,4.6,4.6,0,0,0-.92-.27,7.5,7.5,0,0,1-1.05-.29,1.74,1.74,0,0,1-.71-.5,1.38,1.38,0,0,1-.3-.94,1.55,1.55,0,0,1,.59-1.25,2.53,2.53,0,0,1,1.65-.48A2.63,2.63,0,0,1,91.29,493.61Z"/><path d="M97,493.61a2.33,2.33,0,0,1,.82,1.44H96.17a.89.89,0,0,0-.33-.55,1,1,0,0,0-.63-.2.65.65,0,0,0-.45.13.44.44,0,0,0-.16.36.43.43,0,0,0,.29.4,4.26,4.26,0,0,0,.88.27,7.76,7.76,0,0,1,1.08.31,1.79,1.79,0,0,1,.73.52,1.4,1.4,0,0,1,.31,1,1.5,1.5,0,0,1-.27.88,1.73,1.73,0,0,1-.77.59,2.87,2.87,0,0,1-1.19.22,3.1,3.1,0,0,1-1.86-.51A2.21,2.21,0,0,1,93,497h1.69a.78.78,0,0,0,.32.56,1.16,1.16,0,0,0,.7.2.65.65,0,0,0,.45-.14.46.46,0,0,0,.16-.37.44.44,0,0,0-.28-.42,4.6,4.6,0,0,0-.92-.27,7.5,7.5,0,0,1-1-.29,1.74,1.74,0,0,1-.71-.5,1.38,1.38,0,0,1-.3-.94,1.55,1.55,0,0,1,.59-1.25,2.53,2.53,0,0,1,1.65-.48A2.63,2.63,0,0,1,97,493.61Z"/><path d="M104.26,496.32h-4a1.33,1.33,0,0,0,.33.93,1.19,1.19,0,0,0,1.41.09,1,1,0,0,0,.34-.51h1.85a2.41,2.41,0,0,1-.49,1.09,2.77,2.77,0,0,1-1,.75,3.1,3.1,0,0,1-1.31.27,3,3,0,0,1-1.49-.36,2.39,2.39,0,0,1-1-1,3.1,3.1,0,0,1-.37-1.56,3.21,3.21,0,0,1,.36-1.56,2.45,2.45,0,0,1,1-1,3.08,3.08,0,0,1,1.5-.36,3.13,3.13,0,0,1,1.5.35,2.45,2.45,0,0,1,1,1,2.86,2.86,0,0,1,.36,1.45A2.79,2.79,0,0,1,104.26,496.32Zm-2-1.59a1.24,1.24,0,0,0-1.58,0,1.22,1.22,0,0,0-.36.84h2.24A1,1,0,0,0,102.23,494.73Z"/><path d="M108.53,493.36a1.73,1.73,0,0,1,.68.81v-2.9H111v7.6h-1.76v-1a1.73,1.73,0,0,1-.68.81,2.07,2.07,0,0,1-1.13.3,2.3,2.3,0,0,1-1.27-.36,2.33,2.33,0,0,1-.88-1,3.85,3.85,0,0,1,0-3.12,2.39,2.39,0,0,1,.88-1,2.3,2.3,0,0,1,1.27-.36A2.07,2.07,0,0,1,108.53,493.36ZM107.05,495a1.41,1.41,0,0,0-.34,1,1.46,1.46,0,0,0,.34,1,1.22,1.22,0,0,0,.91.37,1.21,1.21,0,0,0,.91-.38,1.66,1.66,0,0,0,0-2,1.21,1.21,0,0,0-.91-.38A1.19,1.19,0,0,0,107.05,495Z"/><path d="M154.66,149.37a2.2,2.2,0,0,1-.92.89,3.15,3.15,0,0,1-1.46.32h-1.62v-5.12h1.62a3.15,3.15,0,0,1,1.46.31,2.12,2.12,0,0,1,.92.88,3.14,3.14,0,0,1,0,2.72Zm-.9.1a1.93,1.93,0,0,0,.53-1.46,2,2,0,0,0-.52-1.45,2.08,2.08,0,0,0-1.54-.52h-.91V150h.91A2.11,2.11,0,0,0,153.76,149.47Z"/><path d="M159.4,146.59v4h-.66v-.94a1.33,1.33,0,0,1-.54.74,1.54,1.54,0,0,1-.9.26,1.51,1.51,0,0,1-1.12-.44,1.82,1.82,0,0,1-.43-1.29v-2.32h.66v2.26a1.27,1.27,0,0,0,.31.92,1.1,1.1,0,0,0,.83.32,1.15,1.15,0,0,0,.87-.35,1.51,1.51,0,0,0,.32-1v-2.12Z"/><path d="M161.7,146.75a1.72,1.72,0,0,1,.9-.22v.72h-.21a1.41,1.41,0,0,0-.91.28,1.15,1.15,0,0,0-.36.95v2.1h-.66v-4h.66v.81A1.52,1.52,0,0,1,161.7,146.75Z"/><path d="M163.26,145.13a.43.43,0,0,1,.32-.11.44.44,0,0,1,.33.11.37.37,0,0,1,.12.29.41.41,0,0,1-.12.3.49.49,0,0,1-.33.11.48.48,0,0,1-.32-.11.42.42,0,0,1-.13-.3A.38.38,0,0,1,163.26,145.13Zm.65,1.46v4h-.66v-4Z"/><path d="M168.19,147a1.78,1.78,0,0,1,.43,1.29v2.32H168v-2.26a1.31,1.31,0,0,0-.3-.92,1.23,1.23,0,0,0-1.7,0,1.42,1.42,0,0,0-.33,1v2.12H165v-4h.66v.95a1.32,1.32,0,0,1,.54-.75,1.54,1.54,0,0,1,.9-.26A1.46,1.46,0,0,1,168.19,147Z"/><path d="M172.25,146.83a1.51,1.51,0,0,1,.57.78v-1h.66v4a2,2,0,0,1-.24,1,1.61,1.61,0,0,1-.65.67,2,2,0,0,1-1,.24,2.08,2.08,0,0,1-1.31-.39,1.71,1.71,0,0,1-.65-1h.65a1.16,1.16,0,0,0,.44.63,1.45,1.45,0,0,0,.83.23,1.21,1.21,0,0,0,.89-.35,1.27,1.27,0,0,0,.36-1v-1.08a1.59,1.59,0,0,1-.57.78,1.63,1.63,0,0,1-1,.29,1.83,1.83,0,0,1-.94-.25,1.6,1.6,0,0,1-.65-.71,2.29,2.29,0,0,1-.24-1.08,2.34,2.34,0,0,1,.24-1.09,1.6,1.6,0,0,1,.65-.71,1.74,1.74,0,0,1,.94-.25A1.63,1.63,0,0,1,172.25,146.83Zm-1.77.69a1.51,1.51,0,0,0-.36,1.07,1.52,1.52,0,0,0,.36,1.07,1.29,1.29,0,0,0,1,.39,1.38,1.38,0,0,0,.7-.18,1.34,1.34,0,0,0,.48-.52,1.55,1.55,0,0,0,.18-.76,1.59,1.59,0,0,0-.18-.77,1.19,1.19,0,0,0-.48-.51,1.38,1.38,0,0,0-.7-.18A1.29,1.29,0,0,0,170.48,147.52Z"/><path d="M152.23,158.08a2.14,2.14,0,0,1-.92.89,3.1,3.1,0,0,1-1.45.32h-1.63v-5.12h1.63a3.1,3.1,0,0,1,1.45.31,2.06,2.06,0,0,1,.92.88,3.14,3.14,0,0,1,0,2.72Zm-.89.09a2.25,2.25,0,0,0,0-2.9,2.07,2.07,0,0,0-1.53-.52h-.92v3.94h.92A2.1,2.1,0,0,0,151.34,158.17Z"/><path d="M157.07,157.43h-3.19a1.45,1.45,0,0,0,.39,1,1.4,1.4,0,0,0,1.7.1,1,1,0,0,0,.4-.65h.7a1.62,1.62,0,0,1-1,1.24,2,2,0,0,1-.9.19,2.14,2.14,0,0,1-1-.25,1.81,1.81,0,0,1-.69-.71,2.48,2.48,0,0,1,0-2.17,1.75,1.75,0,0,1,.69-.71,2,2,0,0,1,1-.25,2,2,0,0,1,1,.25,1.61,1.61,0,0,1,.66.66,2,2,0,0,1,.2,1.27Zm-.78-1.06a1.14,1.14,0,0,0-.46-.44,1.46,1.46,0,0,0-1.55.19,1.41,1.41,0,0,0-.4,1h2.55A1.35,1.35,0,0,0,156.29,156.37Z"/><path d="M158.62,153.91v5.38H158v-5.38Z"/><path d="M159.69,153.84a.44.44,0,0,1,.33-.11.43.43,0,0,1,.32.11.35.35,0,0,1,.13.29.38.38,0,0,1-.13.3.48.48,0,0,1-.32.11.49.49,0,0,1-.33-.11.41.41,0,0,1-.12-.3A.37.37,0,0,1,159.69,153.84Zm.65,1.46v4h-.66v-4Z"/><path d="M163,158.58l1.23-3.28h.71l-1.56,4h-.78l-1.56-4h.71Z"/><path d="M169.18,157.43H166a1.37,1.37,0,0,0,.39,1,1.24,1.24,0,0,0,.89.34,1.34,1.34,0,0,0,.81-.24,1.05,1.05,0,0,0,.39-.65h.71a1.71,1.71,0,0,1-.33.74,1.64,1.64,0,0,1-.65.5,2,2,0,0,1-.9.19,2.07,2.07,0,0,1-1-.25,1.77,1.77,0,0,1-.7-.71,2.48,2.48,0,0,1,0-2.17,1.71,1.71,0,0,1,.7-.71,2.19,2.19,0,0,1,2,0,1.74,1.74,0,0,1,.66.66,1.86,1.86,0,0,1,.22.91A1.94,1.94,0,0,1,169.18,157.43Zm-.79-1.06a1.09,1.09,0,0,0-.46-.44,1.45,1.45,0,0,0-1.54.19,1.37,1.37,0,0,0-.4,1h2.55A1.44,1.44,0,0,0,168.39,156.37Z"/><path d="M171.3,155.46a1.72,1.72,0,0,1,.9-.22V156H172a1.45,1.45,0,0,0-.92.29,1.17,1.17,0,0,0-.35.95v2.1h-.66v-4h.66v.81A1.5,1.5,0,0,1,171.3,155.46Z"/><path d="M173.13,155.3l1.29,3.14,1.2-3.14h.73L174,161.17h-.75l.83-1.95-1.68-3.92Z"/><path d="M154.49,386.46h-2.25l-.43,1.18h-.71l1.9-5h.74l1.89,5h-.71Zm-.19-.52-.93-2.58-.94,2.58Z"/><path d="M157.33,382.89a.87.87,0,0,0-.21.66v.11h.94v.58h-.94v3.4h-.66v-3.4h-.57v-.58h.57v-.16c0-1,.53-1.41,1.6-1.37v.58A1.11,1.11,0,0,0,157.33,382.89Z"/><path d="M160.68,387.06v.58h-.49a1.27,1.27,0,0,1-.91-.29,1.31,1.31,0,0,1-.3-1v-2.15h-.6v-.57h.6v-1h.66v1h1v.57h-1v2.16a.73.73,0,0,0,.15.53.68.68,0,0,0,.49.14Z"/><path d="M165.12,385.79h-3.18a1.33,1.33,0,0,0,.39,1,1.24,1.24,0,0,0,.89.34,1.34,1.34,0,0,0,.81-.24,1,1,0,0,0,.39-.65h.7a1.54,1.54,0,0,1-.32.74,1.65,1.65,0,0,1-.65.51,2.13,2.13,0,0,1-.9.18,2,2,0,0,1-1-.25,1.75,1.75,0,0,1-.7-.7,2.34,2.34,0,0,1-.25-1.09,2.37,2.37,0,0,1,.25-1.09,1.77,1.77,0,0,1,.7-.71,2.07,2.07,0,0,1,1-.24,2,2,0,0,1,1,.24,1.74,1.74,0,0,1,.66.66,1.8,1.8,0,0,1,.23.92A1.86,1.86,0,0,1,165.12,385.79Zm-.78-1.06a1,1,0,0,0-.46-.44,1.33,1.33,0,0,0-.63-.15,1.27,1.27,0,0,0-.91.34,1.35,1.35,0,0,0-.4,1h2.55A1.42,1.42,0,0,0,164.34,384.73Z"/><path d="M167.25,383.82a1.72,1.72,0,0,1,.9-.23v.72H168a1.43,1.43,0,0,0-.92.29,1.15,1.15,0,0,0-.35.94v2.1H166v-4h.66v.8A1.48,1.48,0,0,1,167.25,383.82Z"/><path d="M149.78,395.14a2.06,2.06,0,0,1-.91.89,3.15,3.15,0,0,1-1.46.32h-1.62v-5.12h1.62a3.28,3.28,0,0,1,1.46.31,2.06,2.06,0,0,1,.91.89,3,3,0,0,1,0,2.71Zm-.89.1a1.9,1.9,0,0,0,.53-1.45,2,2,0,0,0-.52-1.46,2.14,2.14,0,0,0-1.54-.52h-.91v3.94h.91A2.11,2.11,0,0,0,148.89,395.24Z"/><path d="M154.63,394.5h-3.19a1.36,1.36,0,0,0,.39,1,1.24,1.24,0,0,0,.89.34,1.34,1.34,0,0,0,.81-.24,1,1,0,0,0,.39-.65h.71a1.66,1.66,0,0,1-.33.74,1.58,1.58,0,0,1-.65.51,2.13,2.13,0,0,1-.9.18,2,2,0,0,1-1-.25,1.75,1.75,0,0,1-.7-.7,2.34,2.34,0,0,1-.25-1.09,2.37,2.37,0,0,1,.25-1.09,1.77,1.77,0,0,1,.7-.71,2.19,2.19,0,0,1,2,0,1.73,1.73,0,0,1,.88,1.58A1.94,1.94,0,0,1,154.63,394.5Zm-.79-1.06a1,1,0,0,0-.46-.44,1.33,1.33,0,0,0-.63-.15,1.29,1.29,0,0,0-.91.34,1.33,1.33,0,0,0-.4,1H154A1.4,1.4,0,0,0,153.84,393.44Z"/><path d="M156.18,391v5.37h-.66V391Z"/><path d="M157.25,390.9a.48.48,0,0,1,.32-.11.49.49,0,0,1,.33.11.41.41,0,0,1,.12.3.37.37,0,0,1-.12.29.44.44,0,0,1-.33.11.43.43,0,0,1-.32-.11.35.35,0,0,1-.13-.29A.38.38,0,0,1,157.25,390.9Zm.65,1.47v4h-.66v-4Z"/><path d="M160.51,395.65l1.23-3.28h.71l-1.56,4h-.78l-1.56-4h.71Z"/><path d="M166.73,394.5h-3.18a1.4,1.4,0,0,0,.38,1,1.4,1.4,0,0,0,1.7.1,1,1,0,0,0,.4-.65h.7a1.66,1.66,0,0,1-1,1.25,2.19,2.19,0,0,1-.9.18,2,2,0,0,1-1-.25,1.79,1.79,0,0,1-.69-.7,2.22,2.22,0,0,1-.25-1.09,2.25,2.25,0,0,1,.25-1.09,1.81,1.81,0,0,1,.69-.71,2.14,2.14,0,0,1,1-.25,2,2,0,0,1,1,.25,1.74,1.74,0,0,1,.66.66,1.8,1.8,0,0,1,.23.92A1.86,1.86,0,0,1,166.73,394.5Zm-.78-1.06a1,1,0,0,0-.46-.44,1.33,1.33,0,0,0-.63-.15,1.27,1.27,0,0,0-.91.34,1.33,1.33,0,0,0-.4,1h2.54A1.31,1.31,0,0,0,166,393.44Z"/><path d="M168.86,392.53a1.72,1.72,0,0,1,.9-.23V393h-.2a1.42,1.42,0,0,0-.92.28,1.16,1.16,0,0,0-.36.95v2.1h-.66v-4h.66v.8A1.5,1.5,0,0,1,168.86,392.53Z"/><path d="M170.69,392.37,172,395.5l1.2-3.13h.73l-2.37,5.87h-.74l.82-2L170,392.37Z"/><path d="M157.8,618.19l-1.3,5.12h-.81l-1.18-4.18-1.18,4.18h-.81l-1.3-5.12H152l1,4.35,1.21-4.35h.73l1.22,4.34,1-4.34Z"/><path d="M161.19,619.57a1.52,1.52,0,0,1,.57.77v-1h.66v4h-.66v-1a1.52,1.52,0,0,1-.57.77,1.58,1.58,0,0,1-1,.29,1.83,1.83,0,0,1-.94-.24,1.66,1.66,0,0,1-.65-.71,2.34,2.34,0,0,1-.24-1.09,2.37,2.37,0,0,1,.24-1.09,1.72,1.72,0,0,1,.65-.71,1.83,1.83,0,0,1,.94-.24A1.58,1.58,0,0,1,161.19,619.57Zm-1.77.68a1.53,1.53,0,0,0-.37,1.07,1.49,1.49,0,0,0,.37,1.07,1.29,1.29,0,0,0,1,.39,1.38,1.38,0,0,0,.7-.18,1.31,1.31,0,0,0,.48-.51,1.59,1.59,0,0,0,.18-.77,1.62,1.62,0,0,0-.18-.77,1.31,1.31,0,0,0-.48-.51,1.38,1.38,0,0,0-.7-.18A1.29,1.29,0,0,0,159.42,620.25Z"/><path d="M163.47,617.86a.52.52,0,0,1,.33-.11.49.49,0,0,1,.33.11.41.41,0,0,1,.12.3.37.37,0,0,1-.12.29.44.44,0,0,1-.33.11.47.47,0,0,1-.33-.11.37.37,0,0,1-.12-.29A.41.41,0,0,1,163.47,617.86Zm.66,1.47v4h-.66v-4Z"/><path d="M167.09,622.73v.58h-.5a1.26,1.26,0,0,1-.91-.29,1.31,1.31,0,0,1-.3-1V619.9h-.59v-.57h.59v-1h.67v1h1v.57h-1v2.16a.77.77,0,0,0,.14.53.72.72,0,0,0,.49.14Z"/><path d="M167.9,617.86a.49.49,0,0,1,.33-.11.48.48,0,0,1,.32.11.38.38,0,0,1,.13.3.35.35,0,0,1-.13.29.43.43,0,0,1-.32.11.44.44,0,0,1-.33-.11.37.37,0,0,1-.12-.29A.41.41,0,0,1,167.9,617.86Zm.65,1.47v4h-.66v-4Z"/><path d="M172.84,619.71a1.82,1.82,0,0,1,.43,1.29v2.31h-.66v-2.25a1.29,1.29,0,0,0-.31-.92,1.1,1.1,0,0,0-.83-.32,1.15,1.15,0,0,0-.87.35,1.46,1.46,0,0,0-.32,1v2.11h-.66v-4h.66v.94a1.38,1.38,0,0,1,.54-.75,1.58,1.58,0,0,1,.89-.26A1.49,1.49,0,0,1,172.84,619.71Z"/><path d="M176.9,619.57a1.51,1.51,0,0,1,.56.77v-1h.66v4a2.11,2.11,0,0,1-.23,1,1.68,1.68,0,0,1-.66.66,1.91,1.91,0,0,1-1,.24,2.11,2.11,0,0,1-1.32-.38,1.7,1.7,0,0,1-.64-1H175a1.18,1.18,0,0,0,.44.63,1.4,1.4,0,0,0,.83.22,1.22,1.22,0,0,0,.89-.34,1.3,1.3,0,0,0,.35-1V622.3a1.51,1.51,0,0,1-.56.77,1.61,1.61,0,0,1-1,.29,1.85,1.85,0,0,1-.94-.24,1.72,1.72,0,0,1-.65-.71,2.34,2.34,0,0,1-.23-1.09,2.36,2.36,0,0,1,.23-1.09,1.78,1.78,0,0,1,.65-.71,1.85,1.85,0,0,1,.94-.24A1.61,1.61,0,0,1,176.9,619.57Zm-1.77.68a1.48,1.48,0,0,0-.37,1.07,1.45,1.45,0,0,0,.37,1.07,1.27,1.27,0,0,0,1,.39,1.35,1.35,0,0,0,.7-.18,1.27,1.27,0,0,0,.49-.51,1.71,1.71,0,0,0,.17-.77,1.74,1.74,0,0,0-.17-.77,1.27,1.27,0,0,0-.49-.51,1.35,1.35,0,0,0-.7-.18A1.27,1.27,0,0,0,175.13,620.25Z"/><path d="M145.6,626.57a.49.49,0,0,1,.33-.11.52.52,0,0,1,.33.11.41.41,0,0,1,.12.3.37.37,0,0,1-.12.29.47.47,0,0,1-.33.11.44.44,0,0,1-.33-.11.37.37,0,0,1-.12-.29A.41.41,0,0,1,145.6,626.57Zm.66,1.47v4h-.66v-4Z"/><path d="M150.54,628.42a1.81,1.81,0,0,1,.43,1.29V632h-.66v-2.26a1.28,1.28,0,0,0-.31-.91,1.1,1.1,0,0,0-.83-.32,1.15,1.15,0,0,0-.87.35,1.46,1.46,0,0,0-.32,1V632h-.66v-4H148V629a1.38,1.38,0,0,1,.54-.75,1.58,1.58,0,0,1,.89-.26A1.49,1.49,0,0,1,150.54,628.42Z"/><path d="M154.44,630V632h-.66V626.9h1.62a1.85,1.85,0,0,1,1.31.41,1.46,1.46,0,0,1,.44,1.13,1.44,1.44,0,0,1-.45,1.12,1.87,1.87,0,0,1-1.3.4Zm1.77-.81a.91.91,0,0,0,.26-.71.93.93,0,0,0-.26-.73,1.24,1.24,0,0,0-.87-.25h-.9v1.95h.9A1.24,1.24,0,0,0,156.21,629.15Z"/><path d="M159.15,628.2a1.72,1.72,0,0,1,.9-.23v.72h-.2a1.45,1.45,0,0,0-.92.29,1.15,1.15,0,0,0-.35.94V632h-.66v-4h.66v.8A1.48,1.48,0,0,1,159.15,628.2Z"/><path d="M163.54,628.23a1.8,1.8,0,0,1,.71.71,2.25,2.25,0,0,1,.26,1.09,2.22,2.22,0,0,1-.26,1.09,1.77,1.77,0,0,1-.71.7,2.07,2.07,0,0,1-1,.25,2,2,0,0,1-1-.25,1.8,1.8,0,0,1-.72-.7,2.22,2.22,0,0,1-.26-1.09,2.25,2.25,0,0,1,.26-1.09,1.82,1.82,0,0,1,.72-.71,2.13,2.13,0,0,1,1-.24A2.17,2.17,0,0,1,163.54,628.23Zm-1.68.5a1.16,1.16,0,0,0-.49.49,1.82,1.82,0,0,0,0,1.62,1.16,1.16,0,0,0,.49.49,1.42,1.42,0,0,0,1.31,0,1.21,1.21,0,0,0,.49-.49,1.91,1.91,0,0,0,0-1.62,1.21,1.21,0,0,0-.49-.49,1.42,1.42,0,0,0-1.31,0Z"/><path d="M168,628.28a1.45,1.45,0,0,1,.56.77v-1h.66v4.05a2,2,0,0,1-.23,1,1.65,1.65,0,0,1-.65.66,2,2,0,0,1-1,.24,2.17,2.17,0,0,1-1.32-.38,1.7,1.7,0,0,1-.64-1.05H166a1.12,1.12,0,0,0,.44.62,1.34,1.34,0,0,0,.83.23,1.21,1.21,0,0,0,.89-.34,1.3,1.3,0,0,0,.35-1V631a1.45,1.45,0,0,1-.56.77,1.6,1.6,0,0,1-1,.29,1.74,1.74,0,0,1-1.6-1,2.47,2.47,0,0,1-.23-1.09,2.5,2.5,0,0,1,.23-1.09,1.79,1.79,0,0,1,.65-.71A1.86,1.86,0,0,1,167,628,1.6,1.6,0,0,1,168,628.28Zm-1.77.68a1.48,1.48,0,0,0-.37,1.07,1.47,1.47,0,0,0,.37,1.07,1.27,1.27,0,0,0,1,.39,1.33,1.33,0,0,0,.7-.18,1.27,1.27,0,0,0,.49-.51,1.71,1.71,0,0,0,.17-.77,1.74,1.74,0,0,0-.17-.77,1.27,1.27,0,0,0-.49-.51,1.33,1.33,0,0,0-.7-.18A1.27,1.27,0,0,0,166.22,629Z"/><path d="M171.5,628.2a1.72,1.72,0,0,1,.9-.23v.72h-.21a1.42,1.42,0,0,0-.91.29,1.12,1.12,0,0,0-.35.94V632h-.67v-4h.67v.8A1.48,1.48,0,0,1,171.5,628.2Z"/><path d="M176.69,630.17H173.5a1.41,1.41,0,0,0,.39,1,1.25,1.25,0,0,0,.9.34,1.31,1.31,0,0,0,.8-.24,1,1,0,0,0,.39-.65h.71a1.66,1.66,0,0,1-.33.74,1.61,1.61,0,0,1-.64.51,2.19,2.19,0,0,1-.9.18,2,2,0,0,1-1-.25,1.66,1.66,0,0,1-.69-.7,2.22,2.22,0,0,1-.25-1.09,2.25,2.25,0,0,1,.25-1.09,1.69,1.69,0,0,1,.69-.71,2.27,2.27,0,0,1,2,0,1.74,1.74,0,0,1,.66.66,1.9,1.9,0,0,1,.23.92A1.86,1.86,0,0,1,176.69,630.17Zm-.79-1.06a1.06,1.06,0,0,0-.45-.44,1.39,1.39,0,0,0-.63-.15,1.34,1.34,0,0,0-.92.34,1.37,1.37,0,0,0-.4,1h2.55A1.42,1.42,0,0,0,175.9,629.11Z"/><path d="M179.91,628.34a1.45,1.45,0,0,1,.5.94h-.63a.91.91,0,0,0-.3-.58,1,1,0,0,0-.67-.23.84.84,0,0,0-.55.17.6.6,0,0,0-.2.46.48.48,0,0,0,.13.36.88.88,0,0,0,.34.2l.55.15a6,6,0,0,1,.71.2,1.11,1.11,0,0,1,.46.34,1,1,0,0,1,.2.63,1,1,0,0,1-.37.79,1.49,1.49,0,0,1-1,.3,1.86,1.86,0,0,1-1.16-.34,1.38,1.38,0,0,1-.53-1h.64a.85.85,0,0,0,.32.59,1.12,1.12,0,0,0,.73.22.81.81,0,0,0,.54-.17.59.59,0,0,0,.19-.46.51.51,0,0,0-.14-.37.89.89,0,0,0-.34-.21,3.87,3.87,0,0,0-.56-.15,5.8,5.8,0,0,1-.71-.21,1.07,1.07,0,0,1-.45-.32.93.93,0,0,1-.18-.6,1,1,0,0,1,.37-.81,1.85,1.85,0,0,1,2.09.05Z"/><path d="M183.67,628.34a1.44,1.44,0,0,1,.49.94h-.63a1,1,0,0,0-.29-.58,1,1,0,0,0-.67-.23.85.85,0,0,0-.56.17.6.6,0,0,0-.2.46.49.49,0,0,0,.14.36.91.91,0,0,0,.33.2l.55.15a6,6,0,0,1,.71.2,1.21,1.21,0,0,1,.47.34,1,1,0,0,1,.19.63,1,1,0,0,1-.37.79,1.48,1.48,0,0,1-1,.3,1.84,1.84,0,0,1-1.16-.34,1.35,1.35,0,0,1-.53-1h.63a.85.85,0,0,0,.32.59,1.14,1.14,0,0,0,.74.22.8.8,0,0,0,.53-.17.59.59,0,0,0,.19-.46.48.48,0,0,0-.14-.37.89.89,0,0,0-.34-.21,4.06,4.06,0,0,0-.55-.15,4.88,4.88,0,0,1-.71-.21,1,1,0,0,1-.45-.32.88.88,0,0,1-.19-.6,1,1,0,0,1,.37-.81,1.58,1.58,0,0,1,1-.3A1.61,1.61,0,0,1,183.67,628.34Z"/><path d="M7.5,507.7v1.86H9.56v.53H7.5V512H9.79v.57h-3v-5.43h3v.57Z"/><path d="M11.39,506.86v5.7h-.7v-5.7Z"/><path d="M16.38,510.59H13a1.45,1.45,0,0,0,.41,1.09,1.47,1.47,0,0,0,1.8.1,1,1,0,0,0,.42-.68h.75a1.84,1.84,0,0,1-.35.78,1.7,1.7,0,0,1-.69.54,2.24,2.24,0,0,1-.95.19,2.21,2.21,0,0,1-1.08-.26,1.76,1.76,0,0,1-.73-.75,2.35,2.35,0,0,1-.27-1.15,2.39,2.39,0,0,1,.27-1.16,1.76,1.76,0,0,1,.73-.75,2.11,2.11,0,0,1,1.08-.26,2,2,0,0,1,1.07.26,1.75,1.75,0,0,1,.7.7,1.87,1.87,0,0,1,.25,1A2,2,0,0,1,16.38,510.59Zm-.84-1.12a1.09,1.09,0,0,0-.48-.47,1.53,1.53,0,0,0-.67-.15,1.41,1.41,0,0,0-1,.35,1.46,1.46,0,0,0-.42,1.06h2.7A1.47,1.47,0,0,0,15.54,509.47Z"/><path d="M20.53,508.71a1.8,1.8,0,0,1,.66,1.15h-.74a1.07,1.07,0,0,0-.42-.71,1.39,1.39,0,0,0-.85-.26,1.36,1.36,0,0,0-.67.17,1.23,1.23,0,0,0-.49.52,2.06,2.06,0,0,0,0,1.73,1.13,1.13,0,0,0,.49.52,1.26,1.26,0,0,0,.67.17,1.33,1.33,0,0,0,.85-.26,1.07,1.07,0,0,0,.42-.71h.74a1.82,1.82,0,0,1-.66,1.16,2.08,2.08,0,0,1-1.34.42,2.2,2.2,0,0,1-1.07-.26,1.78,1.78,0,0,1-.74-.75,2.35,2.35,0,0,1-.26-1.15,2.39,2.39,0,0,1,.26-1.16,1.78,1.78,0,0,1,.74-.75,2.1,2.1,0,0,1,1.07-.26A2,2,0,0,1,20.53,508.71Z"/><path d="M24.12,511.94v.62H23.6a1.35,1.35,0,0,1-1-.31,1.41,1.41,0,0,1-.32-1v-2.28h-.63v-.61h.63v-1.06H23v1.06h1.1v.61H23v2.29a.78.78,0,0,0,.15.56.73.73,0,0,0,.52.15Z"/><path d="M26.29,508.5a1.79,1.79,0,0,1,.95-.24V509H27a1.45,1.45,0,0,0-1,.31,1.19,1.19,0,0,0-.38,1v2.23H25v-4.23h.7v.86A1.58,1.58,0,0,1,26.29,508.5Z"/><path d="M30.94,508.54a1.89,1.89,0,0,1,.76.75,2.39,2.39,0,0,1,.27,1.16,2.35,2.35,0,0,1-.27,1.15,1.89,1.89,0,0,1-.76.75,2.28,2.28,0,0,1-1.09.26,2.31,2.31,0,0,1-1.09-.26,1.89,1.89,0,0,1-.76-.75,2.35,2.35,0,0,1-.27-1.15,2.39,2.39,0,0,1,.27-1.16,1.89,1.89,0,0,1,.76-.75,2.2,2.2,0,0,1,1.09-.26A2.17,2.17,0,0,1,30.94,508.54Zm-1.78.52a1.3,1.3,0,0,0-.52.52,2,2,0,0,0,0,1.73,1.3,1.3,0,0,0,.52.52,1.47,1.47,0,0,0,.69.17,1.51,1.51,0,0,0,.7-.17,1.34,1.34,0,0,0,.51-.52,2,2,0,0,0,0-1.73,1.34,1.34,0,0,0-.51-.52,1.51,1.51,0,0,0-.7-.17A1.47,1.47,0,0,0,29.16,509.06Z"/><path d="M36.31,508.73a1.93,1.93,0,0,1,.45,1.37v2.46h-.7v-2.4a1.38,1.38,0,0,0-.32-1,1.19,1.19,0,0,0-.88-.34,1.22,1.22,0,0,0-.93.38,1.55,1.55,0,0,0-.34,1.09v2.24h-.7v-4.23h.7v1a1.46,1.46,0,0,1,.57-.79,1.76,1.76,0,0,1,2.15.19Z"/><path d="M37.85,506.78a.47.47,0,0,1,.34-.12.5.5,0,0,1,.35.12.43.43,0,0,1,0,.62.5.5,0,0,1-.35.12.47.47,0,0,1-.34-.12.41.41,0,0,1,0-.62Zm.69,1.55v4.23h-.7v-4.23Z"/><path d="M42.87,508.71a1.8,1.8,0,0,1,.66,1.15h-.74a1.07,1.07,0,0,0-.42-.71,1.39,1.39,0,0,0-.85-.26,1.43,1.43,0,0,0-.68.17,1.28,1.28,0,0,0-.48.52,2.06,2.06,0,0,0,0,1.73,1.16,1.16,0,0,0,.48.52,1.49,1.49,0,0,0,1.53-.09,1.07,1.07,0,0,0,.42-.71h.74a1.82,1.82,0,0,1-.66,1.16,2.08,2.08,0,0,1-1.34.42,2.2,2.2,0,0,1-1.07-.26,1.78,1.78,0,0,1-.74-.75,2.35,2.35,0,0,1-.26-1.15,2.39,2.39,0,0,1,.26-1.16,1.78,1.78,0,0,1,.74-.75,2.1,2.1,0,0,1,1.07-.26A2,2,0,0,1,42.87,508.71Z"/><path d="M47.22,508.58a1.58,1.58,0,0,1,.6.83v-1.08h.7v4.23h-.7v-1.08a1.55,1.55,0,0,1-.6.82,1.69,1.69,0,0,1-1,.31,1.93,1.93,0,0,1-1-.26,1.68,1.68,0,0,1-.69-.75,2.47,2.47,0,0,1-.25-1.15,2.51,2.51,0,0,1,.25-1.16,1.68,1.68,0,0,1,.69-.75,1.84,1.84,0,0,1,1-.26A1.75,1.75,0,0,1,47.22,508.58Zm-1.88.73a1.61,1.61,0,0,0-.39,1.14,1.57,1.57,0,0,0,.39,1.13,1.36,1.36,0,0,0,1,.42,1.41,1.41,0,0,0,.74-.2,1.27,1.27,0,0,0,.51-.54,1.62,1.62,0,0,0,.19-.81,1.68,1.68,0,0,0-.19-.82,1.27,1.27,0,0,0-.51-.54,1.41,1.41,0,0,0-.74-.19A1.39,1.39,0,0,0,45.34,509.31Z"/><path d="M50.34,506.86v5.7h-.7v-5.7Z"/><path d="M52.16,506.86v5.7h-.7v-5.7Z"/><path d="M53.58,508.33,55,511.66l1.27-3.33H57l-2.51,6.23h-.8l.88-2.07-1.78-4.16Z"/><path d="M62.75,508.71a1.83,1.83,0,0,1,.65,1.15h-.73a1.15,1.15,0,0,0-.42-.71,1.42,1.42,0,0,0-.86-.26,1.39,1.39,0,0,0-.67.17,1.37,1.37,0,0,0-.49.52,2.17,2.17,0,0,0,0,1.73,1.24,1.24,0,0,0,.49.52,1.29,1.29,0,0,0,.67.17,1.35,1.35,0,0,0,.86-.26,1.15,1.15,0,0,0,.42-.71h.73a1.86,1.86,0,0,1-.65,1.16,2.08,2.08,0,0,1-1.34.42,2.27,2.27,0,0,1-1.08-.26,1.76,1.76,0,0,1-.73-.75,2.35,2.35,0,0,1-.27-1.15,2.39,2.39,0,0,1,.27-1.16,1.76,1.76,0,0,1,.73-.75,2.16,2.16,0,0,1,1.08-.26A2,2,0,0,1,62.75,508.71Z"/><path d="M67.33,508.54a1.81,1.81,0,0,1,.75.75,2.4,2.4,0,0,1,.28,1.16,2.36,2.36,0,0,1-.28,1.15,1.81,1.81,0,0,1-.75.75,2.31,2.31,0,0,1-1.09.26,2.28,2.28,0,0,1-1.09-.26,1.89,1.89,0,0,1-.76-.75,2.36,2.36,0,0,1-.28-1.15,2.4,2.4,0,0,1,.28-1.16,1.89,1.89,0,0,1,.76-.75,2.17,2.17,0,0,1,1.09-.26A2.2,2.2,0,0,1,67.33,508.54Zm-1.79.52a1.34,1.34,0,0,0-.51.52,2,2,0,0,0,0,1.73,1.34,1.34,0,0,0,.51.52,1.53,1.53,0,0,0,1.4,0,1.34,1.34,0,0,0,.51-.52,2,2,0,0,0,0-1.73,1.34,1.34,0,0,0-.51-.52,1.53,1.53,0,0,0-1.4,0Z"/><path d="M72.69,508.73a1.89,1.89,0,0,1,.46,1.37v2.46h-.7v-2.4a1.34,1.34,0,0,0-.33-1,1.17,1.17,0,0,0-.88-.34,1.2,1.2,0,0,0-.92.38,1.55,1.55,0,0,0-.35,1.09v2.24h-.7v-4.23H70v1a1.42,1.42,0,0,1,.58-.79,1.61,1.61,0,0,1,1-.28A1.59,1.59,0,0,1,72.69,508.73Z"/><path d="M75.31,507.52a.93.93,0,0,0-.22.69v.12h1V509h-1v3.61h-.7V509h-.6v-.62h.6v-.17c0-1,.57-1.49,1.71-1.45v.62A1.16,1.16,0,0,0,75.31,507.52Z"/><path d="M76.87,506.78a.47.47,0,0,1,.34-.12.5.5,0,0,1,.35.12.43.43,0,0,1,0,.62.5.5,0,0,1-.35.12.47.47,0,0,1-.34-.12.41.41,0,0,1,0-.62Zm.69,1.55v4.23h-.7v-4.23Z"/><path d="M80,508.5a1.85,1.85,0,0,1,1-.24V509h-.22a1.47,1.47,0,0,0-1,.31,1.22,1.22,0,0,0-.38,1v2.23h-.7v-4.23h.7v.86A1.64,1.64,0,0,1,80,508.5Z"/><path d="M88,508.73a1.93,1.93,0,0,1,.45,1.37v2.46h-.7v-2.4a1.33,1.33,0,0,0-.31-1,1.07,1.07,0,0,0-.83-.33,1.15,1.15,0,0,0-.89.36,1.59,1.59,0,0,0-.34,1.08v2.24h-.7v-2.4a1.37,1.37,0,0,0-.3-1,1.11,1.11,0,0,0-.84-.33,1.15,1.15,0,0,0-.89.36,1.54,1.54,0,0,0-.34,1.08v2.24h-.7v-4.23h.7v1a1.35,1.35,0,0,1,.55-.76,1.6,1.6,0,0,1,.91-.27,1.62,1.62,0,0,1,.94.27,1.58,1.58,0,0,1,.57.81,1.5,1.5,0,0,1,.59-.8,1.62,1.62,0,0,1,.94-.28A1.59,1.59,0,0,1,88,508.73Z"/><path d="M93.42,510.59H90a1.53,1.53,0,0,0,.41,1.09,1.36,1.36,0,0,0,1,.36,1.34,1.34,0,0,0,.85-.26,1,1,0,0,0,.42-.68h.74a1.71,1.71,0,0,1-.34.78,1.85,1.85,0,0,1-.69.54,2.24,2.24,0,0,1-1,.19,2.21,2.21,0,0,1-1.08-.26,1.84,1.84,0,0,1-.74-.75,2.47,2.47,0,0,1-.26-1.15,2.51,2.51,0,0,1,.26-1.16,1.84,1.84,0,0,1,.74-.75,2.11,2.11,0,0,1,1.08-.26,2,2,0,0,1,1.07.26,1.75,1.75,0,0,1,.7.7,2,2,0,0,1,.24,1A2,2,0,0,1,93.42,510.59Zm-.83-1.12a1.14,1.14,0,0,0-.48-.47,1.53,1.53,0,0,0-.67-.15,1.41,1.41,0,0,0-1,.35,1.42,1.42,0,0,0-.43,1.06h2.71A1.47,1.47,0,0,0,92.59,509.47Z"/><path d="M97.15,508.58a1.61,1.61,0,0,1,.59.83v-2.55h.7v5.7h-.7v-1.08a1.59,1.59,0,0,1-.59.82,1.74,1.74,0,0,1-1.05.31,2,2,0,0,1-1-.26,1.8,1.8,0,0,1-.69-.75,2.6,2.6,0,0,1-.25-1.15,2.64,2.64,0,0,1,.25-1.16,1.8,1.8,0,0,1,.69-.75,1.87,1.87,0,0,1,1-.26A1.8,1.8,0,0,1,97.15,508.58Zm-1.88.73a1.61,1.61,0,0,0-.39,1.14,1.57,1.57,0,0,0,.39,1.13,1.33,1.33,0,0,0,1,.42,1.45,1.45,0,0,0,.75-.2,1.4,1.4,0,0,0,.51-.54,1.73,1.73,0,0,0,.18-.81,1.8,1.8,0,0,0-.18-.82,1.4,1.4,0,0,0-.51-.54,1.44,1.44,0,0,0-.75-.19A1.36,1.36,0,0,0,95.27,509.31Z"/><path d="M104.8,508.54a1.8,1.8,0,0,1,.69.75,2.64,2.64,0,0,1,.25,1.16,2.6,2.6,0,0,1-.25,1.15,1.8,1.8,0,0,1-.69.75,2,2,0,0,1-1,.26,1.74,1.74,0,0,1-1-.31,1.63,1.63,0,0,1-.59-.82v1.08h-.7v-5.7h.7v2.55a1.63,1.63,0,0,1,.59-.82,1.74,1.74,0,0,1,1-.31A1.87,1.87,0,0,1,104.8,508.54Zm-1.94.55a1.29,1.29,0,0,0-.52.54,1.8,1.8,0,0,0-.18.82,1.73,1.73,0,0,0,.18.81,1.29,1.29,0,0,0,.52.54,1.41,1.41,0,0,0,.74.2,1.36,1.36,0,0,0,1-.42,1.57,1.57,0,0,0,.39-1.13,1.61,1.61,0,0,0-.39-1.14,1.39,1.39,0,0,0-1-.41A1.41,1.41,0,0,0,102.86,509.09Z"/><path d="M107,508.33l1.37,3.33,1.27-3.33h.78l-2.52,6.23h-.79l.88-2.07-1.78-4.16Z"/><path d="M21,521.11a1.46,1.46,0,0,1-.56.54,2.07,2.07,0,0,1-.94.2,2.25,2.25,0,0,1-1-.19,1.71,1.71,0,0,1-.67-.54,1.53,1.53,0,0,1-.28-.78h.74a1.16,1.16,0,0,0,.16.45,1.14,1.14,0,0,0,.39.36,1.21,1.21,0,0,0,.6.14,1,1,0,0,0,.71-.25.86.86,0,0,0,.25-.63.8.8,0,0,0-.18-.54,1.27,1.27,0,0,0-.43-.32,5.43,5.43,0,0,0-.69-.26,7,7,0,0,1-.83-.32,1.5,1.5,0,0,1-.53-.45,1.37,1.37,0,0,1-.22-.79,1.32,1.32,0,0,1,.21-.75,1.3,1.3,0,0,1,.58-.5,2.13,2.13,0,0,1,.9-.18,1.93,1.93,0,0,1,1.27.39,1.5,1.5,0,0,1,.55,1h-.76a1,1,0,0,0-.33-.57,1,1,0,0,0-.73-.25,1,1,0,0,0-.68.22.79.79,0,0,0-.25.62.76.76,0,0,0,.16.51,1,1,0,0,0,.42.31,4.65,4.65,0,0,0,.67.25,7.28,7.28,0,0,1,.85.33,1.39,1.39,0,0,1,.54.46,1.4,1.4,0,0,1,.22.83A1.48,1.48,0,0,1,21,521.11Z"/><path d="M25.52,518a1.89,1.89,0,0,1,.45,1.36v2.46h-.7v-2.4a1.34,1.34,0,0,0-.32-1,1.17,1.17,0,0,0-.88-.33,1.19,1.19,0,0,0-.92.37,1.55,1.55,0,0,0-.35,1.09v2.24h-.7v-5.7h.7v2.47a1.42,1.42,0,0,1,.58-.79,1.61,1.61,0,0,1,.95-.28A1.56,1.56,0,0,1,25.52,518Z"/><path d="M27.06,516a.5.5,0,0,1,.35-.12.47.47,0,0,1,.34.12.41.41,0,0,1,0,.62.47.47,0,0,1-.34.12.5.5,0,0,1-.35-.12.43.43,0,0,1,0-.62Zm.69,1.55v4.23h-.7v-4.23Z"/><path d="M32.21,517.78a1.73,1.73,0,0,1,.69.75,2.51,2.51,0,0,1,.25,1.16,2.47,2.47,0,0,1-.25,1.15,1.68,1.68,0,0,1-.69.75,1.84,1.84,0,0,1-1,.26,1.69,1.69,0,0,1-1-.31,1.57,1.57,0,0,1-.59-.82v3.08h-.7v-6.23h.7v1.08a1.57,1.57,0,0,1,.59-.82,1.69,1.69,0,0,1,1-.31A1.84,1.84,0,0,1,32.21,517.78Zm-1.94.55a1.33,1.33,0,0,0-.51.54,1.68,1.68,0,0,0-.19.82,1.62,1.62,0,0,0,.19.81,1.21,1.21,0,0,0,.51.54,1.44,1.44,0,0,0,.74.2,1.36,1.36,0,0,0,1.05-.42,1.61,1.61,0,0,0,.38-1.13,1.65,1.65,0,0,0-.38-1.14,1.39,1.39,0,0,0-1.05-.41A1.43,1.43,0,0,0,30.27,518.33Z"/><path d="M37.4,517.78a1.73,1.73,0,0,1,.69.75,2.51,2.51,0,0,1,.25,1.16,2.47,2.47,0,0,1-.25,1.15,1.68,1.68,0,0,1-.69.75,1.84,1.84,0,0,1-1,.26,1.69,1.69,0,0,1-1-.31,1.57,1.57,0,0,1-.59-.82v3.08h-.7v-6.23h.7v1.08a1.57,1.57,0,0,1,.59-.82,1.69,1.69,0,0,1,1-.31A1.84,1.84,0,0,1,37.4,517.78Zm-1.94.55a1.33,1.33,0,0,0-.51.54,1.68,1.68,0,0,0-.19.82,1.62,1.62,0,0,0,.19.81,1.21,1.21,0,0,0,.51.54,1.44,1.44,0,0,0,.74.2,1.36,1.36,0,0,0,1-.42,1.57,1.57,0,0,0,.39-1.13,1.61,1.61,0,0,0-.39-1.14,1.39,1.39,0,0,0-1-.41A1.43,1.43,0,0,0,35.46,518.33Z"/><path d="M43.12,519.84H39.74a1.44,1.44,0,0,0,.41,1.08,1.36,1.36,0,0,0,1,.36A1.33,1.33,0,0,0,42,521a1,1,0,0,0,.42-.68h.75a1.83,1.83,0,0,1-.34.78,1.85,1.85,0,0,1-.69.54,2.29,2.29,0,0,1-1,.19,2.16,2.16,0,0,1-1.08-.26,1.76,1.76,0,0,1-.73-.75,2.35,2.35,0,0,1-.27-1.15,2.39,2.39,0,0,1,.27-1.16,1.82,1.82,0,0,1,.73-.75,2.16,2.16,0,0,1,1.08-.26,2.11,2.11,0,0,1,1.08.26,1.88,1.88,0,0,1,.7.7,2,2,0,0,1,.24,1A2.21,2.21,0,0,1,43.12,519.84Zm-.83-1.13a1.11,1.11,0,0,0-.49-.47,1.5,1.5,0,0,0-.67-.15,1.39,1.39,0,0,0-1,.36,1.42,1.42,0,0,0-.42,1h2.7A1.47,1.47,0,0,0,42.29,518.71Z"/><path d="M45.37,517.74a1.85,1.85,0,0,1,1-.24v.76h-.22a1.52,1.52,0,0,0-1,.31,1.22,1.22,0,0,0-.38,1v2.23h-.7v-4.23h.7v.86A1.64,1.64,0,0,1,45.37,517.74Z"/><path d="M51.93,517.78a2,2,0,0,1,.76.75,2.39,2.39,0,0,1,.27,1.16,2.35,2.35,0,0,1-.27,1.15,1.89,1.89,0,0,1-.76.75,2.17,2.17,0,0,1-1.09.26,2.2,2.2,0,0,1-1.09-.26,1.89,1.89,0,0,1-.76-.75,2.35,2.35,0,0,1-.27-1.15,2.39,2.39,0,0,1,.27-1.16,2,2,0,0,1,.76-.75,2.2,2.2,0,0,1,1.09-.26A2.17,2.17,0,0,1,51.93,517.78Zm-1.79.52a1.34,1.34,0,0,0-.51.52,1.8,1.8,0,0,0-.2.87,1.76,1.76,0,0,0,.2.86,1.34,1.34,0,0,0,.51.52,1.54,1.54,0,0,0,.7.17,1.51,1.51,0,0,0,.7-.17,1.34,1.34,0,0,0,.51-.52,1.76,1.76,0,0,0,.2-.86,1.8,1.8,0,0,0-.2-.87,1.34,1.34,0,0,0-.51-.52,1.51,1.51,0,0,0-.7-.17A1.54,1.54,0,0,0,50.14,518.3Z"/><path d="M55.18,517.74a1.85,1.85,0,0,1,1-.24v.76h-.22a1.54,1.54,0,0,0-1,.31,1.22,1.22,0,0,0-.37,1v2.23h-.7v-4.23h.7v.86A1.62,1.62,0,0,1,55.18,517.74Z"/><path d="M62.78,516.81a2.45,2.45,0,0,1,.89,1.33h-.74a1.84,1.84,0,0,0-.67-.86,2,2,0,0,0-1.13-.32,1.74,1.74,0,0,0-1.61,1,2.38,2.38,0,0,0-.25,1.13,2.34,2.34,0,0,0,.25,1.12,1.8,1.8,0,0,0,.66.73,1.78,1.78,0,0,0,1,.26,2,2,0,0,0,1.13-.32,1.79,1.79,0,0,0,.67-.86h.74a2.48,2.48,0,0,1-.89,1.34,2.68,2.68,0,0,1-1.64.49,2.61,2.61,0,0,1-1.35-.35,2.39,2.39,0,0,1-.91-1,3.29,3.29,0,0,1,0-2.87,2.33,2.33,0,0,1,.91-1,2.52,2.52,0,0,1,1.35-.35A2.62,2.62,0,0,1,62.78,516.81Z"/><path d="M67.62,517.78a1.87,1.87,0,0,1,.75.75,2.4,2.4,0,0,1,.28,1.16,2.36,2.36,0,0,1-.28,1.15,1.81,1.81,0,0,1-.75.75,2.2,2.2,0,0,1-1.09.26,2.17,2.17,0,0,1-1.09-.26,1.83,1.83,0,0,1-.76-.75,2.25,2.25,0,0,1-.28-1.15,2.29,2.29,0,0,1,.28-1.16,1.89,1.89,0,0,1,.76-.75,2.17,2.17,0,0,1,1.09-.26A2.2,2.2,0,0,1,67.62,517.78Zm-1.79.52a1.44,1.44,0,0,0-.52.52,1.8,1.8,0,0,0-.19.87,1.76,1.76,0,0,0,.19.86,1.44,1.44,0,0,0,.52.52,1.51,1.51,0,0,0,.7.17,1.47,1.47,0,0,0,.69-.17,1.3,1.3,0,0,0,.52-.52,1.76,1.76,0,0,0,.2-.86,1.8,1.8,0,0,0-.2-.87,1.3,1.3,0,0,0-.52-.52,1.47,1.47,0,0,0-.69-.17A1.51,1.51,0,0,0,65.83,518.3Z"/><path d="M73,518a1.89,1.89,0,0,1,.46,1.36v2.46h-.7v-2.4a1.34,1.34,0,0,0-.33-1,1.17,1.17,0,0,0-.88-.33,1.19,1.19,0,0,0-.92.37,1.55,1.55,0,0,0-.35,1.09v2.24h-.7v-4.23h.7v1a1.42,1.42,0,0,1,.58-.79,1.61,1.61,0,0,1,1-.28A1.56,1.56,0,0,1,73,518Z"/><path d="M77,517.89a1.59,1.59,0,0,1,.53,1h-.67a1,1,0,0,0-1-.87.9.9,0,0,0-.59.18.64.64,0,0,0-.21.49.54.54,0,0,0,.14.38,1.07,1.07,0,0,0,.36.21c.14.05.33.1.58.16a6.19,6.19,0,0,1,.76.22,1.08,1.08,0,0,1,.49.36,1,1,0,0,1,.21.66,1.05,1.05,0,0,1-.39.84,1.56,1.56,0,0,1-1,.32,2,2,0,0,1-1.23-.36,1.42,1.42,0,0,1-.56-1H75a.9.9,0,0,0,.34.63,1.21,1.21,0,0,0,.78.24.85.85,0,0,0,.57-.19.63.63,0,0,0,.2-.48.54.54,0,0,0-.15-.4.92.92,0,0,0-.36-.22,4.26,4.26,0,0,0-.59-.16,6,6,0,0,1-.75-.22,1.09,1.09,0,0,1-.48-.34,1,1,0,0,1-.19-.64,1,1,0,0,1,.39-.85,1.61,1.61,0,0,1,1.07-.33A1.69,1.69,0,0,1,77,517.89Z"/><path d="M78.5,516a.57.57,0,0,1,.7,0,.43.43,0,0,1,0,.62.57.57,0,0,1-.7,0,.43.43,0,0,1,0-.62Zm.7,1.55v4.23h-.7v-4.23Z"/><path d="M83.1,517.83a1.59,1.59,0,0,1,.59.82v-1.08h.7v4.3a2.21,2.21,0,0,1-.24,1,1.84,1.84,0,0,1-.7.71,2,2,0,0,1-1,.25,2.26,2.26,0,0,1-1.4-.41,1.8,1.8,0,0,1-.68-1.11H81a1.21,1.21,0,0,0,.46.66,1.53,1.53,0,0,0,.89.24,1.3,1.3,0,0,0,.94-.36,1.35,1.35,0,0,0,.37-1v-1.15a1.66,1.66,0,0,1-.59.83,1.8,1.8,0,0,1-1,.3,1.87,1.87,0,0,1-1-.26,1.8,1.8,0,0,1-.69-.75,2.6,2.6,0,0,1-.25-1.15,2.64,2.64,0,0,1,.25-1.16,1.82,1.82,0,0,1,1.69-1A1.74,1.74,0,0,1,83.1,517.83Zm-1.88.72a1.61,1.61,0,0,0-.39,1.14,1.57,1.57,0,0,0,.39,1.13,1.33,1.33,0,0,0,1,.42A1.45,1.45,0,0,0,83,521a1.27,1.27,0,0,0,.51-.54,1.73,1.73,0,0,0,.18-.81,1.8,1.8,0,0,0-.18-.82,1.4,1.4,0,0,0-.51-.54,1.44,1.44,0,0,0-.75-.19A1.36,1.36,0,0,0,81.22,518.55Z"/><path d="M88.93,518a1.89,1.89,0,0,1,.45,1.36v2.46h-.7v-2.4a1.34,1.34,0,0,0-.32-1,1.33,1.33,0,0,0-1.8,0,1.55,1.55,0,0,0-.35,1.09v2.24h-.7v-4.23h.7v1a1.42,1.42,0,0,1,.58-.79,1.61,1.61,0,0,1,.95-.28A1.56,1.56,0,0,1,88.93,518Z"/><path d="M94.32,519.84H90.94a1.48,1.48,0,0,0,.41,1.08,1.36,1.36,0,0,0,1,.36,1.31,1.31,0,0,0,.85-.26,1,1,0,0,0,.42-.68h.75a1.71,1.71,0,0,1-.34.78,1.85,1.85,0,0,1-.69.54,2.25,2.25,0,0,1-1,.19,2.1,2.1,0,0,1-1.07-.26,1.78,1.78,0,0,1-.74-.75,2.35,2.35,0,0,1-.26-1.15,2.39,2.39,0,0,1,.26-1.16,1.84,1.84,0,0,1,.74-.75,2.35,2.35,0,0,1,2.15,0,1.81,1.81,0,0,1,.7.7,2,2,0,0,1,.24,1A2.21,2.21,0,0,1,94.32,519.84Zm-.83-1.13a1.11,1.11,0,0,0-.49-.47,1.47,1.47,0,0,0-.67-.15,1.34,1.34,0,0,0-1.39,1.41h2.7A1.39,1.39,0,0,0,93.49,518.71Z"/><path d="M99.13,519.84H95.75a1.44,1.44,0,0,0,.41,1.08,1.47,1.47,0,0,0,1.8.1,1,1,0,0,0,.42-.68h.75a1.84,1.84,0,0,1-.35.78,1.7,1.7,0,0,1-.69.54,2.24,2.24,0,0,1-1,.19,2.11,2.11,0,0,1-1.08-.26,1.76,1.76,0,0,1-.73-.75,2.35,2.35,0,0,1-.27-1.15,2.39,2.39,0,0,1,.27-1.16,1.82,1.82,0,0,1,.73-.75,2.11,2.11,0,0,1,1.08-.26,2,2,0,0,1,1.07.26,1.75,1.75,0,0,1,.7.7,1.9,1.9,0,0,1,.25,1A2.21,2.21,0,0,1,99.13,519.84Zm-.84-1.13a1.09,1.09,0,0,0-.48-.47,1.53,1.53,0,0,0-.67-.15,1.37,1.37,0,0,0-1,.36,1.42,1.42,0,0,0-.42,1h2.7A1.47,1.47,0,0,0,98.29,518.71Z"/><path d="M111.73,793.86l-2.6,6h-1.82l2.63-5.83h-3.08v-1.5h4.87Z"/><path d="M114,798.13v1.76h-1.82v-1.76Z"/><path d="M118.75,797.34v2.55H117v-7.26h2.85a2.75,2.75,0,0,1,2,.64,2.27,2.27,0,0,1,.68,1.73,2.34,2.34,0,0,1-.31,1.21,2.08,2.08,0,0,1-.9.83,3.13,3.13,0,0,1-1.44.3Zm2-2.34c0-.64-.35-1-1.06-1h-.89v1.89h.89C120.35,795.93,120.7,795.62,120.7,795Z"/><path d="M126.66,794.38a1.82,1.82,0,0,1,.69.81v-1h1.75v5.73h-1.75v-1a1.82,1.82,0,0,1-.69.81,2.1,2.1,0,0,1-1.13.3,2.27,2.27,0,0,1-1.27-.36,2.33,2.33,0,0,1-.88-1,3.85,3.85,0,0,1,0-3.12,2.39,2.39,0,0,1,.88-1,2.27,2.27,0,0,1,1.27-.36A2.1,2.1,0,0,1,126.66,794.38ZM125.18,796a1.73,1.73,0,0,0,0,2.06,1.29,1.29,0,0,0,1.82,0,1.42,1.42,0,0,0,.35-1,1.41,1.41,0,0,0-.35-1,1.29,1.29,0,0,0-1.82,0Z"/><path d="M131.64,794.16l1.37,3.51,1.29-3.51h1.94l-3.58,8.46h-1.93l1.35-3-2.41-5.51Z"/><path d="M145.91,794.75a2.57,2.57,0,0,1,.6,1.81v3.33h-1.74v-3.12a1.18,1.18,0,0,0-.29-.85,1.2,1.2,0,0,0-1.63,0,1.28,1.28,0,0,0-.3.91v3h-1.76v-3.12a1.18,1.18,0,0,0-.28-.85,1.05,1.05,0,0,0-.79-.31,1.1,1.1,0,0,0-.83.32,1.25,1.25,0,0,0-.31.92v3h-1.76v-5.73h1.76v1a1.74,1.74,0,0,1,.69-.76,2.15,2.15,0,0,1,1.09-.27,2.2,2.2,0,0,1,1.16.3,1.85,1.85,0,0,1,.76.87,2.33,2.33,0,0,1,.82-.86,2.38,2.38,0,0,1,2.81.34Z"/><path d="M153.07,797.34h-4a1.33,1.33,0,0,0,.33.93,1.19,1.19,0,0,0,1.41.09,1,1,0,0,0,.34-.51H153a2.41,2.41,0,0,1-.49,1.09,2.77,2.77,0,0,1-1,.75,3.1,3.1,0,0,1-1.31.27,3,3,0,0,1-1.49-.36,2.39,2.39,0,0,1-1-1,3.1,3.1,0,0,1-.37-1.56,3.21,3.21,0,0,1,.36-1.56,2.45,2.45,0,0,1,1-1,3.08,3.08,0,0,1,1.5-.36,3.13,3.13,0,0,1,1.5.35,2.48,2.48,0,0,1,1,1,2.93,2.93,0,0,1,.36,1.46A2.09,2.09,0,0,1,153.07,797.34Zm-2-1.59a1.12,1.12,0,0,0-.78-.28,1.16,1.16,0,0,0-.8.29,1.22,1.22,0,0,0-.36.84h2.24A1,1,0,0,0,151.05,795.75Z"/><path d="M159.24,794.75a2.63,2.63,0,0,1,.58,1.81v3.33h-1.75v-3.12a1.26,1.26,0,0,0-.31-.9,1,1,0,0,0-.8-.33,1.12,1.12,0,0,0-.85.34,1.38,1.38,0,0,0-.31,1v3H154v-5.73h1.76v1a1.84,1.84,0,0,1,.73-.81,2.15,2.15,0,0,1,1.14-.29A2,2,0,0,1,159.24,794.75Z"/><path d="M164.23,798.38v1.51h-.79a2.28,2.28,0,0,1-1.57-.5,2.12,2.12,0,0,1-.56-1.65v-2.1h-.77v-1.48h.77v-1.41h1.76v1.41h1.15v1.48h-1.15v2.13a.64.64,0,0,0,.13.47.68.68,0,0,0,.47.14Z"/><path d="M171,799.89l-1.57-2.75H169v2.75h-1.76v-7.26h3a3.36,3.36,0,0,1,1.46.29,2,2,0,0,1,.89.82,2.34,2.34,0,0,1,.3,1.19,2.11,2.11,0,0,1-.43,1.34,2.3,2.3,0,0,1-1.27.76l1.72,2.86Zm-2-3.95h1.09a1.08,1.08,0,0,0,.77-.23.9.9,0,0,0,.25-.68.91.91,0,0,0-.26-.68,1.05,1.05,0,0,0-.76-.25H169Z"/><path d="M179.19,797.34h-4a1.33,1.33,0,0,0,.33.93,1.19,1.19,0,0,0,1.41.09,1,1,0,0,0,.34-.51h1.86a2.42,2.42,0,0,1-.5,1.09,2.77,2.77,0,0,1-1,.75,3.1,3.1,0,0,1-1.31.27,3,3,0,0,1-1.49-.36,2.39,2.39,0,0,1-1-1,3.1,3.1,0,0,1-.37-1.56,3.21,3.21,0,0,1,.36-1.56,2.57,2.57,0,0,1,1-1,3.08,3.08,0,0,1,1.5-.36,3.13,3.13,0,0,1,1.5.35,2.48,2.48,0,0,1,1,1,2.93,2.93,0,0,1,.36,1.46A2.79,2.79,0,0,1,179.19,797.34Zm-2-1.59a1.12,1.12,0,0,0-.78-.28,1.16,1.16,0,0,0-.8.29,1.22,1.22,0,0,0-.36.84h2.24A1,1,0,0,0,177.16,795.75Z"/><path d="M184.6,794.7a2.67,2.67,0,0,1,.94,1.67h-1.86a.93.93,0,0,0-.34-.57,1,1,0,0,0-.64-.21,1,1,0,0,0-.76.37,1.63,1.63,0,0,0-.3,1.06,1.61,1.61,0,0,0,.3,1.06.92.92,0,0,0,.76.37,1,1,0,0,0,.64-.21.9.9,0,0,0,.34-.57h1.86a2.72,2.72,0,0,1-.94,1.68,2.89,2.89,0,0,1-1.86.61,3.08,3.08,0,0,1-1.5-.36,2.5,2.5,0,0,1-1-1,3.47,3.47,0,0,1,0-3.12,2.45,2.45,0,0,1,1-1,3.08,3.08,0,0,1,1.5-.36A2.84,2.84,0,0,1,184.6,794.7Z"/><path d="M191.85,797.34h-4a1.33,1.33,0,0,0,.33.93,1.19,1.19,0,0,0,1.41.09,1,1,0,0,0,.34-.51h1.86a2.42,2.42,0,0,1-.5,1.09,2.77,2.77,0,0,1-1,.75A3.1,3.1,0,0,1,189,800a3,3,0,0,1-1.49-.36,2.39,2.39,0,0,1-1-1,3.1,3.1,0,0,1-.37-1.56,3.21,3.21,0,0,1,.36-1.56,2.57,2.57,0,0,1,1-1,3.08,3.08,0,0,1,1.5-.36,3.13,3.13,0,0,1,1.5.35,2.48,2.48,0,0,1,1,1,2.93,2.93,0,0,1,.36,1.46A2.79,2.79,0,0,1,191.85,797.34Zm-2-1.59a1.12,1.12,0,0,0-.78-.28,1.16,1.16,0,0,0-.8.29,1.22,1.22,0,0,0-.36.84h2.24A1,1,0,0,0,189.82,795.75Z"/><path d="M192.94,791.88a1.23,1.23,0,0,1,1.51,0,.84.84,0,0,1,.29.66.83.83,0,0,1-.29.66,1.23,1.23,0,0,1-1.51,0,.83.83,0,0,1-.29-.66A.84.84,0,0,1,192.94,791.88Zm1.63,2.28v5.73h-1.76v-5.73Z"/><path d="M198.43,798.17l1.24-4h1.87l-2,5.73h-2.18l-2-5.73h1.87Z"/><path d="M207.66,797.34h-4a1.37,1.37,0,0,0,.32.93,1.07,1.07,0,0,0,.76.28,1,1,0,0,0,.65-.19,1,1,0,0,0,.34-.51h1.86a2.52,2.52,0,0,1-.49,1.09,2.9,2.9,0,0,1-1,.75,3.29,3.29,0,0,1-2.8-.09,2.5,2.5,0,0,1-1-1,3.47,3.47,0,0,1,0-3.12,2.45,2.45,0,0,1,1-1,3,3,0,0,1,1.5-.36,3.19,3.19,0,0,1,1.5.35,2.55,2.55,0,0,1,1,1,3,3,0,0,1,.35,1.46A2.79,2.79,0,0,1,207.66,797.34Zm-2-1.59a1.11,1.11,0,0,0-.77-.28,1.11,1.11,0,0,0-1.16,1.13h2.23A1,1,0,0,0,205.63,795.75Z"/><path d="M211.93,794.38a1.82,1.82,0,0,1,.69.81v-2.9h1.75v7.6h-1.75v-1a1.82,1.82,0,0,1-.69.81,2,2,0,0,1-1.13.3,2.32,2.32,0,0,1-2.15-1.38,4,4,0,0,1,0-3.12,2.39,2.39,0,0,1,.88-1,2.32,2.32,0,0,1,1.27-.36A2,2,0,0,1,211.93,794.38ZM210.46,796a1.69,1.69,0,0,0,0,2.06,1.2,1.2,0,0,0,.91.37,1.18,1.18,0,0,0,.9-.38,1.43,1.43,0,0,0,.36-1,1.41,1.41,0,0,0-.36-1,1.18,1.18,0,0,0-.9-.38A1.2,1.2,0,0,0,210.46,796Z"/><circle class="cls-15" cx="162.61" cy="745.08" r="31.3"/><circle class="cls-6" cx="160.7" cy="750.89" r="0.69"/><path class="cls-6" d="M165.51,742.6a7.58,7.58,0,1,0-7.58-7.58A7.59,7.59,0,0,0,165.51,742.6Zm0-13.78a6.2,6.2,0,1,1-6.2,6.2A6.21,6.21,0,0,1,165.51,728.82Z"/><path class="cls-6" d="M179.27,742.72a2.76,2.76,0,0,0-3.86.31l-4.07,4.18a2.78,2.78,0,0,0-2.14-1h-7.68a8.89,8.89,0,0,0-3.45-.69,8.53,8.53,0,0,0-7.77,4.41,2,2,0,0,0-1.84.57l-3.28,3.29a.68.68,0,0,0,0,1l7.73,7.79a.7.7,0,0,0,1,0l3.34-3.29a2.1,2.1,0,0,0,.49-2.14l.71-.69a2,2,0,0,1,1.44-.58H169a6.17,6.17,0,0,0,4.32-1.76c.05-.05-.36.44,6.25-7.46A2.77,2.77,0,0,0,179.27,742.72Zm-23,15.54-2.84,2.8-6.77-6.82,2.79-2.8a.68.68,0,0,1,.85-.09c.12.07-.22-.24,6,5.94A.68.68,0,0,1,156.25,758.26Zm22.29-12.54-6.17,7.39a4.84,4.84,0,0,1-3.34,1.34h-9.16a3.42,3.42,0,0,0-2.39,1l-.59.57-5.4-5.4a7.14,7.14,0,0,1,6.58-3.71,7.51,7.51,0,0,1,3,.63.67.67,0,0,0,.28.06h7.82a1.38,1.38,0,1,1,0,2.76h-5.62a.69.69,0,1,0,0,1.37h5.62a2.75,2.75,0,0,0,2.75-2.75,2.17,2.17,0,0,0,0-.36l4.51-4.64a1.38,1.38,0,1,1,2.1,1.78Z"/><path class="cls-6" d="M165.37,737.09a1.26,1.26,0,0,1-.89-.52.71.71,0,0,0-1-.09.69.69,0,0,0-.08,1,2.82,2.82,0,0,0,1.26.9v.81a.69.69,0,0,0,1.38,0v-.81a2.07,2.07,0,0,0-.69-4,.69.69,0,0,1-.69-.69.68.68,0,0,1,.69-.68,1.08,1.08,0,0,1,.74.36.7.7,0,0,0,1,0,.68.68,0,0,0,0-1,2.76,2.76,0,0,0-1-.64v-.8a.69.69,0,0,0-1.38,0v.81a2.06,2.06,0,0,0,.69,4,.69.69,0,1,1,0,1.38Z"/><path class="cls-6" d="M298.63,625.71h-1.34v-6.17a2.7,2.7,0,0,0-2.69-2.69h-1.81l-1.86-3.34a1.63,1.63,0,0,0-1.41-.83,1.59,1.59,0,0,0-.78.2l-7.14,4h-8a2.69,2.69,0,0,0-2.68,2.69V638a2.68,2.68,0,0,0,2.68,2.68h21a2.69,2.69,0,0,0,2.69-2.68v-5.42h1.34v-6.84Zm-4-7.78a1.6,1.6,0,0,1,1.6,1.43h-2l-.8-1.43Zm-5.34-4.11a.55.55,0,0,1,.73.21l3,5.33H279.3ZM296.21,638a1.62,1.62,0,0,1-1.61,1.61h-21A1.62,1.62,0,0,1,272,638V619.54a1.61,1.61,0,0,1,1.61-1.61h6.05l-2.58,1.43H274a.54.54,0,1,0,0,1.07h22.25v5.28h-3.92A3.31,3.31,0,0,0,289,629v.23a3.31,3.31,0,0,0,3.31,3.3h3.92V638Zm1.35-6.49h-5.27a2.24,2.24,0,0,1-2.24-2.23V629a2.24,2.24,0,0,1,2.24-2.24h5.27Zm-3.63-2.3a1.19,1.19,0,1,1-1.18-1.19A1.18,1.18,0,0,1,293.93,629.18Z"/><g id="surface1"><path class="cls-6" d="M291.66,150.19l-.77.84,3.47,3.18a4,4,0,0,1,1.28,2.91V171h1.13V157.12a5.11,5.11,0,0,0-1.65-3.75Z"/><path class="cls-6" d="M287.16,137h-14.7a2.82,2.82,0,0,0-2.83,2.82v28.28a2.83,2.83,0,0,0,2.83,2.83h14.13v-1a12.93,12.93,0,0,1,2.17-7.16.56.56,0,0,0-.07-.71l-4-4a1.84,1.84,0,0,1-.53-1.39,1.82,1.82,0,0,1,.67-1.33,1.9,1.9,0,0,1,2.53.2l5.58,5.58.8-.8L290,156.6V139.86A2.83,2.83,0,0,0,287.16,137Zm1.7,18.42-.66-.65a3,3,0,0,0-4.05-.27,3,3,0,0,0-1.08,2.15,3,3,0,0,0,.86,2.24l3.64,3.63a14,14,0,0,0-2.1,7.28h-13a1.7,1.7,0,0,1-1.7-1.7v-1.7H284.9v-1.13H270.76V141.56h18.1Zm0-15h-18.1v-.57a1.7,1.7,0,0,1,1.7-1.69h14.7a1.7,1.7,0,0,1,1.7,1.69Z"/><path class="cls-6" d="M273,147.22h2.26a1.13,1.13,0,0,0,1.13-1.14v-2.26a1.13,1.13,0,0,0-1.13-1.13H273a1.14,1.14,0,0,0-1.13,1.13v2.26A1.14,1.14,0,0,0,273,147.22Zm0-3.4h2.26v2.26H273Z"/><path class="cls-6" d="M278.68,147.22h2.26a1.14,1.14,0,0,0,1.13-1.14v-2.26a1.14,1.14,0,0,0-1.13-1.13h-2.26a1.13,1.13,0,0,0-1.13,1.13v2.26A1.13,1.13,0,0,0,278.68,147.22Zm0-3.4h2.26v2.26h-2.26Z"/><path class="cls-6" d="M284.33,147.22h2.26a1.14,1.14,0,0,0,1.14-1.14v-2.26a1.14,1.14,0,0,0-1.14-1.13h-2.26a1.14,1.14,0,0,0-1.13,1.13v2.26A1.14,1.14,0,0,0,284.33,147.22Zm0-3.4h2.26v2.26h-2.26Z"/><path class="cls-6" d="M273,152.87h2.26a1.13,1.13,0,0,0,1.13-1.13v-2.26a1.12,1.12,0,0,0-1.13-1.13H273a1.13,1.13,0,0,0-1.13,1.13v2.26A1.14,1.14,0,0,0,273,152.87Zm0-3.39h2.26v2.26H273Z"/><path class="cls-6" d="M273,158.53h2.26a1.13,1.13,0,0,0,1.13-1.13v-2.27a1.13,1.13,0,0,0-1.13-1.13H273a1.14,1.14,0,0,0-1.13,1.13v2.27A1.14,1.14,0,0,0,273,158.53Zm0-3.4h2.26v2.27H273Z"/><path class="cls-6" d="M278.68,152.87h2.26a1.14,1.14,0,0,0,1.13-1.13v-2.26a1.13,1.13,0,0,0-1.13-1.13h-2.26a1.12,1.12,0,0,0-1.13,1.13v2.26A1.13,1.13,0,0,0,278.68,152.87Zm0-3.39h2.26v2.26h-2.26Z"/><path class="cls-6" d="M284.33,152.87h2.26a1.14,1.14,0,0,0,1.14-1.13v-2.26a1.13,1.13,0,0,0-1.14-1.13h-2.26a1.13,1.13,0,0,0-1.13,1.13v2.26A1.14,1.14,0,0,0,284.33,152.87Zm0-3.39h2.26v2.26h-2.26Z"/><path class="cls-6" d="M278.68,158.53h2.26a1.14,1.14,0,0,0,1.13-1.13v-2.27a1.14,1.14,0,0,0-1.13-1.13h-2.26a1.13,1.13,0,0,0-1.13,1.13v2.27A1.13,1.13,0,0,0,278.68,158.53Zm0-3.4h2.26v2.27h-2.26Z"/><path class="cls-6" d="M273,164.18h2.26a1.12,1.12,0,0,0,1.13-1.13v-2.26a1.12,1.12,0,0,0-1.13-1.13H273a1.13,1.13,0,0,0-1.13,1.13v2.26A1.13,1.13,0,0,0,273,164.18Zm0-3.39h2.26v2.26H273Z"/><path class="cls-6" d="M278.68,164.18h2.26a1.13,1.13,0,0,0,1.13-1.13v-2.26a1.13,1.13,0,0,0-1.13-1.13h-2.26a1.12,1.12,0,0,0-1.13,1.13v2.26A1.12,1.12,0,0,0,278.68,164.18Zm0-3.39h2.26v2.26h-2.26Z"/><path class="cls-6" d="M279.24,167.58h1.13v1.13h-1.13Z"/></g><path class="cls-6" d="M162.73,255.74a15.11,15.11,0,1,0,15.11,15.11A15.13,15.13,0,0,0,162.73,255.74Zm0,27.75a12.64,12.64,0,1,1,12.64-12.64A12.65,12.65,0,0,1,162.73,283.49Z"/><path class="cls-6" d="M169.27,265.05l-9,9-4.1-4.11a1.24,1.24,0,0,0-1.75,1.76l5,5a1.25,1.25,0,0,0,.88.37,1.23,1.23,0,0,0,.87-.37l9.85-9.84a1.24,1.24,0,0,0-1.75-1.76Z"/><circle class="cls-1" cx="43.41" cy="389.66" r="31.3"/><path class="cls-6" d="M54.31,393.43a.77.77,0,0,0,1.54,0V381.78a.77.77,0,0,0-.77-.77H31.73a.78.78,0,0,0-.77.77v11.65a.77.77,0,0,0,1.54,0V382.55H54.31Z"/><path class="cls-6" d="M60.62,396.18H59.2V380a2.33,2.33,0,0,0-2.33-2.33H29.94A2.33,2.33,0,0,0,27.61,380v16.19H26.19a.69.69,0,0,0-.69.69v1.37a3.42,3.42,0,0,0,3.42,3.42h29a3.43,3.43,0,0,0,3.42-3.42v-1.37A.69.69,0,0,0,60.62,396.18ZM29.15,380a.79.79,0,0,1,.79-.79H56.87a.79.79,0,0,1,.79.79v16.19H47.07a.7.7,0,0,0-.56.68,1.07,1.07,0,0,1-1.06,1.07H41.37a1.07,1.07,0,0,1-1.07-1.07.69.69,0,0,0-.71-.69H29.15Zm30.78,18.25h0a2,2,0,0,1-2,2h-29a2,2,0,0,1-2-2v-.67H39a2.45,2.45,0,0,0,2.35,1.75h4.08a2.45,2.45,0,0,0,2.35-1.75H59.93Z"/><path class="cls-6" d="M44.55,386.58a.77.77,0,1,0-1.09-1.09l-4.85,4.85a.77.77,0,0,0,0,1.09.76.76,0,0,0,1.09,0Z"/><path class="cls-6" d="M46.33,388.3l-1.93,1.93a.77.77,0,0,0,0,1.09.76.76,0,0,0,1.09,0l1.93-1.93a.77.77,0,0,0-1.09-1.09Z"/><path class="cls-6" d="M179.1,497.54c-6.09,0-9.47,1.56-9.61,1.63a.75.75,0,0,0-.41.48.78.78,0,0,0,0,.56c-1.17-.45-2.8-1.1-4.44-1.83-3.55-1.59-5.5-.54-8.29,2.25-1.06,1.06-2.5,3.21-2.13,4.78a1.92,1.92,0,0,0,1.33,1.4,3.9,3.9,0,0,0,4.56-1.56,4,4,0,0,0,1.16-.37l.54-.23c.89.83,2.09,1.8,3.35,2.82,2.28,1.84,4.86,3.93,5.45,5.14a.94.94,0,0,1-.23,1.17.88.88,0,0,1-.93.2c-.58-.46-3-3-4.56-4.57a.78.78,0,1,0-1.12,1.08c.36.37,3.26,3.39,4.42,4.45a1.08,1.08,0,0,1-.58.62,1.18,1.18,0,0,1-1.2,0l0,0c-.93-.75-3.26-3.23-3.79-3.8a.77.77,0,1,0-1.14,1s2.3,2.48,3.59,3.64a1.53,1.53,0,0,1-.83.83.82.82,0,0,1-.89-.14h0l0,0c-1.11-.93-3.37-3.34-3.81-3.81a.77.77,0,0,0-1.14,1.05c.53.57,2.09,2.23,3.27,3.33l-.37,0a4.44,4.44,0,0,1-1.9-.65c-.55-.36-4-2.9-6.91-5.37-.41-.35-1.13-1.1-1.76-1.76-.47-.48-.9-.93-1.18-1.19A65.41,65.41,0,0,0,152,498.38a.8.8,0,0,0-.24-.63c-1.33-1.26-6.65-1.66-8.24-1.76a.76.76,0,0,0-.58.21.77.77,0,0,0-.25.57v14a.78.78,0,0,0,.78.78h4.65a.77.77,0,0,0,.74-.54s.08-.24.18-.56l.57.6c.7.72,1.41,1.47,1.89,1.87,2.89,2.42,6.36,5,7,5.48a5.89,5.89,0,0,0,2.76.9,2.7,2.7,0,0,0,1.76-.51,2.43,2.43,0,0,0,1.76,0,3.12,3.12,0,0,0,1.61-1.49,3,3,0,0,0,1.95-.28,2.65,2.65,0,0,0,1.29-1.36,2.49,2.49,0,0,0,1.78-.63,2.45,2.45,0,0,0,.84-2.36l1.23-.82c.09.28.16.52.21.7a.77.77,0,0,0,.75.57h4.65a.78.78,0,0,0,.78-.78V498.32A.78.78,0,0,0,179.1,497.54ZM144.21,510V497.6a22.93,22.93,0,0,1,6.15,1.1A82.53,82.53,0,0,1,147.52,510Zm27.37,1.25a35.86,35.86,0,0,0-5.4-4.94c-1.41-1.14-2.74-2.21-3.59-3.06a.78.78,0,0,0-.81-.18,11.06,11.06,0,0,0-1.1.45,2.6,2.6,0,0,1-1,.28.78.78,0,0,0-.57.34c-1.1,1.64-2.23,1.5-3,1.25-.24-.08-.29-.19-.31-.29-.16-.68.65-2.26,1.71-3.32,2.52-2.52,3.82-3.16,6.57-1.93,2.6,1.16,5.2,2.11,6,2.4.91,2.22,2.14,5.66,2.94,8Zm6.74.3H175c-.74-2.4-2.91-8.64-4.12-11.22a25.41,25.41,0,0,1,7.41-1.18Z"/></svg>