<svg id="Layer_1" data-name="Layer 1" xmlns="http://www.w3.org/2000/svg" viewBox="0 0 804.54 312.63"><defs><style>.cls-1,.cls-10,.cls-11,.cls-12,.cls-13,.cls-2,.cls-3{fill:none;stroke-miterlimit:10;}.cls-1{stroke:#1c1c1c;}.cls-2{stroke:#ff9414;}.cls-11,.cls-2,.cls-3{stroke-dasharray:1 2;}.cls-13,.cls-3{stroke:#b0221d;}.cls-4{fill:#0277e2;}.cls-5{fill:#fff;}.cls-6{fill:#9fdf31;}.cls-7{fill:#ff9414;}.cls-8{fill:#b0221d;}.cls-9{fill:#00dc9b;}.cls-10{stroke:#9fdf31;}.cls-11{stroke:#0277e2;}.cls-12{stroke:#00dc9b;}.cls-14{fill:#1c1c1c;}.cls-15{fill:#22ad00;}</style></defs><title>Artboard 1sol</title><path class="cls-1" d="M630.25,69.25v57.92c32.74,0,32.13,32.13,32.13,32.13h56"/><path class="cls-2" d="M393.69,130.27c30.24,0,31.45,29,31.45,29h56.25"/><path class="cls-3" d="M630.18,187.73c-30.24,0-31.45-29-31.45-29H542.48"/><path d="M21.15,200.13v-1.64h2.92v7.23H22.23v-5.59Z"/><path d="M26.78,204v1.75H25V204Z"/><path d="M34.63,204.74a2,2,0,0,1-.86.76,3,3,0,0,1-1.37.29,3.25,3.25,0,0,1-2-.59,2.15,2.15,0,0,1-.86-1.66H31.4a1,1,0,0,0,.29.64.89.89,0,0,0,.64.24.76.76,0,0,0,.53-.18.66.66,0,0,0,.19-.5.69.69,0,0,0-.17-.46,1.48,1.48,0,0,0-.45-.3l-.73-.28a8.9,8.9,0,0,1-1.12-.45,2.13,2.13,0,0,1-.75-.66,1.87,1.87,0,0,1-.31-1.13,1.89,1.89,0,0,1,.33-1.11,2.09,2.09,0,0,1,.9-.72,3.24,3.24,0,0,1,1.32-.25A3,3,0,0,1,34,199a2.2,2.2,0,0,1,.8,1.58H32.9a1,1,0,0,0-.26-.57.77.77,0,0,0-.57-.21.71.71,0,0,0-.49.16.68.68,0,0,0,0,.92,1.31,1.31,0,0,0,.42.29c.17.07.42.17.74.28a8.83,8.83,0,0,1,1.13.47,2.2,2.2,0,0,1,.76.67,1.9,1.9,0,0,1,.31,1.14A2,2,0,0,1,34.63,204.74Z"/><path d="M39.12,204.21v1.51h-.78a2.27,2.27,0,0,1-1.56-.5,2.11,2.11,0,0,1-.56-1.64v-2.09h-.76V200h.76v-1.4H38V200h1.15v1.48H38v2.12a.5.5,0,0,0,.6.6Z"/><path d="M43.4,200.24a1.82,1.82,0,0,1,.69.81v-1h1.74v5.71H44.09v-1a1.76,1.76,0,0,1-.69.81,2.07,2.07,0,0,1-1.13.3,2.34,2.34,0,0,1-1.26-.35,2.52,2.52,0,0,1-.88-1,3.94,3.94,0,0,1,0-3.11,2.43,2.43,0,0,1,.88-1,2.26,2.26,0,0,1,1.26-.36A2.07,2.07,0,0,1,43.4,200.24Zm-1.47,1.6a1.72,1.72,0,0,0,0,2,1.28,1.28,0,0,0,1.81,0,1.65,1.65,0,0,0,0-2,1.3,1.3,0,0,0-1.81,0Z"/><path d="M49.62,200.26a2.22,2.22,0,0,1,1.12-.31v1.87h-.5a1.68,1.68,0,0,0-1.07.3,1.18,1.18,0,0,0-.39,1v2.6H47V200h1.75v1.08A2.47,2.47,0,0,1,49.62,200.26Z"/><path d="M54.71,204.21v1.51h-.79a2.28,2.28,0,0,1-1.56-.5,2.11,2.11,0,0,1-.55-1.64v-2.09H51V200h.77v-1.4h1.74V200H54.7v1.48H53.55v2.12a.64.64,0,0,0,.14.47.66.66,0,0,0,.47.13Z"/><path d="M11.39,218.07a2.26,2.26,0,0,1-1,.94,3.29,3.29,0,0,1-1.53.33H7.17v-5.4H8.89a3.42,3.42,0,0,1,1.53.32,2.2,2.2,0,0,1,1,.94,3.29,3.29,0,0,1,0,2.87Zm-.94.1a2,2,0,0,0,.56-1.53,2.08,2.08,0,0,0-.56-1.54,2.24,2.24,0,0,0-1.62-.55h-1v4.16h1A2.23,2.23,0,0,0,10.45,218.17Z"/><path d="M16.51,217.39H13.14a1.48,1.48,0,0,0,.41,1.08,1.34,1.34,0,0,0,.95.36,1.36,1.36,0,0,0,.84-.26,1,1,0,0,0,.42-.68h.75a1.84,1.84,0,0,1-.35.78,1.74,1.74,0,0,1-.68.54,2.4,2.4,0,0,1-1,.19,2.17,2.17,0,0,1-1.07-.26,1.91,1.91,0,0,1-.74-.75,2.67,2.67,0,0,1,0-2.3,1.91,1.91,0,0,1,.74-.75,2.33,2.33,0,0,1,2.14,0,1.91,1.91,0,0,1,.94,1.66A2.21,2.21,0,0,1,16.51,217.39Zm-.83-1.12a1.14,1.14,0,0,0-.48-.47,1.53,1.53,0,0,0-.67-.15,1.41,1.41,0,0,0-1,.35,1.45,1.45,0,0,0-.42,1.05h2.69A1.37,1.37,0,0,0,15.68,216.27Z"/><path d="M18.15,213.67v5.67h-.7v-5.67Z"/><path d="M19.27,213.59a.5.5,0,0,1,.35-.12.47.47,0,0,1,.34.12.43.43,0,0,1,0,.62.47.47,0,0,1-.34.12.5.5,0,0,1-.35-.12.43.43,0,0,1,0-.62Zm.69,1.54v4.21h-.7v-4.21Z"/><path d="M22.71,218.6,24,215.13h.75l-1.65,4.21h-.83l-1.65-4.21h.76Z"/><path d="M29.29,217.39H25.93a1.44,1.44,0,0,0,.41,1.08,1.31,1.31,0,0,0,.94.36,1.39,1.39,0,0,0,.85-.26,1,1,0,0,0,.42-.68h.74a1.71,1.71,0,0,1-.34.78,1.85,1.85,0,0,1-.69.54,2.4,2.4,0,0,1-1,.19,2.2,2.2,0,0,1-1.07-.26,1.88,1.88,0,0,1-.73-.75,2.58,2.58,0,0,1,0-2.3,1.88,1.88,0,0,1,.73-.75,2.2,2.2,0,0,1,1.07-.26,2.15,2.15,0,0,1,1.07.26,1.81,1.81,0,0,1,.7.7,2,2,0,0,1,.24,1A2.21,2.21,0,0,1,29.29,217.39Zm-.83-1.12a1.14,1.14,0,0,0-.48-.47,1.53,1.53,0,0,0-.67-.15,1.4,1.4,0,0,0-1,.35,1.45,1.45,0,0,0-.42,1.05h2.69A1.45,1.45,0,0,0,28.46,216.27Z"/><path d="M31.54,215.31a1.79,1.79,0,0,1,1-.24v.76h-.22a1.49,1.49,0,0,0-1,.3,1.21,1.21,0,0,0-.38,1v2.21h-.7v-4.21h.7V216A1.5,1.5,0,0,1,31.54,215.31Z"/><path d="M33.47,215.13l1.36,3.32,1.27-3.32h.77l-2.5,6.21h-.79l.88-2.07-1.78-4.14Z"/><path d="M39.41,213.59a.47.47,0,0,1,.34-.12.51.51,0,0,1,.35.12.43.43,0,0,1,0,.62.51.51,0,0,1-.35.12.47.47,0,0,1-.34-.12.43.43,0,0,1,0-.62Zm.69,1.54v4.21h-.7v-4.21Z"/><path d="M43.68,215.45a1.55,1.55,0,0,1,.52,1h-.66a1,1,0,0,0-.31-.61,1,1,0,0,0-.71-.25.89.89,0,0,0-.59.19.6.6,0,0,0-.21.48.5.5,0,0,0,.14.37.88.88,0,0,0,.36.22,4.49,4.49,0,0,0,.57.15,7.75,7.75,0,0,1,.76.22,1.33,1.33,0,0,1,.49.36,1,1,0,0,1,.2.66,1,1,0,0,1-.38.83,1.56,1.56,0,0,1-1,.33A2,2,0,0,1,41.6,219a1.45,1.45,0,0,1-.56-1h.67a.86.86,0,0,0,.34.62,1.16,1.16,0,0,0,.77.24.83.83,0,0,0,.57-.18.66.66,0,0,0,.2-.49.56.56,0,0,0-.14-.39,1.09,1.09,0,0,0-.36-.22l-.59-.16a5.27,5.27,0,0,1-.75-.21,1.2,1.2,0,0,1-.48-.35.93.93,0,0,1-.19-.63,1,1,0,0,1,.39-.85,1.58,1.58,0,0,1,1.06-.33A1.74,1.74,0,0,1,43.68,215.45Z"/><path d="M53.43,215.54a1.88,1.88,0,0,1,.45,1.36v2.44h-.7V217a1.35,1.35,0,0,0-.3-1,1.07,1.07,0,0,0-.83-.33,1.15,1.15,0,0,0-.89.36,1.56,1.56,0,0,0-.33,1.07v2.23h-.7V217a1.31,1.31,0,0,0-.31-1,1.07,1.07,0,0,0-.83-.33,1.15,1.15,0,0,0-.89.36,1.56,1.56,0,0,0-.33,1.07v2.23h-.7v-4.21h.7v1a1.34,1.34,0,0,1,.55-.76,1.54,1.54,0,0,1,.9-.26,1.65,1.65,0,0,1,.94.27,1.48,1.48,0,0,1,.56.8,1.49,1.49,0,0,1,.59-.79,1.62,1.62,0,0,1,.93-.28A1.54,1.54,0,0,1,53.43,215.54Z"/><path d="M57.72,215.39a1.59,1.59,0,0,1,.59.82v-1.08H59v4.21h-.7v-1.07a1.59,1.59,0,0,1-.59.82,1.76,1.76,0,0,1-1,.31,1.92,1.92,0,0,1-1-.26,1.85,1.85,0,0,1-.69-.75,2.77,2.77,0,0,1,0-2.3,1.85,1.85,0,0,1,.69-.75,1.92,1.92,0,0,1,1-.26A1.69,1.69,0,0,1,57.72,215.39Zm-1.87.72a1.58,1.58,0,0,0-.39,1.13,1.57,1.57,0,0,0,.39,1.13,1.33,1.33,0,0,0,1,.41,1.41,1.41,0,0,0,.74-.19,1.33,1.33,0,0,0,.51-.54,1.73,1.73,0,0,0,.18-.81,1.79,1.79,0,0,0-.18-.81,1.33,1.33,0,0,0-.51-.54,1.41,1.41,0,0,0-.74-.19A1.36,1.36,0,0,0,55.85,216.11Z"/><path d="M62.89,215.39a1.59,1.59,0,0,1,.59.82v-2.54h.7v5.67h-.7v-1.07a1.59,1.59,0,0,1-.59.82,1.78,1.78,0,0,1-1,.31,2,2,0,0,1-1-.26,1.83,1.83,0,0,1-.68-.75,2.77,2.77,0,0,1,0-2.3,1.83,1.83,0,0,1,.68-.75,2,2,0,0,1,1-.26A1.71,1.71,0,0,1,62.89,215.39Zm-1.87.72a1.58,1.58,0,0,0-.39,1.13,1.57,1.57,0,0,0,.39,1.13,1.31,1.31,0,0,0,1,.41,1.43,1.43,0,0,0,.74-.19,1.47,1.47,0,0,0,.51-.54,1.73,1.73,0,0,0,.18-.81,1.79,1.79,0,0,0-.18-.81,1.47,1.47,0,0,0-.51-.54,1.43,1.43,0,0,0-.74-.19A1.35,1.35,0,0,0,61,216.11Z"/><path d="M69.13,217.39H65.76a1.53,1.53,0,0,0,.41,1.08,1.36,1.36,0,0,0,1,.36,1.39,1.39,0,0,0,.85-.26,1.09,1.09,0,0,0,.42-.68h.74a1.83,1.83,0,0,1-.34.78,1.85,1.85,0,0,1-.69.54,2.4,2.4,0,0,1-.95.19,2.2,2.2,0,0,1-1.07-.26,1.88,1.88,0,0,1-.73-.75,2.58,2.58,0,0,1,0-2.3,1.88,1.88,0,0,1,.73-.75,2.2,2.2,0,0,1,1.07-.26,2.15,2.15,0,0,1,1.07.26,1.88,1.88,0,0,1,.7.7,2,2,0,0,1,.24,1A2.21,2.21,0,0,1,69.13,217.39Zm-.83-1.12a1.14,1.14,0,0,0-.48-.47,1.53,1.53,0,0,0-.67-.15,1.4,1.4,0,0,0-1,.35,1.45,1.45,0,0,0-.43,1.05h2.69A1.37,1.37,0,0,0,68.3,216.27Z"/><circle class="cls-4" cx="38.36" cy="157.94" r="31.3"/><path class="cls-5" d="M49.69,163.56a3.27,3.27,0,0,0-2.32,1,3.24,3.24,0,0,0,0,4.62,3.27,3.27,0,1,0,2.32-5.58Zm0,5.09a1.82,1.82,0,1,1,0-3.63,1.82,1.82,0,0,1,0,3.63Zm.85-16a.73.73,0,0,0-.49-.19H46.32a.73.73,0,0,0-.72.73v6a.72.72,0,0,0,.72.72h5.92a.72.72,0,0,0,.72-.72v-4a.7.7,0,0,0-.24-.54Zm1,5.77H47.05v-4.51h2.72l1.74,1.57ZM32,163.56a3.31,3.31,0,0,0-3.3,3.27,3.18,3.18,0,0,0,1,2.31A3.26,3.26,0,1,0,32,163.56Zm0,5.09A1.82,1.82,0,1,1,32,165a1.82,1.82,0,0,1,0,3.63Zm-4.85-4.19H25.64v-1.94a.72.72,0,0,0-.72-.72.73.73,0,0,0-.73.72v2.66a.73.73,0,0,0,.73.73H27.1a.73.73,0,0,0,.73-.73A.73.73,0,0,0,27.1,164.46Zm3.69-4a.73.73,0,0,0-.73-.73H21.25a.73.73,0,0,0-.73.73.73.73,0,0,0,.73.72h8.81A.73.73,0,0,0,30.79,160.5Zm-8.07-2.63,8.82,0a.73.73,0,0,0,.73-.72.72.72,0,0,0-.72-.73l-8.81-.05h0a.73.73,0,0,0,0,1.45Zm1.48-3.3H33a.73.73,0,0,0,.73-.72.73.73,0,0,0-.73-.73H24.2a.73.73,0,0,0-.72.73A.72.72,0,0,0,24.2,154.57Zm31.74-1h0l-5.21-4.31a.76.76,0,0,0-.46-.16H44.15V146.5a.73.73,0,0,0-.73-.72H24.92a.73.73,0,0,0-.73.72v5.32a.73.73,0,0,0,.73.73.73.73,0,0,0,.72-.73v-4.59H42.7v17.23h-6a.73.73,0,0,0-.73.72.73.73,0,0,0,.73.73h8.87a.73.73,0,0,0,.73-.73.73.73,0,0,0-.73-.72H44.16V150.57H50l4.74,3.92,0,9.95H54a.73.73,0,0,0,0,1.46h1.47a.73.73,0,0,0,.73-.72l.06-11A.81.81,0,0,0,55.94,153.59Z"/><circle class="cls-6" cx="275.18" cy="157.89" r="31.3"/><circle class="cls-7" cx="512.27" cy="157.97" r="31.3"/><circle class="cls-8" cx="629.88" cy="38.18" r="31.3"/><circle class="cls-9" cx="155.7" cy="38.19" r="31.3"/><line class="cls-10" x1="306.6" y1="159.3" x2="362.85" y2="159.3"/><path class="cls-11" d="M157.21,188.94c-30.24,0-31.45-29.64-31.45-29.64H69.51"/><path class="cls-12" d="M156.07,69.25v57.92c32.74,0,32.13,32.13,32.13,32.13h56"/><path class="cls-10" d="M304.5,159.13h57.92c0,32.73,32.13,32.13,32.13,32.13v56"/><path class="cls-12" d="M191.68,38.34s-.59-34.92-35.14-36.26"/><polygon class="cls-9" points="158.61 0.51 156.83 2.12 158.44 3.9 157.01 3.83 155.4 2.05 157.17 0.44 158.61 0.51"/><path class="cls-13" d="M668.22,37.2c-.47-6.09-4.36-34.61-36.23-35.15"/><polygon class="cls-8" points="669.78 35.1 668.19 36.9 666.39 35.32 666.48 36.75 668.28 38.34 669.87 36.54 669.78 35.1"/><path d="M207.15,28.91c0-.56-.25-.84-.73-.84a.65.65,0,0,0-.6.28,1.73,1.73,0,0,0-.21.9h-1.72a2.75,2.75,0,0,1,.8-2,2.72,2.72,0,0,1,1.87-.66,2.45,2.45,0,0,1,1.78.59,2.1,2.1,0,0,1,.6,1.55,3.27,3.27,0,0,1-.81,2.07,7.24,7.24,0,0,1-1.94,1.71h2.87v1.42h-5.18V32.61Q207.15,30.28,207.15,28.91Z"/><path d="M211.46,32.26V34h-1.82V32.26Z"/><path d="M219.64,26.75v1.4h-2V34h-1.76V28.15h-2v-1.4Z"/><path d="M228.55,26.8V34h-1.76V29.5L225.23,34h-1.52l-1.57-4.52V34h-1.76V26.8h2.15l2,5,1.92-5Z"/><path d="M234.68,33a2.09,2.09,0,0,1-.86.77,3.06,3.06,0,0,1-1.38.28,3.31,3.31,0,0,1-2-.59,2.19,2.19,0,0,1-.86-1.67h1.87a1,1,0,0,0,.29.65.89.89,0,0,0,.64.24.73.73,0,0,0,.54-.19.64.64,0,0,0,.19-.49.62.62,0,0,0-.18-.46,1.29,1.29,0,0,0-.44-.31l-.74-.28a11,11,0,0,1-1.13-.45,2.13,2.13,0,0,1-.75-.66,2,2,0,0,1-.31-1.14,1.92,1.92,0,0,1,.33-1.12,2.12,2.12,0,0,1,.91-.72,3.25,3.25,0,0,1,1.33-.25,3,3,0,0,1,1.92.57,2.19,2.19,0,0,1,.81,1.58h-1.9a1,1,0,0,0-.26-.56.84.84,0,0,0-1.07-.05.59.59,0,0,0-.19.48.64.64,0,0,0,.17.44,1.13,1.13,0,0,0,.43.29c.17.08.41.17.73.29a7.32,7.32,0,0,1,1.14.47,2,2,0,0,1,.76.67A1.87,1.87,0,0,1,235,32,2,2,0,0,1,234.68,33Z"/><path d="M240.65,32.3l1.24-4h1.87l-2,5.73h-2.18l-2-5.73h1.87Z"/><path d="M247.8,28.51a1.9,1.9,0,0,1,.7.81v-1h1.74V34H248.5V33a1.87,1.87,0,0,1-.7.82,2.16,2.16,0,0,1-1.13.29,2.38,2.38,0,0,1-1.27-.35,2.45,2.45,0,0,1-.88-1,3.51,3.51,0,0,1-.33-1.56,3.46,3.46,0,0,1,.33-1.57,2.45,2.45,0,0,1,.88-1,2.38,2.38,0,0,1,1.27-.35A2.07,2.07,0,0,1,247.8,28.51Zm-1.48,1.61a1.46,1.46,0,0,0-.34,1,1.43,1.43,0,0,0,.34,1,1.18,1.18,0,0,0,.91.37,1.16,1.16,0,0,0,.91-.38,1.61,1.61,0,0,0,0-2,1.29,1.29,0,0,0-1.82,0Z"/><path d="M253.21,26.41V34h-1.76v-7.6Z"/><path d="M254.54,26a1.06,1.06,0,0,1,.76-.26,1,1,0,0,1,.76.26.88.88,0,0,1,0,1.31,1,1,0,0,1-.76.26,1.06,1.06,0,0,1-.76-.26.91.91,0,0,1,0-1.31Zm1.64,2.27V34h-1.76V28.28Z"/><path d="M260.69,28.51a1.7,1.7,0,0,1,.69.81V26.41h1.76V34h-1.76V33a1.68,1.68,0,0,1-.69.82,2.13,2.13,0,0,1-1.13.29,2.34,2.34,0,0,1-1.26-.35,2.47,2.47,0,0,1-.89-1,3.65,3.65,0,0,1-.32-1.56,3.6,3.6,0,0,1,.32-1.57,2.47,2.47,0,0,1,.89-1,2.34,2.34,0,0,1,1.26-.35A2,2,0,0,1,260.69,28.51Zm-1.47,1.61a1.46,1.46,0,0,0-.34,1,1.43,1.43,0,0,0,.34,1,1.29,1.29,0,0,0,1.82,0,1.65,1.65,0,0,0,0-2,1.21,1.21,0,0,0-.91-.38A1.17,1.17,0,0,0,259.22,30.12Z"/><path d="M267.66,28.51a1.82,1.82,0,0,1,.69.81v-1h1.75V34h-1.75V33a1.79,1.79,0,0,1-.69.82,2.18,2.18,0,0,1-1.13.29,2.35,2.35,0,0,1-1.27-.35,2.47,2.47,0,0,1-.89-1,3.65,3.65,0,0,1-.32-1.56,3.6,3.6,0,0,1,.32-1.57,2.47,2.47,0,0,1,.89-1,2.35,2.35,0,0,1,1.27-.35A2.1,2.1,0,0,1,267.66,28.51Zm-1.48,1.61a1.46,1.46,0,0,0-.34,1,1.43,1.43,0,0,0,.34,1,1.29,1.29,0,0,0,1.82,0,1.65,1.65,0,0,0,0-2,1.21,1.21,0,0,0-.91-.38A1.17,1.17,0,0,0,266.18,30.12Z"/><path d="M274.56,32.5V34h-.8a2.22,2.22,0,0,1-1.56-.5,2.11,2.11,0,0,1-.56-1.64V29.76h-.77V28.28h.77v-1.4h1.76v1.4h1.15v1.48H273.4V31.9a.66.66,0,0,0,.13.47.68.68,0,0,0,.47.13Z"/><path d="M280.93,31.46h-4a1.29,1.29,0,0,0,.33.93,1,1,0,0,0,.76.29,1,1,0,0,0,.64-.2A.91.91,0,0,0,279,32h1.86a2.53,2.53,0,0,1-.49,1.08,2.67,2.67,0,0,1-1,.75,3.05,3.05,0,0,1-1.3.27,3.19,3.19,0,0,1-1.5-.35,2.63,2.63,0,0,1-1-1,3.27,3.27,0,0,1-.37-1.56,3.12,3.12,0,0,1,.37-1.57,2.51,2.51,0,0,1,1-1,3.19,3.19,0,0,1,1.5-.35,3.13,3.13,0,0,1,1.5.35,2.48,2.48,0,0,1,1,1A3,3,0,0,1,281,31,2,2,0,0,1,280.93,31.46Zm-2-1.58a1.09,1.09,0,0,0-.77-.28,1.15,1.15,0,0,0-.8.28,1.26,1.26,0,0,0-.36.85h2.24A1.08,1.08,0,0,0,278.9,29.88Z"/><path d="M285.72,28.75a2.39,2.39,0,0,1,.82,1.44h-1.65a.89.89,0,0,0-.32-.55,1,1,0,0,0-.63-.2.65.65,0,0,0-.45.13.47.47,0,0,0-.16.37.44.44,0,0,0,.29.4,5.17,5.17,0,0,0,.88.26,9.22,9.22,0,0,1,1.08.32,1.68,1.68,0,0,1,.73.51,1.43,1.43,0,0,1,.31,1,1.45,1.45,0,0,1-.27.87,1.69,1.69,0,0,1-.77.6,3.05,3.05,0,0,1-1.19.21,3.1,3.1,0,0,1-1.86-.51,2.17,2.17,0,0,1-.85-1.47h1.7a.75.75,0,0,0,.31.57,1.16,1.16,0,0,0,.7.19.65.65,0,0,0,.45-.14.44.44,0,0,0,.16-.36.46.46,0,0,0-.28-.43,6.52,6.52,0,0,0-.92-.27,6.34,6.34,0,0,1-1.05-.29,1.68,1.68,0,0,1-.71-.5,1.35,1.35,0,0,1-.3-.93,1.54,1.54,0,0,1,.59-1.25,2.53,2.53,0,0,1,1.65-.48A2.62,2.62,0,0,1,285.72,28.75Z"/><path d="M295,31.46h-4a1.33,1.33,0,0,0,.32.93,1.07,1.07,0,0,0,.76.29,1,1,0,0,0,.65-.2.91.91,0,0,0,.34-.5H295a2.53,2.53,0,0,1-.49,1.08,2.67,2.67,0,0,1-1,.75,3.05,3.05,0,0,1-1.3.27,3.19,3.19,0,0,1-1.5-.35,2.63,2.63,0,0,1-1-1,3.16,3.16,0,0,1-.37-1.56,3.12,3.12,0,0,1,.37-1.57,2.51,2.51,0,0,1,1-1,3.39,3.39,0,0,1,3,0,2.48,2.48,0,0,1,1,1,3,3,0,0,1,.35,1.45A2.69,2.69,0,0,1,295,31.46Zm-2-1.58a1.11,1.11,0,0,0-.77-.28,1.13,1.13,0,0,0-.8.28,1.18,1.18,0,0,0-.36.85h2.23A1,1,0,0,0,293,29.88Z"/><path d="M297.76,31.46V34H296V26.75h2.85a2.79,2.79,0,0,1,2,.64,2.29,2.29,0,0,1,.68,1.73,2.39,2.39,0,0,1-.3,1.21,2.19,2.19,0,0,1-.9.83,3.2,3.2,0,0,1-1.45.3Zm1.95-2.34c0-.63-.35-.95-1.06-.95h-.89v1.89h.89C299.36,30.06,299.71,29.75,299.71,29.12Z"/><path d="M307.67,27.12A3.42,3.42,0,0,1,309,28.44a3.73,3.73,0,0,1,.49,1.92,3.86,3.86,0,0,1-.49,1.92,3.61,3.61,0,0,1-1.33,1.33,3.88,3.88,0,0,1-3.7,0,3.61,3.61,0,0,1-1.33-1.33,4,4,0,0,1,0-3.84A3.51,3.51,0,0,1,304,27.12a3.62,3.62,0,0,1,1.85-.48A3.66,3.66,0,0,1,307.67,27.12Zm-3.23,1.71a2.18,2.18,0,0,0-.51,1.53,2.2,2.2,0,0,0,.51,1.52,2,2,0,0,0,2.74,0,2.2,2.2,0,0,0,.51-1.52,2.17,2.17,0,0,0-.51-1.52,1.74,1.74,0,0,0-1.37-.57A1.78,1.78,0,0,0,304.44,28.83Z"/><path d="M316.53,32.26a3.19,3.19,0,0,1-1.31,1.29,4.16,4.16,0,0,1-2,.46h-2.74V26.75h2.74a4.31,4.31,0,0,1,2,.45,3.14,3.14,0,0,1,1.3,1.28,3.73,3.73,0,0,1,.46,1.89A3.78,3.78,0,0,1,316.53,32.26Zm-1.88-.36a2,2,0,0,0,.57-1.53,2,2,0,0,0-.57-1.53,2.21,2.21,0,0,0-1.6-.55h-.83v4.15h.83A2.25,2.25,0,0,0,314.65,31.9Z"/><path d="M203.63,42.93v-.66h1.56V47.7h-.74V42.93Z"/><path d="M211,43.73a1.55,1.55,0,0,1,.6.82V42h.7v5.7h-.7V46.62a1.58,1.58,0,0,1-.6.83,1.76,1.76,0,0,1-1,.31,1.85,1.85,0,0,1-1-.27,1.8,1.8,0,0,1-.69-.75,2.44,2.44,0,0,1-.25-1.15,2.47,2.47,0,0,1,.25-1.15,1.89,1.89,0,0,1,.69-.76,1.93,1.93,0,0,1,1-.26A1.69,1.69,0,0,1,211,43.73Zm-1.88.73a1.56,1.56,0,0,0-.38,1.13,1.59,1.59,0,0,0,.38,1.14,1.39,1.39,0,0,0,1,.41,1.41,1.41,0,0,0,.74-.19,1.38,1.38,0,0,0,.52-.55,1.91,1.91,0,0,0,0-1.62,1.38,1.38,0,0,0-.52-.55,1.51,1.51,0,0,0-.74-.19A1.36,1.36,0,0,0,209.1,44.46Z"/><path d="M216.17,43.73a1.55,1.55,0,0,1,.6.82V43.47h.7V47.7h-.7V46.62a1.58,1.58,0,0,1-.6.83,1.76,1.76,0,0,1-1,.31,1.87,1.87,0,0,1-1-.27,1.8,1.8,0,0,1-.69-.75,2.44,2.44,0,0,1-.25-1.15,2.47,2.47,0,0,1,.25-1.15,1.89,1.89,0,0,1,.69-.76,2,2,0,0,1,1-.26A1.69,1.69,0,0,1,216.17,43.73Zm-1.88.73a1.61,1.61,0,0,0-.38,1.13,1.63,1.63,0,0,0,.38,1.14,1.44,1.44,0,0,0,2.3-.33,1.91,1.91,0,0,0,0-1.62,1.38,1.38,0,0,0-.52-.55,1.48,1.48,0,0,0-.74-.19A1.36,1.36,0,0,0,214.29,44.46Z"/><path d="M218.88,43.47l1.37,3.33,1.27-3.33h.78l-2.51,6.24H219l.87-2.08-1.78-4.16Z"/><path d="M697.26,19.62a.78.78,0,0,0-.6-.23.88.88,0,0,0-.85.55,4.14,4.14,0,0,0-.23,1.69,1.37,1.37,0,0,1,.6-.66,2,2,0,0,1,1-.24,2.17,2.17,0,0,1,1.63.62,2.5,2.5,0,0,1,.59,1.78,2.67,2.67,0,0,1-.3,1.29,2.11,2.11,0,0,1-.87.88,2.92,2.92,0,0,1-1.4.32,2.35,2.35,0,0,1-2.19-1A5.16,5.16,0,0,1,694,21.9a5.34,5.34,0,0,1,.65-3,2.34,2.34,0,0,1,2.1-1,2.24,2.24,0,0,1,1.75.65,2.62,2.62,0,0,1,.67,1.65h-1.65A1.19,1.19,0,0,0,697.26,19.62ZM696,23.81a1,1,0,0,0,.78.3,1,1,0,1,0,0-2,1.16,1.16,0,0,0-.74.25.89.89,0,0,0-.29.72A1.06,1.06,0,0,0,696,23.81Z"/><path d="M702,23.79v1.75h-1.82V23.79Z"/><path d="M709.7,18.28v1.4h-3v1.59H709v1.34h-2.3v2.93H705V18.28Z"/><path d="M710.73,17.54a1,1,0,0,1,.76-.26,1.08,1.08,0,0,1,.76.26.85.85,0,0,1,.28.66.83.83,0,0,1-.28.65,1.09,1.09,0,0,1-.76.27,1.05,1.05,0,0,1-.76-.27.84.84,0,0,1-.29-.65A.86.86,0,0,1,710.73,17.54Zm1.63,2.27v5.73H710.6V19.81Z"/><path d="M718.77,20.41a2.63,2.63,0,0,1,.58,1.81v3.32H717.6V22.42a1.25,1.25,0,0,0-.31-.9,1.06,1.06,0,0,0-.8-.32,1.09,1.09,0,0,0-.85.34,1.35,1.35,0,0,0-.31,1v3h-1.76V19.81h1.76v1.05a1.9,1.9,0,0,1,.73-.81,2.17,2.17,0,0,1,1.15-.3A2,2,0,0,1,718.77,20.41Z"/><path d="M723.82,20a1.84,1.84,0,0,1,.7.81v-1h1.74v5.73h-1.74v-1a1.84,1.84,0,0,1-.7.81,2.07,2.07,0,0,1-1.13.3,2.3,2.3,0,0,1-1.27-.36,2.45,2.45,0,0,1-.88-1,3.88,3.88,0,0,1,0-3.13,2.36,2.36,0,0,1,.88-1,2.3,2.3,0,0,1,1.27-.36A2.07,2.07,0,0,1,723.82,20Zm-1.48,1.61a1.73,1.73,0,0,0,0,2.06,1.22,1.22,0,0,0,.91.37,1.19,1.19,0,0,0,.91-.38,1.44,1.44,0,0,0,.36-1,1.41,1.41,0,0,0-.36-1,1.19,1.19,0,0,0-.91-.38A1.22,1.22,0,0,0,722.34,21.65Z"/><path d="M732.67,20.41a2.63,2.63,0,0,1,.58,1.81v3.32H731.5V22.42a1.29,1.29,0,0,0-.3-.9,1.1,1.1,0,0,0-.81-.32,1.09,1.09,0,0,0-.85.34,1.35,1.35,0,0,0-.31,1v3h-1.76V19.81h1.76v1.05a1.9,1.9,0,0,1,.73-.81,2.17,2.17,0,0,1,1.15-.3A2,2,0,0,1,732.67,20.41Z"/><path d="M738.86,20.35A2.67,2.67,0,0,1,739.8,22H738a1,1,0,0,0-1-.78.92.92,0,0,0-.76.37,1.61,1.61,0,0,0-.3,1.06,1.63,1.63,0,0,0,.3,1.06,1,1,0,0,0,.76.37,1,1,0,0,0,.65-.21,1,1,0,0,0,.34-.57h1.85a2.62,2.62,0,0,1-.94,1.67,2.84,2.84,0,0,1-1.86.62,3,3,0,0,1-1.49-.36,2.51,2.51,0,0,1-1-1,3.16,3.16,0,0,1-.37-1.56,3.25,3.25,0,0,1,.36-1.57,2.42,2.42,0,0,1,1-1,3.08,3.08,0,0,1,1.5-.36A2.89,2.89,0,0,1,738.86,20.35Z"/><path d="M740.84,17.54a1.06,1.06,0,0,1,.76-.26,1,1,0,0,1,.76.26.86.86,0,0,1,.29.66.84.84,0,0,1-.29.65,1.05,1.05,0,0,1-.76.27,1.07,1.07,0,0,1-.76-.27.84.84,0,0,1-.29-.65A.86.86,0,0,1,740.84,17.54Zm1.63,2.27v5.73h-1.75V19.81Z"/><path d="M748.89,20.41a2.67,2.67,0,0,1,.58,1.81v3.32h-1.76V22.42a1.29,1.29,0,0,0-.3-.9,1.2,1.2,0,0,0-1.65,0,1.36,1.36,0,0,0-.32,1v3h-1.75V19.81h1.75v1.05a1.93,1.93,0,0,1,.74-.81,2.11,2.11,0,0,1,1.14-.3A2,2,0,0,1,748.89,20.41Z"/><path d="M753.93,20a1.78,1.78,0,0,1,.7.81v-1h1.75v5.7a3.39,3.39,0,0,1-.31,1.45,2.49,2.49,0,0,1-.94,1,3.12,3.12,0,0,1-1.59.38,3.31,3.31,0,0,1-2.07-.61,2.5,2.5,0,0,1-.92-1.66h1.73a.88.88,0,0,0,.38.54,1.34,1.34,0,0,0,.76.2,1.24,1.24,0,0,0,.88-.32,1.32,1.32,0,0,0,.33-1v-1a1.78,1.78,0,0,1-.7.81,2,2,0,0,1-1.13.3,2.26,2.26,0,0,1-1.26-.36,2.47,2.47,0,0,1-.89-1,4,4,0,0,1,0-3.13,2.38,2.38,0,0,1,.89-1,2.26,2.26,0,0,1,1.26-.36A2,2,0,0,1,753.93,20Zm-1.47,1.61a1.73,1.73,0,0,0,0,2.06,1.29,1.29,0,0,0,1.82,0,1.49,1.49,0,0,0,.35-1,1.45,1.45,0,0,0-.35-1,1.29,1.29,0,0,0-1.82,0Z"/><path d="M698.54,36.54h-2.72l-.45,1.33h-1.85l2.66-7.21h2l2.66,7.21H699Zm-.45-1.33-.91-2.67-.91,2.67Z"/><path d="M706.38,32.42a2.36,2.36,0,0,1,.88,1,3.52,3.52,0,0,1,.32,1.57,3.45,3.45,0,0,1-.32,1.56,2.33,2.33,0,0,1-.88,1,2.3,2.3,0,0,1-1.27.36,2.07,2.07,0,0,1-1.13-.3,1.82,1.82,0,0,1-.69-.81V40.6h-1.75V32.14h1.75v1a1.82,1.82,0,0,1,.69-.81,2.07,2.07,0,0,1,1.13-.3A2.3,2.3,0,0,1,706.38,32.42ZM703.64,34a1.41,1.41,0,0,0-.36,1,1.44,1.44,0,0,0,.36,1,1.28,1.28,0,0,0,1.81,0,1.69,1.69,0,0,0,0-2.06,1.28,1.28,0,0,0-1.81,0Z"/><path d="M713.34,32.42a2.36,2.36,0,0,1,.88,1,3.52,3.52,0,0,1,.33,1.57,3.45,3.45,0,0,1-.33,1.56,2.33,2.33,0,0,1-.88,1,2.3,2.3,0,0,1-1.27.36,2.07,2.07,0,0,1-1.13-.3,1.82,1.82,0,0,1-.69-.81V40.6H708.5V32.14h1.75v1a1.82,1.82,0,0,1,.69-.81,2.07,2.07,0,0,1,1.13-.3A2.3,2.3,0,0,1,713.34,32.42ZM710.6,34a1.41,1.41,0,0,0-.36,1,1.44,1.44,0,0,0,.36,1,1.19,1.19,0,0,0,.91.38,1.22,1.22,0,0,0,.91-.37,1.73,1.73,0,0,0,0-2.06,1.22,1.22,0,0,0-.91-.37A1.19,1.19,0,0,0,710.6,34Z"/><path d="M718.06,32.38a2.23,2.23,0,0,1,1.13-.31V34h-.51a1.73,1.73,0,0,0-1.08.3,1.19,1.19,0,0,0-.38,1v2.61h-1.76V32.14h1.76v1.07A2.56,2.56,0,0,1,718.06,32.38Z"/><path d="M724.13,32.42a2.54,2.54,0,0,1,1.06,1,3.39,3.39,0,0,1,0,3.12,2.54,2.54,0,0,1-1.06,1,3.16,3.16,0,0,1-1.52.36,3.2,3.2,0,0,1-1.53-.36,2.56,2.56,0,0,1-1.07-1,3.39,3.39,0,0,1,0-3.12,2.56,2.56,0,0,1,1.07-1,3.2,3.2,0,0,1,1.53-.36A3.16,3.16,0,0,1,724.13,32.42ZM721.76,34a1.79,1.79,0,0,0,0,2.1,1.17,1.17,0,0,0,1.69,0,1.79,1.79,0,0,0,0-2.1,1.15,1.15,0,0,0-1.69,0Z"/><path d="M729.14,36.15l1.24-4h1.87l-2,5.73H728l-2-5.73h1.86Z"/><path d="M736.28,32.36a1.78,1.78,0,0,1,.7.81v-1h1.75v5.73H737v-1a1.78,1.78,0,0,1-.7.81,2,2,0,0,1-1.13.3,2.26,2.26,0,0,1-1.26-.36,2.35,2.35,0,0,1-.89-1,3.59,3.59,0,0,1-.32-1.56,3.67,3.67,0,0,1,.32-1.57,2.38,2.38,0,0,1,.89-1,2.26,2.26,0,0,1,1.26-.36A2,2,0,0,1,736.28,32.36ZM734.81,34a1.73,1.73,0,0,0,0,2.06,1.29,1.29,0,0,0,1.82,0,1.49,1.49,0,0,0,.35-1,1.45,1.45,0,0,0-.35-1,1.29,1.29,0,0,0-1.82,0Z"/><path d="M741.69,30.27v7.6h-1.75v-7.6Z"/><path d="M693.77,46.56V45.9h1.55v5.43h-.74V46.56Z"/><path d="M700.74,48.21v.6h-3.08v-.6Z"/><path d="M706.67,45.94a1.29,1.29,0,0,1,.57.51,1.47,1.47,0,0,1,.19.73,1.21,1.21,0,0,1-1.17,1.27v0a2,2,0,0,1,.93.48,1.15,1.15,0,0,1,.34.89,1.43,1.43,0,0,1-.45,1.09,1.82,1.82,0,0,1-1.28.43,2,2,0,0,1-1.36-.44,1.86,1.86,0,0,1-.62-1.27h.7a1.25,1.25,0,0,0,.39.8,1.2,1.2,0,0,0,.86.3,1.1,1.1,0,0,0,.8-.26.93.93,0,0,0,.27-.69.86.86,0,0,0-.39-.77,2,2,0,0,0-1.13-.27h-.19v-.58h.19c.94,0,1.41-.32,1.41-1a.83.83,0,0,0-.26-.66,1,1,0,0,0-.72-.25,1.2,1.2,0,0,0-.78.26,1.16,1.16,0,0,0-.37.79h-.68a1.69,1.69,0,0,1,.53-1.21,1.88,1.88,0,0,1,1.31-.43A2.14,2.14,0,0,1,706.67,45.94Z"/><path d="M713.24,47.36a1.66,1.66,0,0,1,.6.82V45.63h.7v5.7h-.7V50.25a1.69,1.69,0,0,1-.6.83,1.79,1.79,0,0,1-1,.31,1.9,1.9,0,0,1-1-.27,1.8,1.8,0,0,1-.69-.75,2.57,2.57,0,0,1-.25-1.15,2.6,2.6,0,0,1,.25-1.15,1.89,1.89,0,0,1,.69-.76,2,2,0,0,1,1-.26A1.72,1.72,0,0,1,713.24,47.36Zm-1.88.73a1.57,1.57,0,0,0-.39,1.13,1.61,1.61,0,0,0,.39,1.14,1.36,1.36,0,0,0,1,.41,1.44,1.44,0,0,0,.75-.19,1.29,1.29,0,0,0,.51-.55,1.82,1.82,0,0,0,0-1.62,1.29,1.29,0,0,0-.51-.55,1.55,1.55,0,0,0-.75-.19A1.33,1.33,0,0,0,711.36,48.09Z"/><path d="M718.43,47.36a1.66,1.66,0,0,1,.6.82V47.1h.7v4.23H719V50.25a1.69,1.69,0,0,1-.6.83,1.78,1.78,0,0,1-1,.31,1.91,1.91,0,0,1-1-.27,1.8,1.8,0,0,1-.69-.75,2.57,2.57,0,0,1-.25-1.15,2.6,2.6,0,0,1,.25-1.15,1.89,1.89,0,0,1,.69-.76,2,2,0,0,1,1-.26A1.71,1.71,0,0,1,718.43,47.36Zm-1.88.73a1.57,1.57,0,0,0-.39,1.13,1.61,1.61,0,0,0,.39,1.14,1.37,1.37,0,0,0,1,.41,1.43,1.43,0,0,0,.74-.19,1.29,1.29,0,0,0,.51-.55,1.82,1.82,0,0,0,0-1.62,1.29,1.29,0,0,0-.51-.55,1.54,1.54,0,0,0-.74-.19A1.34,1.34,0,0,0,716.55,48.09Z"/><path d="M721.14,47.1l1.37,3.33,1.27-3.33h.77L722,53.33h-.79l.88-2.07-1.78-4.16Z"/><path d="M727.67,47.42a1.59,1.59,0,0,1,.53,1h-.67a1,1,0,0,0-.31-.62,1,1,0,0,0-.72-.24.89.89,0,0,0-.59.18.61.61,0,0,0-.21.49.53.53,0,0,0,.14.37.93.93,0,0,0,.36.21,4.06,4.06,0,0,0,.58.16,6.19,6.19,0,0,1,.76.22,1.33,1.33,0,0,1,.49.36,1,1,0,0,1,.21.66,1,1,0,0,1-.39.84,1.56,1.56,0,0,1-1,.33,2,2,0,0,1-1.23-.37,1.4,1.4,0,0,1-.56-1h.67a.9.9,0,0,0,.34.63,1.21,1.21,0,0,0,.78.24.8.8,0,0,0,.57-.19.63.63,0,0,0,.2-.48.54.54,0,0,0-.15-.4.92.92,0,0,0-.36-.22c-.14-.05-.34-.1-.59-.16a4.65,4.65,0,0,1-.75-.22,1.09,1.09,0,0,1-.48-.34,1,1,0,0,1-.2-.63,1.07,1.07,0,0,1,.4-.86,1.61,1.61,0,0,1,1.07-.33A1.69,1.69,0,0,1,727.67,47.42Z"/><path d="M229.92,198.46a2,2,0,0,1,.82.72,1.93,1.93,0,0,1,.29,1,1.7,1.7,0,0,1-.37,1.14,1.6,1.6,0,0,1-.91.55v0a1.75,1.75,0,0,1,1.41,1.75,2.2,2.2,0,0,1-.29,1.12,2,2,0,0,1-.84.76,2.93,2.93,0,0,1-1.32.27,3,3,0,0,1-2-.62,2.46,2.46,0,0,1-.8-1.87h1.72a1.2,1.2,0,0,0,.26.76.94.94,0,0,0,.72.27.78.78,0,0,0,.6-.22.8.8,0,0,0,.22-.59c0-.59-.43-.89-1.29-.89h-.33v-1.43h.32c.77,0,1.16-.26,1.16-.83a.77.77,0,0,0-.2-.57.73.73,0,0,0-.54-.2.7.7,0,0,0-.58.25,1.09,1.09,0,0,0-.25.67H226a2.48,2.48,0,0,1,.72-1.76,2.67,2.67,0,0,1,1.87-.62A3.09,3.09,0,0,1,229.92,198.46Z"/><path d="M233.84,204v1.76H232V204Z"/><path d="M242.2,203.23h-4a1.33,1.33,0,0,0,.33.93,1.19,1.19,0,0,0,1.41.09,1,1,0,0,0,.34-.5h1.86a2.43,2.43,0,0,1-.5,1.08,2.55,2.55,0,0,1-1,.75,3.33,3.33,0,0,1-2.8-.08,2.47,2.47,0,0,1-1-1,3.1,3.1,0,0,1-.37-1.56,3.21,3.21,0,0,1,.36-1.56,2.63,2.63,0,0,1,1-1,3.08,3.08,0,0,1,1.5-.35,3,3,0,0,1,1.5.35,2.42,2.42,0,0,1,1,1,2.86,2.86,0,0,1,.36,1.45A2.79,2.79,0,0,1,242.2,203.23Zm-2-1.58a1.12,1.12,0,0,0-.78-.29,1.16,1.16,0,0,0-.8.29,1.22,1.22,0,0,0-.36.84h2.24A1,1,0,0,0,240.17,201.65Z"/><path d="M244.92,203.23v2.55h-1.76v-7.26H246a2.75,2.75,0,0,1,2,.64,2.28,2.28,0,0,1,.67,1.73,2.41,2.41,0,0,1-.3,1.21,2.08,2.08,0,0,1-.9.83,3.16,3.16,0,0,1-1.44.3Zm2-2.34c0-.64-.35-.95-1.06-.95h-.89v1.89h.89C246.52,201.83,246.87,201.51,246.87,200.89Z"/><path d="M254.83,198.88a3.44,3.44,0,0,1,1.32,1.33,3.79,3.79,0,0,1,.48,1.91,3.85,3.85,0,0,1-.48,1.92,3.54,3.54,0,0,1-1.33,1.33,3.82,3.82,0,0,1-3.71,0,3.51,3.51,0,0,1-1.32-1.33,3.76,3.76,0,0,1-.49-1.92,3.7,3.7,0,0,1,.49-1.91,3.51,3.51,0,0,1,1.32-1.33,3.92,3.92,0,0,1,3.72,0Zm-3.23,1.72a2.52,2.52,0,0,0,0,3,1.92,1.92,0,0,0,2.73,0,2.13,2.13,0,0,0,.52-1.52,2.2,2.2,0,0,0-.51-1.52A1.78,1.78,0,0,0,253,200,1.73,1.73,0,0,0,251.6,200.6Z"/><path d="M263.69,204a3.19,3.19,0,0,1-1.31,1.29,4.3,4.3,0,0,1-2,.46h-2.74v-7.26h2.74a4.27,4.27,0,0,1,2,.45,3.15,3.15,0,0,1,1.31,1.27,3.78,3.78,0,0,1,.46,1.89A3.82,3.82,0,0,1,263.69,204Zm-1.89-.37a2,2,0,0,0,.57-1.53,2,2,0,0,0-.57-1.53,2.22,2.22,0,0,0-1.59-.54h-.84v4.15h.84A2.18,2.18,0,0,0,261.8,203.66Z"/><path d="M271.64,200.59a2.7,2.7,0,0,1,.95,1.68h-1.86a.93.93,0,0,0-1-.78.92.92,0,0,0-.75.36,1.63,1.63,0,0,0-.3,1.06A1.66,1.66,0,0,0,269,204a.92.92,0,0,0,.75.36,1,1,0,0,0,.65-.2,1,1,0,0,0,.34-.58h1.86a2.73,2.73,0,0,1-.95,1.68,2.81,2.81,0,0,1-1.85.61,3.16,3.16,0,0,1-1.5-.35,2.59,2.59,0,0,1-1-1,3.1,3.1,0,0,1-.37-1.56,3.21,3.21,0,0,1,.36-1.56,2.59,2.59,0,0,1,1-1,3,3,0,0,1,1.5-.35A2.81,2.81,0,0,1,271.64,200.59Z"/><path d="M277.71,200.33a2.67,2.67,0,0,1,1.06,1,3.16,3.16,0,0,1,.38,1.56,3.11,3.11,0,0,1-.38,1.56,2.63,2.63,0,0,1-1.06,1,3.52,3.52,0,0,1-3.06,0,2.63,2.63,0,0,1-1.06-1,3,3,0,0,1-.38-1.56,3.06,3.06,0,0,1,.38-1.56,2.67,2.67,0,0,1,1.06-1,3.52,3.52,0,0,1,3.06,0Zm-2.37,1.53a1.48,1.48,0,0,0-.35,1,1.46,1.46,0,0,0,.35,1.05,1.17,1.17,0,0,0,1.69,0,1.5,1.5,0,0,0,.33-1.05,1.52,1.52,0,0,0-.33-1,1.17,1.17,0,0,0-1.69,0Z"/><path d="M285.26,200.64a2.63,2.63,0,0,1,.58,1.81v3.33h-1.75v-3.12a1.25,1.25,0,0,0-.3-.9,1.06,1.06,0,0,0-.81-.33,1.12,1.12,0,0,0-.85.34,1.38,1.38,0,0,0-.31,1v3h-1.76v-5.73h1.76v1a1.8,1.8,0,0,1,.73-.81,2.17,2.17,0,0,1,1.15-.3A2,2,0,0,1,285.26,200.64Z"/><path d="M289.82,199.27a.91.91,0,0,0-.63.18.86.86,0,0,0-.21.6h1v1.48h-1v4.25h-1.76v-4.25h-.69v-1.48h.69V200a2.17,2.17,0,0,1,.62-1.65,2.55,2.55,0,0,1,1.8-.58H290v1.51Z"/><path d="M290.91,197.77a1.09,1.09,0,0,1,.76-.26,1.11,1.11,0,0,1,.76.26.88.88,0,0,1,.28.67.85.85,0,0,1-.28.65,1.11,1.11,0,0,1-.76.26,1.09,1.09,0,0,1-.76-.26.86.86,0,0,1-.29-.65A.88.88,0,0,1,290.91,197.77Zm1.63,2.28v5.73h-1.76v-5.73Z"/><path d="M296.35,200.29a2.22,2.22,0,0,1,1.13-.3v1.88H297a1.81,1.81,0,0,0-1.09.29,1.23,1.23,0,0,0-.38,1v2.61h-1.76v-5.73h1.76v1.08A2.59,2.59,0,0,1,296.35,200.29Z"/><path d="M307.3,200.64a2.53,2.53,0,0,1,.61,1.81v3.33h-1.74v-3.12a1.14,1.14,0,0,0-.3-.85,1,1,0,0,0-.79-.3,1.06,1.06,0,0,0-.83.32,1.3,1.3,0,0,0-.3.91v3h-1.76v-3.12a1.14,1.14,0,0,0-.29-.85,1,1,0,0,0-.79-.3,1.08,1.08,0,0,0-.83.32,1.27,1.27,0,0,0-.31.91v3h-1.75v-5.73H300v1a1.77,1.77,0,0,1,.7-.76,2.12,2.12,0,0,1,1.09-.27,2.2,2.2,0,0,1,1.16.3,1.85,1.85,0,0,1,.76.87,2.23,2.23,0,0,1,.82-.85,2,2,0,0,1,1.14-.32A2.12,2.12,0,0,1,307.3,200.64Z"/><path d="M314.47,203.23h-4a1.33,1.33,0,0,0,.33.93,1.05,1.05,0,0,0,.76.28,1,1,0,0,0,.64-.19.91.91,0,0,0,.34-.5h1.86a2.42,2.42,0,0,1-.49,1.08,2.67,2.67,0,0,1-1,.75,3.05,3.05,0,0,1-1.3.27,3.19,3.19,0,0,1-1.5-.35,2.59,2.59,0,0,1-1-1,3.47,3.47,0,0,1,0-3.12,2.51,2.51,0,0,1,1-1,3.08,3.08,0,0,1,1.5-.35,3,3,0,0,1,1.5.35,2.48,2.48,0,0,1,1,1,2.86,2.86,0,0,1,.35,1.45A2,2,0,0,1,314.47,203.23Zm-2-1.58a1.08,1.08,0,0,0-.77-.29,1.16,1.16,0,0,0-.8.29,1.22,1.22,0,0,0-.36.84h2.24A1.06,1.06,0,0,0,312.44,201.65Z"/><path d="M318.74,200.27a1.68,1.68,0,0,1,.69.82v-2.91h1.76v7.6h-1.76v-1a1.7,1.7,0,0,1-.69.81,2,2,0,0,1-1.13.3,2.34,2.34,0,0,1-1.26-.35,2.44,2.44,0,0,1-.89-1,4,4,0,0,1,0-3.12,2.47,2.47,0,0,1,.89-1,2.26,2.26,0,0,1,1.26-.35A2.13,2.13,0,0,1,318.74,200.27Zm-1.47,1.62a1.43,1.43,0,0,0-.34,1,1.46,1.46,0,0,0,.34,1,1.17,1.17,0,0,0,.91.37,1.21,1.21,0,0,0,.91-.38,1.66,1.66,0,0,0,0-2,1.2,1.2,0,0,0-.91-.37A1.17,1.17,0,0,0,317.27,201.89Z"/><path d="M246.67,214.48a2.45,2.45,0,0,1,.89,1.33h-.73a1.91,1.91,0,0,0-.67-.86,2,2,0,0,0-1.14-.32,1.81,1.81,0,0,0-1,.26,1.76,1.76,0,0,0-.66.74,2.51,2.51,0,0,0-.24,1.13,2.46,2.46,0,0,0,.24,1.12,1.74,1.74,0,0,0,.66.73,1.81,1.81,0,0,0,1,.26,2,2,0,0,0,1.14-.32,1.85,1.85,0,0,0,.67-.86h.73a2.48,2.48,0,0,1-.89,1.34,2.68,2.68,0,0,1-1.64.49,2.61,2.61,0,0,1-1.35-.35,2.46,2.46,0,0,1-.91-1,3.29,3.29,0,0,1,0-2.87,2.4,2.4,0,0,1,.91-1A2.52,2.52,0,0,1,245,214,2.62,2.62,0,0,1,246.67,214.48Z"/><path d="M251.51,215.45a2,2,0,0,1,.76.76,2.58,2.58,0,0,1,0,2.3,1.89,1.89,0,0,1-.76.75,2.17,2.17,0,0,1-1.09.26,2.2,2.2,0,0,1-1.09-.26,1.89,1.89,0,0,1-.76-.75,2.58,2.58,0,0,1,0-2.3,2,2,0,0,1,.76-.76,2.31,2.31,0,0,1,1.09-.26A2.28,2.28,0,0,1,251.51,215.45Zm-1.79.52a1.34,1.34,0,0,0-.51.52,1.8,1.8,0,0,0-.2.87,1.74,1.74,0,0,0,.2.86,1.28,1.28,0,0,0,.51.52,1.54,1.54,0,0,0,.7.17,1.51,1.51,0,0,0,.7-.17,1.37,1.37,0,0,0,.52-.52,1.74,1.74,0,0,0,.19-.86,1.8,1.8,0,0,0-.19-.87,1.44,1.44,0,0,0-.52-.52,1.51,1.51,0,0,0-.7-.17A1.54,1.54,0,0,0,249.72,216Z"/><path d="M256.88,215.65a1.89,1.89,0,0,1,.45,1.36v2.46h-.7v-2.39a1.35,1.35,0,0,0-.32-1,1.15,1.15,0,0,0-.88-.34,1.2,1.2,0,0,0-.93.37,1.55,1.55,0,0,0-.34,1.09v2.24h-.7v-4.23h.7v1a1.44,1.44,0,0,1,.57-.79,1.71,1.71,0,0,1,1-.28A1.6,1.6,0,0,1,256.88,215.65Z"/><path d="M260.88,215.56a1.59,1.59,0,0,1,.53,1h-.67a1,1,0,0,0-.31-.62,1,1,0,0,0-.71-.24.89.89,0,0,0-.59.18.61.61,0,0,0-.21.49.49.49,0,0,0,.14.37.82.82,0,0,0,.35.21,4.48,4.48,0,0,0,.58.16,5.7,5.7,0,0,1,.76.22,1.28,1.28,0,0,1,.5.36,1.14,1.14,0,0,1-.19,1.5,1.54,1.54,0,0,1-1,.32,2,2,0,0,1-1.23-.36,1.45,1.45,0,0,1-.56-1h.68a.89.89,0,0,0,.33.63,1.21,1.21,0,0,0,.78.24.79.79,0,0,0,.57-.19.6.6,0,0,0,.21-.48.54.54,0,0,0-.15-.4,1.09,1.09,0,0,0-.36-.22l-.6-.16a6,6,0,0,1-.75-.22,1.12,1.12,0,0,1-.47-.34.92.92,0,0,1-.2-.63,1.05,1.05,0,0,1,.39-.86,1.61,1.61,0,0,1,1.07-.33A1.69,1.69,0,0,1,260.88,215.56Z"/><path d="M262.4,213.69a.47.47,0,0,1,.34-.12.5.5,0,0,1,.35.12.4.4,0,0,1,.13.31.37.37,0,0,1-.13.31.5.5,0,0,1-.35.12.47.47,0,0,1-.34-.12.37.37,0,0,1-.13-.31A.4.4,0,0,1,262.4,213.69Zm.69,1.55v4.23h-.7v-4.23Z"/><path d="M267,215.5a1.61,1.61,0,0,1,.6.82v-1.08h.7v4.3a2.08,2.08,0,0,1-.25,1,1.75,1.75,0,0,1-.69.71,2.08,2.08,0,0,1-1,.25,2.22,2.22,0,0,1-1.4-.41,1.82,1.82,0,0,1-.68-1.11h.69a1.18,1.18,0,0,0,.47.66,1.43,1.43,0,0,0,.88.25,1.31,1.31,0,0,0,.94-.37,1.35,1.35,0,0,0,.38-1v-1.15a1.63,1.63,0,0,1-.6.83,1.77,1.77,0,0,1-1,.3,1.84,1.84,0,0,1-1-.26,1.68,1.68,0,0,1-.69-.75,2.77,2.77,0,0,1,0-2.3,1.76,1.76,0,0,1,.69-.76,1.93,1.93,0,0,1,1-.26A1.71,1.71,0,0,1,267,215.5Zm-1.88.72a1.86,1.86,0,0,0,0,2.28,1.39,1.39,0,0,0,1,.41,1.54,1.54,0,0,0,.74-.19,1.29,1.29,0,0,0,.51-.55,1.62,1.62,0,0,0,.19-.81,1.68,1.68,0,0,0-.19-.82,1.33,1.33,0,0,0-.51-.54,1.54,1.54,0,0,0-.74-.19A1.39,1.39,0,0,0,265.11,216.22Z"/><path d="M272.82,215.65a1.85,1.85,0,0,1,.46,1.36v2.46h-.7v-2.39a1.31,1.31,0,0,0-.33-1,1.12,1.12,0,0,0-.87-.34,1.2,1.2,0,0,0-.93.37,1.55,1.55,0,0,0-.34,1.09v2.24h-.71v-4.23h.71v1a1.4,1.4,0,0,1,.57-.79,1.69,1.69,0,0,1,.95-.28A1.56,1.56,0,0,1,272.82,215.65Z"/><path d="M278.21,217.51h-3.38a1.49,1.49,0,0,0,.42,1.08,1.33,1.33,0,0,0,.95.37,1.39,1.39,0,0,0,.85-.26,1.1,1.1,0,0,0,.42-.69h.74a1.71,1.71,0,0,1-.34.78,1.85,1.85,0,0,1-.69.54,2.24,2.24,0,0,1-.95.19,2.11,2.11,0,0,1-1.08-.26,1.84,1.84,0,0,1-.74-.75,2.67,2.67,0,0,1,0-2.3,1.93,1.93,0,0,1,.74-.76,2.21,2.21,0,0,1,1.08-.26,2.15,2.15,0,0,1,1.07.26,1.81,1.81,0,0,1,.7.7,2,2,0,0,1,.24,1A2.21,2.21,0,0,1,278.21,217.51Zm-.83-1.13a1.2,1.2,0,0,0-.48-.47,1.53,1.53,0,0,0-.67-.15,1.37,1.37,0,0,0-1,.36,1.42,1.42,0,0,0-.43,1h2.71A1.49,1.49,0,0,0,277.38,216.38Z"/><path d="M283,217.51h-3.38a1.44,1.44,0,0,0,.41,1.08,1.36,1.36,0,0,0,.95.37,1.39,1.39,0,0,0,.85-.26,1.1,1.1,0,0,0,.42-.69H283a1.83,1.83,0,0,1-.34.78,1.85,1.85,0,0,1-.69.54,2.25,2.25,0,0,1-1,.19,2.16,2.16,0,0,1-1.08-.26,1.82,1.82,0,0,1-.73-.75,2.58,2.58,0,0,1,0-2.3,1.91,1.91,0,0,1,.73-.76,2.27,2.27,0,0,1,1.08-.26,2.21,2.21,0,0,1,1.08.26,1.88,1.88,0,0,1,.7.7,2,2,0,0,1,.24,1A2.21,2.21,0,0,1,283,217.51Zm-.83-1.13a1.17,1.17,0,0,0-.49-.47,1.5,1.5,0,0,0-.67-.15,1.39,1.39,0,0,0-1,.36,1.45,1.45,0,0,0-.42,1h2.7A1.4,1.4,0,0,0,282.19,216.38Z"/><path d="M288.34,215.56a1.54,1.54,0,0,1,.53,1h-.67a1,1,0,0,0-.31-.62,1,1,0,0,0-.71-.24.89.89,0,0,0-.59.18.61.61,0,0,0-.21.49.49.49,0,0,0,.14.37.82.82,0,0,0,.35.21,4.7,4.7,0,0,0,.59.16,6,6,0,0,1,.75.22,1.28,1.28,0,0,1,.5.36,1.14,1.14,0,0,1-.19,1.5,1.53,1.53,0,0,1-1,.32,2,2,0,0,1-1.24-.36,1.49,1.49,0,0,1-.56-1h.68a.93.93,0,0,0,.33.63,1.22,1.22,0,0,0,.79.24.76.76,0,0,0,.56-.19.6.6,0,0,0,.21-.48.54.54,0,0,0-.15-.4,1.09,1.09,0,0,0-.36-.22l-.59-.16a5.7,5.7,0,0,1-.76-.22,1.12,1.12,0,0,1-.47-.34,1,1,0,0,1-.2-.63,1.05,1.05,0,0,1,.39-.86,1.63,1.63,0,0,1,1.07-.33A1.69,1.69,0,0,1,288.34,215.56Z"/><path d="M289.86,213.69a.49.49,0,0,1,.34-.12.5.5,0,0,1,.35.12.4.4,0,0,1,.13.31.37.37,0,0,1-.13.31.5.5,0,0,1-.35.12.49.49,0,0,1-.34-.12.37.37,0,0,1-.13-.31A.4.4,0,0,1,289.86,213.69Zm.69,1.55v4.23h-.7v-4.23Z"/><path d="M294.45,215.5a1.55,1.55,0,0,1,.6.82v-1.08h.7v4.3a2.08,2.08,0,0,1-.25,1,1.75,1.75,0,0,1-.69.71,2.05,2.05,0,0,1-1,.25,2.19,2.19,0,0,1-1.39-.41,1.83,1.83,0,0,1-.69-1.11h.69a1.23,1.23,0,0,0,.47.66,1.43,1.43,0,0,0,.88.25,1.33,1.33,0,0,0,.95-.37,1.38,1.38,0,0,0,.37-1v-1.15a1.58,1.58,0,0,1-.6.83,1.75,1.75,0,0,1-1,.3,1.84,1.84,0,0,1-1-.26,1.73,1.73,0,0,1-.69-.75,2.77,2.77,0,0,1,0-2.3,1.82,1.82,0,0,1,.69-.76,1.93,1.93,0,0,1,1-.26A1.69,1.69,0,0,1,294.45,215.5Zm-1.88.72a1.86,1.86,0,0,0,0,2.28,1.39,1.39,0,0,0,1,.41,1.51,1.51,0,0,0,.74-.19,1.29,1.29,0,0,0,.51-.55,1.62,1.62,0,0,0,.19-.81,1.68,1.68,0,0,0-.19-.82,1.33,1.33,0,0,0-.51-.54,1.51,1.51,0,0,0-.74-.19A1.39,1.39,0,0,0,292.57,216.22Z"/><path d="M300.29,215.65a1.89,1.89,0,0,1,.45,1.36v2.46H300v-2.39a1.35,1.35,0,0,0-.32-1,1.15,1.15,0,0,0-.88-.34,1.2,1.2,0,0,0-.93.37,1.55,1.55,0,0,0-.34,1.09v2.24h-.7v-4.23h.7v1a1.44,1.44,0,0,1,.57-.79,1.71,1.71,0,0,1,.95-.28A1.6,1.6,0,0,1,300.29,215.65Z"/><path d="M304.29,215.56a1.59,1.59,0,0,1,.53,1h-.67a1,1,0,0,0-.31-.62,1,1,0,0,0-.71-.24.89.89,0,0,0-.59.18.61.61,0,0,0-.21.49.49.49,0,0,0,.14.37.82.82,0,0,0,.35.21,4.48,4.48,0,0,0,.58.16,5.7,5.7,0,0,1,.76.22,1.28,1.28,0,0,1,.5.36,1.14,1.14,0,0,1-.19,1.5,1.54,1.54,0,0,1-1,.32,2,2,0,0,1-1.23-.36,1.45,1.45,0,0,1-.56-1h.68a.89.89,0,0,0,.33.63,1.21,1.21,0,0,0,.78.24.77.77,0,0,0,.57-.19.6.6,0,0,0,.21-.48.54.54,0,0,0-.15-.4,1.09,1.09,0,0,0-.36-.22l-.6-.16a6,6,0,0,1-.75-.22,1.12,1.12,0,0,1-.47-.34.92.92,0,0,1-.2-.63,1.05,1.05,0,0,1,.39-.86,1.61,1.61,0,0,1,1.07-.33A1.69,1.69,0,0,1,304.29,215.56Z"/><path d="M256.92,228.71l-1.18-1.31a1.32,1.32,0,0,1-.05.31,1.21,1.21,0,0,1-.46.76,1.35,1.35,0,0,1-.89.3,1.7,1.7,0,0,1-.85-.21,1.42,1.42,0,0,1-.57-.57,1.64,1.64,0,0,1-.21-.84,1.67,1.67,0,0,1,.19-.83,1.28,1.28,0,0,1,.5-.53,1.4,1.4,0,0,1,.7-.18h.17l-.11-.14a2.14,2.14,0,0,1-.33-.5,1.2,1.2,0,0,1-.11-.55,1.15,1.15,0,0,1,.63-1,1.6,1.6,0,0,1,.75-.17,1.44,1.44,0,0,1,1,.33,1.87,1.87,0,0,1,.45,1.18v.11h-.67a.41.41,0,0,0,0-.12s0-.09,0-.11a.8.8,0,0,0-.21-.59.75.75,0,0,0-.58-.22.72.72,0,0,0-.53.2.7.7,0,0,0-.2.49.88.88,0,0,0,.09.41,2.26,2.26,0,0,0,.29.4l2.88,3.4ZM255,227.9a.94.94,0,0,0,.27-.7,1,1,0,0,0-.15-.53,1.32,1.32,0,0,0-.4-.38,1.08,1.08,0,0,0-.52-.13.89.89,0,0,0-.66.25,1,1,0,0,0-.26.72,1,1,0,0,0,.3.76,1,1,0,0,0,.72.28A1,1,0,0,0,255,227.9Z"/><path d="M261.8,228l1.31-3.48h.75l-1.66,4.23h-.83l-1.65-4.23h.75Z"/><path d="M267.32,224.74a1.61,1.61,0,0,1,.6.82v-1.08h.7v4.23h-.7v-1.08a1.63,1.63,0,0,1-.6.83,1.76,1.76,0,0,1-1,.31,1.85,1.85,0,0,1-1-.27,1.68,1.68,0,0,1-.69-.75,2.44,2.44,0,0,1-.25-1.15,2.47,2.47,0,0,1,.25-1.15,1.76,1.76,0,0,1,.69-.76,1.93,1.93,0,0,1,1-.26A1.69,1.69,0,0,1,267.32,224.74Zm-1.88.73a1.57,1.57,0,0,0-.39,1.13,1.61,1.61,0,0,0,.39,1.14,1.39,1.39,0,0,0,1,.41,1.41,1.41,0,0,0,.74-.19,1.29,1.29,0,0,0,.51-.55,1.82,1.82,0,0,0,0-1.62,1.29,1.29,0,0,0-.51-.55,1.51,1.51,0,0,0-.74-.19A1.36,1.36,0,0,0,265.44,225.47Z"/><path d="M270.44,223v5.7h-.7V223Z"/><path d="M271.57,222.93a.49.49,0,0,1,.34-.12.5.5,0,0,1,.35.12.4.4,0,0,1,.13.31.41.41,0,0,1-.13.32.5.5,0,0,1-.35.12.49.49,0,0,1-.34-.12.41.41,0,0,1-.13-.32A.4.4,0,0,1,271.57,222.93Zm.69,1.55v4.23h-.7v-4.23Z"/><path d="M276.16,224.74a1.55,1.55,0,0,1,.6.82V223h.7v5.7h-.7v-1.08a1.58,1.58,0,0,1-.6.83,1.76,1.76,0,0,1-1,.31,1.85,1.85,0,0,1-1-.27,1.68,1.68,0,0,1-.69-.75,2.44,2.44,0,0,1-.25-1.15,2.47,2.47,0,0,1,.25-1.15,1.76,1.76,0,0,1,.69-.76,1.93,1.93,0,0,1,1-.26A1.69,1.69,0,0,1,276.16,224.74Zm-1.88.73a1.57,1.57,0,0,0-.39,1.13,1.61,1.61,0,0,0,.39,1.14,1.39,1.39,0,0,0,1,.41,1.41,1.41,0,0,0,.74-.19,1.29,1.29,0,0,0,.51-.55,1.82,1.82,0,0,0,0-1.62,1.29,1.29,0,0,0-.51-.55,1.51,1.51,0,0,0-.74-.19A1.36,1.36,0,0,0,274.28,225.47Z"/><path d="M281.35,224.74a1.55,1.55,0,0,1,.6.82v-1.08h.7v4.23H282v-1.08a1.58,1.58,0,0,1-.6.83,1.76,1.76,0,0,1-1,.31,1.85,1.85,0,0,1-1-.27,1.73,1.73,0,0,1-.69-.75,2.44,2.44,0,0,1-.25-1.15,2.47,2.47,0,0,1,.25-1.15,1.82,1.82,0,0,1,.69-.76,1.93,1.93,0,0,1,1-.26A1.69,1.69,0,0,1,281.35,224.74Zm-1.88.73a1.57,1.57,0,0,0-.39,1.13,1.61,1.61,0,0,0,.39,1.14,1.39,1.39,0,0,0,1,.41,1.41,1.41,0,0,0,.74-.19,1.29,1.29,0,0,0,.51-.55,1.82,1.82,0,0,0,0-1.62,1.29,1.29,0,0,0-.51-.55,1.51,1.51,0,0,0-.74-.19A1.36,1.36,0,0,0,279.47,225.47Z"/><path d="M285.78,228.1v.61h-.52a1.35,1.35,0,0,1-1-.31,1.39,1.39,0,0,1-.32-1v-2.28h-.63v-.61H284v-1h.71v1h1.1v.61h-1.1v2.3a.8.8,0,0,0,.15.56.73.73,0,0,0,.52.15Z"/><path d="M290.5,226.75h-3.38a1.44,1.44,0,0,0,.41,1.08,1.3,1.3,0,0,0,1,.37,1.39,1.39,0,0,0,.85-.26,1,1,0,0,0,.42-.69h.75a1.73,1.73,0,0,1-.35.78,1.58,1.58,0,0,1-.68.54,2.32,2.32,0,0,1-1,.2,2.14,2.14,0,0,1-1.08-.27,1.76,1.76,0,0,1-.73-.75,2.33,2.33,0,0,1-.27-1.15,2.35,2.35,0,0,1,.27-1.15,1.85,1.85,0,0,1,.73-.76,2.24,2.24,0,0,1,1.08-.26,2.15,2.15,0,0,1,1.07.26,1.91,1.91,0,0,1,.71.7,2,2,0,0,1,.24,1A2.21,2.21,0,0,1,290.5,226.75Zm-.83-1.13a1.17,1.17,0,0,0-.49-.47,1.53,1.53,0,0,0-.67-.15,1.39,1.39,0,0,0-1,.36,1.45,1.45,0,0,0-.42,1h2.7A1.49,1.49,0,0,0,289.67,225.62Z"/><path d="M293.92,224.8a1.59,1.59,0,0,1,.53,1h-.67a1,1,0,0,0-.31-.62,1,1,0,0,0-.72-.24.9.9,0,0,0-.59.18.61.61,0,0,0-.21.49.53.53,0,0,0,.14.37,1.09,1.09,0,0,0,.36.22c.14,0,.33.1.58.15s.57.15.76.22a1.25,1.25,0,0,1,.49.36,1,1,0,0,1,.21.66,1,1,0,0,1-.39.84,1.56,1.56,0,0,1-1,.33,1.94,1.94,0,0,1-1.23-.37,1.39,1.39,0,0,1-.56-1h.67a.9.9,0,0,0,.34.62,1.21,1.21,0,0,0,.78.24.8.8,0,0,0,.57-.19.63.63,0,0,0,.2-.48.57.57,0,0,0-.14-.4,1,1,0,0,0-.37-.22c-.14-.05-.34-.1-.59-.16a4.65,4.65,0,0,1-.75-.22,1.09,1.09,0,0,1-.48-.34,1,1,0,0,1-.19-.63,1.06,1.06,0,0,1,.39-.86,1.61,1.61,0,0,1,1.07-.33A1.69,1.69,0,0,1,293.92,224.8Z"/><path d="M386.21,105.93v-.66h1.56v5.43H387v-4.77Z"/><path d="M393.56,106.73a1.55,1.55,0,0,1,.6.82V105h.7v5.7h-.7v-1.08a1.58,1.58,0,0,1-.6.83,1.76,1.76,0,0,1-1,.31,1.85,1.85,0,0,1-1-.27,1.73,1.73,0,0,1-.69-.75,2.44,2.44,0,0,1-.25-1.15,2.47,2.47,0,0,1,.25-1.15,1.82,1.82,0,0,1,.69-.76,1.93,1.93,0,0,1,1-.26A1.69,1.69,0,0,1,393.56,106.73Zm-1.88.73a1.57,1.57,0,0,0-.39,1.13,1.59,1.59,0,0,0,.39,1.14,1.39,1.39,0,0,0,1,.41,1.41,1.41,0,0,0,.74-.19,1.29,1.29,0,0,0,.51-.55,1.82,1.82,0,0,0,0-1.62,1.29,1.29,0,0,0-.51-.55,1.51,1.51,0,0,0-.74-.19A1.36,1.36,0,0,0,391.68,107.46Z"/><path d="M398.75,106.73a1.55,1.55,0,0,1,.6.82v-1.08h.7v4.23h-.7v-1.08a1.58,1.58,0,0,1-.6.83,1.76,1.76,0,0,1-1,.31,1.85,1.85,0,0,1-1-.27,1.73,1.73,0,0,1-.69-.75,2.44,2.44,0,0,1-.25-1.15,2.47,2.47,0,0,1,.25-1.15,1.82,1.82,0,0,1,.69-.76,1.93,1.93,0,0,1,1-.26A1.69,1.69,0,0,1,398.75,106.73Zm-1.88.73a1.57,1.57,0,0,0-.39,1.13,1.59,1.59,0,0,0,.39,1.14,1.39,1.39,0,0,0,1,.41,1.41,1.41,0,0,0,.74-.19,1.29,1.29,0,0,0,.51-.55,1.82,1.82,0,0,0,0-1.62,1.29,1.29,0,0,0-.51-.55,1.51,1.51,0,0,0-.74-.19A1.36,1.36,0,0,0,396.87,107.46Z"/><path d="M401.46,106.47l1.37,3.33,1.27-3.33h.78l-2.51,6.24h-.8l.88-2.08-1.78-4.16Z"/><path d="M365.55,84.37V82.9l3.32-4.55h1.89v4.49h.87v1.53h-.87V85.7H369V84.37Zm3.57-4-1.78,2.46h1.78Z"/><path d="M374.11,84V85.7H372.3V84Z"/><path d="M382.73,79a2.86,2.86,0,0,1,1.1,1.81H382a1.44,1.44,0,0,0-.57-.63,1.73,1.73,0,0,0-.91-.23,1.71,1.71,0,0,0-1.33.56,2.18,2.18,0,0,0-.51,1.52,2.23,2.23,0,0,0,.53,1.59,2,2,0,0,0,1.51.55,1.79,1.79,0,0,0,1.09-.34,1.83,1.83,0,0,0,.67-1h-2.22V81.63h3.69v1.73a3.54,3.54,0,0,1-.66,1.18,3.32,3.32,0,0,1-1.15.89,3.77,3.77,0,0,1-1.61.33,3.84,3.84,0,0,1-1.92-.46A3.21,3.21,0,0,1,377.31,84a4.41,4.41,0,0,1,0-3.84,3.21,3.21,0,0,1,1.27-1.31,3.77,3.77,0,0,1,1.9-.47A3.6,3.6,0,0,1,382.73,79Z"/><path d="M390.3,83.16h-4a1.33,1.33,0,0,0,.33.93,1.09,1.09,0,0,0,.76.28,1,1,0,0,0,.65-.2.92.92,0,0,0,.34-.5h1.86a2.43,2.43,0,0,1-.5,1.08,2.55,2.55,0,0,1-1,.75,3.1,3.1,0,0,1-1.31.27,3,3,0,0,1-1.49-.35,2.51,2.51,0,0,1-1-1,3.16,3.16,0,0,1-.37-1.56,3.25,3.25,0,0,1,.36-1.57,2.54,2.54,0,0,1,1-1,3.08,3.08,0,0,1,1.5-.36,3.13,3.13,0,0,1,1.5.35,2.42,2.42,0,0,1,1,1,2.89,2.89,0,0,1,.36,1.45A2.8,2.8,0,0,1,390.3,83.16Zm-2-1.59a1.12,1.12,0,0,0-.78-.28,1.15,1.15,0,0,0-.8.28,1.26,1.26,0,0,0-.36.85h2.24A1,1,0,0,0,388.27,81.57Z"/><path d="M396.46,80.57a2.63,2.63,0,0,1,.58,1.81V85.7h-1.75V82.58a1.29,1.29,0,0,0-.31-.9,1.06,1.06,0,0,0-.8-.32,1.09,1.09,0,0,0-.85.34,1.35,1.35,0,0,0-.31,1v3h-1.76V80H393v1a1.9,1.9,0,0,1,.73-.81,2.17,2.17,0,0,1,1.15-.3A2,2,0,0,1,396.46,80.57Z"/><path d="M403.59,83.16h-4a1.33,1.33,0,0,0,.33.93,1.09,1.09,0,0,0,.76.28,1,1,0,0,0,.64-.2.83.83,0,0,0,.34-.5h1.86a2.42,2.42,0,0,1-.49,1.08,2.59,2.59,0,0,1-1,.75,3.05,3.05,0,0,1-1.3.27,3,3,0,0,1-1.49-.35,2.59,2.59,0,0,1-1-1,3.58,3.58,0,0,1,0-3.13,2.42,2.42,0,0,1,1-1,3.08,3.08,0,0,1,1.5-.36,3.13,3.13,0,0,1,1.5.35,2.48,2.48,0,0,1,1,1,2.88,2.88,0,0,1,.35,1.45A2.06,2.06,0,0,1,403.59,83.16Zm-2-1.59a1.12,1.12,0,0,0-.78-.28,1.15,1.15,0,0,0-.8.28,1.26,1.26,0,0,0-.36.85h2.24A1.08,1.08,0,0,0,401.57,81.57Z"/><path d="M407.16,80.22a2.14,2.14,0,0,1,1.13-.31v1.88h-.51a1.73,1.73,0,0,0-1.08.3,1.18,1.18,0,0,0-.39,1V85.7h-1.75V80h1.75v1.08A2.5,2.5,0,0,1,407.16,80.22Z"/><path d="M412.33,80.2a1.78,1.78,0,0,1,.7.81V80h1.74V85.7H413v-1a1.78,1.78,0,0,1-.7.81,2,2,0,0,1-1.13.29,2.31,2.31,0,0,1-1.27-.35,2.52,2.52,0,0,1-.88-1,4,4,0,0,1,0-3.13,2.43,2.43,0,0,1,.88-1,2.32,2.32,0,0,1,1.27-.36A2,2,0,0,1,412.33,80.2Zm-1.47,1.61a1.46,1.46,0,0,0-.35,1,1.42,1.42,0,0,0,.35,1,1.29,1.29,0,0,0,1.82,0,1.65,1.65,0,0,0,0-2,1.21,1.21,0,0,0-.91-.38A1.17,1.17,0,0,0,410.86,81.81Z"/><path d="M419.23,84.19V85.7h-.79a2.22,2.22,0,0,1-1.56-.5,2.07,2.07,0,0,1-.56-1.64V81.45h-.77V80h.77v-1.4h1.75V80h1.15v1.48h-1.15v2.14a.5.5,0,0,0,.61.6Z"/><path d="M425.61,83.16h-4a1.33,1.33,0,0,0,.33.93,1.09,1.09,0,0,0,.76.28,1,1,0,0,0,.65-.2.92.92,0,0,0,.34-.5h1.86a2.43,2.43,0,0,1-.5,1.08,2.55,2.55,0,0,1-1,.75,3.1,3.1,0,0,1-1.31.27,3,3,0,0,1-1.49-.35,2.57,2.57,0,0,1-1-1,3.16,3.16,0,0,1-.37-1.56,3.25,3.25,0,0,1,.36-1.57,2.54,2.54,0,0,1,1-1,3.08,3.08,0,0,1,1.5-.36,3.13,3.13,0,0,1,1.5.35,2.42,2.42,0,0,1,1,1,2.89,2.89,0,0,1,.36,1.45A2.8,2.8,0,0,1,425.61,83.16Zm-2-1.59a1.12,1.12,0,0,0-.78-.28,1.17,1.17,0,0,0-.8.28,1.26,1.26,0,0,0-.36.85h2.24A1,1,0,0,0,423.58,81.57Z"/><path d="M373.26,90.77v1.39h-3v1.59h2.3v1.34h-2.3V98h-1.75V90.77Z"/><path d="M376.77,92.54a2.2,2.2,0,0,1,1.12-.31v1.88h-.5a1.69,1.69,0,0,0-1.08.3,1.19,1.19,0,0,0-.39,1V98h-1.75V92.29h1.75v1.08A2.5,2.5,0,0,1,376.77,92.54Z"/><path d="M384,95.48h-4a1.33,1.33,0,0,0,.33.93,1.05,1.05,0,0,0,.76.28,1,1,0,0,0,.64-.2.83.83,0,0,0,.34-.5H384a2.32,2.32,0,0,1-.49,1.08,2.59,2.59,0,0,1-1,.75,2.92,2.92,0,0,1-1.3.28,3,3,0,0,1-1.49-.36,2.47,2.47,0,0,1-1-1,3.21,3.21,0,0,1-.37-1.56,3.28,3.28,0,0,1,.37-1.57,2.42,2.42,0,0,1,1-1,3.08,3.08,0,0,1,1.5-.36,3.13,3.13,0,0,1,1.5.35,2.48,2.48,0,0,1,1,1,2.9,2.9,0,0,1,.35,1.46A2,2,0,0,1,384,95.48Zm-2-1.59a1.12,1.12,0,0,0-.78-.28,1.16,1.16,0,0,0-.8.29,1.22,1.22,0,0,0-.36.84h2.24A1.11,1.11,0,0,0,382,93.89Z"/><path d="M385.11,90a1.11,1.11,0,0,1,.76-.26,1.09,1.09,0,0,1,.76.26.86.86,0,0,1,.29.66.84.84,0,0,1-.29.65,1.05,1.05,0,0,1-.76.27,1.07,1.07,0,0,1-.76-.27.84.84,0,0,1-.29-.65A.86.86,0,0,1,385.11,90Zm1.63,2.27V98H385V92.29Z"/><path d="M391.26,92.52a1.78,1.78,0,0,1,.7.81v-1h1.75V98a3.39,3.39,0,0,1-.31,1.45,2.45,2.45,0,0,1-.95,1,3.05,3.05,0,0,1-1.58.38,3.31,3.31,0,0,1-2.07-.61,2.55,2.55,0,0,1-.93-1.66h1.74a.86.86,0,0,0,.37.54,1.37,1.37,0,0,0,.77.2,1.25,1.25,0,0,0,.88-.32,1.31,1.31,0,0,0,.33-1V97a1.78,1.78,0,0,1-.7.81,2,2,0,0,1-1.13.3,2.32,2.32,0,0,1-1.27-.36,2.4,2.4,0,0,1-.88-1,3.45,3.45,0,0,1-.32-1.56,3.52,3.52,0,0,1,.32-1.57,2.43,2.43,0,0,1,.88-1,2.32,2.32,0,0,1,1.27-.36A2,2,0,0,1,391.26,92.52Zm-1.47,1.61a1.69,1.69,0,0,0,0,2.06,1.2,1.2,0,0,0,.91.37,1.17,1.17,0,0,0,.9-.38,1.44,1.44,0,0,0,.36-1,1.41,1.41,0,0,0-.36-1,1.17,1.17,0,0,0-.9-.38A1.2,1.2,0,0,0,389.79,94.13Z"/><path d="M400.12,92.89a2.67,2.67,0,0,1,.58,1.81V98h-1.76V94.9a1.29,1.29,0,0,0-.3-.9A1.2,1.2,0,0,0,397,94a1.37,1.37,0,0,0-.32,1v3h-1.75V90.43h1.75v2.91a1.93,1.93,0,0,1,.74-.81,2.11,2.11,0,0,1,1.14-.3A2,2,0,0,1,400.12,92.89Z"/><path d="M405.1,96.52V98h-.79a2.26,2.26,0,0,1-1.56-.49,2.1,2.1,0,0,1-.56-1.65V93.77h-.77V92.29h.77v-1.4h1.75v1.4h1.15v1.48h-1.15v2.14a.64.64,0,0,0,.14.47.66.66,0,0,0,.47.14Z"/><path d="M413.54,94.92a1.75,1.75,0,0,1,.38,1.12,1.78,1.78,0,0,1-.62,1.46,2.68,2.68,0,0,1-1.78.52h-3.38V90.77h3.3a2.68,2.68,0,0,1,1.71.48,1.64,1.64,0,0,1,.61,1.37,1.72,1.72,0,0,1-.35,1.1,1.61,1.61,0,0,1-.92.57A1.83,1.83,0,0,1,413.54,94.92Zm-3.64-1.19h1.15c.61,0,.91-.26.91-.78s-.31-.78-.93-.78H409.9Zm2.23,2.07a.76.76,0,0,0-.26-.61,1.06,1.06,0,0,0-.73-.23H409.9V96.6h1.25C411.8,96.6,412.13,96.33,412.13,95.8Z"/><path d="M415,90a1.09,1.09,0,0,1,.76-.26,1.11,1.11,0,0,1,.76.26.86.86,0,0,1,.29.66.84.84,0,0,1-.29.65,1.07,1.07,0,0,1-.76.27,1.05,1.05,0,0,1-.76-.27.84.84,0,0,1-.29-.65A.86.86,0,0,1,415,90Zm1.63,2.27V98h-1.75V92.29Z"/><path d="M419.57,90.43V98h-1.76V90.43Z"/><path d="M422.54,90.43V98h-1.76V90.43Z"/><path d="M464.29,200.49H461V202a1.39,1.39,0,0,1,.6-.39,2.51,2.51,0,0,1,.84-.14,2.16,2.16,0,0,1,1.22.33,2,2,0,0,1,.73.87,3.09,3.09,0,0,1,.23,1.2,2.58,2.58,0,0,1-.67,1.88,2.48,2.48,0,0,1-1.87.69,3.18,3.18,0,0,1-1.43-.29,2.16,2.16,0,0,1-.94-.82,2.39,2.39,0,0,1-.35-1.21h1.72a1,1,0,0,0,.28.58.88.88,0,0,0,.63.22.83.83,0,0,0,.7-.29,1.28,1.28,0,0,0,.23-.79,1,1,0,0,0-.25-.73.9.9,0,0,0-.69-.26,1,1,0,0,0-.56.15.75.75,0,0,0-.31.38h-1.7V199h4.85Z"/><path d="M467.22,204.63v1.75H465.4v-1.75Z"/><path d="M471.94,199.12v7.26h-1.75v-7.26Z"/><path d="M478.35,201.25a2.63,2.63,0,0,1,.58,1.81v3.32h-1.75v-3.12a1.29,1.29,0,0,0-.3-.9,1.1,1.1,0,0,0-.81-.32,1.09,1.09,0,0,0-.85.34,1.37,1.37,0,0,0-.31,1v3h-1.76v-5.73h1.76v1a1.9,1.9,0,0,1,.73-.81,2.17,2.17,0,0,1,1.15-.3A2,2,0,0,1,478.35,201.25Z"/><path d="M482.74,204.67l1.25-4h1.86l-2,5.73h-2.18l-2-5.73h1.87Z"/><path d="M490.79,200.94a2.54,2.54,0,0,1,1.06,1,3.11,3.11,0,0,1,.38,1.56,3.16,3.16,0,0,1-.38,1.56,2.6,2.6,0,0,1-1.06,1,3.2,3.2,0,0,1-1.53.36,3.26,3.26,0,0,1-1.53-.36,2.6,2.6,0,0,1-1.06-1,3.06,3.06,0,0,1-.38-1.56,3,3,0,0,1,.38-1.56,2.54,2.54,0,0,1,1.06-1,3.26,3.26,0,0,1,1.53-.36A3.2,3.2,0,0,1,490.79,200.94Zm-2.37,1.53a1.75,1.75,0,0,0,0,2.1,1.17,1.17,0,0,0,1.69,0,1.84,1.84,0,0,0,0-2.1,1.15,1.15,0,0,0-1.69,0Z"/><path d="M493.27,198.38a1.09,1.09,0,0,1,.76-.26,1.11,1.11,0,0,1,.76.26.86.86,0,0,1,.29.66.84.84,0,0,1-.29.65,1.07,1.07,0,0,1-.76.27,1.05,1.05,0,0,1-.76-.27A.84.84,0,0,1,493,199,.86.86,0,0,1,493.27,198.38Zm1.63,2.27v5.73h-1.76v-5.73Z"/><path d="M500.56,201.19a2.72,2.72,0,0,1,.94,1.68h-1.86a.9.9,0,0,0-.34-.57,1,1,0,0,0-.64-.21.92.92,0,0,0-.76.37,1.61,1.61,0,0,0-.3,1.06,1.63,1.63,0,0,0,.3,1.06.92.92,0,0,0,.76.37,1,1,0,0,0,.64-.21.93.93,0,0,0,.34-.57h1.86a2.67,2.67,0,0,1-.94,1.67,2.84,2.84,0,0,1-1.86.62,3,3,0,0,1-1.49-.36,2.53,2.53,0,0,1-1-1,3.49,3.49,0,0,1,0-3.13,2.42,2.42,0,0,1,1-1,3.08,3.08,0,0,1,1.5-.36A2.89,2.89,0,0,1,500.56,201.19Z"/><path d="M507.81,203.84h-4a1.33,1.33,0,0,0,.33.93,1.16,1.16,0,0,0,1.41.08.92.92,0,0,0,.34-.5h1.86a2.38,2.38,0,0,1-.5,1.08,2.55,2.55,0,0,1-1,.75,3,3,0,0,1-1.31.28,3,3,0,0,1-1.49-.36,2.51,2.51,0,0,1-1-1,3.16,3.16,0,0,1-.37-1.56,3.25,3.25,0,0,1,.36-1.57,2.5,2.5,0,0,1,1-1,3,3,0,0,1,1.49-.36,3.13,3.13,0,0,1,1.5.35,2.42,2.42,0,0,1,1,1,2.9,2.9,0,0,1,.36,1.46A2.79,2.79,0,0,1,507.81,203.84Zm-2-1.59A1.12,1.12,0,0,0,505,202a1.13,1.13,0,0,0-.8.29,1.22,1.22,0,0,0-.36.84h2.24A1,1,0,0,0,505.78,202.25Z"/><path d="M512.58,203.84v2.54h-1.75v-7.26h2.84a2.75,2.75,0,0,1,2,.65,2.26,2.26,0,0,1,.68,1.73,2.38,2.38,0,0,1-.3,1.2,2.13,2.13,0,0,1-.9.83,3.08,3.08,0,0,1-1.45.31Zm1.95-2.34c0-.64-.35-1-1.06-1h-.89v1.89h.89C514.18,202.43,514.53,202.12,514.53,201.5Z"/><path d="M519.79,200.9a2.2,2.2,0,0,1,1.12-.31v1.88h-.5a1.74,1.74,0,0,0-1.09.3,1.21,1.21,0,0,0-.38,1v2.6h-1.76v-5.73h1.76v1.08A2.5,2.5,0,0,1,519.79,200.9Z"/><path d="M525.85,200.94a2.54,2.54,0,0,1,1.06,1,3,3,0,0,1,.39,1.56,3.06,3.06,0,0,1-.39,1.56,2.6,2.6,0,0,1-1.06,1,3.16,3.16,0,0,1-1.52.36,3.2,3.2,0,0,1-1.53-.36,2.54,2.54,0,0,1-1.06-1,3.06,3.06,0,0,1-.39-1.56,3,3,0,0,1,.39-1.56,2.48,2.48,0,0,1,1.06-1,3.2,3.2,0,0,1,1.53-.36A3.16,3.16,0,0,1,525.85,200.94Zm-2.37,1.53a1.79,1.79,0,0,0,0,2.1,1.17,1.17,0,0,0,1.69,0,1.79,1.79,0,0,0,0-2.1,1.15,1.15,0,0,0-1.69,0Z"/><path d="M532.66,201.19a2.72,2.72,0,0,1,.94,1.68h-1.86a1,1,0,0,0-.34-.57,1,1,0,0,0-.64-.21.91.91,0,0,0-.76.37,1.61,1.61,0,0,0-.3,1.06,1.63,1.63,0,0,0,.3,1.06.91.91,0,0,0,.76.37,1,1,0,0,0,.64-.21,1,1,0,0,0,.34-.57h1.86a2.67,2.67,0,0,1-.94,1.67,2.84,2.84,0,0,1-1.86.62,3.08,3.08,0,0,1-1.5-.36,2.57,2.57,0,0,1-1-1,3.27,3.27,0,0,1-.37-1.56,3.14,3.14,0,0,1,.37-1.57,2.42,2.42,0,0,1,1-1,3.08,3.08,0,0,1,1.5-.36A2.89,2.89,0,0,1,532.66,201.19Z"/><path d="M539.9,203.84h-4a1.33,1.33,0,0,0,.33.93,1.16,1.16,0,0,0,1.41.08.92.92,0,0,0,.34-.5h1.85a2.37,2.37,0,0,1-.49,1.08,2.55,2.55,0,0,1-1,.75,3,3,0,0,1-1.31.28,3,3,0,0,1-1.49-.36,2.45,2.45,0,0,1-1-1,3.16,3.16,0,0,1-.37-1.56,3.25,3.25,0,0,1,.36-1.57,2.42,2.42,0,0,1,1-1,3.08,3.08,0,0,1,1.5-.36,3.13,3.13,0,0,1,1.5.35,2.42,2.42,0,0,1,1,1,2.9,2.9,0,0,1,.36,1.46A2.09,2.09,0,0,1,539.9,203.84Zm-2-1.59a1.24,1.24,0,0,0-1.58,0,1.22,1.22,0,0,0-.36.84h2.24A1,1,0,0,0,537.88,202.25Z"/><path d="M544.69,201.13a2.34,2.34,0,0,1,.82,1.43h-1.64a1,1,0,0,0-.33-.55,1,1,0,0,0-.63-.2.71.71,0,0,0-.45.13.47.47,0,0,0-.15.37.42.42,0,0,0,.28.4,3.92,3.92,0,0,0,.89.26,9.22,9.22,0,0,1,1.08.32,1.76,1.76,0,0,1,.73.52,1.45,1.45,0,0,1,.3,1,1.51,1.51,0,0,1-.26.87,1.73,1.73,0,0,1-.77.6,3.13,3.13,0,0,1-1.2.22,3.05,3.05,0,0,1-1.85-.52,2.18,2.18,0,0,1-.86-1.47h1.7a.78.78,0,0,0,.31.57,1.18,1.18,0,0,0,.7.19.65.65,0,0,0,.46-.14.46.46,0,0,0,.15-.36.44.44,0,0,0-.28-.43,6.52,6.52,0,0,0-.92-.27,8.08,8.08,0,0,1-1-.28,1.84,1.84,0,0,1-.71-.5,1.39,1.39,0,0,1-.29-.94,1.53,1.53,0,0,1,.58-1.25,2.53,2.53,0,0,1,1.65-.48A2.58,2.58,0,0,1,544.69,201.13Z"/><path d="M550.39,201.13a2.34,2.34,0,0,1,.82,1.43h-1.64a1,1,0,0,0-.33-.55,1,1,0,0,0-.63-.2.71.71,0,0,0-.45.13.47.47,0,0,0-.15.37.42.42,0,0,0,.28.4,3.92,3.92,0,0,0,.89.26,9.84,9.84,0,0,1,1.08.32,1.67,1.67,0,0,1,.72.52,1.4,1.4,0,0,1,.31,1,1.51,1.51,0,0,1-.26.87,1.73,1.73,0,0,1-.77.6,3.13,3.13,0,0,1-1.2.22,3.05,3.05,0,0,1-1.85-.52,2.18,2.18,0,0,1-.86-1.47h1.7a.75.75,0,0,0,.31.57,1.18,1.18,0,0,0,.7.19.65.65,0,0,0,.46-.14.46.46,0,0,0,.15-.36.44.44,0,0,0-.28-.43,6.52,6.52,0,0,0-.92-.27,7.66,7.66,0,0,1-1.05-.28,1.84,1.84,0,0,1-.71-.5,1.39,1.39,0,0,1-.29-.94,1.53,1.53,0,0,1,.58-1.25,2.53,2.53,0,0,1,1.65-.48A2.58,2.58,0,0,1,550.39,201.13Z"/><path d="M557.66,203.84h-4a1.33,1.33,0,0,0,.33.93,1.16,1.16,0,0,0,1.41.08.92.92,0,0,0,.34-.5h1.86a2.38,2.38,0,0,1-.5,1.08,2.55,2.55,0,0,1-1,.75,3,3,0,0,1-1.31.28,3,3,0,0,1-1.49-.36,2.57,2.57,0,0,1-1-1,3.16,3.16,0,0,1-.37-1.56,3.25,3.25,0,0,1,.36-1.57,2.5,2.5,0,0,1,1-1,3,3,0,0,1,1.49-.36,3.13,3.13,0,0,1,1.5.35,2.36,2.36,0,0,1,1,1,2.9,2.9,0,0,1,.36,1.46A2.79,2.79,0,0,1,557.66,203.84Zm-2-1.59a1.12,1.12,0,0,0-.78-.28,1.13,1.13,0,0,0-.8.29,1.22,1.22,0,0,0-.36.84h2.24A1,1,0,0,0,555.63,202.25Z"/><path d="M561.93,200.88a1.82,1.82,0,0,1,.69.81v-2.9h1.75v7.59h-1.75v-1a1.82,1.82,0,0,1-.69.81,2.07,2.07,0,0,1-1.13.3,2.3,2.3,0,0,1-1.27-.36,2.39,2.39,0,0,1-.88-1,3.88,3.88,0,0,1,0-3.13,2.36,2.36,0,0,1,.88-1,2.3,2.3,0,0,1,1.27-.36A2.07,2.07,0,0,1,561.93,200.88Zm-1.47,1.61a1.69,1.69,0,0,0,0,2.06,1.28,1.28,0,0,0,1.81,0,1.44,1.44,0,0,0,.36-1,1.41,1.41,0,0,0-.36-1,1.28,1.28,0,0,0-1.81,0Z"/><path d="M150.11,155.22a2.2,2.2,0,0,1-.92.89,3.15,3.15,0,0,1-1.46.31h-1.62v-5.11h1.62a3.15,3.15,0,0,1,1.46.31,2.12,2.12,0,0,1,.92.88,3.14,3.14,0,0,1,0,2.72Zm-.9.09a1.89,1.89,0,0,0,.53-1.45,1.94,1.94,0,0,0-.52-1.45,2.08,2.08,0,0,0-1.54-.52h-.91v3.94h.91A2.07,2.07,0,0,0,149.21,155.31Z"/><path d="M154.85,152.44v4h-.66v-.93a1.33,1.33,0,0,1-.54.74,1.61,1.61,0,0,1-.9.26,1.48,1.48,0,0,1-1.12-.45,1.74,1.74,0,0,1-.43-1.28v-2.32h.66v2.26a1.24,1.24,0,0,0,.31.91,1.07,1.07,0,0,0,.83.33,1.15,1.15,0,0,0,.87-.35,1.51,1.51,0,0,0,.32-1v-2.12Z"/><path d="M157.15,152.6a1.72,1.72,0,0,1,.9-.23v.72h-.21a1.42,1.42,0,0,0-.91.29,1.15,1.15,0,0,0-.36,1v2.09h-.66v-4h.66v.81A1.47,1.47,0,0,1,157.15,152.6Z"/><path d="M158.71,151a.44.44,0,0,1,.32-.12.45.45,0,0,1,.33.12.41.41,0,0,1,0,.58.45.45,0,0,1-.33.12.44.44,0,0,1-.32-.12.39.39,0,0,1,0-.58Zm.65,1.46v4h-.66v-4Z"/><path d="M163.64,152.82a1.78,1.78,0,0,1,.43,1.29v2.31h-.66v-2.25a1.29,1.29,0,0,0-.3-.92,1.11,1.11,0,0,0-.83-.32,1.1,1.1,0,0,0-.87.36,1.42,1.42,0,0,0-.33,1v2.11h-.66v-4h.66v.94a1.38,1.38,0,0,1,.54-.75,1.61,1.61,0,0,1,.9-.26A1.47,1.47,0,0,1,163.64,152.82Z"/><path d="M167.7,152.68a1.51,1.51,0,0,1,.57.78v-1h.66v4.05a2,2,0,0,1-.24,1,1.68,1.68,0,0,1-.65.67,2,2,0,0,1-1,.24,2.08,2.08,0,0,1-1.31-.39,1.71,1.71,0,0,1-.65-1.05h.65a1.19,1.19,0,0,0,.44.63,1.45,1.45,0,0,0,.83.23,1.21,1.21,0,0,0,.89-.35,1.27,1.27,0,0,0,.36-1v-1.08a1.52,1.52,0,0,1-.57.77,1.58,1.58,0,0,1-1,.29,1.83,1.83,0,0,1-.94-.24,1.66,1.66,0,0,1-.65-.71,2.57,2.57,0,0,1,0-2.17,1.68,1.68,0,0,1,.65-.72,1.83,1.83,0,0,1,.94-.24A1.65,1.65,0,0,1,167.7,152.68Zm-1.77.68a1.79,1.79,0,0,0,0,2.15,1.32,1.32,0,0,0,1,.38,1.38,1.38,0,0,0,.7-.18,1.24,1.24,0,0,0,.48-.51,1.72,1.72,0,0,0,0-1.53,1.21,1.21,0,0,0-.48-.52,1.48,1.48,0,0,0-.7-.17A1.32,1.32,0,0,0,165.93,153.36Z"/><path d="M147.68,163.92a2.16,2.16,0,0,1-.92.9,3.1,3.1,0,0,1-1.45.31h-1.63V160h1.63a3.23,3.23,0,0,1,1.45.3,2.2,2.2,0,0,1,.92.89,2.79,2.79,0,0,1,.31,1.36A2.75,2.75,0,0,1,147.68,163.92Zm-.89.1a2.25,2.25,0,0,0,0-2.9,2.07,2.07,0,0,0-1.53-.52h-.92v3.94h.92A2.1,2.1,0,0,0,146.79,164Z"/><path d="M152.52,163.28h-3.19a1.45,1.45,0,0,0,.39,1,1.31,1.31,0,0,0,.9.34,1.25,1.25,0,0,0,.8-.25,1,1,0,0,0,.4-.65h.7a1.66,1.66,0,0,1-1,1.25,2.19,2.19,0,0,1-.9.18,2.11,2.11,0,0,1-1-.24,1.75,1.75,0,0,1-.69-.71,2.48,2.48,0,0,1,0-2.17,1.77,1.77,0,0,1,.69-.72,2.11,2.11,0,0,1,1-.24,2.07,2.07,0,0,1,1,.24,1.74,1.74,0,0,1,.66.66,1.9,1.9,0,0,1,.23.92A1.86,1.86,0,0,1,152.52,163.28Zm-.78-1.06a1.14,1.14,0,0,0-.46-.44,1.36,1.36,0,0,0-.63-.15,1.34,1.34,0,0,0-.92.34,1.41,1.41,0,0,0-.4,1h2.55A1.33,1.33,0,0,0,151.74,162.22Z"/><path d="M154.07,159.76v5.37h-.66v-5.37Z"/><path d="M155.14,159.69a.45.45,0,0,1,.33-.12.44.44,0,0,1,.32.12.39.39,0,0,1,0,.58.44.44,0,0,1-.32.12.45.45,0,0,1-.33-.12.41.41,0,0,1,0-.58Zm.65,1.46v4h-.66v-4Z"/><path d="M158.4,164.43l1.23-3.28h.71l-1.56,4H158l-1.56-4h.71Z"/><path d="M164.63,163.28h-3.19a1.37,1.37,0,0,0,.39,1,1.38,1.38,0,0,0,1.7.09,1,1,0,0,0,.39-.65h.71a1.61,1.61,0,0,1-.33.74,1.58,1.58,0,0,1-.65.51,2.13,2.13,0,0,1-.9.18,2.07,2.07,0,0,1-1-.24,1.77,1.77,0,0,1-.7-.71,2.48,2.48,0,0,1,0-2.17,1.8,1.8,0,0,1,.7-.72,2.27,2.27,0,0,1,2,0,1.73,1.73,0,0,1,.88,1.58A3.53,3.53,0,0,1,164.63,163.28Zm-.79-1.06a1,1,0,0,0-.46-.44,1.39,1.39,0,0,0-1.54.19,1.37,1.37,0,0,0-.4,1H164A1.42,1.42,0,0,0,163.84,162.22Z"/><path d="M166.75,161.31a1.72,1.72,0,0,1,.9-.23v.72h-.2a1.45,1.45,0,0,0-.92.29,1.16,1.16,0,0,0-.35.95v2.09h-.66v-4h.66v.8A1.48,1.48,0,0,1,166.75,161.31Z"/><path d="M168.58,161.15l1.29,3.13,1.2-3.13h.73L169.44,167h-.75l.83-2-1.68-3.92Z"/><path d="M389.47,157.66h-2.25l-.42,1.18h-.72l1.9-5h.75l1.88,5h-.71Zm-.19-.51-.93-2.59-.94,2.59Z"/><path d="M392.31,154.1a.83.83,0,0,0-.21.65v.11H393v.58h-.94v3.4h-.66v-3.4h-.57v-.58h.57v-.16c0-.95.54-1.41,1.6-1.37v.59A1,1,0,0,0,392.31,154.1Z"/><path d="M395.66,158.26v.58h-.49a1.23,1.23,0,0,1-.91-.29,1.29,1.29,0,0,1-.3-1v-2.15h-.6v-.57h.6v-1h.67v1h1v.57h-1v2.17a.7.7,0,0,0,.14.52.65.65,0,0,0,.49.14Z"/><path d="M400.11,157h-3.19a1.37,1.37,0,0,0,.39,1,1.38,1.38,0,0,0,1.7.09,1,1,0,0,0,.39-.65h.71a1.7,1.7,0,0,1-.33.75,1.64,1.64,0,0,1-.65.5,2.13,2.13,0,0,1-.9.18,2.07,2.07,0,0,1-1-.24,1.77,1.77,0,0,1-.7-.71,2.48,2.48,0,0,1,0-2.17,1.8,1.8,0,0,1,.7-.72,2.27,2.27,0,0,1,2,0,1.84,1.84,0,0,1,.66.67,2,2,0,0,1,.2,1.27Zm-.79-1.06a1.09,1.09,0,0,0-.46-.44,1.45,1.45,0,0,0-1.54.19,1.37,1.37,0,0,0-.4,1h2.55A1.42,1.42,0,0,0,399.32,155.93Z"/><path d="M402.23,155a1.72,1.72,0,0,1,.9-.23v.72h-.2a1.45,1.45,0,0,0-.92.29,1.17,1.17,0,0,0-.35.95v2.09H401v-4h.66v.81A1.45,1.45,0,0,1,402.23,155Z"/><path d="M384.77,166.34a2.16,2.16,0,0,1-.92.9,3.15,3.15,0,0,1-1.46.31h-1.62v-5.11h1.62a3.28,3.28,0,0,1,1.46.3,2.2,2.2,0,0,1,.92.89,2.79,2.79,0,0,1,.31,1.36A2.75,2.75,0,0,1,384.77,166.34Zm-.9.1a1.89,1.89,0,0,0,.53-1.45,1.94,1.94,0,0,0-.52-1.45,2.08,2.08,0,0,0-1.54-.52h-.91V167h.91A2.07,2.07,0,0,0,383.87,166.44Z"/><path d="M389.61,165.7h-3.19a1.45,1.45,0,0,0,.39,1,1.29,1.29,0,0,0,.9.34,1.25,1.25,0,0,0,.8-.25,1,1,0,0,0,.39-.65h.71a1.72,1.72,0,0,1-1,1.25,2.19,2.19,0,0,1-.9.18,2.08,2.08,0,0,1-1-.24,1.75,1.75,0,0,1-.69-.71,2.48,2.48,0,0,1,0-2.17,1.77,1.77,0,0,1,.69-.72,2.27,2.27,0,0,1,2,0,1.74,1.74,0,0,1,.66.66,1.9,1.9,0,0,1,.23.92A1.86,1.86,0,0,1,389.61,165.7Zm-.79-1.06a1.06,1.06,0,0,0-.45-.44,1.39,1.39,0,0,0-.63-.15,1.34,1.34,0,0,0-.92.34,1.37,1.37,0,0,0-.4,1H389A1.42,1.42,0,0,0,388.82,164.64Z"/><path d="M391.16,162.18v5.37h-.66v-5.37Z"/><path d="M392.23,162.11a.44.44,0,0,1,.32-.12.45.45,0,0,1,.33.12.39.39,0,0,1,0,.58.45.45,0,0,1-.33.12.44.44,0,0,1-.32-.12.39.39,0,0,1,0-.58Zm.65,1.46v4h-.66v-4Z"/><path d="M395.49,166.85l1.23-3.28h.71l-1.56,4h-.78l-1.56-4h.71Z"/><path d="M401.71,165.7h-3.18a1.37,1.37,0,0,0,.39,1,1.28,1.28,0,0,0,.89.34,1.23,1.23,0,0,0,.8-.25,1,1,0,0,0,.4-.65h.7a1.5,1.5,0,0,1-.32.74,1.65,1.65,0,0,1-.65.51,2.13,2.13,0,0,1-.9.18,2.07,2.07,0,0,1-1-.24,1.77,1.77,0,0,1-.7-.71,2.48,2.48,0,0,1,0-2.17,1.8,1.8,0,0,1,.7-.72,2.07,2.07,0,0,1,1-.24,2,2,0,0,1,1,.24,1.74,1.74,0,0,1,.66.66,1.8,1.8,0,0,1,.23.92A1.86,1.86,0,0,1,401.71,165.7Zm-.78-1.06a1,1,0,0,0-.46-.44,1.33,1.33,0,0,0-.63-.15,1.31,1.31,0,0,0-.91.34,1.37,1.37,0,0,0-.4,1h2.55A1.42,1.42,0,0,0,400.93,164.64Z"/><path d="M403.84,163.73a1.72,1.72,0,0,1,.9-.23v.72h-.2a1.45,1.45,0,0,0-.92.29,1.16,1.16,0,0,0-.35,1v2.09h-.66v-4h.66v.8A1.48,1.48,0,0,1,403.84,163.73Z"/><path d="M405.67,163.57,407,166.7l1.2-3.13h.73l-2.36,5.87h-.75l.83-1.95-1.68-3.92Z"/><path d="M623.47,148.73l-1.3,5.11h-.8l-1.19-4.18L619,153.84h-.81l-1.3-5.11h.73l1,4.34,1.21-4.34h.74l1.21,4.33,1-4.33Z"/><path d="M626.86,150.1a1.51,1.51,0,0,1,.57.78v-1h.66v4h-.66v-1a1.52,1.52,0,0,1-.57.77,1.58,1.58,0,0,1-1,.29,1.83,1.83,0,0,1-.94-.24,1.66,1.66,0,0,1-.65-.71,2.57,2.57,0,0,1,0-2.17,1.68,1.68,0,0,1,.65-.72,1.83,1.83,0,0,1,.94-.24A1.65,1.65,0,0,1,626.86,150.1Zm-1.77.68a1.79,1.79,0,0,0,0,2.15,1.32,1.32,0,0,0,1,.38,1.38,1.38,0,0,0,.7-.18,1.24,1.24,0,0,0,.48-.51,1.72,1.72,0,0,0,0-1.53,1.21,1.21,0,0,0-.48-.52,1.48,1.48,0,0,0-.7-.17A1.32,1.32,0,0,0,625.09,150.78Z"/><path d="M629.15,148.4a.44.44,0,0,1,.32-.12.45.45,0,0,1,.33.12.41.41,0,0,1,0,.58.45.45,0,0,1-.33.12.44.44,0,0,1-.32-.12.39.39,0,0,1,0-.58Zm.65,1.46v4h-.66v-4Z"/><path d="M632.76,153.26v.58h-.49a1.23,1.23,0,0,1-.91-.29,1.25,1.25,0,0,1-.31-1v-2.15h-.59v-.57h.59v-1h.67v1h1v.57h-1v2.17a.75.75,0,0,0,.14.52.67.67,0,0,0,.49.14Z"/><path d="M633.57,148.4a.45.45,0,0,1,.33-.12.48.48,0,0,1,.33.12.41.41,0,0,1,0,.58.48.48,0,0,1-.33.12.45.45,0,0,1-.33-.12.41.41,0,0,1,0-.58Zm.66,1.46v4h-.66v-4Z"/><path d="M638.51,150.24a1.82,1.82,0,0,1,.43,1.29v2.31h-.66v-2.25a1.29,1.29,0,0,0-.31-.92,1.1,1.1,0,0,0-.83-.32,1.12,1.12,0,0,0-.87.36,1.42,1.42,0,0,0-.32,1v2.11h-.66v-4H636v.94a1.38,1.38,0,0,1,.54-.75,1.6,1.6,0,0,1,.89-.26A1.49,1.49,0,0,1,638.51,150.24Z"/><path d="M642.57,150.1a1.49,1.49,0,0,1,.56.78v-1h.66v4a2.08,2.08,0,0,1-.23,1,1.74,1.74,0,0,1-.65.67,2,2,0,0,1-1,.24,2.11,2.11,0,0,1-1.32-.39,1.7,1.7,0,0,1-.64-1h.65a1.14,1.14,0,0,0,.44.63,1.41,1.41,0,0,0,.83.23,1.23,1.23,0,0,0,.89-.35,1.3,1.3,0,0,0,.35-1v-1.08a1.51,1.51,0,0,1-.56.77,1.6,1.6,0,0,1-1,.29,1.86,1.86,0,0,1-1-.24,1.79,1.79,0,0,1-.65-.71,2.67,2.67,0,0,1,0-2.17,1.82,1.82,0,0,1,.65-.72,1.86,1.86,0,0,1,1-.24A1.67,1.67,0,0,1,642.57,150.1Zm-1.77.68a1.75,1.75,0,0,0,0,2.15,1.3,1.3,0,0,0,1,.38,1.33,1.33,0,0,0,.7-.18,1.27,1.27,0,0,0,.49-.51,1.81,1.81,0,0,0,0-1.53,1.23,1.23,0,0,0-.49-.52,1.42,1.42,0,0,0-.7-.17A1.3,1.3,0,0,0,640.8,150.78Z"/><path d="M611.27,157.11a.48.48,0,0,1,.33-.12.46.46,0,0,1,.33.12.41.41,0,0,1,0,.58.46.46,0,0,1-.33.12.48.48,0,0,1-.33-.12.41.41,0,0,1,0-.58Zm.66,1.46v4h-.66v-4Z"/><path d="M616.21,159a1.82,1.82,0,0,1,.43,1.29v2.31H616V160.3a1.29,1.29,0,0,0-.31-.92,1.1,1.1,0,0,0-.83-.32,1.15,1.15,0,0,0-.87.35,1.51,1.51,0,0,0-.32,1v2.11H613v-4h.66v.94a1.38,1.38,0,0,1,.54-.75,1.6,1.6,0,0,1,.89-.26A1.49,1.49,0,0,1,616.21,159Z"/><path d="M620.11,160.49v2.06h-.66v-5.11h1.62a1.85,1.85,0,0,1,1.32.41,1.45,1.45,0,0,1,.43,1.12,1.43,1.43,0,0,1-.45,1.12,1.87,1.87,0,0,1-1.3.4Zm1.77-.8a1.11,1.11,0,0,0,0-1.45A1.22,1.22,0,0,0,621,158h-.9v1.95h.9A1.22,1.22,0,0,0,621.88,159.69Z"/><path d="M624.82,158.73a1.77,1.77,0,0,1,.9-.23v.72h-.2a1.4,1.4,0,0,0-.91.29,1.13,1.13,0,0,0-.36,1v2.09h-.66v-4h.66v.8A1.48,1.48,0,0,1,624.82,158.73Z"/><path d="M629.21,158.76a1.82,1.82,0,0,1,.71.72,2.39,2.39,0,0,1,0,2.17,1.8,1.8,0,0,1-.71.71,2.31,2.31,0,0,1-2.05,0,1.82,1.82,0,0,1-.72-.71,2.39,2.39,0,0,1,0-2.17,1.85,1.85,0,0,1,.72-.72,2.31,2.31,0,0,1,2.05,0Zm-1.68.5a1.16,1.16,0,0,0-.49.49,1.91,1.91,0,0,0,0,1.62,1.16,1.16,0,0,0,.49.49,1.42,1.42,0,0,0,1.31,0,1.21,1.21,0,0,0,.49-.49,1.91,1.91,0,0,0,0-1.62,1.21,1.21,0,0,0-.49-.49,1.42,1.42,0,0,0-1.31,0Z"/><path d="M633.66,158.81a1.45,1.45,0,0,1,.56.77v-1h.66v4.05a2,2,0,0,1-.23,1,1.68,1.68,0,0,1-.65.67,2.06,2.06,0,0,1-1,.23,2.11,2.11,0,0,1-1.32-.38,1.74,1.74,0,0,1-.64-1.05h.65a1.18,1.18,0,0,0,.44.63,1.43,1.43,0,0,0,.83.22,1.21,1.21,0,0,0,.89-.34,1.26,1.26,0,0,0,.35-1v-1.08a1.45,1.45,0,0,1-.56.77,1.6,1.6,0,0,1-1,.29,1.86,1.86,0,0,1-.95-.24,1.79,1.79,0,0,1-.65-.71,2.67,2.67,0,0,1,0-2.17,1.82,1.82,0,0,1,.65-.72,1.86,1.86,0,0,1,.95-.24A1.6,1.6,0,0,1,633.66,158.81Zm-1.77.68a1.48,1.48,0,0,0-.37,1.07,1.45,1.45,0,0,0,.37,1.07,1.27,1.27,0,0,0,1,.39,1.38,1.38,0,0,0,.7-.18,1.31,1.31,0,0,0,.48-.51,1.71,1.71,0,0,0,.17-.77,1.74,1.74,0,0,0-.17-.77,1.31,1.31,0,0,0-.48-.51,1.48,1.48,0,0,0-.7-.17A1.27,1.27,0,0,0,631.89,159.49Z"/><path d="M637.17,158.73a1.72,1.72,0,0,1,.9-.23v.72h-.2a1.43,1.43,0,0,0-.92.29,1.13,1.13,0,0,0-.35,1v2.09h-.66v-4h.66v.8A1.48,1.48,0,0,1,637.17,158.73Z"/><path d="M642.36,160.7h-3.19a1.45,1.45,0,0,0,.39,1,1.29,1.29,0,0,0,.9.34,1.25,1.25,0,0,0,.8-.25,1,1,0,0,0,.39-.65h.71a1.66,1.66,0,0,1-1,1.25,2.19,2.19,0,0,1-.9.18,2.08,2.08,0,0,1-1-.24,1.75,1.75,0,0,1-.69-.71,2.48,2.48,0,0,1,0-2.17,1.77,1.77,0,0,1,.69-.72,2.27,2.27,0,0,1,2,0,1.74,1.74,0,0,1,.66.66,1.9,1.9,0,0,1,.23.92A1.86,1.86,0,0,1,642.36,160.7Zm-.79-1.06a1.06,1.06,0,0,0-.45-.44,1.39,1.39,0,0,0-.63-.15,1.34,1.34,0,0,0-.92.34,1.37,1.37,0,0,0-.4,1h2.55A1.33,1.33,0,0,0,641.57,159.64Z"/><path d="M645.58,158.87a1.45,1.45,0,0,1,.5.95h-.63a1,1,0,0,0-.29-.59,1,1,0,0,0-.68-.23.84.84,0,0,0-.55.17.6.6,0,0,0-.2.46.48.48,0,0,0,.13.36.88.88,0,0,0,.34.2,3.68,3.68,0,0,0,.55.15,5.8,5.8,0,0,1,.71.21,1.18,1.18,0,0,1,.47.33,1,1,0,0,1,.19.63,1,1,0,0,1-.37.79,1.49,1.49,0,0,1-1,.3,1.86,1.86,0,0,1-1.16-.34,1.36,1.36,0,0,1-.53-.95h.64a.85.85,0,0,0,.32.59,1.12,1.12,0,0,0,.73.23.77.77,0,0,0,.54-.18.59.59,0,0,0,.19-.46.51.51,0,0,0-.14-.37.89.89,0,0,0-.34-.21,3.87,3.87,0,0,0-.56-.15,5.29,5.29,0,0,1-.7-.2,1.15,1.15,0,0,1-.46-.33.9.9,0,0,1-.18-.6,1,1,0,0,1,.37-.8,1.51,1.51,0,0,1,1-.31A1.56,1.56,0,0,1,645.58,158.87Z"/><path d="M649.34,158.87a1.44,1.44,0,0,1,.49.95h-.63a.9.9,0,0,0-.29-.59,1,1,0,0,0-.67-.23.87.87,0,0,0-.56.17.6.6,0,0,0-.2.46.49.49,0,0,0,.14.36.91.91,0,0,0,.33.2,4.06,4.06,0,0,0,.55.15,5.8,5.8,0,0,1,.71.21,1.18,1.18,0,0,1,.47.33,1.07,1.07,0,0,1-.18,1.42,1.48,1.48,0,0,1-1,.3,1.84,1.84,0,0,1-1.16-.34,1.33,1.33,0,0,1-.53-.95h.64a.81.81,0,0,0,.31.59,1.15,1.15,0,0,0,.74.23.74.74,0,0,0,.53-.18.59.59,0,0,0,.19-.46.51.51,0,0,0-.13-.37,1,1,0,0,0-.35-.21,4.06,4.06,0,0,0-.55-.15,5.07,5.07,0,0,1-.71-.2,1.06,1.06,0,0,1-.45-.33.85.85,0,0,1-.19-.6,1,1,0,0,1,.37-.8,1.52,1.52,0,0,1,1-.31A1.61,1.61,0,0,1,649.34,158.87Z"/><path d="M460.9,215.22v1.85H463v.54H460.9v1.89h2.29v.58h-3v-5.43h3v.57Z"/><path d="M464.8,214.38v5.7h-.71v-5.7Z"/><path d="M469.78,218.11H466.4a1.47,1.47,0,0,0,.41,1.09,1.36,1.36,0,0,0,.95.36,1.39,1.39,0,0,0,.85-.26,1,1,0,0,0,.42-.69h.75a1.75,1.75,0,0,1-1,1.33,2.44,2.44,0,0,1-2-.07,1.88,1.88,0,0,1-.73-.75,2.61,2.61,0,0,1,0-2.31,1.76,1.76,0,0,1,.73-.75,2.16,2.16,0,0,1,1.08-.27,2.11,2.11,0,0,1,1.08.27,1.81,1.81,0,0,1,.7.7,2,2,0,0,1,.24,1A2.09,2.09,0,0,1,469.78,218.11ZM469,217a1.11,1.11,0,0,0-.49-.47,1.5,1.5,0,0,0-.67-.16,1.39,1.39,0,0,0-1,.36,1.45,1.45,0,0,0-.42,1.05h2.7A1.46,1.46,0,0,0,469,217Z"/><path d="M473.94,216.22a1.86,1.86,0,0,1,.65,1.16h-.74a1.07,1.07,0,0,0-.42-.71,1.47,1.47,0,0,0-1.52-.09,1.18,1.18,0,0,0-.49.52,2.06,2.06,0,0,0,0,1.73,1.13,1.13,0,0,0,.49.52,1.47,1.47,0,0,0,1.52-.09,1.09,1.09,0,0,0,.42-.72h.74a1.8,1.8,0,0,1-.65,1.16,2.05,2.05,0,0,1-1.34.43,2.21,2.21,0,0,1-1.08-.26,2,2,0,0,1-.74-.75,2.7,2.7,0,0,1,0-2.31,1.84,1.84,0,0,1,.74-.75,2.3,2.3,0,0,1,2.42.16Z"/><path d="M477.53,219.46v.62H477a1.35,1.35,0,0,1-1-.31,1.37,1.37,0,0,1-.32-1v-2.28h-.64v-.61h.64v-1.06h.7v1.06h1.1v.61h-1.1v2.29a.8.8,0,0,0,.15.56.73.73,0,0,0,.52.15Z"/><path d="M479.69,216a1.81,1.81,0,0,1,.95-.24v.76h-.21a1.5,1.5,0,0,0-1,.3,1.24,1.24,0,0,0-.38,1v2.23h-.7v-4.23h.7v.85A1.55,1.55,0,0,1,479.69,216Z"/><path d="M484.34,216.06a1.77,1.77,0,0,1,.76.75,2.61,2.61,0,0,1,0,2.31,1.89,1.89,0,0,1-.76.75,2.28,2.28,0,0,1-1.09.26,2.34,2.34,0,0,1-1.09-.26,1.93,1.93,0,0,1-.75-.75,2.52,2.52,0,0,1,0-2.31,1.81,1.81,0,0,1,.75-.75,2.23,2.23,0,0,1,1.09-.27A2.18,2.18,0,0,1,484.34,216.06Zm-1.78.52a1.24,1.24,0,0,0-.52.52,1.95,1.95,0,0,0,0,1.72,1.19,1.19,0,0,0,.52.52,1.51,1.51,0,0,0,1.39,0,1.24,1.24,0,0,0,.52-.52,2,2,0,0,0,0-1.72,1.3,1.3,0,0,0-.52-.52,1.51,1.51,0,0,0-1.39,0Z"/><path d="M489.71,216.25a1.92,1.92,0,0,1,.45,1.37v2.46h-.7v-2.4a1.38,1.38,0,0,0-.32-1,1.15,1.15,0,0,0-.88-.34,1.23,1.23,0,0,0-.92.37,1.57,1.57,0,0,0-.35,1.09v2.25h-.7v-4.23h.7v1a1.42,1.42,0,0,1,.57-.79,1.66,1.66,0,0,1,.95-.28A1.6,1.6,0,0,1,489.71,216.25Z"/><path d="M491.25,214.3a.49.49,0,0,1,.34-.12.5.5,0,0,1,.35.12.43.43,0,0,1,0,.62.5.5,0,0,1-.35.12.49.49,0,0,1-.34-.12.43.43,0,0,1,0-.62Zm.69,1.55v4.23h-.7v-4.23Z"/><path d="M496.28,216.22a1.86,1.86,0,0,1,.65,1.16h-.74a1.07,1.07,0,0,0-.42-.71,1.47,1.47,0,0,0-1.52-.09,1.18,1.18,0,0,0-.49.52,2.06,2.06,0,0,0,0,1.73,1.13,1.13,0,0,0,.49.52,1.47,1.47,0,0,0,1.52-.09,1.09,1.09,0,0,0,.42-.72h.74a1.8,1.8,0,0,1-.65,1.16,2.05,2.05,0,0,1-1.34.43,2.21,2.21,0,0,1-1.08-.26,2,2,0,0,1-.74-.75,2.7,2.7,0,0,1,0-2.31,1.84,1.84,0,0,1,.74-.75,2.3,2.3,0,0,1,2.42.16Z"/><path d="M500.62,216.1a1.58,1.58,0,0,1,.6.83v-1.08h.7v4.23h-.7V219a1.55,1.55,0,0,1-.6.82,1.69,1.69,0,0,1-1,.31,2,2,0,0,1-1-.26,1.92,1.92,0,0,1-.69-.75,2.79,2.79,0,0,1,0-2.31,1.8,1.8,0,0,1,.69-.75,1.87,1.87,0,0,1,1-.27A1.76,1.76,0,0,1,500.62,216.1Zm-1.88.73a1.89,1.89,0,0,0,0,2.27,1.35,1.35,0,0,0,1,.41,1.39,1.39,0,0,0,1.26-.73,1.8,1.8,0,0,0,.18-.82,1.76,1.76,0,0,0-.18-.81,1.29,1.29,0,0,0-.52-.54,1.41,1.41,0,0,0-.74-.19A1.35,1.35,0,0,0,498.74,216.83Z"/><path d="M503.74,214.38v5.7H503v-5.7Z"/><path d="M505.56,214.38v5.7h-.7v-5.7Z"/><path d="M507,215.85l1.37,3.32,1.27-3.32h.78l-2.51,6.23h-.79L508,220l-1.77-4.16Z"/><path d="M516.15,216.22a1.87,1.87,0,0,1,.66,1.16h-.74a1.07,1.07,0,0,0-.42-.71,1.39,1.39,0,0,0-.85-.26,1.43,1.43,0,0,0-.68.17,1.3,1.3,0,0,0-.49.52,2.17,2.17,0,0,0,0,1.73,1.24,1.24,0,0,0,.49.52,1.43,1.43,0,0,0,.68.17,1.39,1.39,0,0,0,.85-.26,1.09,1.09,0,0,0,.42-.72h.74a1.82,1.82,0,0,1-.66,1.16,2,2,0,0,1-1.34.43,2.27,2.27,0,0,1-1.08-.26,2,2,0,0,1-.73-.75,2.61,2.61,0,0,1,0-2.31,1.82,1.82,0,0,1,.73-.75,2.16,2.16,0,0,1,1.08-.27A2.09,2.09,0,0,1,516.15,216.22Z"/><path d="M520.73,216.06a1.89,1.89,0,0,1,.76.75,2.61,2.61,0,0,1,0,2.31,2,2,0,0,1-.76.75,2.28,2.28,0,0,1-1.09.26,2.31,2.31,0,0,1-1.09-.26,2,2,0,0,1-.76-.75,2.61,2.61,0,0,1,0-2.31,1.89,1.89,0,0,1,.76-.75,2.2,2.2,0,0,1,1.09-.27A2.18,2.18,0,0,1,520.73,216.06Zm-1.79.52a1.28,1.28,0,0,0-.51.52,1.95,1.95,0,0,0,0,1.72,1.22,1.22,0,0,0,.51.52,1.42,1.42,0,0,0,.7.17,1.4,1.4,0,0,0,.7-.17,1.22,1.22,0,0,0,.51-.52,1.95,1.95,0,0,0,0-1.72,1.28,1.28,0,0,0-.51-.52,1.51,1.51,0,0,0-.7-.17A1.54,1.54,0,0,0,518.94,216.58Z"/><path d="M526.09,216.25a1.88,1.88,0,0,1,.46,1.37v2.46h-.7v-2.4a1.34,1.34,0,0,0-.33-1,1.12,1.12,0,0,0-.87-.34,1.23,1.23,0,0,0-.93.37,1.57,1.57,0,0,0-.34,1.09v2.25h-.7v-4.23h.7v1a1.38,1.38,0,0,1,.57-.79,1.61,1.61,0,0,1,.95-.28A1.59,1.59,0,0,1,526.09,216.25Z"/><path d="M528.72,215a.88.88,0,0,0-.22.69v.12h1v.61h-1v3.62h-.7v-3.62h-.61v-.61h.61v-.17c0-1,.56-1.5,1.7-1.45v.62A1.11,1.11,0,0,0,528.72,215Z"/><path d="M530.27,214.3a.49.49,0,0,1,.34-.12.5.5,0,0,1,.35.12.43.43,0,0,1,0,.62.5.5,0,0,1-.35.12.49.49,0,0,1-.34-.12.43.43,0,0,1,0-.62Zm.69,1.55v4.23h-.7v-4.23Z"/><path d="M533.39,216a1.85,1.85,0,0,1,1-.24v.76h-.22a1.54,1.54,0,0,0-1,.3,1.24,1.24,0,0,0-.37,1v2.23h-.7v-4.23h.7v.85A1.59,1.59,0,0,1,533.39,216Z"/><path d="M541.43,216.25a1.92,1.92,0,0,1,.45,1.37v2.46h-.7v-2.4a1.35,1.35,0,0,0-.3-1,1.08,1.08,0,0,0-.84-.34,1.16,1.16,0,0,0-.89.37,1.54,1.54,0,0,0-.33,1.07v2.25h-.7v-2.4a1.36,1.36,0,0,0-.31-1,1.07,1.07,0,0,0-.83-.34,1.17,1.17,0,0,0-.9.37,1.54,1.54,0,0,0-.34,1.07v2.25H535v-4.23h.7v1a1.46,1.46,0,0,1,.55-.77,1.68,1.68,0,0,1,.92-.26,1.59,1.59,0,0,1,.93.27,1.44,1.44,0,0,1,.57.81,1.51,1.51,0,0,1,.59-.8,1.62,1.62,0,0,1,.94-.28A1.59,1.59,0,0,1,541.43,216.25Z"/><path d="M546.83,218.11h-3.38a1.47,1.47,0,0,0,.41,1.09,1.34,1.34,0,0,0,.95.36,1.39,1.39,0,0,0,.85-.26,1,1,0,0,0,.42-.69h.75a1.88,1.88,0,0,1-.35.79,1.7,1.7,0,0,1-.69.54,2.24,2.24,0,0,1-.95.19,2.21,2.21,0,0,1-1.08-.26,1.88,1.88,0,0,1-.73-.75,2.61,2.61,0,0,1,0-2.31,1.76,1.76,0,0,1,.73-.75,2.11,2.11,0,0,1,1.08-.27,2,2,0,0,1,1.07.27,1.69,1.69,0,0,1,.7.7,1.87,1.87,0,0,1,.25,1A2.09,2.09,0,0,1,546.83,218.11ZM546,217a1.09,1.09,0,0,0-.48-.47,1.54,1.54,0,0,0-.67-.16,1.37,1.37,0,0,0-1,.36,1.45,1.45,0,0,0-.42,1.05h2.7A1.45,1.45,0,0,0,546,217Z"/><path d="M550.55,216.1a1.69,1.69,0,0,1,.6.83v-2.55h.7v5.7h-.7V219a1.66,1.66,0,0,1-.6.82,1.71,1.71,0,0,1-1,.31,2,2,0,0,1-1-.26,1.92,1.92,0,0,1-.69-.75,2.79,2.79,0,0,1,0-2.31,1.8,1.8,0,0,1,.69-.75,1.91,1.91,0,0,1,1-.27A1.78,1.78,0,0,1,550.55,216.1Zm-1.88.73a1.85,1.85,0,0,0,0,2.27,1.33,1.33,0,0,0,1,.41,1.43,1.43,0,0,0,.74-.19,1.33,1.33,0,0,0,.51-.54,1.8,1.8,0,0,0,.19-.82,1.76,1.76,0,0,0-.19-.81,1.21,1.21,0,0,0-.51-.54,1.43,1.43,0,0,0-.74-.19A1.33,1.33,0,0,0,548.67,216.83Z"/><path d="M558.2,216.06a1.8,1.8,0,0,1,.69.75,2.79,2.79,0,0,1,0,2.31,1.92,1.92,0,0,1-.69.75,2,2,0,0,1-1,.26,1.69,1.69,0,0,1-1-.31,1.52,1.52,0,0,1-.59-.82v1.08h-.7v-5.7h.7v2.55a1.49,1.49,0,0,1,.59-.82,1.69,1.69,0,0,1,1-.32A1.87,1.87,0,0,1,558.2,216.06Zm-1.94.55a1.29,1.29,0,0,0-.52.54,1.76,1.76,0,0,0-.18.81,1.8,1.8,0,0,0,.18.82,1.39,1.39,0,0,0,1.26.73,1.35,1.35,0,0,0,1-.41,1.85,1.85,0,0,0,0-2.27,1.35,1.35,0,0,0-1-.41A1.43,1.43,0,0,0,556.26,216.61Z"/><path d="M560.35,215.85l1.37,3.32,1.27-3.32h.78l-2.51,6.23h-.8l.88-2.07-1.78-4.16Z"/><path d="M474.38,228.62a1.39,1.39,0,0,1-.56.54,1.88,1.88,0,0,1-.93.21,2.26,2.26,0,0,1-1-.2,1.64,1.64,0,0,1-.67-.54,1.4,1.4,0,0,1-.29-.78h.75a.93.93,0,0,0,.15.45,1.07,1.07,0,0,0,.39.37,1.27,1.27,0,0,0,.6.14.93.93,0,0,0,.71-.25.82.82,0,0,0,.25-.63.8.8,0,0,0-.18-.54,1.14,1.14,0,0,0-.42-.33,5.29,5.29,0,0,0-.7-.25,7.9,7.9,0,0,1-.82-.32,1.45,1.45,0,0,1-.54-.45,1.38,1.38,0,0,1-.22-.8,1.31,1.31,0,0,1,.21-.74,1.29,1.29,0,0,1,.58-.5,2.13,2.13,0,0,1,.9-.18,1.91,1.91,0,0,1,1.27.39,1.46,1.46,0,0,1,.55,1h-.76a1,1,0,0,0-.33-.57,1,1,0,0,0-.73-.25,1,1,0,0,0-.68.22.87.87,0,0,0-.08,1.13,1.17,1.17,0,0,0,.41.31,6.59,6.59,0,0,0,.68.25,7.22,7.22,0,0,1,.84.32,1.51,1.51,0,0,1,.54.47,1.38,1.38,0,0,1,.22.83A1.47,1.47,0,0,1,474.38,228.62Z"/><path d="M478.92,225.49a1.88,1.88,0,0,1,.46,1.37v2.46h-.7v-2.4a1.34,1.34,0,0,0-.33-1,1.17,1.17,0,0,0-.88-.34,1.2,1.2,0,0,0-.92.38,1.53,1.53,0,0,0-.35,1.09v2.24h-.7v-5.7h.7v2.47a1.42,1.42,0,0,1,.58-.79,1.61,1.61,0,0,1,1-.28A1.59,1.59,0,0,1,478.92,225.49Z"/><path d="M480.46,223.54a.57.57,0,0,1,.7,0,.43.43,0,0,1,0,.62.57.57,0,0,1-.7,0,.43.43,0,0,1,0-.62Zm.7,1.55v4.23h-.7v-4.23Z"/><path d="M485.62,225.3a1.71,1.71,0,0,1,.68.75,2.79,2.79,0,0,1,0,2.31,1.83,1.83,0,0,1-.68.75,2,2,0,0,1-1,.26,1.71,1.71,0,0,1-1-.31,1.63,1.63,0,0,1-.59-.82v3.08h-.7v-6.23h.7v1.08a1.59,1.59,0,0,1,.59-.82,1.71,1.71,0,0,1,1-.32A1.91,1.91,0,0,1,485.62,225.3Zm-1.94.55a1.18,1.18,0,0,0-.52.54,1.8,1.8,0,0,0-.19.82,1.76,1.76,0,0,0,.19.81,1.29,1.29,0,0,0,.52.54,1.4,1.4,0,0,0,.73.19,1.36,1.36,0,0,0,1-.41,1.85,1.85,0,0,0,0-2.27,1.53,1.53,0,0,0-1.78-.22Z"/><path d="M490.81,225.3a1.8,1.8,0,0,1,.69.75,2.79,2.79,0,0,1,0,2.31,1.92,1.92,0,0,1-.69.75,2,2,0,0,1-1,.26,1.71,1.71,0,0,1-1-.31,1.63,1.63,0,0,1-.59-.82v3.08h-.7v-6.23h.7v1.08a1.59,1.59,0,0,1,.59-.82,1.71,1.71,0,0,1,1-.32A1.91,1.91,0,0,1,490.81,225.3Zm-1.94.55a1.18,1.18,0,0,0-.52.54,1.8,1.8,0,0,0-.19.82,1.76,1.76,0,0,0,.19.81,1.29,1.29,0,0,0,.52.54,1.4,1.4,0,0,0,.73.19,1.36,1.36,0,0,0,1-.41,1.85,1.85,0,0,0,0-2.27,1.53,1.53,0,0,0-1.78-.22Z"/><path d="M496.52,227.35h-3.38a1.47,1.47,0,0,0,.41,1.09,1.47,1.47,0,0,0,1.8.1,1,1,0,0,0,.42-.69h.75a1.81,1.81,0,0,1-.34.79,1.85,1.85,0,0,1-.69.54,2.25,2.25,0,0,1-1,.19,2.2,2.2,0,0,1-1.07-.26,1.91,1.91,0,0,1-.74-.75,2.61,2.61,0,0,1,0-2.31,1.78,1.78,0,0,1,.74-.75,2.28,2.28,0,0,1,2.15,0,1.81,1.81,0,0,1,.7.7,2,2,0,0,1,.24,1A2,2,0,0,1,496.52,227.35Zm-.83-1.12a1.11,1.11,0,0,0-.49-.47,1.5,1.5,0,0,0-.67-.16,1.39,1.39,0,0,0-1,.36,1.45,1.45,0,0,0-.42,1h2.7A1.37,1.37,0,0,0,495.69,226.23Z"/><path d="M498.78,225.26a1.79,1.79,0,0,1,1-.24v.76h-.22a1.44,1.44,0,0,0-1,.31,1.18,1.18,0,0,0-.38,1v2.23h-.7v-4.23h.7v.85A1.55,1.55,0,0,1,498.78,225.26Z"/><path d="M505.33,225.3a1.83,1.83,0,0,1,.76.75,2.61,2.61,0,0,1,0,2.31,2,2,0,0,1-.76.75,2.28,2.28,0,0,1-1.09.26,2.31,2.31,0,0,1-1.09-.26,1.93,1.93,0,0,1-.75-.75,2.52,2.52,0,0,1,0-2.31,1.81,1.81,0,0,1,.75-.75,2.2,2.2,0,0,1,1.09-.27A2.18,2.18,0,0,1,505.33,225.3Zm-1.78.52a1.24,1.24,0,0,0-.52.52,1.75,1.75,0,0,0-.2.87,1.79,1.79,0,0,0,.2.86,1.22,1.22,0,0,0,.52.51,1.51,1.51,0,0,0,1.39,0,1.27,1.27,0,0,0,.52-.51,1.79,1.79,0,0,0,.19-.86,1.75,1.75,0,0,0-.19-.87,1.3,1.3,0,0,0-.52-.52,1.51,1.51,0,0,0-1.39,0Z"/><path d="M508.59,225.26a1.79,1.79,0,0,1,1-.24v.76h-.21a1.45,1.45,0,0,0-1,.31,1.18,1.18,0,0,0-.38,1v2.23h-.7v-4.23h.7v.85A1.55,1.55,0,0,1,508.59,225.26Z"/><path d="M516.18,224.32a2.48,2.48,0,0,1,.89,1.34h-.74a1.74,1.74,0,0,0-.67-.86,1.93,1.93,0,0,0-1.13-.32,1.81,1.81,0,0,0-.95.26,1.76,1.76,0,0,0-.66.74,2.48,2.48,0,0,0-.24,1.13,2.45,2.45,0,0,0,.24,1.11,1.76,1.76,0,0,0,.66.74,1.81,1.81,0,0,0,.95.26,1.93,1.93,0,0,0,1.13-.32,1.78,1.78,0,0,0,.67-.86h.74a2.45,2.45,0,0,1-.89,1.33,2.62,2.62,0,0,1-1.64.49,2.52,2.52,0,0,1-1.35-.35,2.4,2.4,0,0,1-.91-1,3,3,0,0,1-.33-1.42,3.06,3.06,0,0,1,.33-1.44,2.49,2.49,0,0,1,.91-1,2.61,2.61,0,0,1,1.35-.35A2.68,2.68,0,0,1,516.18,224.32Z"/><path d="M521,225.3a1.81,1.81,0,0,1,.75.75,2.52,2.52,0,0,1,0,2.31,1.93,1.93,0,0,1-.75.75,2.41,2.41,0,0,1-2.18,0,2,2,0,0,1-.76-.75,2.52,2.52,0,0,1,0-2.31,1.89,1.89,0,0,1,.76-.75,2.34,2.34,0,0,1,2.18,0Zm-1.79.52a1.28,1.28,0,0,0-.51.52,1.75,1.75,0,0,0-.2.87,1.79,1.79,0,0,0,.2.86,1.25,1.25,0,0,0,.51.51,1.53,1.53,0,0,0,1.4,0,1.25,1.25,0,0,0,.51-.51,1.79,1.79,0,0,0,.2-.86,1.75,1.75,0,0,0-.2-.87,1.28,1.28,0,0,0-.51-.52,1.53,1.53,0,0,0-1.4,0Z"/><path d="M526.38,225.49a1.88,1.88,0,0,1,.46,1.37v2.46h-.7v-2.4a1.34,1.34,0,0,0-.33-1,1.15,1.15,0,0,0-.87-.34,1.21,1.21,0,0,0-.93.38,1.53,1.53,0,0,0-.34,1.09v2.24H523v-4.23h.7v1a1.36,1.36,0,0,1,.57-.79,1.61,1.61,0,0,1,1-.28A1.59,1.59,0,0,1,526.38,225.49Z"/><path d="M530.39,225.41a1.56,1.56,0,0,1,.53,1h-.67a1,1,0,0,0-.31-.62,1,1,0,0,0-.72-.24.86.86,0,0,0-.58.18.6.6,0,0,0-.22.49.47.47,0,0,0,.15.37.84.84,0,0,0,.35.22c.14.05.34.1.58.16a4.51,4.51,0,0,1,.76.22,1.14,1.14,0,0,1,.49.35,1,1,0,0,1,.21.67,1.05,1.05,0,0,1-.39.84,1.61,1.61,0,0,1-1,.32,2,2,0,0,1-1.23-.36,1.45,1.45,0,0,1-.56-1h.68a.84.84,0,0,0,.33.62,1.21,1.21,0,0,0,.78.24.85.85,0,0,0,.57-.18.63.63,0,0,0,.2-.49.56.56,0,0,0-.14-.39,1,1,0,0,0-.36-.22,4.7,4.7,0,0,0-.6-.17,6.18,6.18,0,0,1-.75-.21,1.17,1.17,0,0,1-.48-.34,1,1,0,0,1-.19-.64,1.08,1.08,0,0,1,.39-.86,1.61,1.61,0,0,1,1.07-.33A1.7,1.7,0,0,1,530.39,225.41Z"/><path d="M531.91,223.54a.47.47,0,0,1,.34-.12.5.5,0,0,1,.35.12.43.43,0,0,1,0,.62.5.5,0,0,1-.35.12.47.47,0,0,1-.34-.12.41.41,0,0,1,0-.62Zm.69,1.55v4.23h-.7v-4.23Z"/><path d="M536.5,225.34a1.69,1.69,0,0,1,.6.83v-1.08h.7v4.3a2.22,2.22,0,0,1-.25,1,1.79,1.79,0,0,1-.69.7,2.08,2.08,0,0,1-1,.26,2.28,2.28,0,0,1-1.4-.41,1.84,1.84,0,0,1-.68-1.12h.69a1.17,1.17,0,0,0,.47.67,1.5,1.5,0,0,0,.88.24,1.3,1.3,0,0,0,.94-.36,1.38,1.38,0,0,0,.38-1v-1.15a1.66,1.66,0,0,1-.6.82,1.71,1.71,0,0,1-1,.31,2,2,0,0,1-1-.26,1.92,1.92,0,0,1-.69-.75,2.79,2.79,0,0,1,0-2.31,1.8,1.8,0,0,1,.69-.75,1.91,1.91,0,0,1,1-.27A1.78,1.78,0,0,1,536.5,225.34Zm-1.88.73a1.85,1.85,0,0,0,0,2.27,1.33,1.33,0,0,0,1,.41,1.43,1.43,0,0,0,.74-.19,1.33,1.33,0,0,0,.51-.54,1.76,1.76,0,0,0,.19-.81,1.8,1.8,0,0,0-.19-.82,1.21,1.21,0,0,0-.51-.54,1.43,1.43,0,0,0-.74-.19A1.37,1.37,0,0,0,534.62,226.07Z"/><path d="M542.33,225.49a1.88,1.88,0,0,1,.46,1.37v2.46h-.7v-2.4a1.34,1.34,0,0,0-.33-1,1.17,1.17,0,0,0-.88-.34,1.2,1.2,0,0,0-.92.38,1.53,1.53,0,0,0-.35,1.09v2.24h-.7v-4.23h.7v1a1.42,1.42,0,0,1,.58-.79,1.61,1.61,0,0,1,.95-.28A1.59,1.59,0,0,1,542.33,225.49Z"/><path d="M547.72,227.35h-3.38a1.55,1.55,0,0,0,.41,1.09,1.36,1.36,0,0,0,1,.36,1.41,1.41,0,0,0,.85-.26,1,1,0,0,0,.42-.69h.74a1.7,1.7,0,0,1-.34.79,1.85,1.85,0,0,1-.69.54,2.24,2.24,0,0,1-1,.19,2.21,2.21,0,0,1-1.08-.26,1.91,1.91,0,0,1-.74-.75,2.7,2.7,0,0,1,0-2.31,1.78,1.78,0,0,1,.74-.75,2.11,2.11,0,0,1,1.08-.27,2,2,0,0,1,1.07.27,1.75,1.75,0,0,1,.7.7,2,2,0,0,1,.24,1A2,2,0,0,1,547.72,227.35Zm-.83-1.12a1.14,1.14,0,0,0-.48-.47,1.54,1.54,0,0,0-.67-.16,1.37,1.37,0,0,0-1,.36,1.42,1.42,0,0,0-.43,1h2.71A1.45,1.45,0,0,0,546.89,226.23Z"/><path d="M552.53,227.35h-3.38a1.47,1.47,0,0,0,.41,1.09,1.36,1.36,0,0,0,1,.36,1.39,1.39,0,0,0,.85-.26,1,1,0,0,0,.42-.69h.75a1.81,1.81,0,0,1-.34.79,1.85,1.85,0,0,1-.69.54,2.44,2.44,0,0,1-2-.07,1.88,1.88,0,0,1-.73-.75,2.61,2.61,0,0,1,0-2.31,1.76,1.76,0,0,1,.73-.75,2.16,2.16,0,0,1,1.08-.27,2.11,2.11,0,0,1,1.08.27,1.88,1.88,0,0,1,.7.7,2,2,0,0,1,.24,1A2,2,0,0,1,552.53,227.35Zm-.83-1.12a1.11,1.11,0,0,0-.49-.47,1.5,1.5,0,0,0-.67-.16,1.39,1.39,0,0,0-1,.36,1.45,1.45,0,0,0-.42,1h2.7A1.46,1.46,0,0,0,551.7,226.23Z"/><path d="M703.36,200.36l-2.6,6h-1.82l2.63-5.82h-3.08v-1.51h4.87Z"/><path d="M705.66,204.63v1.75h-1.82v-1.75Z"/><path d="M710.38,203.84v2.54h-1.76v-7.26h2.85a2.75,2.75,0,0,1,2,.65,2.26,2.26,0,0,1,.68,1.73,2.28,2.28,0,0,1-.31,1.2,2,2,0,0,1-.89.83,3.08,3.08,0,0,1-1.45.31Zm2-2.34c0-.64-.35-1-1.06-1h-.89v1.89h.89C712,202.43,712.33,202.12,712.33,201.5Z"/><path d="M718.29,200.88a1.84,1.84,0,0,1,.7.81v-1h1.74v5.73H719v-1a1.84,1.84,0,0,1-.7.81,2.07,2.07,0,0,1-1.13.3,2.3,2.3,0,0,1-1.27-.36,2.39,2.39,0,0,1-.88-1,3.88,3.88,0,0,1,0-3.13,2.36,2.36,0,0,1,.88-1,2.3,2.3,0,0,1,1.27-.36A2.07,2.07,0,0,1,718.29,200.88Zm-1.48,1.61a1.73,1.73,0,0,0,0,2.06,1.22,1.22,0,0,0,.91.37,1.21,1.21,0,0,0,.91-.38,1.44,1.44,0,0,0,.36-1,1.41,1.41,0,0,0-.36-1,1.21,1.21,0,0,0-.91-.38A1.22,1.22,0,0,0,716.81,202.49Z"/><path d="M723.27,200.65l1.37,3.52,1.29-3.52h1.94l-3.58,8.47h-1.93l1.35-3-2.4-5.52Z"/><path d="M737.54,201.25a2.55,2.55,0,0,1,.61,1.81v3.32H736.4v-3.12a1.17,1.17,0,0,0-.29-.84,1.19,1.19,0,0,0-1.62,0,1.22,1.22,0,0,0-.31.9v3h-1.75v-3.12a1.17,1.17,0,0,0-.29-.84,1,1,0,0,0-.79-.31,1.1,1.1,0,0,0-.83.32,1.24,1.24,0,0,0-.31.91v3h-1.76v-5.73h1.76v1a1.69,1.69,0,0,1,.69-.76,2.07,2.07,0,0,1,1.1-.28,2.17,2.17,0,0,1,1.16.31,2,2,0,0,1,.76.86,2.28,2.28,0,0,1,.81-.85,2.19,2.19,0,0,1,1.15-.32A2.14,2.14,0,0,1,737.54,201.25Z"/><path d="M744.71,203.84h-4a1.33,1.33,0,0,0,.33.93,1.16,1.16,0,0,0,1.41.08.92.92,0,0,0,.34-.5h1.86a2.38,2.38,0,0,1-.5,1.08,2.55,2.55,0,0,1-1,.75,3,3,0,0,1-1.31.28,3,3,0,0,1-1.49-.36,2.45,2.45,0,0,1-1-1,3.16,3.16,0,0,1-.37-1.56,3.25,3.25,0,0,1,.36-1.57,2.54,2.54,0,0,1,1-1,3.08,3.08,0,0,1,1.5-.36,3.13,3.13,0,0,1,1.5.35,2.42,2.42,0,0,1,1,1,2.9,2.9,0,0,1,.36,1.46A2.79,2.79,0,0,1,744.71,203.84Zm-2-1.59a1.24,1.24,0,0,0-1.58,0,1.22,1.22,0,0,0-.36.84H743A1,1,0,0,0,742.68,202.25Z"/><path d="M750.87,201.25a2.63,2.63,0,0,1,.58,1.81v3.32H749.7v-3.12a1.25,1.25,0,0,0-.31-.9,1.06,1.06,0,0,0-.8-.32,1.09,1.09,0,0,0-.85.34,1.37,1.37,0,0,0-.31,1v3h-1.76v-5.73h1.76v1a1.9,1.9,0,0,1,.73-.81,2.17,2.17,0,0,1,1.15-.3A2,2,0,0,1,750.87,201.25Z"/><path d="M755.86,204.87v1.51h-.79a2.29,2.29,0,0,1-1.57-.49,2.15,2.15,0,0,1-.56-1.65v-2.11h-.77v-1.48h.77v-1.4h1.76v1.4h1.15v1.48H754.7v2.14a.62.62,0,0,0,.14.47.63.63,0,0,0,.46.13Z"/><path d="M762.62,206.38l-1.57-2.74h-.4v2.74H758.9v-7.26h3a3.19,3.19,0,0,1,1.46.3,2.06,2.06,0,0,1,.9.82,2.4,2.4,0,0,1,.29,1.18,2.12,2.12,0,0,1-.43,1.35,2.26,2.26,0,0,1-1.27.76l1.72,2.85Zm-2-3.94h1.09a1.11,1.11,0,0,0,.77-.23.86.86,0,0,0,.25-.68.93.93,0,0,0-.25-.68,1.05,1.05,0,0,0-.77-.25h-1.09Z"/><path d="M770.82,203.84h-4a1.33,1.33,0,0,0,.33.93,1.16,1.16,0,0,0,1.41.08.92.92,0,0,0,.34-.5h1.86a2.38,2.38,0,0,1-.5,1.08,2.55,2.55,0,0,1-1,.75,3,3,0,0,1-1.31.28,3,3,0,0,1-1.49-.36,2.57,2.57,0,0,1-1-1,3.16,3.16,0,0,1-.37-1.56,3.25,3.25,0,0,1,.36-1.57,2.5,2.5,0,0,1,1-1,3,3,0,0,1,1.49-.36,3.13,3.13,0,0,1,1.5.35,2.36,2.36,0,0,1,1,1,2.9,2.9,0,0,1,.36,1.46A2.79,2.79,0,0,1,770.82,203.84Zm-2-1.59A1.12,1.12,0,0,0,768,202a1.13,1.13,0,0,0-.8.29,1.22,1.22,0,0,0-.36.84h2.24A1,1,0,0,0,768.79,202.25Z"/><path d="M776.23,201.19a2.72,2.72,0,0,1,.94,1.68h-1.86a.94.94,0,0,0-.33-.57,1,1,0,0,0-.65-.21.92.92,0,0,0-.76.37,1.61,1.61,0,0,0-.3,1.06,1.63,1.63,0,0,0,.3,1.06.92.92,0,0,0,.76.37,1,1,0,0,0,.65-.21,1,1,0,0,0,.33-.57h1.86a2.67,2.67,0,0,1-.94,1.67,2.84,2.84,0,0,1-1.86.62,3,3,0,0,1-1.49-.36,2.53,2.53,0,0,1-1-1,3.49,3.49,0,0,1,0-3.13,2.42,2.42,0,0,1,1-1,3.08,3.08,0,0,1,1.5-.36A2.89,2.89,0,0,1,776.23,201.19Z"/><path d="M783.48,203.84h-4a1.33,1.33,0,0,0,.33.93,1.16,1.16,0,0,0,1.41.08.92.92,0,0,0,.34-.5h1.86a2.38,2.38,0,0,1-.5,1.08,2.55,2.55,0,0,1-1,.75,3,3,0,0,1-1.3.28,3.05,3.05,0,0,1-1.5-.36,2.57,2.57,0,0,1-1-1,3.16,3.16,0,0,1-.37-1.56,3.25,3.25,0,0,1,.36-1.57,2.5,2.5,0,0,1,1-1,3,3,0,0,1,1.5-.36,3.12,3.12,0,0,1,1.49.35,2.45,2.45,0,0,1,1,1,3,3,0,0,1,.35,1.46A2.79,2.79,0,0,1,783.48,203.84Zm-2-1.59a1.11,1.11,0,0,0-.77-.28,1.14,1.14,0,0,0-.81.29,1.22,1.22,0,0,0-.36.84h2.24A1,1,0,0,0,781.45,202.25Z"/><path d="M784.57,198.38a1.09,1.09,0,0,1,.76-.26,1.13,1.13,0,0,1,.76.26.85.85,0,0,1,.28.66.83.83,0,0,1-.28.65,1.09,1.09,0,0,1-.76.27,1.05,1.05,0,0,1-.76-.27.81.81,0,0,1-.29-.65A.83.83,0,0,1,784.57,198.38Zm1.63,2.27v5.73h-1.76v-5.73Z"/><path d="M790.06,204.67l1.24-4h1.87l-2,5.73H789l-2-5.73h1.87Z"/><path d="M799.29,203.84h-4a1.33,1.33,0,0,0,.33.93,1,1,0,0,0,.76.28,1,1,0,0,0,.64-.2.87.87,0,0,0,.34-.5h1.86a2.48,2.48,0,0,1-.49,1.08,2.67,2.67,0,0,1-1,.75,2.92,2.92,0,0,1-1.3.28,3.08,3.08,0,0,1-1.5-.36,2.57,2.57,0,0,1-1-1,3.27,3.27,0,0,1-.37-1.56A3.14,3.14,0,0,1,794,202a2.42,2.42,0,0,1,1-1,3.08,3.08,0,0,1,1.5-.36,3.13,3.13,0,0,1,1.5.35,2.48,2.48,0,0,1,1,1,3,3,0,0,1,.35,1.46A2.79,2.79,0,0,1,799.29,203.84Zm-2-1.59a1.09,1.09,0,0,0-.77-.28,1.11,1.11,0,0,0-.8.29,1.14,1.14,0,0,0-.36.84h2.24A1.08,1.08,0,0,0,797.26,202.25Z"/><path d="M803.56,200.88a1.7,1.7,0,0,1,.69.81v-2.9H806v7.59h-1.76v-1a1.7,1.7,0,0,1-.69.81,2,2,0,0,1-1.13.3,2.32,2.32,0,0,1-1.27-.36,2.46,2.46,0,0,1-.88-1,4,4,0,0,1,0-3.13,2.43,2.43,0,0,1,.88-1,2.32,2.32,0,0,1,1.27-.36A2,2,0,0,1,803.56,200.88Zm-1.47,1.61a1.69,1.69,0,0,0,0,2.06,1.29,1.29,0,0,0,1.82,0,1.49,1.49,0,0,0,.35-1,1.45,1.45,0,0,0-.35-1,1.29,1.29,0,0,0-1.82,0Z"/><circle class="cls-14" cx="749.73" cy="158.62" r="31.3"/><circle class="cls-5" cx="747.82" cy="164.42" r="0.69"/><path class="cls-5" d="M752.63,156.14a7.58,7.58,0,1,0-7.58-7.58A7.59,7.59,0,0,0,752.63,156.14Zm0-13.78a6.2,6.2,0,1,1-6.2,6.2A6.21,6.21,0,0,1,752.63,142.36Z"/><path class="cls-5" d="M766.39,156.26a2.76,2.76,0,0,0-3.86.31l-4.07,4.17a2.77,2.77,0,0,0-2.14-1h-7.68a8.89,8.89,0,0,0-3.45-.69,8.52,8.52,0,0,0-7.77,4.4,2.05,2.05,0,0,0-1.84.58l-3.28,3.28a.68.68,0,0,0,0,1l7.73,7.8a.68.68,0,0,0,1,0l3.34-3.29a2.06,2.06,0,0,0,.49-2.13l.72-.7a2.09,2.09,0,0,1,1.44-.58h9.16a6.16,6.16,0,0,0,4.32-1.75l6.25-7.47A2.76,2.76,0,0,0,766.39,156.26Zm-23,15.54-2.84,2.8-6.77-6.82,2.79-2.8a.68.68,0,0,1,.85-.1c.12.07-.22-.24,6,5.94A.69.69,0,0,1,743.37,171.8Zm22.29-12.54-6.17,7.38a4.81,4.81,0,0,1-3.34,1.35H747a3.42,3.42,0,0,0-2.39,1l-.59.57-5.4-5.4a7.12,7.12,0,0,1,6.58-3.71,7.51,7.51,0,0,1,3,.63.67.67,0,0,0,.28.06h7.82a1.38,1.38,0,1,1,0,2.75H750.7a.69.69,0,1,0,0,1.38h5.62a2.76,2.76,0,0,0,2.75-2.76,2.17,2.17,0,0,0,0-.36l4.51-4.63a1.38,1.38,0,1,1,2.1,1.78Z"/><path class="cls-5" d="M752.49,150.62a1.24,1.24,0,0,1-.9-.52.69.69,0,1,0-1.05.89,2.9,2.9,0,0,0,1.26.9v.8a.69.69,0,0,0,1.38,0v-.81a2.06,2.06,0,0,0-.69-4,.69.69,0,1,1,0-1.38,1.12,1.12,0,0,1,.74.36.69.69,0,1,0,1-1,2.6,2.6,0,0,0-1-.63v-.81a.69.69,0,0,0-1.38,0v.81a2.07,2.07,0,0,0,.69,4,.69.69,0,0,1,.69.69A.68.68,0,0,1,752.49,150.62Z"/><path class="cls-5" d="M645.16,35.49h-1.34V29.32a2.69,2.69,0,0,0-2.69-2.68h-1.82l-1.86-3.35a1.6,1.6,0,0,0-1.4-.83,1.56,1.56,0,0,0-.79.21l-7.13,4h-8a2.68,2.68,0,0,0-2.68,2.68V47.75a2.69,2.69,0,0,0,2.68,2.69h21a2.7,2.7,0,0,0,2.69-2.69V42.34h1.34V35.49Zm-4-7.78a1.6,1.6,0,0,1,1.59,1.43h-2l-.8-1.43Zm-5.34-4.1a.54.54,0,0,1,.73.2l3,5.33H625.83Zm7,24.14a1.61,1.61,0,0,1-1.61,1.61h-21a1.61,1.61,0,0,1-1.61-1.61V29.32a1.61,1.61,0,0,1,1.61-1.61h6l-2.57,1.43h-3.13a.54.54,0,0,0,0,1.08h22.25V35.5h-3.92a3.31,3.31,0,0,0-3.31,3.3V39a3.31,3.31,0,0,0,3.31,3.31h3.92v5.41Zm1.34-6.48h-5.26A2.25,2.25,0,0,1,636.58,39V38.8a2.24,2.24,0,0,1,2.24-2.23h5.26ZM640.46,39a1.19,1.19,0,1,1-1.18-1.18A1.18,1.18,0,0,1,640.46,39Z"/><g id="surface1"><path class="cls-5" d="M167.1,34.22l-.76.84,3.47,3.18a4,4,0,0,1,1.28,2.92V55h1.13V41.16a5.12,5.12,0,0,0-1.65-3.76Z"/><path class="cls-5" d="M162.61,21.07H147.9a2.82,2.82,0,0,0-2.82,2.82V52.17A2.83,2.83,0,0,0,147.9,55H162V54a12.85,12.85,0,0,1,2.17-7.16.56.56,0,0,0-.07-.71l-4-4a1.84,1.84,0,0,1-.53-1.39,1.82,1.82,0,0,1,.67-1.33,1.9,1.9,0,0,1,2.53.2l5.58,5.58.8-.8-3.79-3.79V23.89A2.83,2.83,0,0,0,162.61,21.07Zm1.7,18.43-.66-.66a3,3,0,0,0-4.05-.27,3,3,0,0,0-.22,4.39L163,46.59a13.91,13.91,0,0,0-2.1,7.28h-13a1.7,1.7,0,0,1-1.69-1.7V50.48h14.14V49.34H146.21V25.59h18.1Zm0-15h-18.1v-.57a1.69,1.69,0,0,1,1.69-1.69h14.71a1.7,1.7,0,0,1,1.7,1.69Z"/><path class="cls-5" d="M148.47,31.25h2.26a1.13,1.13,0,0,0,1.13-1.13V27.85a1.13,1.13,0,0,0-1.13-1.13h-2.26a1.14,1.14,0,0,0-1.13,1.13v2.27A1.14,1.14,0,0,0,148.47,31.25Zm0-3.4h2.26v2.27h-2.26Z"/><path class="cls-5" d="M154.13,31.25h2.26a1.14,1.14,0,0,0,1.13-1.13V27.85a1.14,1.14,0,0,0-1.13-1.13h-2.26A1.14,1.14,0,0,0,153,27.85v2.27A1.14,1.14,0,0,0,154.13,31.25Zm0-3.4h2.26v2.27h-2.26Z"/><path class="cls-5" d="M159.78,31.25H162a1.13,1.13,0,0,0,1.13-1.13V27.85A1.13,1.13,0,0,0,162,26.72h-2.26a1.14,1.14,0,0,0-1.13,1.13v2.27A1.14,1.14,0,0,0,159.78,31.25Zm0-3.4H162v2.27h-2.26Z"/><path class="cls-5" d="M148.47,36.9h2.26a1.12,1.12,0,0,0,1.13-1.13V33.51a1.12,1.12,0,0,0-1.13-1.13h-2.26a1.13,1.13,0,0,0-1.13,1.13v2.26A1.13,1.13,0,0,0,148.47,36.9Zm0-3.39h2.26v2.26h-2.26Z"/><path class="cls-5" d="M148.47,42.56h2.26a1.13,1.13,0,0,0,1.13-1.13V39.16A1.13,1.13,0,0,0,150.73,38h-2.26a1.14,1.14,0,0,0-1.13,1.13v2.27A1.14,1.14,0,0,0,148.47,42.56Zm0-3.4h2.26v2.27h-2.26Z"/><path class="cls-5" d="M154.13,36.9h2.26a1.13,1.13,0,0,0,1.13-1.13V33.51a1.13,1.13,0,0,0-1.13-1.13h-2.26A1.13,1.13,0,0,0,153,33.51v2.26A1.13,1.13,0,0,0,154.13,36.9Zm0-3.39h2.26v2.26h-2.26Z"/><path class="cls-5" d="M159.78,36.9H162a1.12,1.12,0,0,0,1.13-1.13V33.51A1.12,1.12,0,0,0,162,32.38h-2.26a1.13,1.13,0,0,0-1.13,1.13v2.26A1.13,1.13,0,0,0,159.78,36.9Zm0-3.39H162v2.26h-2.26Z"/><path class="cls-5" d="M154.13,42.56h2.26a1.14,1.14,0,0,0,1.13-1.13V39.16A1.14,1.14,0,0,0,156.39,38h-2.26A1.14,1.14,0,0,0,153,39.16v2.27A1.14,1.14,0,0,0,154.13,42.56Zm0-3.4h2.26v2.27h-2.26Z"/><path class="cls-5" d="M148.47,48.21h2.26a1.12,1.12,0,0,0,1.13-1.13V44.82a1.13,1.13,0,0,0-1.13-1.13h-2.26a1.14,1.14,0,0,0-1.13,1.13v2.26A1.13,1.13,0,0,0,148.47,48.21Zm0-3.39h2.26v2.26h-2.26Z"/><path class="cls-5" d="M154.13,48.21h2.26a1.13,1.13,0,0,0,1.13-1.13V44.82a1.14,1.14,0,0,0-1.13-1.13h-2.26A1.14,1.14,0,0,0,153,44.82v2.26A1.13,1.13,0,0,0,154.13,48.21Zm0-3.39h2.26v2.26h-2.26Z"/><path class="cls-5" d="M154.69,51.61h1.13v1.13h-1.13Z"/></g><path class="cls-5" d="M275.5,143.39a15.11,15.11,0,1,0,15.11,15.11A15.13,15.13,0,0,0,275.5,143.39Zm0,27.74a12.63,12.63,0,1,1,12.63-12.63A12.64,12.64,0,0,1,275.5,171.13Z"/><path class="cls-5" d="M282,152.7l-9,9-4.11-4.1a1.24,1.24,0,0,0-1.75,1.75l5,5a1.24,1.24,0,0,0,1.75,0l9.85-9.85A1.24,1.24,0,0,0,282,152.7Z"/><circle class="cls-15" cx="394.31" cy="277.83" r="31.3"/><path class="cls-5" d="M405.21,281.59a.77.77,0,1,0,1.54,0V270a.76.76,0,0,0-.77-.77H382.63a.77.77,0,0,0-.77.77v11.64a.77.77,0,1,0,1.54,0V270.72h21.81Z"/><path class="cls-5" d="M411.52,284.35H410.1V268.16a2.33,2.33,0,0,0-2.33-2.33H380.84a2.33,2.33,0,0,0-2.33,2.33v16.19h-1.42a.69.69,0,0,0-.69.69v1.36a3.43,3.43,0,0,0,3.42,3.43h29a3.44,3.44,0,0,0,3.43-3.43V285A.69.69,0,0,0,411.52,284.35Zm-31.47-16.19a.79.79,0,0,1,.79-.79h26.93a.79.79,0,0,1,.79.79v16.19H398a.7.7,0,0,0-.56.68,1.06,1.06,0,0,1-1.06,1.06h-4.08A1.06,1.06,0,0,1,391.2,285a.69.69,0,0,0-.71-.69H380.05Zm30.78,18.24h0a2,2,0,0,1-2,2h-29a2,2,0,0,1-2-2v-.66h12.14a2.45,2.45,0,0,0,2.35,1.75h4.08a2.45,2.45,0,0,0,2.35-1.75h12.13Z"/><path class="cls-5" d="M395.45,274.75a.77.77,0,0,0-1.09-1.09l-4.85,4.85a.77.77,0,0,0,0,1.09.76.76,0,0,0,1.09,0Z"/><path class="cls-5" d="M397.23,276.47l-1.93,1.93a.77.77,0,0,0,0,1.09.76.76,0,0,0,1.09,0l1.93-1.93a.77.77,0,0,0-1.09-1.09Z"/><path class="cls-5" d="M530.11,149.89a24.36,24.36,0,0,0-9.61,1.62.76.76,0,0,0-.37,1c-1.17-.44-2.81-1.09-4.44-1.82-3.56-1.59-5.51-.54-8.3,2.25-1.06,1.06-2.5,3.2-2.13,4.78a1.92,1.92,0,0,0,1.34,1.39,3.87,3.87,0,0,0,4.55-1.56,3.82,3.82,0,0,0,1.17-.36c.14-.07.31-.15.54-.24.89.84,2.08,1.8,3.34,2.82,2.28,1.85,4.87,3.94,5.45,5.15a.9.9,0,0,1-.23,1.16.88.88,0,0,1-.93.21c-.57-.47-3-3-4.56-4.57a.76.76,0,0,0-1.09,0,.77.77,0,0,0,0,1.09c.36.38,3.26,3.4,4.42,4.46a1,1,0,0,1-.57.61,1.23,1.23,0,0,1-1.21,0l0-.05c-.93-.74-3.26-3.22-3.79-3.79a.78.78,0,0,0-1.1,0,.79.79,0,0,0,0,1.1s2.31,2.48,3.59,3.63a1.5,1.5,0,0,1-.82.84.82.82,0,0,1-.89-.14h0l0,0c-1.1-.94-3.37-3.35-3.81-3.82a.77.77,0,1,0-1.13,1.06c.52.56,2.09,2.22,3.26,3.33l-.37,0a4.44,4.44,0,0,1-1.9-.65c-.54-.36-4-2.91-6.91-5.37-.41-.35-1.13-1.1-1.76-1.76-.46-.48-.89-.93-1.18-1.2A64,64,0,0,0,503,150.73a.74.74,0,0,0-.24-.63c-1.33-1.26-6.64-1.67-8.24-1.76a.77.77,0,0,0-.82.77v14a.78.78,0,0,0,.78.78h4.65a.77.77,0,0,0,.73-.54c0-.05.09-.25.19-.57.17.19.37.39.57.6.69.72,1.41,1.47,1.89,1.88,2.88,2.41,6.36,5,7,5.48a6,6,0,0,0,2.75.9,2.64,2.64,0,0,0,1.76-.52,2.38,2.38,0,0,0,1.76,0,3,3,0,0,0,1.62-1.49,3,3,0,0,0,1.94-.28,4.14,4.14,0,0,1,3.08-2,2.43,2.43,0,0,0,.84-2.35l1.23-.82c.08.27.15.51.21.7a.77.77,0,0,0,.74.57h4.66a.78.78,0,0,0,.77-.78v-14A.77.77,0,0,0,530.11,149.89Zm-34.9,12.41V149.94a23.94,23.94,0,0,1,6.16,1.1,81.12,81.12,0,0,1-2.85,11.26Zm27.37,1.24a35.38,35.38,0,0,0-5.4-4.93c-1.41-1.14-2.74-2.22-3.59-3.06a.77.77,0,0,0-.81-.19c-.52.19-.84.34-1.1.45a2.45,2.45,0,0,1-1,.29.78.78,0,0,0-.57.34c-1.09,1.64-2.23,1.5-3,1.24-.24-.08-.28-.18-.3-.28-.17-.68.65-2.27,1.71-3.33,2.52-2.52,3.82-3.15,6.56-1.92s5.2,2.11,6,2.4c.91,2.21,2.14,5.65,2.94,8Zm6.75.31H526c-.73-2.4-2.9-8.64-4.11-11.22a25.34,25.34,0,0,1,7.41-1.18Z"/><path class="cls-15" d="M727.9,214.6h-3.18V216a1.35,1.35,0,0,1,.58-.37,2.39,2.39,0,0,1,.82-.14,2.13,2.13,0,0,1,1.19.32,1.94,1.94,0,0,1,.71.84,3,3,0,0,1,.23,1.17,2.55,2.55,0,0,1-.65,1.84,2.44,2.44,0,0,1-1.83.67,3.13,3.13,0,0,1-1.39-.28,2.1,2.1,0,0,1-.91-.8,2.21,2.21,0,0,1-.34-1.18h1.67a.9.9,0,0,0,.27.56.84.84,0,0,0,.62.22.77.77,0,0,0,.67-.29,1.22,1.22,0,0,0,.23-.77,1,1,0,0,0-.24-.71.92.92,0,0,0-.67-.25.94.94,0,0,0-.55.15.68.68,0,0,0-.3.37h-1.66V213.1h4.73Z"/><path class="cls-15" d="M734.44,218.87v1.47h-.77a2.24,2.24,0,0,1-1.53-.48,2.08,2.08,0,0,1-.54-1.61V216.2h-.75v-1.44h.75v-1.37h1.71v1.37h1.12v1.44h-1.12v2.08a.62.62,0,0,0,.13.46.63.63,0,0,0,.46.13Z"/><path class="cls-15" d="M739.49,215a2.52,2.52,0,0,1,1,1,3.23,3.23,0,0,1,0,3,2.48,2.48,0,0,1-1,1,3.41,3.41,0,0,1-3,0,2.5,2.5,0,0,1-1-1,3.31,3.31,0,0,1,0-3,2.54,2.54,0,0,1,1-1,3.33,3.33,0,0,1,3,0Zm-2.31,1.49a1.44,1.44,0,0,0-.33,1,1.42,1.42,0,0,0,.33,1,1.15,1.15,0,0,0,1.65,0,1.42,1.42,0,0,0,.33-1,1.44,1.44,0,0,0-.33-1,1.13,1.13,0,0,0-1.65,0Z"/><path class="cls-15" d="M743.31,214.87v-1.6h2.86v7.07h-1.8v-5.47Z"/><path class="cls-15" d="M747.18,216.73a4.47,4.47,0,0,1,.67-2.61,2.83,2.83,0,0,1,4.27,0,4.47,4.47,0,0,1,.68,2.61,4.51,4.51,0,0,1-.68,2.63,2.83,2.83,0,0,1-4.27,0A4.51,4.51,0,0,1,747.18,216.73Zm3.92,0a3.65,3.65,0,0,0-.23-1.45.86.86,0,0,0-.88-.51.88.88,0,0,0-.9.51,3.54,3.54,0,0,0-.23,1.45,3.61,3.61,0,0,0,.23,1.47.88.88,0,0,0,.9.51.86.86,0,0,0,.88-.51A3.79,3.79,0,0,0,751.1,216.73Z"/><path class="cls-15" d="M759,215a1.77,1.77,0,0,1,.67.79v-2.83h1.71v7.4h-1.71v-1a1.67,1.67,0,0,1-.67.79,2,2,0,0,1-1.1.29,2.27,2.27,0,0,1-1.24-.34,2.36,2.36,0,0,1-.86-1,3.88,3.88,0,0,1,0-3,2.39,2.39,0,0,1,.86-1,2.27,2.27,0,0,1,1.24-.35A2.07,2.07,0,0,1,759,215Zm-1.44,1.57a1.44,1.44,0,0,0-.33,1,1.42,1.42,0,0,0,.33,1,1.15,1.15,0,0,0,.89.36,1.13,1.13,0,0,0,.88-.37,1.58,1.58,0,0,0,0-2,1.13,1.13,0,0,0-.88-.37A1.15,1.15,0,0,0,757.57,216.55Z"/><path class="cls-15" d="M765.79,215a1.86,1.86,0,0,1,.68.79v-1h1.7v5.58h-1.7v-1a1.75,1.75,0,0,1-.68.79,2,2,0,0,1-1.1.29,2.27,2.27,0,0,1-1.24-.34,2.36,2.36,0,0,1-.86-1,3.88,3.88,0,0,1,0-3,2.39,2.39,0,0,1,.86-1,2.27,2.27,0,0,1,1.24-.35A2.07,2.07,0,0,1,765.79,215Zm-1.44,1.57a1.44,1.44,0,0,0-.33,1,1.42,1.42,0,0,0,.33,1,1.15,1.15,0,0,0,.89.36,1.13,1.13,0,0,0,.88-.37,1.58,1.58,0,0,0,0-2,1.13,1.13,0,0,0-.88-.37A1.15,1.15,0,0,0,764.35,216.55Z"/><path class="cls-15" d="M770.64,214.76l1.34,3.42,1.25-3.42h1.89L771.64,223h-1.88l1.31-2.87-2.34-5.37Z"/><path class="cls-15" d="M779.41,215.22a2.36,2.36,0,0,1,.8,1.4h-1.6a.93.93,0,0,0-.32-.53,1,1,0,0,0-.61-.2.63.63,0,0,0-.44.13.43.43,0,0,0-.15.35.4.4,0,0,0,.27.39,3.69,3.69,0,0,0,.87.26,8.06,8.06,0,0,1,1,.31,1.74,1.74,0,0,1,.71.5,1.41,1.41,0,0,1,.3.94,1.45,1.45,0,0,1-.26.85,1.77,1.77,0,0,1-.75.58,3,3,0,0,1-1.16.21,2.92,2.92,0,0,1-1.81-.5,2.08,2.08,0,0,1-.83-1.43h1.65a.7.7,0,0,0,.3.55,1.15,1.15,0,0,0,.69.19.64.64,0,0,0,.44-.13.46.46,0,0,0,.15-.36.43.43,0,0,0-.28-.41,4.89,4.89,0,0,0-.89-.27,6,6,0,0,1-1-.28,1.66,1.66,0,0,1-.69-.48,1.34,1.34,0,0,1-.29-.92,1.48,1.48,0,0,1,.57-1.21,2.47,2.47,0,0,1,1.61-.47A2.57,2.57,0,0,1,779.41,215.22Z"/></svg>