<svg id="Layer_1" data-name="Layer 1" xmlns="http://www.w3.org/2000/svg" viewBox="0 0 804.54 312.63"><defs><style>.cls-1,.cls-10,.cls-11,.cls-12,.cls-13,.cls-2,.cls-3{fill:none;stroke-miterlimit:10;}.cls-1{stroke:#1c1c1c;}.cls-2{stroke:#ff9414;}.cls-11,.cls-2,.cls-3{stroke-dasharray:1 2;}.cls-13,.cls-3{stroke:#b0221d;}.cls-4{fill:#0277e2;}.cls-5{fill:#fff;}.cls-6{fill:#9fdf31;}.cls-7{fill:#ff9414;}.cls-8{fill:#b0221d;}.cls-9{fill:#00dc9b;}.cls-10{stroke:#9fdf31;}.cls-11{stroke:#0277e2;}.cls-12{stroke:#00dc9b;}.cls-14{fill:#22ad00;}.cls-15{fill:#1c1c1c;}</style></defs><title>Artboard 1sol</title><path class="cls-1" d="M624.25,71.25v57.92c32.74,0,32.13,32.13,32.13,32.13h56"/><path class="cls-2" d="M387.69,132.27c30.24,0,31.45,29,31.45,29h56.25"/><path class="cls-3" d="M624.18,189.73c-30.24,0-31.45-29-31.45-29H536.48"/><path d="M15.15,202.13v-1.64h2.92v7.23H16.23v-5.59Z"/><path d="M20.78,206v1.75H19V206Z"/><path d="M28.63,206.74a2,2,0,0,1-.86.76,3,3,0,0,1-1.37.29,3.25,3.25,0,0,1-2-.59,2.15,2.15,0,0,1-.86-1.66H25.4a1,1,0,0,0,.29.64.89.89,0,0,0,.64.24.76.76,0,0,0,.53-.18.66.66,0,0,0,.19-.5.69.69,0,0,0-.17-.46,1.48,1.48,0,0,0-.45-.3l-.73-.28a8.9,8.9,0,0,1-1.12-.45,2.13,2.13,0,0,1-.75-.66,1.87,1.87,0,0,1-.31-1.13,1.89,1.89,0,0,1,.33-1.11,2.09,2.09,0,0,1,.9-.72,3.24,3.24,0,0,1,1.32-.25A3,3,0,0,1,28,201a2.2,2.2,0,0,1,.8,1.58H26.9a1,1,0,0,0-.26-.57.77.77,0,0,0-.57-.21.71.71,0,0,0-.49.16.68.68,0,0,0,0,.92,1.31,1.31,0,0,0,.42.29c.17.07.42.17.74.28a8.83,8.83,0,0,1,1.13.47,2.2,2.2,0,0,1,.76.67,1.9,1.9,0,0,1,.31,1.14A2,2,0,0,1,28.63,206.74Z"/><path d="M33.12,206.21v1.51h-.78a2.27,2.27,0,0,1-1.56-.5,2.11,2.11,0,0,1-.56-1.64v-2.09h-.76V202h.76v-1.4H32V202h1.15v1.48H32v2.12a.5.5,0,0,0,.6.6Z"/><path d="M37.4,202.24a1.82,1.82,0,0,1,.69.81v-1h1.74v5.71H38.09v-1a1.76,1.76,0,0,1-.69.81,2.07,2.07,0,0,1-1.13.3,2.34,2.34,0,0,1-1.26-.35,2.52,2.52,0,0,1-.88-1,3.94,3.94,0,0,1,0-3.11,2.43,2.43,0,0,1,.88-1,2.26,2.26,0,0,1,1.26-.36A2.07,2.07,0,0,1,37.4,202.24Zm-1.47,1.6a1.72,1.72,0,0,0,0,2,1.28,1.28,0,0,0,1.81,0,1.65,1.65,0,0,0,0-2,1.3,1.3,0,0,0-1.81,0Z"/><path d="M43.62,202.26a2.22,2.22,0,0,1,1.12-.31v1.87h-.5a1.68,1.68,0,0,0-1.07.3,1.18,1.18,0,0,0-.39,1v2.6H41V202h1.75v1.08A2.47,2.47,0,0,1,43.62,202.26Z"/><path d="M48.71,206.21v1.51h-.79a2.28,2.28,0,0,1-1.56-.5,2.11,2.11,0,0,1-.55-1.64v-2.09H45V202h.77v-1.4h1.74V202H48.7v1.48H47.55v2.12a.64.64,0,0,0,.14.47.66.66,0,0,0,.47.13Z"/><path d="M5.39,220.07a2.26,2.26,0,0,1-1,.94,3.29,3.29,0,0,1-1.53.33H1.17v-5.4H2.89a3.42,3.42,0,0,1,1.53.32,2.2,2.2,0,0,1,1,.94,3.29,3.29,0,0,1,0,2.87Zm-.94.1A2,2,0,0,0,5,218.64a2.08,2.08,0,0,0-.56-1.54,2.24,2.24,0,0,0-1.62-.55h-1v4.16h1A2.23,2.23,0,0,0,4.45,220.17Z"/><path d="M10.51,219.39H7.14a1.48,1.48,0,0,0,.41,1.08,1.34,1.34,0,0,0,1,.36,1.36,1.36,0,0,0,.84-.26,1,1,0,0,0,.42-.68h.75a1.84,1.84,0,0,1-.35.78,1.74,1.74,0,0,1-.68.54,2.4,2.4,0,0,1-1,.19,2.17,2.17,0,0,1-1.07-.26,1.91,1.91,0,0,1-.74-.75,2.67,2.67,0,0,1,0-2.3,1.91,1.91,0,0,1,.74-.75,2.33,2.33,0,0,1,2.14,0,1.91,1.91,0,0,1,.94,1.66A2.21,2.21,0,0,1,10.51,219.39Zm-.83-1.12a1.14,1.14,0,0,0-.48-.47,1.53,1.53,0,0,0-.67-.15,1.41,1.41,0,0,0-1,.35,1.45,1.45,0,0,0-.42,1.05H9.83A1.37,1.37,0,0,0,9.68,218.27Z"/><path d="M12.15,215.67v5.67h-.7v-5.67Z"/><path d="M13.27,215.59a.5.5,0,0,1,.35-.12.47.47,0,0,1,.34.12.43.43,0,0,1,0,.62.47.47,0,0,1-.34.12.5.5,0,0,1-.35-.12.43.43,0,0,1,0-.62Zm.69,1.54v4.21h-.7v-4.21Z"/><path d="M16.71,220.6,18,217.13h.75l-1.65,4.21h-.83l-1.65-4.21h.76Z"/><path d="M23.29,219.39H19.93a1.44,1.44,0,0,0,.41,1.08,1.31,1.31,0,0,0,.94.36,1.39,1.39,0,0,0,.85-.26,1,1,0,0,0,.42-.68h.74a1.71,1.71,0,0,1-.34.78,1.85,1.85,0,0,1-.69.54,2.4,2.4,0,0,1-1,.19,2.2,2.2,0,0,1-1.07-.26,1.88,1.88,0,0,1-.73-.75,2.58,2.58,0,0,1,0-2.3,1.88,1.88,0,0,1,.73-.75,2.2,2.2,0,0,1,1.07-.26,2.15,2.15,0,0,1,1.07.26,1.81,1.81,0,0,1,.7.7,2,2,0,0,1,.24,1A2.21,2.21,0,0,1,23.29,219.39Zm-.83-1.12a1.14,1.14,0,0,0-.48-.47,1.53,1.53,0,0,0-.67-.15,1.4,1.4,0,0,0-1,.35,1.45,1.45,0,0,0-.42,1.05h2.69A1.45,1.45,0,0,0,22.46,218.27Z"/><path d="M25.54,217.31a1.79,1.79,0,0,1,.95-.24v.76h-.22a1.49,1.49,0,0,0-1,.3,1.21,1.21,0,0,0-.38,1v2.21h-.7v-4.21h.7V218A1.5,1.5,0,0,1,25.54,217.31Z"/><path d="M27.47,217.13l1.36,3.32,1.27-3.32h.77l-2.5,6.21h-.79l.88-2.07-1.78-4.14Z"/><path d="M33.41,215.59a.47.47,0,0,1,.34-.12.51.51,0,0,1,.35.12.43.43,0,0,1,0,.62.51.51,0,0,1-.35.12.47.47,0,0,1-.34-.12.43.43,0,0,1,0-.62Zm.69,1.54v4.21h-.7v-4.21Z"/><path d="M37.68,217.45a1.55,1.55,0,0,1,.52,1h-.66a1,1,0,0,0-.31-.61,1,1,0,0,0-.71-.25.89.89,0,0,0-.59.19.6.6,0,0,0-.21.48.5.5,0,0,0,.14.37.88.88,0,0,0,.36.22,4.49,4.49,0,0,0,.57.15,7.75,7.75,0,0,1,.76.22,1.33,1.33,0,0,1,.49.36,1,1,0,0,1,.2.66,1,1,0,0,1-.38.83,1.56,1.56,0,0,1-1,.33A2,2,0,0,1,35.6,221a1.45,1.45,0,0,1-.56-1h.67a.86.86,0,0,0,.34.62,1.16,1.16,0,0,0,.77.24.83.83,0,0,0,.57-.18.66.66,0,0,0,.2-.49.56.56,0,0,0-.14-.39,1.09,1.09,0,0,0-.36-.22l-.59-.16a5.27,5.27,0,0,1-.75-.21,1.2,1.2,0,0,1-.48-.35.93.93,0,0,1-.19-.63,1,1,0,0,1,.39-.85,1.58,1.58,0,0,1,1.06-.33A1.74,1.74,0,0,1,37.68,217.45Z"/><path d="M47.43,217.54a1.88,1.88,0,0,1,.45,1.36v2.44h-.7V219a1.35,1.35,0,0,0-.3-1,1.07,1.07,0,0,0-.83-.33,1.15,1.15,0,0,0-.89.36,1.56,1.56,0,0,0-.33,1.07v2.23h-.7V219a1.31,1.31,0,0,0-.31-1,1.07,1.07,0,0,0-.83-.33,1.15,1.15,0,0,0-.89.36,1.56,1.56,0,0,0-.33,1.07v2.23h-.7v-4.21h.7v1a1.34,1.34,0,0,1,.55-.76,1.54,1.54,0,0,1,.9-.26,1.65,1.65,0,0,1,.94.27,1.48,1.48,0,0,1,.56.8,1.49,1.49,0,0,1,.59-.79,1.62,1.62,0,0,1,.93-.28A1.54,1.54,0,0,1,47.43,217.54Z"/><path d="M51.72,217.39a1.59,1.59,0,0,1,.59.82v-1.08H53v4.21h-.7v-1.07a1.59,1.59,0,0,1-.59.82,1.76,1.76,0,0,1-1,.31,1.92,1.92,0,0,1-1-.26,1.85,1.85,0,0,1-.69-.75,2.77,2.77,0,0,1,0-2.3,1.85,1.85,0,0,1,.69-.75,1.92,1.92,0,0,1,1-.26A1.69,1.69,0,0,1,51.72,217.39Zm-1.87.72a1.58,1.58,0,0,0-.39,1.13,1.57,1.57,0,0,0,.39,1.13,1.33,1.33,0,0,0,1,.41,1.41,1.41,0,0,0,.74-.19,1.33,1.33,0,0,0,.51-.54,1.73,1.73,0,0,0,.18-.81,1.79,1.79,0,0,0-.18-.81,1.33,1.33,0,0,0-.51-.54,1.41,1.41,0,0,0-.74-.19A1.36,1.36,0,0,0,49.85,218.11Z"/><path d="M56.89,217.39a1.59,1.59,0,0,1,.59.82v-2.54h.7v5.67h-.7v-1.07a1.59,1.59,0,0,1-.59.82,1.78,1.78,0,0,1-1,.31,2,2,0,0,1-1-.26,1.83,1.83,0,0,1-.68-.75,2.77,2.77,0,0,1,0-2.3,1.83,1.83,0,0,1,.68-.75,2,2,0,0,1,1-.26A1.71,1.71,0,0,1,56.89,217.39Zm-1.87.72a1.58,1.58,0,0,0-.39,1.13,1.57,1.57,0,0,0,.39,1.13,1.31,1.31,0,0,0,1,.41,1.43,1.43,0,0,0,.74-.19,1.47,1.47,0,0,0,.51-.54,1.73,1.73,0,0,0,.18-.81,1.79,1.79,0,0,0-.18-.81,1.47,1.47,0,0,0-.51-.54,1.43,1.43,0,0,0-.74-.19A1.35,1.35,0,0,0,55,218.11Z"/><path d="M63.13,219.39H59.76a1.53,1.53,0,0,0,.41,1.08,1.36,1.36,0,0,0,.95.36,1.39,1.39,0,0,0,.85-.26,1.09,1.09,0,0,0,.42-.68h.74a1.83,1.83,0,0,1-.34.78,1.85,1.85,0,0,1-.69.54,2.4,2.4,0,0,1-1,.19,2.2,2.2,0,0,1-1.07-.26,1.88,1.88,0,0,1-.73-.75,2.58,2.58,0,0,1,0-2.3,1.88,1.88,0,0,1,.73-.75,2.2,2.2,0,0,1,1.07-.26,2.15,2.15,0,0,1,1.07.26,1.88,1.88,0,0,1,.7.7,2,2,0,0,1,.24,1A2.21,2.21,0,0,1,63.13,219.39Zm-.83-1.12a1.14,1.14,0,0,0-.48-.47,1.53,1.53,0,0,0-.67-.15,1.4,1.4,0,0,0-1,.35,1.45,1.45,0,0,0-.43,1.05h2.69A1.37,1.37,0,0,0,62.3,218.27Z"/><circle class="cls-4" cx="32.36" cy="159.94" r="31.3"/><path class="cls-5" d="M43.69,165.56a3.27,3.27,0,0,0-2.32,1,3.24,3.24,0,0,0,0,4.62,3.27,3.27,0,1,0,2.32-5.58Zm0,5.09a1.82,1.82,0,1,1,0-3.63,1.82,1.82,0,0,1,0,3.63Zm.85-16a.73.73,0,0,0-.49-.19H40.32a.73.73,0,0,0-.72.73v6a.72.72,0,0,0,.72.72h5.92a.72.72,0,0,0,.72-.72v-4a.7.7,0,0,0-.24-.54Zm1,5.77H41.05v-4.51h2.72l1.74,1.57ZM26,165.56a3.31,3.31,0,0,0-3.3,3.27,3.18,3.18,0,0,0,1,2.31A3.26,3.26,0,1,0,26,165.56Zm0,5.09A1.82,1.82,0,1,1,26,167a1.82,1.82,0,0,1,0,3.63Zm-4.85-4.19H19.64v-1.94a.72.72,0,0,0-.72-.72.73.73,0,0,0-.73.72v2.66a.73.73,0,0,0,.73.73H21.1a.73.73,0,0,0,.73-.73A.73.73,0,0,0,21.1,166.46Zm3.69-4a.73.73,0,0,0-.73-.73H15.25a.73.73,0,0,0-.73.73.73.73,0,0,0,.73.72h8.81A.73.73,0,0,0,24.79,162.5Zm-8.07-2.63,8.82,0a.73.73,0,0,0,.73-.72.72.72,0,0,0-.72-.73l-8.81-.05h0a.73.73,0,0,0,0,1.45Zm1.48-3.3H27a.73.73,0,0,0,.73-.72.73.73,0,0,0-.73-.73H18.2a.73.73,0,0,0-.72.73A.72.72,0,0,0,18.2,156.57Zm31.74-1h0l-5.21-4.31a.76.76,0,0,0-.46-.16H38.15V148.5a.73.73,0,0,0-.73-.72H18.92a.73.73,0,0,0-.73.72v5.32a.73.73,0,0,0,.73.73.73.73,0,0,0,.72-.73v-4.59H36.7v17.23h-6a.73.73,0,0,0-.73.72.73.73,0,0,0,.73.73h8.87a.73.73,0,0,0,.73-.73.73.73,0,0,0-.73-.72H38.16V152.57H44l4.74,3.92,0,9.95H48a.73.73,0,0,0,0,1.46h1.47a.73.73,0,0,0,.73-.72l.06-11A.81.81,0,0,0,49.94,155.59Z"/><circle class="cls-6" cx="269.18" cy="159.89" r="31.3"/><circle class="cls-7" cx="506.27" cy="159.97" r="31.3"/><circle class="cls-8" cx="623.88" cy="40.18" r="31.3"/><circle class="cls-9" cx="149.7" cy="40.19" r="31.3"/><line class="cls-10" x1="300.6" y1="161.3" x2="356.85" y2="161.3"/><path class="cls-11" d="M151.21,190.94c-30.24,0-31.45-29.64-31.45-29.64H63.51"/><path class="cls-12" d="M150.07,71.25v57.92c32.74,0,32.13,32.13,32.13,32.13h56"/><path class="cls-10" d="M298.5,161.13h57.92c0,32.73,32.13,32.13,32.13,32.13v56"/><path class="cls-12" d="M185.68,40.34s-.59-34.92-35.14-36.26"/><polygon class="cls-9" points="152.61 2.51 150.83 4.12 152.44 5.9 151.01 5.83 149.4 4.05 151.17 2.44 152.61 2.51"/><path class="cls-13" d="M662.22,39.2c-.47-6.09-4.36-34.61-36.23-35.15"/><polygon class="cls-8" points="663.78 37.1 662.19 38.9 660.39 37.32 660.48 38.75 662.28 40.34 663.87 38.54 663.78 37.1"/><path d="M201.15,30.91c0-.56-.25-.84-.73-.84a.65.65,0,0,0-.6.28,1.73,1.73,0,0,0-.21.9h-1.72a2.75,2.75,0,0,1,.8-2,2.72,2.72,0,0,1,1.87-.66,2.45,2.45,0,0,1,1.78.59,2.1,2.1,0,0,1,.6,1.55,3.27,3.27,0,0,1-.81,2.07,7.24,7.24,0,0,1-1.94,1.71h2.87v1.42h-5.18V34.61Q201.15,32.29,201.15,30.91Z"/><path d="M205.46,34.26V36h-1.82V34.26Z"/><path d="M213.64,28.75v1.4h-2V36h-1.76V30.15h-2v-1.4Z"/><path d="M222.55,28.8V36h-1.76V31.5L219.23,36h-1.52l-1.57-4.52V36h-1.76V28.8h2.15l2,5,1.92-5Z"/><path d="M228.68,35a2.09,2.09,0,0,1-.86.77,3.06,3.06,0,0,1-1.38.28,3.31,3.31,0,0,1-2-.59,2.19,2.19,0,0,1-.86-1.67h1.87a1,1,0,0,0,.29.65.89.89,0,0,0,.64.24.73.73,0,0,0,.54-.19.64.64,0,0,0,.19-.49.62.62,0,0,0-.18-.46,1.29,1.29,0,0,0-.44-.31l-.74-.28a11,11,0,0,1-1.13-.45,2.13,2.13,0,0,1-.75-.66,2,2,0,0,1-.31-1.14,1.92,1.92,0,0,1,.33-1.12,2.12,2.12,0,0,1,.91-.72,3.25,3.25,0,0,1,1.33-.25,3,3,0,0,1,1.92.57,2.19,2.19,0,0,1,.81,1.58h-1.9a1,1,0,0,0-.26-.56.84.84,0,0,0-1.07-.05.59.59,0,0,0-.19.48.64.64,0,0,0,.17.44,1.13,1.13,0,0,0,.43.29c.17.08.41.17.73.29a7.32,7.32,0,0,1,1.14.47,2,2,0,0,1,.76.67A1.87,1.87,0,0,1,229,34,2,2,0,0,1,228.68,35Z"/><path d="M234.65,34.3l1.24-4h1.87l-2,5.73h-2.18l-2-5.73h1.87Z"/><path d="M241.8,30.51a1.9,1.9,0,0,1,.7.81v-1h1.74V36H242.5V35a1.87,1.87,0,0,1-.7.82,2.16,2.16,0,0,1-1.13.29,2.38,2.38,0,0,1-1.27-.35,2.45,2.45,0,0,1-.88-1,3.51,3.51,0,0,1-.33-1.56,3.46,3.46,0,0,1,.33-1.57,2.45,2.45,0,0,1,.88-1,2.38,2.38,0,0,1,1.27-.35A2.07,2.07,0,0,1,241.8,30.51Zm-1.48,1.61a1.46,1.46,0,0,0-.34,1,1.43,1.43,0,0,0,.34,1,1.18,1.18,0,0,0,.91.37,1.16,1.16,0,0,0,.91-.38,1.61,1.61,0,0,0,0-2,1.29,1.29,0,0,0-1.82,0Z"/><path d="M247.21,28.41V36h-1.76v-7.6Z"/><path d="M248.54,28a1.06,1.06,0,0,1,.76-.26,1,1,0,0,1,.76.26.88.88,0,0,1,0,1.31,1,1,0,0,1-.76.26,1.06,1.06,0,0,1-.76-.26.91.91,0,0,1,0-1.31Zm1.64,2.27V36h-1.76V30.28Z"/><path d="M254.69,30.51a1.7,1.7,0,0,1,.69.81V28.41h1.76V36h-1.76V35a1.68,1.68,0,0,1-.69.82,2.13,2.13,0,0,1-1.13.29,2.34,2.34,0,0,1-1.26-.35,2.47,2.47,0,0,1-.89-1,3.65,3.65,0,0,1-.32-1.56,3.6,3.6,0,0,1,.32-1.57,2.47,2.47,0,0,1,.89-1,2.34,2.34,0,0,1,1.26-.35A2,2,0,0,1,254.69,30.51Zm-1.47,1.61a1.46,1.46,0,0,0-.34,1,1.43,1.43,0,0,0,.34,1,1.29,1.29,0,0,0,1.82,0,1.65,1.65,0,0,0,0-2,1.21,1.21,0,0,0-.91-.38A1.17,1.17,0,0,0,253.22,32.12Z"/><path d="M261.66,30.51a1.82,1.82,0,0,1,.69.81v-1h1.75V36h-1.75V35a1.79,1.79,0,0,1-.69.82,2.18,2.18,0,0,1-1.13.29,2.35,2.35,0,0,1-1.27-.35,2.47,2.47,0,0,1-.89-1,3.65,3.65,0,0,1-.32-1.56,3.6,3.6,0,0,1,.32-1.57,2.47,2.47,0,0,1,.89-1,2.35,2.35,0,0,1,1.27-.35A2.1,2.1,0,0,1,261.66,30.51Zm-1.48,1.61a1.46,1.46,0,0,0-.34,1,1.43,1.43,0,0,0,.34,1,1.29,1.29,0,0,0,1.82,0,1.65,1.65,0,0,0,0-2,1.21,1.21,0,0,0-.91-.38A1.17,1.17,0,0,0,260.18,32.12Z"/><path d="M268.56,34.5V36h-.8a2.22,2.22,0,0,1-1.56-.5,2.11,2.11,0,0,1-.56-1.64V31.76h-.77V30.28h.77v-1.4h1.76v1.4h1.15v1.48H267.4V33.9a.66.66,0,0,0,.13.47.68.68,0,0,0,.47.13Z"/><path d="M274.93,33.46h-4a1.29,1.29,0,0,0,.33.93,1,1,0,0,0,.76.29,1,1,0,0,0,.64-.2A.91.91,0,0,0,273,34h1.86a2.53,2.53,0,0,1-.49,1.08,2.67,2.67,0,0,1-1,.75,3.05,3.05,0,0,1-1.3.27,3.19,3.19,0,0,1-1.5-.35,2.63,2.63,0,0,1-1-1,3.27,3.27,0,0,1-.37-1.56,3.12,3.12,0,0,1,.37-1.57,2.51,2.51,0,0,1,1-1,3.19,3.19,0,0,1,1.5-.35,3.13,3.13,0,0,1,1.5.35,2.48,2.48,0,0,1,1,1A3,3,0,0,1,275,33,2,2,0,0,1,274.93,33.46Zm-2-1.58a1.09,1.09,0,0,0-.77-.28,1.15,1.15,0,0,0-.8.28,1.26,1.26,0,0,0-.36.85h2.24A1.08,1.08,0,0,0,272.9,31.88Z"/><path d="M279.72,30.75a2.39,2.39,0,0,1,.82,1.44h-1.65a.89.89,0,0,0-.32-.55,1,1,0,0,0-.63-.2.65.65,0,0,0-.45.13.47.47,0,0,0-.16.37.44.44,0,0,0,.29.4,5.17,5.17,0,0,0,.88.26,9.22,9.22,0,0,1,1.08.32,1.68,1.68,0,0,1,.73.51,1.43,1.43,0,0,1,.31,1,1.45,1.45,0,0,1-.27.87,1.69,1.69,0,0,1-.77.6,3.05,3.05,0,0,1-1.19.21,3.1,3.1,0,0,1-1.86-.51,2.17,2.17,0,0,1-.85-1.47h1.7a.75.75,0,0,0,.31.57,1.16,1.16,0,0,0,.7.19.65.65,0,0,0,.45-.14.44.44,0,0,0,.16-.36.46.46,0,0,0-.28-.43,6.52,6.52,0,0,0-.92-.27,6.34,6.34,0,0,1-1.05-.29,1.68,1.68,0,0,1-.71-.5,1.35,1.35,0,0,1-.3-.93,1.54,1.54,0,0,1,.59-1.25,2.53,2.53,0,0,1,1.65-.48A2.62,2.62,0,0,1,279.72,30.75Z"/><path d="M289,33.46h-4a1.33,1.33,0,0,0,.32.93,1.07,1.07,0,0,0,.76.29,1,1,0,0,0,.65-.2.91.91,0,0,0,.34-.5H289a2.53,2.53,0,0,1-.49,1.08,2.67,2.67,0,0,1-1,.75,3.05,3.05,0,0,1-1.3.27,3.19,3.19,0,0,1-1.5-.35,2.63,2.63,0,0,1-1-1,3.16,3.16,0,0,1-.37-1.56,3.12,3.12,0,0,1,.37-1.57,2.51,2.51,0,0,1,1-1,3.39,3.39,0,0,1,3,0,2.48,2.48,0,0,1,1,1,3,3,0,0,1,.35,1.45A2.69,2.69,0,0,1,289,33.46Zm-2-1.58a1.11,1.11,0,0,0-.77-.28,1.13,1.13,0,0,0-.8.28,1.18,1.18,0,0,0-.36.85h2.23A1,1,0,0,0,287,31.88Z"/><path d="M291.76,33.46V36H290V28.75h2.85a2.79,2.79,0,0,1,2,.64,2.29,2.29,0,0,1,.68,1.73,2.39,2.39,0,0,1-.3,1.21,2.19,2.19,0,0,1-.9.83,3.2,3.2,0,0,1-1.45.3Zm1.95-2.34c0-.63-.35-.95-1.06-.95h-.89v1.89h.89C293.36,32.06,293.71,31.75,293.71,31.12Z"/><path d="M301.67,29.12A3.42,3.42,0,0,1,303,30.44a3.73,3.73,0,0,1,.49,1.92,3.86,3.86,0,0,1-.49,1.92,3.61,3.61,0,0,1-1.33,1.33,3.88,3.88,0,0,1-3.7,0,3.61,3.61,0,0,1-1.33-1.33,4,4,0,0,1,0-3.84A3.51,3.51,0,0,1,298,29.12a3.62,3.62,0,0,1,1.85-.48A3.66,3.66,0,0,1,301.67,29.12Zm-3.23,1.71a2.18,2.18,0,0,0-.51,1.53,2.2,2.2,0,0,0,.51,1.52,2,2,0,0,0,2.74,0,2.2,2.2,0,0,0,.51-1.52,2.17,2.17,0,0,0-.51-1.52,1.74,1.74,0,0,0-1.37-.57A1.78,1.78,0,0,0,298.44,30.83Z"/><path d="M310.53,34.26a3.19,3.19,0,0,1-1.31,1.29,4.16,4.16,0,0,1-2,.46h-2.74V28.75h2.74a4.31,4.31,0,0,1,2,.45,3.14,3.14,0,0,1,1.3,1.28,3.73,3.73,0,0,1,.46,1.89A3.78,3.78,0,0,1,310.53,34.26Zm-1.88-.36a2,2,0,0,0,.57-1.53,2,2,0,0,0-.57-1.53,2.21,2.21,0,0,0-1.6-.55h-.83v4.15h.83A2.25,2.25,0,0,0,308.65,33.9Z"/><path d="M197.63,44.93v-.66h1.56V49.7h-.74V44.93Z"/><path d="M205,45.73a1.55,1.55,0,0,1,.6.82V44h.7v5.7h-.7V48.62a1.58,1.58,0,0,1-.6.83,1.76,1.76,0,0,1-1,.31,1.85,1.85,0,0,1-1-.27,1.8,1.8,0,0,1-.69-.75,2.44,2.44,0,0,1-.25-1.15,2.47,2.47,0,0,1,.25-1.15,1.89,1.89,0,0,1,.69-.76,1.93,1.93,0,0,1,1-.26A1.69,1.69,0,0,1,205,45.73Zm-1.88.73a1.56,1.56,0,0,0-.38,1.13,1.59,1.59,0,0,0,.38,1.14,1.39,1.39,0,0,0,1,.41,1.41,1.41,0,0,0,.74-.19,1.38,1.38,0,0,0,.52-.55,1.91,1.91,0,0,0,0-1.62,1.38,1.38,0,0,0-.52-.55,1.51,1.51,0,0,0-.74-.19A1.36,1.36,0,0,0,203.1,46.46Z"/><path d="M210.17,45.73a1.55,1.55,0,0,1,.6.82V45.47h.7V49.7h-.7V48.62a1.58,1.58,0,0,1-.6.83,1.76,1.76,0,0,1-1,.31,1.87,1.87,0,0,1-1-.27,1.8,1.8,0,0,1-.69-.75,2.44,2.44,0,0,1-.25-1.15,2.47,2.47,0,0,1,.25-1.15,1.89,1.89,0,0,1,.69-.76,2,2,0,0,1,1-.26A1.69,1.69,0,0,1,210.17,45.73Zm-1.88.73a1.61,1.61,0,0,0-.38,1.13,1.63,1.63,0,0,0,.38,1.14,1.44,1.44,0,0,0,2.3-.33,1.91,1.91,0,0,0,0-1.62,1.38,1.38,0,0,0-.52-.55,1.48,1.48,0,0,0-.74-.19A1.36,1.36,0,0,0,208.29,46.46Z"/><path d="M212.88,45.47l1.37,3.33,1.27-3.33h.78l-2.51,6.24H213l.87-2.08-1.78-4.16Z"/><path d="M691.26,21.62a.78.78,0,0,0-.6-.23.88.88,0,0,0-.85.55,4.14,4.14,0,0,0-.23,1.69,1.37,1.37,0,0,1,.6-.66,2,2,0,0,1,1-.24,2.17,2.17,0,0,1,1.63.62,2.5,2.5,0,0,1,.59,1.78,2.67,2.67,0,0,1-.3,1.29,2.11,2.11,0,0,1-.87.88,2.92,2.92,0,0,1-1.4.32,2.35,2.35,0,0,1-2.19-1A5.16,5.16,0,0,1,688,23.9a5.34,5.34,0,0,1,.65-3,2.34,2.34,0,0,1,2.1-1,2.24,2.24,0,0,1,1.75.65,2.62,2.62,0,0,1,.67,1.65h-1.65A1.19,1.19,0,0,0,691.26,21.62ZM690,25.81a1,1,0,0,0,.78.3,1,1,0,1,0,0-2,1.16,1.16,0,0,0-.74.25.89.89,0,0,0-.29.72A1.06,1.06,0,0,0,690,25.81Z"/><path d="M696,25.79v1.75h-1.82V25.79Z"/><path d="M703.7,20.28v1.4h-3v1.59H703v1.34h-2.3v2.93H699V20.28Z"/><path d="M704.73,19.54a1,1,0,0,1,.76-.26,1.08,1.08,0,0,1,.76.26.85.85,0,0,1,.28.66.83.83,0,0,1-.28.65,1.09,1.09,0,0,1-.76.27,1.05,1.05,0,0,1-.76-.27.84.84,0,0,1-.29-.65A.86.86,0,0,1,704.73,19.54Zm1.63,2.27v5.73H704.6V21.81Z"/><path d="M712.77,22.41a2.63,2.63,0,0,1,.58,1.81v3.32H711.6V24.42a1.25,1.25,0,0,0-.31-.9,1.06,1.06,0,0,0-.8-.32,1.09,1.09,0,0,0-.85.34,1.35,1.35,0,0,0-.31,1v3h-1.76V21.81h1.76v1.05a1.9,1.9,0,0,1,.73-.81,2.17,2.17,0,0,1,1.15-.3A2,2,0,0,1,712.77,22.41Z"/><path d="M717.82,22a1.84,1.84,0,0,1,.7.81v-1h1.74v5.73h-1.74v-1a1.84,1.84,0,0,1-.7.81,2.07,2.07,0,0,1-1.13.3,2.3,2.3,0,0,1-1.27-.36,2.45,2.45,0,0,1-.88-1,3.88,3.88,0,0,1,0-3.13,2.36,2.36,0,0,1,.88-1,2.3,2.3,0,0,1,1.27-.36A2.07,2.07,0,0,1,717.82,22Zm-1.48,1.61a1.73,1.73,0,0,0,0,2.06,1.22,1.22,0,0,0,.91.37,1.19,1.19,0,0,0,.91-.38,1.44,1.44,0,0,0,.36-1,1.41,1.41,0,0,0-.36-1,1.19,1.19,0,0,0-.91-.38A1.22,1.22,0,0,0,716.34,23.65Z"/><path d="M726.67,22.41a2.63,2.63,0,0,1,.58,1.81v3.32H725.5V24.42a1.29,1.29,0,0,0-.3-.9,1.1,1.1,0,0,0-.81-.32,1.09,1.09,0,0,0-.85.34,1.35,1.35,0,0,0-.31,1v3h-1.76V21.81h1.76v1.05a1.9,1.9,0,0,1,.73-.81,2.17,2.17,0,0,1,1.15-.3A2,2,0,0,1,726.67,22.41Z"/><path d="M732.86,22.35A2.67,2.67,0,0,1,733.8,24H732a1,1,0,0,0-1-.78.92.92,0,0,0-.76.37,1.61,1.61,0,0,0-.3,1.06,1.63,1.63,0,0,0,.3,1.06,1,1,0,0,0,.76.37,1,1,0,0,0,.65-.21,1,1,0,0,0,.34-.57h1.85a2.62,2.62,0,0,1-.94,1.67,2.84,2.84,0,0,1-1.86.62,3,3,0,0,1-1.49-.36,2.51,2.51,0,0,1-1-1,3.16,3.16,0,0,1-.37-1.56,3.25,3.25,0,0,1,.36-1.57,2.42,2.42,0,0,1,1-1,3.08,3.08,0,0,1,1.5-.36A2.89,2.89,0,0,1,732.86,22.35Z"/><path d="M734.84,19.54a1.06,1.06,0,0,1,.76-.26,1,1,0,0,1,.76.26.86.86,0,0,1,.29.66.84.84,0,0,1-.29.65,1.05,1.05,0,0,1-.76.27,1.07,1.07,0,0,1-.76-.27.84.84,0,0,1-.29-.65A.86.86,0,0,1,734.84,19.54Zm1.63,2.27v5.73h-1.75V21.81Z"/><path d="M742.89,22.41a2.67,2.67,0,0,1,.58,1.81v3.32h-1.76V24.42a1.29,1.29,0,0,0-.3-.9,1.2,1.2,0,0,0-1.65,0,1.36,1.36,0,0,0-.32,1v3h-1.75V21.81h1.75v1.05a1.93,1.93,0,0,1,.74-.81,2.11,2.11,0,0,1,1.14-.3A2,2,0,0,1,742.89,22.41Z"/><path d="M747.93,22a1.78,1.78,0,0,1,.7.81v-1h1.75v5.7a3.39,3.39,0,0,1-.31,1.45,2.49,2.49,0,0,1-.94,1,3.12,3.12,0,0,1-1.59.38,3.31,3.31,0,0,1-2.07-.61,2.5,2.5,0,0,1-.92-1.66h1.73a.88.88,0,0,0,.38.54,1.34,1.34,0,0,0,.76.2,1.24,1.24,0,0,0,.88-.32,1.32,1.32,0,0,0,.33-1v-1a1.78,1.78,0,0,1-.7.81,2,2,0,0,1-1.13.3,2.26,2.26,0,0,1-1.26-.36,2.47,2.47,0,0,1-.89-1,4,4,0,0,1,0-3.13,2.38,2.38,0,0,1,.89-1,2.26,2.26,0,0,1,1.26-.36A2,2,0,0,1,747.93,22Zm-1.47,1.61a1.73,1.73,0,0,0,0,2.06,1.29,1.29,0,0,0,1.82,0,1.49,1.49,0,0,0,.35-1,1.45,1.45,0,0,0-.35-1,1.29,1.29,0,0,0-1.82,0Z"/><path d="M692.54,38.54h-2.72l-.45,1.33h-1.85l2.66-7.21h2l2.66,7.21H693Zm-.45-1.33-.91-2.67-.91,2.67Z"/><path d="M700.38,34.42a2.36,2.36,0,0,1,.88,1,3.52,3.52,0,0,1,.32,1.57,3.45,3.45,0,0,1-.32,1.56,2.33,2.33,0,0,1-.88,1,2.3,2.3,0,0,1-1.27.36,2.07,2.07,0,0,1-1.13-.3,1.82,1.82,0,0,1-.69-.81V42.6h-1.75V34.14h1.75v1a1.82,1.82,0,0,1,.69-.81,2.07,2.07,0,0,1,1.13-.3A2.3,2.3,0,0,1,700.38,34.42ZM697.64,36a1.41,1.41,0,0,0-.36,1,1.44,1.44,0,0,0,.36,1,1.28,1.28,0,0,0,1.81,0,1.69,1.69,0,0,0,0-2.06,1.28,1.28,0,0,0-1.81,0Z"/><path d="M707.34,34.42a2.36,2.36,0,0,1,.88,1,3.52,3.52,0,0,1,.33,1.57,3.45,3.45,0,0,1-.33,1.56,2.33,2.33,0,0,1-.88,1,2.3,2.3,0,0,1-1.27.36,2.07,2.07,0,0,1-1.13-.3,1.82,1.82,0,0,1-.69-.81V42.6H702.5V34.14h1.75v1a1.82,1.82,0,0,1,.69-.81,2.07,2.07,0,0,1,1.13-.3A2.3,2.3,0,0,1,707.34,34.42ZM704.6,36a1.41,1.41,0,0,0-.36,1,1.44,1.44,0,0,0,.36,1,1.19,1.19,0,0,0,.91.38,1.22,1.22,0,0,0,.91-.37,1.73,1.73,0,0,0,0-2.06,1.22,1.22,0,0,0-.91-.37A1.19,1.19,0,0,0,704.6,36Z"/><path d="M712.06,34.38a2.23,2.23,0,0,1,1.13-.31V36h-.51a1.73,1.73,0,0,0-1.08.3,1.19,1.19,0,0,0-.38,1v2.61h-1.76V34.14h1.76v1.07A2.56,2.56,0,0,1,712.06,34.38Z"/><path d="M718.13,34.42a2.54,2.54,0,0,1,1.06,1,3.39,3.39,0,0,1,0,3.12,2.54,2.54,0,0,1-1.06,1,3.16,3.16,0,0,1-1.52.36,3.2,3.2,0,0,1-1.53-.36,2.56,2.56,0,0,1-1.07-1,3.39,3.39,0,0,1,0-3.12,2.56,2.56,0,0,1,1.07-1,3.2,3.2,0,0,1,1.53-.36A3.16,3.16,0,0,1,718.13,34.42ZM715.76,36a1.79,1.79,0,0,0,0,2.1,1.17,1.17,0,0,0,1.69,0,1.79,1.79,0,0,0,0-2.1,1.15,1.15,0,0,0-1.69,0Z"/><path d="M723.14,38.15l1.24-4h1.87l-2,5.73H722l-2-5.73h1.86Z"/><path d="M730.28,34.36a1.78,1.78,0,0,1,.7.81v-1h1.75v5.73H731v-1a1.78,1.78,0,0,1-.7.81,2,2,0,0,1-1.13.3,2.26,2.26,0,0,1-1.26-.36,2.35,2.35,0,0,1-.89-1,3.59,3.59,0,0,1-.32-1.56,3.67,3.67,0,0,1,.32-1.57,2.38,2.38,0,0,1,.89-1,2.26,2.26,0,0,1,1.26-.36A2,2,0,0,1,730.28,34.36ZM728.81,36a1.73,1.73,0,0,0,0,2.06,1.29,1.29,0,0,0,1.82,0,1.49,1.49,0,0,0,.35-1,1.45,1.45,0,0,0-.35-1,1.29,1.29,0,0,0-1.82,0Z"/><path d="M735.69,32.27v7.6h-1.75v-7.6Z"/><path d="M687.77,48.56V47.9h1.55v5.43h-.74V48.56Z"/><path d="M694.74,50.21v.6h-3.08v-.6Z"/><path d="M700.67,47.94a1.29,1.29,0,0,1,.57.51,1.47,1.47,0,0,1,.19.73,1.21,1.21,0,0,1-1.17,1.27v0a2,2,0,0,1,.93.48,1.15,1.15,0,0,1,.34.89,1.43,1.43,0,0,1-.45,1.09,1.82,1.82,0,0,1-1.28.43,2,2,0,0,1-1.36-.44,1.86,1.86,0,0,1-.62-1.27h.7a1.25,1.25,0,0,0,.39.8,1.2,1.2,0,0,0,.86.3,1.1,1.1,0,0,0,.8-.26.93.93,0,0,0,.27-.69.86.86,0,0,0-.39-.77,2,2,0,0,0-1.13-.27h-.19v-.58h.19c.94,0,1.41-.32,1.41-1a.83.83,0,0,0-.26-.66,1,1,0,0,0-.72-.25,1.2,1.2,0,0,0-.78.26,1.16,1.16,0,0,0-.37.79h-.68a1.69,1.69,0,0,1,.53-1.21,1.88,1.88,0,0,1,1.31-.43A2.14,2.14,0,0,1,700.67,47.94Z"/><path d="M707.24,49.36a1.66,1.66,0,0,1,.6.82V47.63h.7v5.7h-.7V52.25a1.69,1.69,0,0,1-.6.83,1.79,1.79,0,0,1-1,.31,1.9,1.9,0,0,1-1-.27,1.8,1.8,0,0,1-.69-.75,2.57,2.57,0,0,1-.25-1.15,2.6,2.6,0,0,1,.25-1.15,1.89,1.89,0,0,1,.69-.76,2,2,0,0,1,1-.26A1.72,1.72,0,0,1,707.24,49.36Zm-1.88.73a1.57,1.57,0,0,0-.39,1.13,1.61,1.61,0,0,0,.39,1.14,1.36,1.36,0,0,0,1,.41,1.44,1.44,0,0,0,.75-.19,1.29,1.29,0,0,0,.51-.55,1.82,1.82,0,0,0,0-1.62,1.29,1.29,0,0,0-.51-.55,1.55,1.55,0,0,0-.75-.19A1.33,1.33,0,0,0,705.36,50.09Z"/><path d="M712.43,49.36a1.66,1.66,0,0,1,.6.82V49.1h.7v4.23H713V52.25a1.69,1.69,0,0,1-.6.83,1.78,1.78,0,0,1-1,.31,1.91,1.91,0,0,1-1-.27,1.8,1.8,0,0,1-.69-.75,2.57,2.57,0,0,1-.25-1.15,2.6,2.6,0,0,1,.25-1.15,1.89,1.89,0,0,1,.69-.76,2,2,0,0,1,1-.26A1.71,1.71,0,0,1,712.43,49.36Zm-1.88.73a1.57,1.57,0,0,0-.39,1.13,1.61,1.61,0,0,0,.39,1.14,1.37,1.37,0,0,0,1,.41,1.43,1.43,0,0,0,.74-.19,1.29,1.29,0,0,0,.51-.55,1.82,1.82,0,0,0,0-1.62,1.29,1.29,0,0,0-.51-.55,1.54,1.54,0,0,0-.74-.19A1.34,1.34,0,0,0,710.55,50.09Z"/><path d="M715.14,49.1l1.37,3.33,1.27-3.33h.77L716,55.33h-.79l.88-2.07-1.78-4.16Z"/><path d="M721.67,49.42a1.59,1.59,0,0,1,.53,1h-.67a1,1,0,0,0-.31-.62,1,1,0,0,0-.72-.24.89.89,0,0,0-.59.18.61.61,0,0,0-.21.49.53.53,0,0,0,.14.37.93.93,0,0,0,.36.21,4.06,4.06,0,0,0,.58.16,6.19,6.19,0,0,1,.76.22,1.33,1.33,0,0,1,.49.36,1,1,0,0,1,.21.66,1,1,0,0,1-.39.84,1.56,1.56,0,0,1-1,.33,2,2,0,0,1-1.23-.37,1.4,1.4,0,0,1-.56-1h.67a.9.9,0,0,0,.34.63,1.21,1.21,0,0,0,.78.24.8.8,0,0,0,.57-.19.63.63,0,0,0,.2-.48.54.54,0,0,0-.15-.4.92.92,0,0,0-.36-.22c-.14-.05-.34-.1-.59-.16a4.65,4.65,0,0,1-.75-.22,1.09,1.09,0,0,1-.48-.34,1,1,0,0,1-.2-.63,1.07,1.07,0,0,1,.4-.86,1.61,1.61,0,0,1,1.07-.33A1.69,1.69,0,0,1,721.67,49.42Z"/><path d="M223.92,200.46a2,2,0,0,1,.82.72,1.93,1.93,0,0,1,.29,1,1.7,1.7,0,0,1-.37,1.14,1.6,1.6,0,0,1-.91.55v0a1.75,1.75,0,0,1,1.41,1.75,2.2,2.2,0,0,1-.29,1.12,2,2,0,0,1-.84.76,2.93,2.93,0,0,1-1.32.27,3,3,0,0,1-2-.62,2.46,2.46,0,0,1-.8-1.87h1.72a1.2,1.2,0,0,0,.26.76.94.94,0,0,0,.72.27.78.78,0,0,0,.6-.22.8.8,0,0,0,.22-.59c0-.59-.43-.89-1.29-.89h-.33v-1.43h.32c.77,0,1.16-.26,1.16-.83a.77.77,0,0,0-.2-.57.73.73,0,0,0-.54-.2.7.7,0,0,0-.58.25,1.09,1.09,0,0,0-.25.67H220a2.48,2.48,0,0,1,.72-1.76,2.67,2.67,0,0,1,1.87-.62A3.09,3.09,0,0,1,223.92,200.46Z"/><path d="M227.84,206v1.76H226V206Z"/><path d="M236.2,205.23h-4a1.33,1.33,0,0,0,.33.93,1.19,1.19,0,0,0,1.41.09,1,1,0,0,0,.34-.5h1.86a2.43,2.43,0,0,1-.5,1.08,2.55,2.55,0,0,1-1,.75,3.33,3.33,0,0,1-2.8-.08,2.47,2.47,0,0,1-1-1,3.1,3.1,0,0,1-.37-1.56,3.21,3.21,0,0,1,.36-1.56,2.63,2.63,0,0,1,1-1,3.08,3.08,0,0,1,1.5-.35,3,3,0,0,1,1.5.35,2.42,2.42,0,0,1,1,1,2.86,2.86,0,0,1,.36,1.45A2.79,2.79,0,0,1,236.2,205.23Zm-2-1.58a1.12,1.12,0,0,0-.78-.29,1.16,1.16,0,0,0-.8.29,1.22,1.22,0,0,0-.36.84h2.24A1,1,0,0,0,234.17,203.65Z"/><path d="M238.92,205.23v2.55h-1.76v-7.26H240a2.75,2.75,0,0,1,2,.64,2.28,2.28,0,0,1,.67,1.73,2.41,2.41,0,0,1-.3,1.21,2.08,2.08,0,0,1-.9.83,3.16,3.16,0,0,1-1.44.3Zm2-2.34c0-.64-.35-.95-1.06-.95h-.89v1.89h.89C240.52,203.83,240.87,203.51,240.87,202.89Z"/><path d="M248.83,200.88a3.44,3.44,0,0,1,1.32,1.33,3.79,3.79,0,0,1,.48,1.91,3.85,3.85,0,0,1-.48,1.92,3.54,3.54,0,0,1-1.33,1.33,3.82,3.82,0,0,1-3.71,0,3.51,3.51,0,0,1-1.32-1.33,3.76,3.76,0,0,1-.49-1.92,3.7,3.7,0,0,1,.49-1.91,3.51,3.51,0,0,1,1.32-1.33,3.92,3.92,0,0,1,3.72,0Zm-3.23,1.72a2.52,2.52,0,0,0,0,3,1.92,1.92,0,0,0,2.73,0,2.13,2.13,0,0,0,.52-1.52,2.2,2.2,0,0,0-.51-1.52A1.78,1.78,0,0,0,247,202,1.73,1.73,0,0,0,245.6,202.6Z"/><path d="M257.69,206a3.19,3.19,0,0,1-1.31,1.29,4.3,4.3,0,0,1-2,.46h-2.74v-7.26h2.74a4.27,4.27,0,0,1,2,.45,3.15,3.15,0,0,1,1.31,1.27,3.78,3.78,0,0,1,.46,1.89A3.82,3.82,0,0,1,257.69,206Zm-1.89-.37a2,2,0,0,0,.57-1.53,2,2,0,0,0-.57-1.53,2.22,2.22,0,0,0-1.59-.54h-.84v4.15h.84A2.18,2.18,0,0,0,255.8,205.66Z"/><path d="M265.64,202.59a2.7,2.7,0,0,1,.95,1.68h-1.86a.93.93,0,0,0-1-.78.92.92,0,0,0-.75.36,1.63,1.63,0,0,0-.3,1.06A1.66,1.66,0,0,0,263,206a.92.92,0,0,0,.75.36,1,1,0,0,0,.65-.2,1,1,0,0,0,.34-.58h1.86a2.73,2.73,0,0,1-.95,1.68,2.81,2.81,0,0,1-1.85.61,3.16,3.16,0,0,1-1.5-.35,2.59,2.59,0,0,1-1-1,3.1,3.1,0,0,1-.37-1.56,3.21,3.21,0,0,1,.36-1.56,2.59,2.59,0,0,1,1-1,3,3,0,0,1,1.5-.35A2.81,2.81,0,0,1,265.64,202.59Z"/><path d="M271.71,202.33a2.67,2.67,0,0,1,1.06,1,3.16,3.16,0,0,1,.38,1.56,3.11,3.11,0,0,1-.38,1.56,2.63,2.63,0,0,1-1.06,1,3.52,3.52,0,0,1-3.06,0,2.63,2.63,0,0,1-1.06-1,3,3,0,0,1-.38-1.56,3.06,3.06,0,0,1,.38-1.56,2.67,2.67,0,0,1,1.06-1,3.52,3.52,0,0,1,3.06,0Zm-2.37,1.53a1.48,1.48,0,0,0-.35,1,1.46,1.46,0,0,0,.35,1.05,1.17,1.17,0,0,0,1.69,0,1.5,1.5,0,0,0,.33-1.05,1.52,1.52,0,0,0-.33-1,1.17,1.17,0,0,0-1.69,0Z"/><path d="M279.26,202.64a2.63,2.63,0,0,1,.58,1.81v3.33h-1.75v-3.12a1.25,1.25,0,0,0-.3-.9,1.06,1.06,0,0,0-.81-.33,1.12,1.12,0,0,0-.85.34,1.38,1.38,0,0,0-.31,1v3h-1.76v-5.73h1.76v1a1.8,1.8,0,0,1,.73-.81,2.17,2.17,0,0,1,1.15-.3A2,2,0,0,1,279.26,202.64Z"/><path d="M283.82,201.27a.91.91,0,0,0-.63.18.86.86,0,0,0-.21.6h1v1.48h-1v4.25h-1.76v-4.25h-.69v-1.48h.69V202a2.17,2.17,0,0,1,.62-1.65,2.55,2.55,0,0,1,1.8-.58H284v1.51Z"/><path d="M284.91,199.77a1.09,1.09,0,0,1,.76-.26,1.11,1.11,0,0,1,.76.26.88.88,0,0,1,.28.67.85.85,0,0,1-.28.65,1.11,1.11,0,0,1-.76.26,1.09,1.09,0,0,1-.76-.26.86.86,0,0,1-.29-.65A.88.88,0,0,1,284.91,199.77Zm1.63,2.28v5.73h-1.76v-5.73Z"/><path d="M290.35,202.29a2.22,2.22,0,0,1,1.13-.3v1.88H291a1.81,1.81,0,0,0-1.09.29,1.23,1.23,0,0,0-.38,1v2.61h-1.76v-5.73h1.76v1.08A2.59,2.59,0,0,1,290.35,202.29Z"/><path d="M301.3,202.64a2.53,2.53,0,0,1,.61,1.81v3.33h-1.74v-3.12a1.14,1.14,0,0,0-.3-.85,1,1,0,0,0-.79-.3,1.06,1.06,0,0,0-.83.32,1.3,1.3,0,0,0-.3.91v3h-1.76v-3.12a1.14,1.14,0,0,0-.29-.85,1,1,0,0,0-.79-.3,1.08,1.08,0,0,0-.83.32,1.27,1.27,0,0,0-.31.91v3h-1.75v-5.73H294v1a1.77,1.77,0,0,1,.7-.76,2.12,2.12,0,0,1,1.09-.27,2.2,2.2,0,0,1,1.16.3,1.85,1.85,0,0,1,.76.87,2.23,2.23,0,0,1,.82-.85,2,2,0,0,1,1.14-.32A2.12,2.12,0,0,1,301.3,202.64Z"/><path d="M308.47,205.23h-4a1.33,1.33,0,0,0,.33.93,1.05,1.05,0,0,0,.76.28,1,1,0,0,0,.64-.19.91.91,0,0,0,.34-.5h1.86a2.42,2.42,0,0,1-.49,1.08,2.67,2.67,0,0,1-1,.75,3.05,3.05,0,0,1-1.3.27,3.19,3.19,0,0,1-1.5-.35,2.59,2.59,0,0,1-1-1,3.47,3.47,0,0,1,0-3.12,2.51,2.51,0,0,1,1-1,3.08,3.08,0,0,1,1.5-.35,3,3,0,0,1,1.5.35,2.48,2.48,0,0,1,1,1,2.86,2.86,0,0,1,.35,1.45A2,2,0,0,1,308.47,205.23Zm-2-1.58a1.08,1.08,0,0,0-.77-.29,1.16,1.16,0,0,0-.8.29,1.22,1.22,0,0,0-.36.84h2.24A1.06,1.06,0,0,0,306.44,203.65Z"/><path d="M312.74,202.27a1.68,1.68,0,0,1,.69.82v-2.91h1.76v7.6h-1.76v-1a1.7,1.7,0,0,1-.69.81,2,2,0,0,1-1.13.3,2.34,2.34,0,0,1-1.26-.35,2.44,2.44,0,0,1-.89-1,4,4,0,0,1,0-3.12,2.47,2.47,0,0,1,.89-1,2.26,2.26,0,0,1,1.26-.35A2.13,2.13,0,0,1,312.74,202.27Zm-1.47,1.62a1.43,1.43,0,0,0-.34,1,1.46,1.46,0,0,0,.34,1,1.17,1.17,0,0,0,.91.37,1.21,1.21,0,0,0,.91-.38,1.66,1.66,0,0,0,0-2,1.2,1.2,0,0,0-.91-.37A1.17,1.17,0,0,0,311.27,203.89Z"/><path d="M240.67,216.48a2.45,2.45,0,0,1,.89,1.33h-.73a1.91,1.91,0,0,0-.67-.86,2,2,0,0,0-1.14-.32,1.81,1.81,0,0,0-1,.26,1.76,1.76,0,0,0-.66.74,2.51,2.51,0,0,0-.24,1.13,2.46,2.46,0,0,0,.24,1.12,1.74,1.74,0,0,0,.66.73,1.81,1.81,0,0,0,1,.26,2,2,0,0,0,1.14-.32,1.85,1.85,0,0,0,.67-.86h.73a2.48,2.48,0,0,1-.89,1.34,2.68,2.68,0,0,1-1.64.49,2.61,2.61,0,0,1-1.35-.35,2.46,2.46,0,0,1-.91-1,3.29,3.29,0,0,1,0-2.87,2.4,2.4,0,0,1,.91-1A2.52,2.52,0,0,1,239,216,2.62,2.62,0,0,1,240.67,216.48Z"/><path d="M245.51,217.45a2,2,0,0,1,.76.76,2.58,2.58,0,0,1,0,2.3,1.89,1.89,0,0,1-.76.75,2.17,2.17,0,0,1-1.09.26,2.2,2.2,0,0,1-1.09-.26,1.89,1.89,0,0,1-.76-.75,2.58,2.58,0,0,1,0-2.3,2,2,0,0,1,.76-.76,2.31,2.31,0,0,1,1.09-.26A2.28,2.28,0,0,1,245.51,217.45Zm-1.79.52a1.34,1.34,0,0,0-.51.52,1.8,1.8,0,0,0-.2.87,1.74,1.74,0,0,0,.2.86,1.28,1.28,0,0,0,.51.52,1.54,1.54,0,0,0,.7.17,1.51,1.51,0,0,0,.7-.17,1.37,1.37,0,0,0,.52-.52,1.74,1.74,0,0,0,.19-.86,1.8,1.8,0,0,0-.19-.87,1.44,1.44,0,0,0-.52-.52,1.51,1.51,0,0,0-.7-.17A1.54,1.54,0,0,0,243.72,218Z"/><path d="M250.88,217.65a1.89,1.89,0,0,1,.45,1.36v2.46h-.7v-2.39a1.35,1.35,0,0,0-.32-1,1.15,1.15,0,0,0-.88-.34,1.2,1.2,0,0,0-.93.37,1.55,1.55,0,0,0-.34,1.09v2.24h-.7v-4.23h.7v1a1.44,1.44,0,0,1,.57-.79,1.71,1.71,0,0,1,1-.28A1.6,1.6,0,0,1,250.88,217.65Z"/><path d="M254.88,217.56a1.59,1.59,0,0,1,.53,1h-.67a1,1,0,0,0-.31-.62,1,1,0,0,0-.71-.24.89.89,0,0,0-.59.18.61.61,0,0,0-.21.49.49.49,0,0,0,.14.37.82.82,0,0,0,.35.21,4.48,4.48,0,0,0,.58.16,5.7,5.7,0,0,1,.76.22,1.28,1.28,0,0,1,.5.36,1.14,1.14,0,0,1-.19,1.5,1.54,1.54,0,0,1-1,.32,2,2,0,0,1-1.23-.36,1.45,1.45,0,0,1-.56-1h.68a.89.89,0,0,0,.33.63,1.21,1.21,0,0,0,.78.24.79.79,0,0,0,.57-.19.6.6,0,0,0,.21-.48.54.54,0,0,0-.15-.4,1.09,1.09,0,0,0-.36-.22l-.6-.16a6,6,0,0,1-.75-.22,1.12,1.12,0,0,1-.47-.34.92.92,0,0,1-.2-.63,1.05,1.05,0,0,1,.39-.86,1.61,1.61,0,0,1,1.07-.33A1.69,1.69,0,0,1,254.88,217.56Z"/><path d="M256.4,215.69a.47.47,0,0,1,.34-.12.5.5,0,0,1,.35.12.4.4,0,0,1,.13.31.37.37,0,0,1-.13.31.5.5,0,0,1-.35.12.47.47,0,0,1-.34-.12.37.37,0,0,1-.13-.31A.4.4,0,0,1,256.4,215.69Zm.69,1.55v4.23h-.7v-4.23Z"/><path d="M261,217.5a1.61,1.61,0,0,1,.6.82v-1.08h.7v4.3a2.08,2.08,0,0,1-.25,1,1.75,1.75,0,0,1-.69.71,2.08,2.08,0,0,1-1,.25,2.22,2.22,0,0,1-1.4-.41,1.82,1.82,0,0,1-.68-1.11h.69a1.18,1.18,0,0,0,.47.66,1.43,1.43,0,0,0,.88.25,1.31,1.31,0,0,0,.94-.37,1.35,1.35,0,0,0,.38-1v-1.15a1.63,1.63,0,0,1-.6.83,1.77,1.77,0,0,1-1,.3,1.84,1.84,0,0,1-1-.26,1.68,1.68,0,0,1-.69-.75,2.77,2.77,0,0,1,0-2.3,1.76,1.76,0,0,1,.69-.76,1.93,1.93,0,0,1,1-.26A1.71,1.71,0,0,1,261,217.5Zm-1.88.72a1.86,1.86,0,0,0,0,2.28,1.39,1.39,0,0,0,1,.41,1.54,1.54,0,0,0,.74-.19,1.29,1.29,0,0,0,.51-.55,1.62,1.62,0,0,0,.19-.81,1.68,1.68,0,0,0-.19-.82,1.33,1.33,0,0,0-.51-.54,1.54,1.54,0,0,0-.74-.19A1.39,1.39,0,0,0,259.11,218.22Z"/><path d="M266.82,217.65a1.85,1.85,0,0,1,.46,1.36v2.46h-.7v-2.39a1.31,1.31,0,0,0-.33-1,1.12,1.12,0,0,0-.87-.34,1.2,1.2,0,0,0-.93.37,1.55,1.55,0,0,0-.34,1.09v2.24h-.71v-4.23h.71v1a1.4,1.4,0,0,1,.57-.79,1.69,1.69,0,0,1,.95-.28A1.56,1.56,0,0,1,266.82,217.65Z"/><path d="M272.21,219.51h-3.38a1.49,1.49,0,0,0,.42,1.08,1.33,1.33,0,0,0,.95.37,1.39,1.39,0,0,0,.85-.26,1.1,1.1,0,0,0,.42-.69h.74a1.71,1.71,0,0,1-.34.78,1.85,1.85,0,0,1-.69.54,2.24,2.24,0,0,1-.95.19,2.11,2.11,0,0,1-1.08-.26,1.84,1.84,0,0,1-.74-.75,2.67,2.67,0,0,1,0-2.3,1.93,1.93,0,0,1,.74-.76,2.21,2.21,0,0,1,1.08-.26,2.15,2.15,0,0,1,1.07.26,1.81,1.81,0,0,1,.7.7,2,2,0,0,1,.24,1A2.21,2.21,0,0,1,272.21,219.51Zm-.83-1.13a1.2,1.2,0,0,0-.48-.47,1.53,1.53,0,0,0-.67-.15,1.37,1.37,0,0,0-1,.36,1.42,1.42,0,0,0-.43,1h2.71A1.49,1.49,0,0,0,271.38,218.38Z"/><path d="M277,219.51h-3.38a1.44,1.44,0,0,0,.41,1.08,1.36,1.36,0,0,0,.95.37,1.39,1.39,0,0,0,.85-.26,1.1,1.1,0,0,0,.42-.69H277a1.83,1.83,0,0,1-.34.78,1.85,1.85,0,0,1-.69.54,2.25,2.25,0,0,1-1,.19,2.16,2.16,0,0,1-1.08-.26,1.82,1.82,0,0,1-.73-.75,2.58,2.58,0,0,1,0-2.3,1.91,1.91,0,0,1,.73-.76,2.27,2.27,0,0,1,1.08-.26,2.21,2.21,0,0,1,1.08.26,1.88,1.88,0,0,1,.7.7,2,2,0,0,1,.24,1A2.21,2.21,0,0,1,277,219.51Zm-.83-1.13a1.17,1.17,0,0,0-.49-.47,1.5,1.5,0,0,0-.67-.15,1.39,1.39,0,0,0-1,.36,1.45,1.45,0,0,0-.42,1h2.7A1.4,1.4,0,0,0,276.19,218.38Z"/><path d="M282.34,217.56a1.54,1.54,0,0,1,.53,1h-.67a1,1,0,0,0-.31-.62,1,1,0,0,0-.71-.24.89.89,0,0,0-.59.18.61.61,0,0,0-.21.49.49.49,0,0,0,.14.37.82.82,0,0,0,.35.21,4.7,4.7,0,0,0,.59.16,6,6,0,0,1,.75.22,1.28,1.28,0,0,1,.5.36,1.14,1.14,0,0,1-.19,1.5,1.53,1.53,0,0,1-1,.32,2,2,0,0,1-1.24-.36,1.49,1.49,0,0,1-.56-1h.68a.93.93,0,0,0,.33.63,1.22,1.22,0,0,0,.79.24.76.76,0,0,0,.56-.19.6.6,0,0,0,.21-.48.54.54,0,0,0-.15-.4,1.09,1.09,0,0,0-.36-.22l-.59-.16a5.7,5.7,0,0,1-.76-.22,1.12,1.12,0,0,1-.47-.34,1,1,0,0,1-.2-.63,1.05,1.05,0,0,1,.39-.86,1.63,1.63,0,0,1,1.07-.33A1.69,1.69,0,0,1,282.34,217.56Z"/><path d="M283.86,215.69a.49.49,0,0,1,.34-.12.5.5,0,0,1,.35.12.4.4,0,0,1,.13.31.37.37,0,0,1-.13.31.5.5,0,0,1-.35.12.49.49,0,0,1-.34-.12.37.37,0,0,1-.13-.31A.4.4,0,0,1,283.86,215.69Zm.69,1.55v4.23h-.7v-4.23Z"/><path d="M288.45,217.5a1.55,1.55,0,0,1,.6.82v-1.08h.7v4.3a2.08,2.08,0,0,1-.25,1,1.75,1.75,0,0,1-.69.71,2.05,2.05,0,0,1-1,.25,2.19,2.19,0,0,1-1.39-.41,1.83,1.83,0,0,1-.69-1.11h.69a1.23,1.23,0,0,0,.47.66,1.43,1.43,0,0,0,.88.25,1.33,1.33,0,0,0,.95-.37,1.38,1.38,0,0,0,.37-1v-1.15a1.58,1.58,0,0,1-.6.83,1.75,1.75,0,0,1-1,.3,1.84,1.84,0,0,1-1-.26,1.73,1.73,0,0,1-.69-.75,2.77,2.77,0,0,1,0-2.3,1.82,1.82,0,0,1,.69-.76,1.93,1.93,0,0,1,1-.26A1.69,1.69,0,0,1,288.45,217.5Zm-1.88.72a1.86,1.86,0,0,0,0,2.28,1.39,1.39,0,0,0,1,.41,1.51,1.51,0,0,0,.74-.19,1.29,1.29,0,0,0,.51-.55,1.62,1.62,0,0,0,.19-.81,1.68,1.68,0,0,0-.19-.82,1.33,1.33,0,0,0-.51-.54,1.51,1.51,0,0,0-.74-.19A1.39,1.39,0,0,0,286.57,218.22Z"/><path d="M294.29,217.65a1.89,1.89,0,0,1,.45,1.36v2.46H294v-2.39a1.35,1.35,0,0,0-.32-1,1.15,1.15,0,0,0-.88-.34,1.2,1.2,0,0,0-.93.37,1.55,1.55,0,0,0-.34,1.09v2.24h-.7v-4.23h.7v1a1.44,1.44,0,0,1,.57-.79,1.71,1.71,0,0,1,.95-.28A1.6,1.6,0,0,1,294.29,217.65Z"/><path d="M298.29,217.56a1.59,1.59,0,0,1,.53,1h-.67a1,1,0,0,0-.31-.62,1,1,0,0,0-.71-.24.89.89,0,0,0-.59.18.61.61,0,0,0-.21.49.49.49,0,0,0,.14.37.82.82,0,0,0,.35.21,4.48,4.48,0,0,0,.58.16,5.7,5.7,0,0,1,.76.22,1.28,1.28,0,0,1,.5.36,1.14,1.14,0,0,1-.19,1.5,1.54,1.54,0,0,1-1,.32,2,2,0,0,1-1.23-.36,1.45,1.45,0,0,1-.56-1h.68a.89.89,0,0,0,.33.63,1.21,1.21,0,0,0,.78.24.77.77,0,0,0,.57-.19.6.6,0,0,0,.21-.48.54.54,0,0,0-.15-.4,1.09,1.09,0,0,0-.36-.22l-.6-.16a6,6,0,0,1-.75-.22,1.12,1.12,0,0,1-.47-.34.92.92,0,0,1-.2-.63,1.05,1.05,0,0,1,.39-.86,1.61,1.61,0,0,1,1.07-.33A1.69,1.69,0,0,1,298.29,217.56Z"/><path d="M250.92,230.71l-1.18-1.31a1.32,1.32,0,0,1-.05.31,1.21,1.21,0,0,1-.46.76,1.35,1.35,0,0,1-.89.3,1.7,1.7,0,0,1-.85-.21,1.42,1.42,0,0,1-.57-.57,1.64,1.64,0,0,1-.21-.84,1.67,1.67,0,0,1,.19-.83,1.28,1.28,0,0,1,.5-.53,1.4,1.4,0,0,1,.7-.18h.17l-.11-.14a2.14,2.14,0,0,1-.33-.5,1.2,1.2,0,0,1-.11-.55,1.15,1.15,0,0,1,.63-1,1.6,1.6,0,0,1,.75-.17,1.44,1.44,0,0,1,1,.33,1.87,1.87,0,0,1,.45,1.18v.11h-.67a.41.41,0,0,0,0-.12s0-.09,0-.11a.8.8,0,0,0-.21-.59.75.75,0,0,0-.58-.22.72.72,0,0,0-.53.2.7.7,0,0,0-.2.49.88.88,0,0,0,.09.41,2.26,2.26,0,0,0,.29.4l2.88,3.4ZM249,229.9a.94.94,0,0,0,.27-.7,1,1,0,0,0-.15-.53,1.32,1.32,0,0,0-.4-.38,1.08,1.08,0,0,0-.52-.13.89.89,0,0,0-.66.25,1,1,0,0,0-.26.72,1,1,0,0,0,.3.76,1,1,0,0,0,.72.28A1,1,0,0,0,249,229.9Z"/><path d="M255.8,230l1.31-3.48h.75l-1.66,4.23h-.83l-1.65-4.23h.75Z"/><path d="M261.32,226.74a1.61,1.61,0,0,1,.6.82v-1.08h.7v4.23h-.7v-1.08a1.63,1.63,0,0,1-.6.83,1.76,1.76,0,0,1-1,.31,1.85,1.85,0,0,1-1-.27,1.68,1.68,0,0,1-.69-.75,2.44,2.44,0,0,1-.25-1.15,2.47,2.47,0,0,1,.25-1.15,1.76,1.76,0,0,1,.69-.76,1.93,1.93,0,0,1,1-.26A1.69,1.69,0,0,1,261.32,226.74Zm-1.88.73a1.57,1.57,0,0,0-.39,1.13,1.61,1.61,0,0,0,.39,1.14,1.39,1.39,0,0,0,1,.41,1.41,1.41,0,0,0,.74-.19,1.29,1.29,0,0,0,.51-.55,1.82,1.82,0,0,0,0-1.62,1.29,1.29,0,0,0-.51-.55,1.51,1.51,0,0,0-.74-.19A1.36,1.36,0,0,0,259.44,227.47Z"/><path d="M264.44,225v5.7h-.7V225Z"/><path d="M265.57,224.93a.49.49,0,0,1,.34-.12.5.5,0,0,1,.35.12.4.4,0,0,1,.13.31.41.41,0,0,1-.13.32.5.5,0,0,1-.35.12.49.49,0,0,1-.34-.12.41.41,0,0,1-.13-.32A.4.4,0,0,1,265.57,224.93Zm.69,1.55v4.23h-.7v-4.23Z"/><path d="M270.16,226.74a1.55,1.55,0,0,1,.6.82V225h.7v5.7h-.7v-1.08a1.58,1.58,0,0,1-.6.83,1.76,1.76,0,0,1-1,.31,1.85,1.85,0,0,1-1-.27,1.68,1.68,0,0,1-.69-.75,2.44,2.44,0,0,1-.25-1.15,2.47,2.47,0,0,1,.25-1.15,1.76,1.76,0,0,1,.69-.76,1.93,1.93,0,0,1,1-.26A1.69,1.69,0,0,1,270.16,226.74Zm-1.88.73a1.57,1.57,0,0,0-.39,1.13,1.61,1.61,0,0,0,.39,1.14,1.39,1.39,0,0,0,1,.41,1.41,1.41,0,0,0,.74-.19,1.29,1.29,0,0,0,.51-.55,1.82,1.82,0,0,0,0-1.62,1.29,1.29,0,0,0-.51-.55,1.51,1.51,0,0,0-.74-.19A1.36,1.36,0,0,0,268.28,227.47Z"/><path d="M275.35,226.74a1.55,1.55,0,0,1,.6.82v-1.08h.7v4.23H276v-1.08a1.58,1.58,0,0,1-.6.83,1.76,1.76,0,0,1-1,.31,1.85,1.85,0,0,1-1-.27,1.73,1.73,0,0,1-.69-.75,2.44,2.44,0,0,1-.25-1.15,2.47,2.47,0,0,1,.25-1.15,1.82,1.82,0,0,1,.69-.76,1.93,1.93,0,0,1,1-.26A1.69,1.69,0,0,1,275.35,226.74Zm-1.88.73a1.57,1.57,0,0,0-.39,1.13,1.61,1.61,0,0,0,.39,1.14,1.39,1.39,0,0,0,1,.41,1.41,1.41,0,0,0,.74-.19,1.29,1.29,0,0,0,.51-.55,1.82,1.82,0,0,0,0-1.62,1.29,1.29,0,0,0-.51-.55,1.51,1.51,0,0,0-.74-.19A1.36,1.36,0,0,0,273.47,227.47Z"/><path d="M279.78,230.1v.61h-.52a1.35,1.35,0,0,1-1-.31,1.39,1.39,0,0,1-.32-1v-2.28h-.63v-.61H278v-1h.71v1h1.1v.61h-1.1v2.3a.8.8,0,0,0,.15.56.73.73,0,0,0,.52.15Z"/><path d="M284.5,228.75h-3.38a1.44,1.44,0,0,0,.41,1.08,1.3,1.3,0,0,0,1,.37,1.39,1.39,0,0,0,.85-.26,1,1,0,0,0,.42-.69h.75a1.73,1.73,0,0,1-.35.78,1.58,1.58,0,0,1-.68.54,2.32,2.32,0,0,1-1,.2,2.14,2.14,0,0,1-1.08-.27,1.76,1.76,0,0,1-.73-.75,2.33,2.33,0,0,1-.27-1.15,2.35,2.35,0,0,1,.27-1.15,1.85,1.85,0,0,1,.73-.76,2.24,2.24,0,0,1,1.08-.26,2.15,2.15,0,0,1,1.07.26,1.91,1.91,0,0,1,.71.7,2,2,0,0,1,.24,1A2.21,2.21,0,0,1,284.5,228.75Zm-.83-1.13a1.17,1.17,0,0,0-.49-.47,1.53,1.53,0,0,0-.67-.15,1.39,1.39,0,0,0-1,.36,1.45,1.45,0,0,0-.42,1h2.7A1.49,1.49,0,0,0,283.67,227.62Z"/><path d="M287.92,226.8a1.59,1.59,0,0,1,.53,1h-.67a1,1,0,0,0-.31-.62,1,1,0,0,0-.72-.24.9.9,0,0,0-.59.18.61.61,0,0,0-.21.49.53.53,0,0,0,.14.37,1.09,1.09,0,0,0,.36.22c.14,0,.33.1.58.15s.57.15.76.22a1.25,1.25,0,0,1,.49.36,1,1,0,0,1,.21.66,1,1,0,0,1-.39.84,1.56,1.56,0,0,1-1,.33,1.94,1.94,0,0,1-1.23-.37,1.39,1.39,0,0,1-.56-1h.67a.9.9,0,0,0,.34.62,1.21,1.21,0,0,0,.78.24.8.8,0,0,0,.57-.19.63.63,0,0,0,.2-.48.57.57,0,0,0-.14-.4,1,1,0,0,0-.37-.22c-.14-.05-.34-.1-.59-.16a4.65,4.65,0,0,1-.75-.22,1.09,1.09,0,0,1-.48-.34,1,1,0,0,1-.19-.63,1.06,1.06,0,0,1,.39-.86,1.61,1.61,0,0,1,1.07-.33A1.69,1.69,0,0,1,287.92,226.8Z"/><path d="M380.21,107.93v-.66h1.56v5.43H381v-4.77Z"/><path d="M387.56,108.73a1.55,1.55,0,0,1,.6.82V107h.7v5.7h-.7v-1.08a1.58,1.58,0,0,1-.6.83,1.76,1.76,0,0,1-1,.31,1.85,1.85,0,0,1-1-.27,1.73,1.73,0,0,1-.69-.75,2.44,2.44,0,0,1-.25-1.15,2.47,2.47,0,0,1,.25-1.15,1.82,1.82,0,0,1,.69-.76,1.93,1.93,0,0,1,1-.26A1.69,1.69,0,0,1,387.56,108.73Zm-1.88.73a1.57,1.57,0,0,0-.39,1.13,1.59,1.59,0,0,0,.39,1.14,1.39,1.39,0,0,0,1,.41,1.41,1.41,0,0,0,.74-.19,1.29,1.29,0,0,0,.51-.55,1.82,1.82,0,0,0,0-1.62,1.29,1.29,0,0,0-.51-.55,1.51,1.51,0,0,0-.74-.19A1.36,1.36,0,0,0,385.68,109.46Z"/><path d="M392.75,108.73a1.55,1.55,0,0,1,.6.82v-1.08h.7v4.23h-.7v-1.08a1.58,1.58,0,0,1-.6.83,1.76,1.76,0,0,1-1,.31,1.85,1.85,0,0,1-1-.27,1.73,1.73,0,0,1-.69-.75,2.44,2.44,0,0,1-.25-1.15,2.47,2.47,0,0,1,.25-1.15,1.82,1.82,0,0,1,.69-.76,1.93,1.93,0,0,1,1-.26A1.69,1.69,0,0,1,392.75,108.73Zm-1.88.73a1.57,1.57,0,0,0-.39,1.13,1.59,1.59,0,0,0,.39,1.14,1.39,1.39,0,0,0,1,.41,1.41,1.41,0,0,0,.74-.19,1.29,1.29,0,0,0,.51-.55,1.82,1.82,0,0,0,0-1.62,1.29,1.29,0,0,0-.51-.55,1.51,1.51,0,0,0-.74-.19A1.36,1.36,0,0,0,390.87,109.46Z"/><path d="M395.46,108.47l1.37,3.33,1.27-3.33h.78l-2.51,6.24h-.8l.88-2.08-1.78-4.16Z"/><path d="M359.55,86.37V84.9l3.32-4.55h1.89v4.49h.87v1.53h-.87V87.7H363V86.37Zm3.57-4-1.78,2.46h1.78Z"/><path d="M368.11,86V87.7H366.3V86Z"/><path d="M376.73,81a2.86,2.86,0,0,1,1.1,1.81H376a1.44,1.44,0,0,0-.57-.63,1.73,1.73,0,0,0-.91-.23,1.71,1.71,0,0,0-1.33.56,2.18,2.18,0,0,0-.51,1.52,2.23,2.23,0,0,0,.53,1.59,2,2,0,0,0,1.51.55,1.79,1.79,0,0,0,1.09-.34,1.83,1.83,0,0,0,.67-1h-2.22V83.63h3.69v1.73a3.54,3.54,0,0,1-.66,1.18,3.32,3.32,0,0,1-1.15.89,3.77,3.77,0,0,1-1.61.33,3.84,3.84,0,0,1-1.92-.46A3.21,3.21,0,0,1,371.31,86a4.41,4.41,0,0,1,0-3.84,3.21,3.21,0,0,1,1.27-1.31,3.77,3.77,0,0,1,1.9-.47A3.6,3.6,0,0,1,376.73,81Z"/><path d="M384.3,85.16h-4a1.33,1.33,0,0,0,.33.93,1.09,1.09,0,0,0,.76.28,1,1,0,0,0,.65-.2.92.92,0,0,0,.34-.5h1.86a2.43,2.43,0,0,1-.5,1.08,2.55,2.55,0,0,1-1,.75,3.1,3.1,0,0,1-1.31.27,3,3,0,0,1-1.49-.35,2.51,2.51,0,0,1-1-1,3.16,3.16,0,0,1-.37-1.56,3.25,3.25,0,0,1,.36-1.57,2.54,2.54,0,0,1,1-1,3.08,3.08,0,0,1,1.5-.36,3.13,3.13,0,0,1,1.5.35,2.42,2.42,0,0,1,1,1,2.89,2.89,0,0,1,.36,1.45A2.8,2.8,0,0,1,384.3,85.16Zm-2-1.59a1.12,1.12,0,0,0-.78-.28,1.15,1.15,0,0,0-.8.28,1.26,1.26,0,0,0-.36.85h2.24A1,1,0,0,0,382.27,83.57Z"/><path d="M390.46,82.57a2.63,2.63,0,0,1,.58,1.81V87.7h-1.75V84.58a1.29,1.29,0,0,0-.31-.9,1.06,1.06,0,0,0-.8-.32,1.09,1.09,0,0,0-.85.34,1.35,1.35,0,0,0-.31,1v3h-1.76V82H387v1a1.9,1.9,0,0,1,.73-.81,2.17,2.17,0,0,1,1.15-.3A2,2,0,0,1,390.46,82.57Z"/><path d="M397.59,85.16h-4a1.33,1.33,0,0,0,.33.93,1.09,1.09,0,0,0,.76.28,1,1,0,0,0,.64-.2.83.83,0,0,0,.34-.5h1.86a2.42,2.42,0,0,1-.49,1.08,2.59,2.59,0,0,1-1,.75,3.05,3.05,0,0,1-1.3.27,3,3,0,0,1-1.49-.35,2.59,2.59,0,0,1-1-1,3.58,3.58,0,0,1,0-3.13,2.42,2.42,0,0,1,1-1,3.08,3.08,0,0,1,1.5-.36,3.13,3.13,0,0,1,1.5.35,2.48,2.48,0,0,1,1,1,2.88,2.88,0,0,1,.35,1.45A2.06,2.06,0,0,1,397.59,85.16Zm-2-1.59a1.12,1.12,0,0,0-.78-.28,1.15,1.15,0,0,0-.8.28,1.26,1.26,0,0,0-.36.85h2.24A1.08,1.08,0,0,0,395.57,83.57Z"/><path d="M401.16,82.22a2.14,2.14,0,0,1,1.13-.31v1.88h-.51a1.73,1.73,0,0,0-1.08.3,1.18,1.18,0,0,0-.39,1V87.7h-1.75V82h1.75v1.08A2.5,2.5,0,0,1,401.16,82.22Z"/><path d="M406.33,82.2a1.78,1.78,0,0,1,.7.81V82h1.74V87.7H407v-1a1.78,1.78,0,0,1-.7.81,2,2,0,0,1-1.13.29,2.31,2.31,0,0,1-1.27-.35,2.52,2.52,0,0,1-.88-1,4,4,0,0,1,0-3.13,2.43,2.43,0,0,1,.88-1,2.32,2.32,0,0,1,1.27-.36A2,2,0,0,1,406.33,82.2Zm-1.47,1.61a1.46,1.46,0,0,0-.35,1,1.42,1.42,0,0,0,.35,1,1.29,1.29,0,0,0,1.82,0,1.65,1.65,0,0,0,0-2,1.21,1.21,0,0,0-.91-.38A1.17,1.17,0,0,0,404.86,83.81Z"/><path d="M413.23,86.19V87.7h-.79a2.22,2.22,0,0,1-1.56-.5,2.07,2.07,0,0,1-.56-1.64V83.45h-.77V82h.77v-1.4h1.75V82h1.15v1.48h-1.15v2.14a.5.5,0,0,0,.61.6Z"/><path d="M419.61,85.16h-4a1.33,1.33,0,0,0,.33.93,1.09,1.09,0,0,0,.76.28,1,1,0,0,0,.65-.2.92.92,0,0,0,.34-.5h1.86a2.43,2.43,0,0,1-.5,1.08,2.55,2.55,0,0,1-1,.75,3.1,3.1,0,0,1-1.31.27,3,3,0,0,1-1.49-.35,2.57,2.57,0,0,1-1-1,3.16,3.16,0,0,1-.37-1.56,3.25,3.25,0,0,1,.36-1.57,2.54,2.54,0,0,1,1-1,3.08,3.08,0,0,1,1.5-.36,3.13,3.13,0,0,1,1.5.35,2.42,2.42,0,0,1,1,1,2.89,2.89,0,0,1,.36,1.45A2.8,2.8,0,0,1,419.61,85.16Zm-2-1.59a1.12,1.12,0,0,0-.78-.28,1.17,1.17,0,0,0-.8.28,1.26,1.26,0,0,0-.36.85h2.24A1,1,0,0,0,417.58,83.57Z"/><path d="M367.26,92.77v1.39h-3v1.59h2.3v1.34h-2.3V100h-1.75V92.77Z"/><path d="M370.77,94.54a2.2,2.2,0,0,1,1.12-.31v1.88h-.5a1.69,1.69,0,0,0-1.08.3,1.19,1.19,0,0,0-.39,1V100h-1.75V94.29h1.75v1.08A2.5,2.5,0,0,1,370.77,94.54Z"/><path d="M378,97.48h-4a1.33,1.33,0,0,0,.33.93,1.05,1.05,0,0,0,.76.28,1,1,0,0,0,.64-.2.83.83,0,0,0,.34-.5H378a2.32,2.32,0,0,1-.49,1.08,2.59,2.59,0,0,1-1,.75,2.92,2.92,0,0,1-1.3.28,3,3,0,0,1-1.49-.36,2.47,2.47,0,0,1-1-1,3.21,3.21,0,0,1-.37-1.56,3.28,3.28,0,0,1,.37-1.57,2.42,2.42,0,0,1,1-1,3.08,3.08,0,0,1,1.5-.36,3.13,3.13,0,0,1,1.5.35,2.48,2.48,0,0,1,1,1,2.9,2.9,0,0,1,.35,1.46A2,2,0,0,1,378,97.48Zm-2-1.59a1.12,1.12,0,0,0-.78-.28,1.16,1.16,0,0,0-.8.29,1.22,1.22,0,0,0-.36.84h2.24A1.11,1.11,0,0,0,376,95.89Z"/><path d="M379.11,92a1.11,1.11,0,0,1,.76-.26,1.09,1.09,0,0,1,.76.26.86.86,0,0,1,.29.66.84.84,0,0,1-.29.65,1.05,1.05,0,0,1-.76.27,1.07,1.07,0,0,1-.76-.27.84.84,0,0,1-.29-.65A.86.86,0,0,1,379.11,92Zm1.63,2.27V100H379V94.29Z"/><path d="M385.26,94.52a1.78,1.78,0,0,1,.7.81v-1h1.75V100a3.39,3.39,0,0,1-.31,1.45,2.45,2.45,0,0,1-.95,1,3.05,3.05,0,0,1-1.58.38,3.31,3.31,0,0,1-2.07-.61,2.55,2.55,0,0,1-.93-1.66h1.74a.86.86,0,0,0,.37.54,1.37,1.37,0,0,0,.77.2,1.25,1.25,0,0,0,.88-.32,1.31,1.31,0,0,0,.33-1V99a1.78,1.78,0,0,1-.7.81,2,2,0,0,1-1.13.3,2.32,2.32,0,0,1-1.27-.36,2.4,2.4,0,0,1-.88-1,3.45,3.45,0,0,1-.32-1.56,3.52,3.52,0,0,1,.32-1.57,2.43,2.43,0,0,1,.88-1,2.32,2.32,0,0,1,1.27-.36A2,2,0,0,1,385.26,94.52Zm-1.47,1.61a1.69,1.69,0,0,0,0,2.06,1.2,1.2,0,0,0,.91.37,1.17,1.17,0,0,0,.9-.38,1.44,1.44,0,0,0,.36-1,1.41,1.41,0,0,0-.36-1,1.17,1.17,0,0,0-.9-.38A1.2,1.2,0,0,0,383.79,96.13Z"/><path d="M394.12,94.89a2.67,2.67,0,0,1,.58,1.81V100h-1.76V96.9a1.29,1.29,0,0,0-.3-.9A1.2,1.2,0,0,0,391,96a1.37,1.37,0,0,0-.32,1v3h-1.75V92.43h1.75v2.91a1.93,1.93,0,0,1,.74-.81,2.11,2.11,0,0,1,1.14-.3A2,2,0,0,1,394.12,94.89Z"/><path d="M399.1,98.52V100h-.79a2.26,2.26,0,0,1-1.56-.49,2.1,2.1,0,0,1-.56-1.65V95.77h-.77V94.29h.77v-1.4h1.75v1.4h1.15v1.48h-1.15v2.14a.64.64,0,0,0,.14.47.66.66,0,0,0,.47.14Z"/><path d="M407.54,96.92a1.75,1.75,0,0,1,.38,1.12,1.78,1.78,0,0,1-.62,1.46,2.68,2.68,0,0,1-1.78.52h-3.38V92.77h3.3a2.68,2.68,0,0,1,1.71.48,1.64,1.64,0,0,1,.61,1.37,1.72,1.72,0,0,1-.35,1.1,1.61,1.61,0,0,1-.92.57A1.83,1.83,0,0,1,407.54,96.92Zm-3.64-1.19h1.15c.61,0,.91-.26.91-.78s-.31-.78-.93-.78H403.9Zm2.23,2.07a.76.76,0,0,0-.26-.61,1.06,1.06,0,0,0-.73-.23H403.9V98.6h1.25C405.8,98.6,406.13,98.33,406.13,97.8Z"/><path d="M409,92a1.09,1.09,0,0,1,.76-.26,1.11,1.11,0,0,1,.76.26.86.86,0,0,1,.29.66.84.84,0,0,1-.29.65,1.07,1.07,0,0,1-.76.27,1.05,1.05,0,0,1-.76-.27.84.84,0,0,1-.29-.65A.86.86,0,0,1,409,92Zm1.63,2.27V100h-1.75V94.29Z"/><path d="M413.57,92.43V100h-1.76V92.43Z"/><path d="M416.54,92.43V100h-1.76V92.43Z"/><path d="M458.29,202.49H455V204a1.39,1.39,0,0,1,.6-.39,2.51,2.51,0,0,1,.84-.14,2.16,2.16,0,0,1,1.22.33,2,2,0,0,1,.73.87,3.09,3.09,0,0,1,.23,1.2,2.58,2.58,0,0,1-.67,1.88,2.48,2.48,0,0,1-1.87.69,3.18,3.18,0,0,1-1.43-.29,2.16,2.16,0,0,1-.94-.82,2.39,2.39,0,0,1-.35-1.21h1.72a1,1,0,0,0,.28.58.88.88,0,0,0,.63.22.83.83,0,0,0,.7-.29,1.28,1.28,0,0,0,.23-.79,1,1,0,0,0-.25-.73.9.9,0,0,0-.69-.26,1,1,0,0,0-.56.15.75.75,0,0,0-.31.38h-1.7V201h4.85Z"/><path d="M461.22,206.63v1.75H459.4v-1.75Z"/><path d="M465.94,201.12v7.26h-1.75v-7.26Z"/><path d="M472.35,203.25a2.63,2.63,0,0,1,.58,1.81v3.32h-1.75v-3.12a1.29,1.29,0,0,0-.3-.9,1.1,1.1,0,0,0-.81-.32,1.09,1.09,0,0,0-.85.34,1.37,1.37,0,0,0-.31,1v3h-1.76v-5.73h1.76v1a1.9,1.9,0,0,1,.73-.81,2.17,2.17,0,0,1,1.15-.3A2,2,0,0,1,472.35,203.25Z"/><path d="M476.74,206.67l1.25-4h1.86l-2,5.73h-2.18l-2-5.73h1.87Z"/><path d="M484.79,202.94a2.54,2.54,0,0,1,1.06,1,3.11,3.11,0,0,1,.38,1.56,3.16,3.16,0,0,1-.38,1.56,2.6,2.6,0,0,1-1.06,1,3.2,3.2,0,0,1-1.53.36,3.26,3.26,0,0,1-1.53-.36,2.6,2.6,0,0,1-1.06-1,3.06,3.06,0,0,1-.38-1.56,3,3,0,0,1,.38-1.56,2.54,2.54,0,0,1,1.06-1,3.26,3.26,0,0,1,1.53-.36A3.2,3.2,0,0,1,484.79,202.94Zm-2.37,1.53a1.75,1.75,0,0,0,0,2.1,1.17,1.17,0,0,0,1.69,0,1.84,1.84,0,0,0,0-2.1,1.15,1.15,0,0,0-1.69,0Z"/><path d="M487.27,200.38a1.09,1.09,0,0,1,.76-.26,1.11,1.11,0,0,1,.76.26.86.86,0,0,1,.29.66.84.84,0,0,1-.29.65,1.07,1.07,0,0,1-.76.27,1.05,1.05,0,0,1-.76-.27A.84.84,0,0,1,487,201,.86.86,0,0,1,487.27,200.38Zm1.63,2.27v5.73h-1.76v-5.73Z"/><path d="M494.56,203.19a2.72,2.72,0,0,1,.94,1.68h-1.86a.9.9,0,0,0-.34-.57,1,1,0,0,0-.64-.21.92.92,0,0,0-.76.37,1.61,1.61,0,0,0-.3,1.06,1.63,1.63,0,0,0,.3,1.06.92.92,0,0,0,.76.37,1,1,0,0,0,.64-.21.93.93,0,0,0,.34-.57h1.86a2.67,2.67,0,0,1-.94,1.67,2.84,2.84,0,0,1-1.86.62,3,3,0,0,1-1.49-.36,2.53,2.53,0,0,1-1-1,3.49,3.49,0,0,1,0-3.13,2.42,2.42,0,0,1,1-1,3.08,3.08,0,0,1,1.5-.36A2.89,2.89,0,0,1,494.56,203.19Z"/><path d="M501.81,205.84h-4a1.33,1.33,0,0,0,.33.93,1.16,1.16,0,0,0,1.41.08.92.92,0,0,0,.34-.5h1.86a2.38,2.38,0,0,1-.5,1.08,2.55,2.55,0,0,1-1,.75,3,3,0,0,1-1.31.28,3,3,0,0,1-1.49-.36,2.51,2.51,0,0,1-1-1,3.16,3.16,0,0,1-.37-1.56,3.25,3.25,0,0,1,.36-1.57,2.5,2.5,0,0,1,1-1,3,3,0,0,1,1.49-.36,3.13,3.13,0,0,1,1.5.35,2.42,2.42,0,0,1,1,1,2.9,2.9,0,0,1,.36,1.46A2.79,2.79,0,0,1,501.81,205.84Zm-2-1.59A1.12,1.12,0,0,0,499,204a1.13,1.13,0,0,0-.8.29,1.22,1.22,0,0,0-.36.84h2.24A1,1,0,0,0,499.78,204.25Z"/><path d="M506.58,205.84v2.54h-1.75v-7.26h2.84a2.75,2.75,0,0,1,2,.65,2.26,2.26,0,0,1,.68,1.73,2.38,2.38,0,0,1-.3,1.2,2.13,2.13,0,0,1-.9.83,3.08,3.08,0,0,1-1.45.31Zm1.95-2.34c0-.64-.35-1-1.06-1h-.89v1.89h.89C508.18,204.43,508.53,204.12,508.53,203.5Z"/><path d="M513.79,202.9a2.2,2.2,0,0,1,1.12-.31v1.88h-.5a1.74,1.74,0,0,0-1.09.3,1.21,1.21,0,0,0-.38,1v2.6h-1.76v-5.73h1.76v1.08A2.5,2.5,0,0,1,513.79,202.9Z"/><path d="M519.85,202.94a2.54,2.54,0,0,1,1.06,1,3,3,0,0,1,.39,1.56,3.06,3.06,0,0,1-.39,1.56,2.6,2.6,0,0,1-1.06,1,3.16,3.16,0,0,1-1.52.36,3.2,3.2,0,0,1-1.53-.36,2.54,2.54,0,0,1-1.06-1,3.06,3.06,0,0,1-.39-1.56,3,3,0,0,1,.39-1.56,2.48,2.48,0,0,1,1.06-1,3.2,3.2,0,0,1,1.53-.36A3.16,3.16,0,0,1,519.85,202.94Zm-2.37,1.53a1.79,1.79,0,0,0,0,2.1,1.17,1.17,0,0,0,1.69,0,1.79,1.79,0,0,0,0-2.1,1.15,1.15,0,0,0-1.69,0Z"/><path d="M526.66,203.19a2.72,2.72,0,0,1,.94,1.68h-1.86a1,1,0,0,0-.34-.57,1,1,0,0,0-.64-.21.91.91,0,0,0-.76.37,1.61,1.61,0,0,0-.3,1.06,1.63,1.63,0,0,0,.3,1.06.91.91,0,0,0,.76.37,1,1,0,0,0,.64-.21,1,1,0,0,0,.34-.57h1.86a2.67,2.67,0,0,1-.94,1.67,2.84,2.84,0,0,1-1.86.62,3.08,3.08,0,0,1-1.5-.36,2.57,2.57,0,0,1-1-1,3.27,3.27,0,0,1-.37-1.56,3.14,3.14,0,0,1,.37-1.57,2.42,2.42,0,0,1,1-1,3.08,3.08,0,0,1,1.5-.36A2.89,2.89,0,0,1,526.66,203.19Z"/><path d="M533.9,205.84h-4a1.33,1.33,0,0,0,.33.93,1.16,1.16,0,0,0,1.41.08.92.92,0,0,0,.34-.5h1.85a2.37,2.37,0,0,1-.49,1.08,2.55,2.55,0,0,1-1,.75,3,3,0,0,1-1.31.28,3,3,0,0,1-1.49-.36,2.45,2.45,0,0,1-1-1,3.16,3.16,0,0,1-.37-1.56,3.25,3.25,0,0,1,.36-1.57,2.42,2.42,0,0,1,1-1,3.08,3.08,0,0,1,1.5-.36,3.13,3.13,0,0,1,1.5.35,2.42,2.42,0,0,1,1,1,2.9,2.9,0,0,1,.36,1.46A2.09,2.09,0,0,1,533.9,205.84Zm-2-1.59a1.24,1.24,0,0,0-1.58,0,1.22,1.22,0,0,0-.36.84h2.24A1,1,0,0,0,531.88,204.25Z"/><path d="M538.69,203.13a2.34,2.34,0,0,1,.82,1.43h-1.64a1,1,0,0,0-.33-.55,1,1,0,0,0-.63-.2.71.71,0,0,0-.45.13.47.47,0,0,0-.15.37.42.42,0,0,0,.28.4,3.92,3.92,0,0,0,.89.26,9.22,9.22,0,0,1,1.08.32,1.76,1.76,0,0,1,.73.52,1.45,1.45,0,0,1,.3,1,1.51,1.51,0,0,1-.26.87,1.73,1.73,0,0,1-.77.6,3.13,3.13,0,0,1-1.2.22,3.05,3.05,0,0,1-1.85-.52,2.18,2.18,0,0,1-.86-1.47h1.7a.78.78,0,0,0,.31.57,1.18,1.18,0,0,0,.7.19.65.65,0,0,0,.46-.14.46.46,0,0,0,.15-.36.44.44,0,0,0-.28-.43,6.52,6.52,0,0,0-.92-.27,8.08,8.08,0,0,1-1-.28,1.84,1.84,0,0,1-.71-.5,1.39,1.39,0,0,1-.29-.94,1.53,1.53,0,0,1,.58-1.25,2.53,2.53,0,0,1,1.65-.48A2.58,2.58,0,0,1,538.69,203.13Z"/><path d="M544.39,203.13a2.34,2.34,0,0,1,.82,1.43h-1.64a1,1,0,0,0-.33-.55,1,1,0,0,0-.63-.2.71.71,0,0,0-.45.13.47.47,0,0,0-.15.37.42.42,0,0,0,.28.4,3.92,3.92,0,0,0,.89.26,9.84,9.84,0,0,1,1.08.32,1.67,1.67,0,0,1,.72.52,1.4,1.4,0,0,1,.31,1,1.51,1.51,0,0,1-.26.87,1.73,1.73,0,0,1-.77.6,3.13,3.13,0,0,1-1.2.22,3.05,3.05,0,0,1-1.85-.52,2.18,2.18,0,0,1-.86-1.47h1.7a.75.75,0,0,0,.31.57,1.18,1.18,0,0,0,.7.19.65.65,0,0,0,.46-.14.46.46,0,0,0,.15-.36.44.44,0,0,0-.28-.43,6.52,6.52,0,0,0-.92-.27,7.66,7.66,0,0,1-1.05-.28,1.84,1.84,0,0,1-.71-.5,1.39,1.39,0,0,1-.29-.94,1.53,1.53,0,0,1,.58-1.25,2.53,2.53,0,0,1,1.65-.48A2.58,2.58,0,0,1,544.39,203.13Z"/><path d="M551.66,205.84h-4a1.33,1.33,0,0,0,.33.93,1.16,1.16,0,0,0,1.41.08.92.92,0,0,0,.34-.5h1.86a2.38,2.38,0,0,1-.5,1.08,2.55,2.55,0,0,1-1,.75,3,3,0,0,1-1.31.28,3,3,0,0,1-1.49-.36,2.57,2.57,0,0,1-1-1,3.16,3.16,0,0,1-.37-1.56,3.25,3.25,0,0,1,.36-1.57,2.5,2.5,0,0,1,1-1,3,3,0,0,1,1.49-.36,3.13,3.13,0,0,1,1.5.35,2.36,2.36,0,0,1,1,1,2.9,2.9,0,0,1,.36,1.46A2.79,2.79,0,0,1,551.66,205.84Zm-2-1.59a1.12,1.12,0,0,0-.78-.28,1.13,1.13,0,0,0-.8.29,1.22,1.22,0,0,0-.36.84h2.24A1,1,0,0,0,549.63,204.25Z"/><path d="M555.93,202.88a1.82,1.82,0,0,1,.69.81v-2.9h1.75v7.59h-1.75v-1a1.82,1.82,0,0,1-.69.81,2.07,2.07,0,0,1-1.13.3,2.3,2.3,0,0,1-1.27-.36,2.39,2.39,0,0,1-.88-1,3.88,3.88,0,0,1,0-3.13,2.36,2.36,0,0,1,.88-1,2.3,2.3,0,0,1,1.27-.36A2.07,2.07,0,0,1,555.93,202.88Zm-1.47,1.61a1.69,1.69,0,0,0,0,2.06,1.28,1.28,0,0,0,1.81,0,1.44,1.44,0,0,0,.36-1,1.41,1.41,0,0,0-.36-1,1.28,1.28,0,0,0-1.81,0Z"/><path d="M144.11,157.22a2.2,2.2,0,0,1-.92.89,3.15,3.15,0,0,1-1.46.31h-1.62v-5.11h1.62a3.15,3.15,0,0,1,1.46.31,2.12,2.12,0,0,1,.92.88,3.14,3.14,0,0,1,0,2.72Zm-.9.09a1.89,1.89,0,0,0,.53-1.45,1.94,1.94,0,0,0-.52-1.45,2.08,2.08,0,0,0-1.54-.52h-.91v3.94h.91A2.07,2.07,0,0,0,143.21,157.31Z"/><path d="M148.85,154.44v4h-.66v-.93a1.33,1.33,0,0,1-.54.74,1.61,1.61,0,0,1-.9.26,1.48,1.48,0,0,1-1.12-.45,1.74,1.74,0,0,1-.43-1.28v-2.32h.66v2.26a1.24,1.24,0,0,0,.31.91,1.07,1.07,0,0,0,.83.33,1.15,1.15,0,0,0,.87-.35,1.51,1.51,0,0,0,.32-1v-2.12Z"/><path d="M151.15,154.6a1.72,1.72,0,0,1,.9-.23v.72h-.21a1.42,1.42,0,0,0-.91.29,1.15,1.15,0,0,0-.36,1v2.09h-.66v-4h.66v.81A1.47,1.47,0,0,1,151.15,154.6Z"/><path d="M152.71,153a.44.44,0,0,1,.32-.12.45.45,0,0,1,.33.12.41.41,0,0,1,0,.58.45.45,0,0,1-.33.12.44.44,0,0,1-.32-.12.39.39,0,0,1,0-.58Zm.65,1.46v4h-.66v-4Z"/><path d="M157.64,154.82a1.78,1.78,0,0,1,.43,1.29v2.31h-.66v-2.25a1.29,1.29,0,0,0-.3-.92,1.11,1.11,0,0,0-.83-.32,1.1,1.1,0,0,0-.87.36,1.42,1.42,0,0,0-.33,1v2.11h-.66v-4h.66v.94a1.38,1.38,0,0,1,.54-.75,1.61,1.61,0,0,1,.9-.26A1.47,1.47,0,0,1,157.64,154.82Z"/><path d="M161.7,154.68a1.51,1.51,0,0,1,.57.78v-1h.66v4.05a2,2,0,0,1-.24,1,1.68,1.68,0,0,1-.65.67,2,2,0,0,1-1,.24,2.08,2.08,0,0,1-1.31-.39,1.71,1.71,0,0,1-.65-1.05h.65a1.19,1.19,0,0,0,.44.63,1.45,1.45,0,0,0,.83.23,1.21,1.21,0,0,0,.89-.35,1.27,1.27,0,0,0,.36-1v-1.08a1.52,1.52,0,0,1-.57.77,1.58,1.58,0,0,1-1,.29,1.83,1.83,0,0,1-.94-.24,1.66,1.66,0,0,1-.65-.71,2.57,2.57,0,0,1,0-2.17,1.68,1.68,0,0,1,.65-.72,1.83,1.83,0,0,1,.94-.24A1.65,1.65,0,0,1,161.7,154.68Zm-1.77.68a1.79,1.79,0,0,0,0,2.15,1.32,1.32,0,0,0,1,.38,1.38,1.38,0,0,0,.7-.18,1.24,1.24,0,0,0,.48-.51,1.72,1.72,0,0,0,0-1.53,1.21,1.21,0,0,0-.48-.52,1.48,1.48,0,0,0-.7-.17A1.32,1.32,0,0,0,159.93,155.36Z"/><path d="M141.68,165.92a2.16,2.16,0,0,1-.92.9,3.1,3.1,0,0,1-1.45.31h-1.63V162h1.63a3.23,3.23,0,0,1,1.45.3,2.2,2.2,0,0,1,.92.89,2.79,2.79,0,0,1,.31,1.36A2.75,2.75,0,0,1,141.68,165.92Zm-.89.1a2.25,2.25,0,0,0,0-2.9,2.07,2.07,0,0,0-1.53-.52h-.92v3.94h.92A2.1,2.1,0,0,0,140.79,166Z"/><path d="M146.52,165.28h-3.19a1.45,1.45,0,0,0,.39,1,1.31,1.31,0,0,0,.9.34,1.25,1.25,0,0,0,.8-.25,1,1,0,0,0,.4-.65h.7a1.66,1.66,0,0,1-1,1.25,2.19,2.19,0,0,1-.9.18,2.11,2.11,0,0,1-1-.24,1.75,1.75,0,0,1-.69-.71,2.48,2.48,0,0,1,0-2.17,1.77,1.77,0,0,1,.69-.72,2.11,2.11,0,0,1,1-.24,2.07,2.07,0,0,1,1,.24,1.74,1.74,0,0,1,.66.66,1.9,1.9,0,0,1,.23.92A1.86,1.86,0,0,1,146.52,165.28Zm-.78-1.06a1.14,1.14,0,0,0-.46-.44,1.36,1.36,0,0,0-.63-.15,1.34,1.34,0,0,0-.92.34,1.41,1.41,0,0,0-.4,1h2.55A1.33,1.33,0,0,0,145.74,164.22Z"/><path d="M148.07,161.76v5.37h-.66v-5.37Z"/><path d="M149.14,161.69a.45.45,0,0,1,.33-.12.44.44,0,0,1,.32.12.39.39,0,0,1,0,.58.44.44,0,0,1-.32.12.45.45,0,0,1-.33-.12.41.41,0,0,1,0-.58Zm.65,1.46v4h-.66v-4Z"/><path d="M152.4,166.43l1.23-3.28h.71l-1.56,4H152l-1.56-4h.71Z"/><path d="M158.63,165.28h-3.19a1.37,1.37,0,0,0,.39,1,1.38,1.38,0,0,0,1.7.09,1,1,0,0,0,.39-.65h.71a1.61,1.61,0,0,1-.33.74,1.58,1.58,0,0,1-.65.51,2.13,2.13,0,0,1-.9.18,2.07,2.07,0,0,1-1-.24,1.77,1.77,0,0,1-.7-.71,2.48,2.48,0,0,1,0-2.17,1.8,1.8,0,0,1,.7-.72,2.27,2.27,0,0,1,2,0,1.73,1.73,0,0,1,.88,1.58A3.53,3.53,0,0,1,158.63,165.28Zm-.79-1.06a1,1,0,0,0-.46-.44,1.39,1.39,0,0,0-1.54.19,1.37,1.37,0,0,0-.4,1H158A1.42,1.42,0,0,0,157.84,164.22Z"/><path d="M160.75,163.31a1.72,1.72,0,0,1,.9-.23v.72h-.2a1.45,1.45,0,0,0-.92.29,1.16,1.16,0,0,0-.35.95v2.09h-.66v-4h.66v.8A1.48,1.48,0,0,1,160.75,163.31Z"/><path d="M162.58,163.15l1.29,3.13,1.2-3.13h.73L163.44,169h-.75l.83-2-1.68-3.92Z"/><path d="M383.47,159.66h-2.25l-.42,1.18h-.72l1.9-5h.75l1.88,5h-.71Zm-.19-.51-.93-2.59-.94,2.59Z"/><path d="M386.31,156.1a.83.83,0,0,0-.21.65v.11H387v.58h-.94v3.4h-.66v-3.4h-.57v-.58h.57v-.16c0-.95.54-1.41,1.6-1.37v.59A1,1,0,0,0,386.31,156.1Z"/><path d="M389.66,160.26v.58h-.49a1.23,1.23,0,0,1-.91-.29,1.29,1.29,0,0,1-.3-1v-2.15h-.6v-.57h.6v-1h.67v1h1v.57h-1v2.17a.7.7,0,0,0,.14.52.65.65,0,0,0,.49.14Z"/><path d="M394.11,159h-3.19a1.37,1.37,0,0,0,.39,1,1.38,1.38,0,0,0,1.7.09,1,1,0,0,0,.39-.65h.71a1.7,1.7,0,0,1-.33.75,1.64,1.64,0,0,1-.65.5,2.13,2.13,0,0,1-.9.18,2.07,2.07,0,0,1-1-.24,1.77,1.77,0,0,1-.7-.71,2.48,2.48,0,0,1,0-2.17,1.8,1.8,0,0,1,.7-.72,2.27,2.27,0,0,1,2,0,1.84,1.84,0,0,1,.66.67,2,2,0,0,1,.2,1.27Zm-.79-1.06a1.09,1.09,0,0,0-.46-.44,1.45,1.45,0,0,0-1.54.19,1.37,1.37,0,0,0-.4,1h2.55A1.42,1.42,0,0,0,393.32,157.93Z"/><path d="M396.23,157a1.72,1.72,0,0,1,.9-.23v.72h-.2a1.45,1.45,0,0,0-.92.29,1.17,1.17,0,0,0-.35.95v2.09H395v-4h.66v.81A1.45,1.45,0,0,1,396.23,157Z"/><path d="M378.77,168.34a2.16,2.16,0,0,1-.92.9,3.15,3.15,0,0,1-1.46.31h-1.62v-5.11h1.62a3.28,3.28,0,0,1,1.46.3,2.2,2.2,0,0,1,.92.89,2.79,2.79,0,0,1,.31,1.36A2.75,2.75,0,0,1,378.77,168.34Zm-.9.1a1.89,1.89,0,0,0,.53-1.45,1.94,1.94,0,0,0-.52-1.45,2.08,2.08,0,0,0-1.54-.52h-.91V169h.91A2.07,2.07,0,0,0,377.87,168.44Z"/><path d="M383.61,167.7h-3.19a1.45,1.45,0,0,0,.39,1,1.29,1.29,0,0,0,.9.34,1.25,1.25,0,0,0,.8-.25,1,1,0,0,0,.39-.65h.71a1.72,1.72,0,0,1-1,1.25,2.19,2.19,0,0,1-.9.18,2.08,2.08,0,0,1-1-.24,1.75,1.75,0,0,1-.69-.71,2.48,2.48,0,0,1,0-2.17,1.77,1.77,0,0,1,.69-.72,2.27,2.27,0,0,1,2,0,1.74,1.74,0,0,1,.66.66,1.9,1.9,0,0,1,.23.92A1.86,1.86,0,0,1,383.61,167.7Zm-.79-1.06a1.06,1.06,0,0,0-.45-.44,1.39,1.39,0,0,0-.63-.15,1.34,1.34,0,0,0-.92.34,1.37,1.37,0,0,0-.4,1H383A1.42,1.42,0,0,0,382.82,166.64Z"/><path d="M385.16,164.18v5.37h-.66v-5.37Z"/><path d="M386.23,164.11a.44.44,0,0,1,.32-.12.45.45,0,0,1,.33.12.39.39,0,0,1,0,.58.45.45,0,0,1-.33.12.44.44,0,0,1-.32-.12.39.39,0,0,1,0-.58Zm.65,1.46v4h-.66v-4Z"/><path d="M389.49,168.85l1.23-3.28h.71l-1.56,4h-.78l-1.56-4h.71Z"/><path d="M395.71,167.7h-3.18a1.37,1.37,0,0,0,.39,1,1.28,1.28,0,0,0,.89.34,1.23,1.23,0,0,0,.8-.25,1,1,0,0,0,.4-.65h.7a1.5,1.5,0,0,1-.32.74,1.65,1.65,0,0,1-.65.51,2.13,2.13,0,0,1-.9.18,2.07,2.07,0,0,1-1-.24,1.77,1.77,0,0,1-.7-.71,2.48,2.48,0,0,1,0-2.17,1.8,1.8,0,0,1,.7-.72,2.07,2.07,0,0,1,1-.24,2,2,0,0,1,1,.24,1.74,1.74,0,0,1,.66.66,1.8,1.8,0,0,1,.23.92A1.86,1.86,0,0,1,395.71,167.7Zm-.78-1.06a1,1,0,0,0-.46-.44,1.33,1.33,0,0,0-.63-.15,1.31,1.31,0,0,0-.91.34,1.37,1.37,0,0,0-.4,1h2.55A1.42,1.42,0,0,0,394.93,166.64Z"/><path d="M397.84,165.73a1.72,1.72,0,0,1,.9-.23v.72h-.2a1.45,1.45,0,0,0-.92.29,1.16,1.16,0,0,0-.35,1v2.09h-.66v-4h.66v.8A1.48,1.48,0,0,1,397.84,165.73Z"/><path d="M399.67,165.57,401,168.7l1.2-3.13h.73l-2.36,5.87h-.75l.83-1.95-1.68-3.92Z"/><path d="M617.47,150.73l-1.3,5.11h-.8l-1.19-4.18L613,155.84h-.81l-1.3-5.11h.73l1,4.34,1.21-4.34h.74l1.21,4.33,1-4.33Z"/><path d="M620.86,152.1a1.51,1.51,0,0,1,.57.78v-1h.66v4h-.66v-1a1.52,1.52,0,0,1-.57.77,1.58,1.58,0,0,1-1,.29,1.83,1.83,0,0,1-.94-.24,1.66,1.66,0,0,1-.65-.71,2.57,2.57,0,0,1,0-2.17,1.68,1.68,0,0,1,.65-.72,1.83,1.83,0,0,1,.94-.24A1.65,1.65,0,0,1,620.86,152.1Zm-1.77.68a1.79,1.79,0,0,0,0,2.15,1.32,1.32,0,0,0,1,.38,1.38,1.38,0,0,0,.7-.18,1.24,1.24,0,0,0,.48-.51,1.72,1.72,0,0,0,0-1.53,1.21,1.21,0,0,0-.48-.52,1.48,1.48,0,0,0-.7-.17A1.32,1.32,0,0,0,619.09,152.78Z"/><path d="M623.15,150.4a.44.44,0,0,1,.32-.12.45.45,0,0,1,.33.12.41.41,0,0,1,0,.58.45.45,0,0,1-.33.12.44.44,0,0,1-.32-.12.39.39,0,0,1,0-.58Zm.65,1.46v4h-.66v-4Z"/><path d="M626.76,155.26v.58h-.49a1.23,1.23,0,0,1-.91-.29,1.25,1.25,0,0,1-.31-1v-2.15h-.59v-.57h.59v-1h.67v1h1v.57h-1v2.17a.75.75,0,0,0,.14.52.67.67,0,0,0,.49.14Z"/><path d="M627.57,150.4a.45.45,0,0,1,.33-.12.48.48,0,0,1,.33.12.41.41,0,0,1,0,.58.48.48,0,0,1-.33.12.45.45,0,0,1-.33-.12.41.41,0,0,1,0-.58Zm.66,1.46v4h-.66v-4Z"/><path d="M632.51,152.24a1.82,1.82,0,0,1,.43,1.29v2.31h-.66v-2.25a1.29,1.29,0,0,0-.31-.92,1.1,1.1,0,0,0-.83-.32,1.12,1.12,0,0,0-.87.36,1.42,1.42,0,0,0-.32,1v2.11h-.66v-4H630v.94a1.38,1.38,0,0,1,.54-.75,1.6,1.6,0,0,1,.89-.26A1.49,1.49,0,0,1,632.51,152.24Z"/><path d="M636.57,152.1a1.49,1.49,0,0,1,.56.78v-1h.66v4a2.08,2.08,0,0,1-.23,1,1.74,1.74,0,0,1-.65.67,2,2,0,0,1-1,.24,2.11,2.11,0,0,1-1.32-.39,1.7,1.7,0,0,1-.64-1h.65a1.14,1.14,0,0,0,.44.63,1.41,1.41,0,0,0,.83.23,1.23,1.23,0,0,0,.89-.35,1.3,1.3,0,0,0,.35-1v-1.08a1.51,1.51,0,0,1-.56.77,1.6,1.6,0,0,1-1,.29,1.86,1.86,0,0,1-1-.24,1.79,1.79,0,0,1-.65-.71,2.67,2.67,0,0,1,0-2.17,1.82,1.82,0,0,1,.65-.72,1.86,1.86,0,0,1,1-.24A1.67,1.67,0,0,1,636.57,152.1Zm-1.77.68a1.75,1.75,0,0,0,0,2.15,1.3,1.3,0,0,0,1,.38,1.33,1.33,0,0,0,.7-.18,1.27,1.27,0,0,0,.49-.51,1.81,1.81,0,0,0,0-1.53,1.23,1.23,0,0,0-.49-.52,1.42,1.42,0,0,0-.7-.17A1.3,1.3,0,0,0,634.8,152.78Z"/><path d="M605.27,159.11a.48.48,0,0,1,.33-.12.46.46,0,0,1,.33.12.41.41,0,0,1,0,.58.46.46,0,0,1-.33.12.48.48,0,0,1-.33-.12.41.41,0,0,1,0-.58Zm.66,1.46v4h-.66v-4Z"/><path d="M610.21,161a1.82,1.82,0,0,1,.43,1.29v2.31H610V162.3a1.29,1.29,0,0,0-.31-.92,1.1,1.1,0,0,0-.83-.32,1.15,1.15,0,0,0-.87.35,1.51,1.51,0,0,0-.32,1v2.11H607v-4h.66v.94a1.38,1.38,0,0,1,.54-.75,1.6,1.6,0,0,1,.89-.26A1.49,1.49,0,0,1,610.21,161Z"/><path d="M614.11,162.49v2.06h-.66v-5.11h1.62a1.85,1.85,0,0,1,1.32.41,1.45,1.45,0,0,1,.43,1.12,1.43,1.43,0,0,1-.45,1.12,1.87,1.87,0,0,1-1.3.4Zm1.77-.8a1.11,1.11,0,0,0,0-1.45A1.22,1.22,0,0,0,615,160h-.9v1.95h.9A1.22,1.22,0,0,0,615.88,161.69Z"/><path d="M618.82,160.73a1.77,1.77,0,0,1,.9-.23v.72h-.2a1.4,1.4,0,0,0-.91.29,1.13,1.13,0,0,0-.36,1v2.09h-.66v-4h.66v.8A1.48,1.48,0,0,1,618.82,160.73Z"/><path d="M623.21,160.76a1.82,1.82,0,0,1,.71.72,2.39,2.39,0,0,1,0,2.17,1.8,1.8,0,0,1-.71.71,2.31,2.31,0,0,1-2.05,0,1.82,1.82,0,0,1-.72-.71,2.39,2.39,0,0,1,0-2.17,1.85,1.85,0,0,1,.72-.72,2.31,2.31,0,0,1,2.05,0Zm-1.68.5a1.16,1.16,0,0,0-.49.49,1.91,1.91,0,0,0,0,1.62,1.16,1.16,0,0,0,.49.49,1.42,1.42,0,0,0,1.31,0,1.21,1.21,0,0,0,.49-.49,1.91,1.91,0,0,0,0-1.62,1.21,1.21,0,0,0-.49-.49,1.42,1.42,0,0,0-1.31,0Z"/><path d="M627.66,160.81a1.45,1.45,0,0,1,.56.77v-1h.66v4.05a2,2,0,0,1-.23,1,1.68,1.68,0,0,1-.65.67,2.06,2.06,0,0,1-1,.23,2.11,2.11,0,0,1-1.32-.38,1.74,1.74,0,0,1-.64-1.05h.65a1.18,1.18,0,0,0,.44.63,1.43,1.43,0,0,0,.83.22,1.21,1.21,0,0,0,.89-.34,1.26,1.26,0,0,0,.35-1v-1.08a1.45,1.45,0,0,1-.56.77,1.6,1.6,0,0,1-1,.29,1.86,1.86,0,0,1-.95-.24,1.79,1.79,0,0,1-.65-.71,2.67,2.67,0,0,1,0-2.17,1.82,1.82,0,0,1,.65-.72,1.86,1.86,0,0,1,.95-.24A1.6,1.6,0,0,1,627.66,160.81Zm-1.77.68a1.48,1.48,0,0,0-.37,1.07,1.45,1.45,0,0,0,.37,1.07,1.27,1.27,0,0,0,1,.39,1.38,1.38,0,0,0,.7-.18,1.31,1.31,0,0,0,.48-.51,1.71,1.71,0,0,0,.17-.77,1.74,1.74,0,0,0-.17-.77,1.31,1.31,0,0,0-.48-.51,1.48,1.48,0,0,0-.7-.17A1.27,1.27,0,0,0,625.89,161.49Z"/><path d="M631.17,160.73a1.72,1.72,0,0,1,.9-.23v.72h-.2a1.43,1.43,0,0,0-.92.29,1.13,1.13,0,0,0-.35,1v2.09h-.66v-4h.66v.8A1.48,1.48,0,0,1,631.17,160.73Z"/><path d="M636.36,162.7h-3.19a1.45,1.45,0,0,0,.39,1,1.29,1.29,0,0,0,.9.34,1.25,1.25,0,0,0,.8-.25,1,1,0,0,0,.39-.65h.71a1.66,1.66,0,0,1-1,1.25,2.19,2.19,0,0,1-.9.18,2.08,2.08,0,0,1-1-.24,1.75,1.75,0,0,1-.69-.71,2.48,2.48,0,0,1,0-2.17,1.77,1.77,0,0,1,.69-.72,2.27,2.27,0,0,1,2,0,1.74,1.74,0,0,1,.66.66,1.9,1.9,0,0,1,.23.92A1.86,1.86,0,0,1,636.36,162.7Zm-.79-1.06a1.06,1.06,0,0,0-.45-.44,1.39,1.39,0,0,0-.63-.15,1.34,1.34,0,0,0-.92.34,1.37,1.37,0,0,0-.4,1h2.55A1.33,1.33,0,0,0,635.57,161.64Z"/><path d="M639.58,160.87a1.45,1.45,0,0,1,.5.95h-.63a1,1,0,0,0-.29-.59,1,1,0,0,0-.68-.23.84.84,0,0,0-.55.17.6.6,0,0,0-.2.46.48.48,0,0,0,.13.36.88.88,0,0,0,.34.2,3.68,3.68,0,0,0,.55.15,5.8,5.8,0,0,1,.71.21,1.18,1.18,0,0,1,.47.33,1,1,0,0,1,.19.63,1,1,0,0,1-.37.79,1.49,1.49,0,0,1-1,.3,1.86,1.86,0,0,1-1.16-.34,1.36,1.36,0,0,1-.53-.95h.64a.85.85,0,0,0,.32.59,1.12,1.12,0,0,0,.73.23.77.77,0,0,0,.54-.18.59.59,0,0,0,.19-.46.51.51,0,0,0-.14-.37.89.89,0,0,0-.34-.21,3.87,3.87,0,0,0-.56-.15,5.29,5.29,0,0,1-.7-.2,1.15,1.15,0,0,1-.46-.33.9.9,0,0,1-.18-.6,1,1,0,0,1,.37-.8,1.51,1.51,0,0,1,1-.31A1.56,1.56,0,0,1,639.58,160.87Z"/><path d="M643.34,160.87a1.44,1.44,0,0,1,.49.95h-.63a.9.9,0,0,0-.29-.59,1,1,0,0,0-.67-.23.87.87,0,0,0-.56.17.6.6,0,0,0-.2.46.49.49,0,0,0,.14.36.91.91,0,0,0,.33.2,4.06,4.06,0,0,0,.55.15,5.8,5.8,0,0,1,.71.21,1.18,1.18,0,0,1,.47.33,1.07,1.07,0,0,1-.18,1.42,1.48,1.48,0,0,1-1,.3,1.84,1.84,0,0,1-1.16-.34,1.33,1.33,0,0,1-.53-.95h.64a.81.81,0,0,0,.31.59,1.15,1.15,0,0,0,.74.23.74.74,0,0,0,.53-.18.59.59,0,0,0,.19-.46.51.51,0,0,0-.13-.37,1,1,0,0,0-.35-.21,4.06,4.06,0,0,0-.55-.15,5.07,5.07,0,0,1-.71-.2,1.06,1.06,0,0,1-.45-.33.85.85,0,0,1-.19-.6,1,1,0,0,1,.37-.8,1.52,1.52,0,0,1,1-.31A1.61,1.61,0,0,1,643.34,160.87Z"/><path d="M454.9,217.22v1.85H457v.54H454.9v1.89h2.29v.58h-3v-5.43h3v.57Z"/><path d="M458.8,216.38v5.7h-.71v-5.7Z"/><path d="M463.78,220.11H460.4a1.47,1.47,0,0,0,.41,1.09,1.36,1.36,0,0,0,.95.36,1.39,1.39,0,0,0,.85-.26,1,1,0,0,0,.42-.69h.75a1.75,1.75,0,0,1-1,1.33,2.44,2.44,0,0,1-2-.07,1.88,1.88,0,0,1-.73-.75,2.61,2.61,0,0,1,0-2.31,1.76,1.76,0,0,1,.73-.75,2.16,2.16,0,0,1,1.08-.27,2.11,2.11,0,0,1,1.08.27,1.81,1.81,0,0,1,.7.7,2,2,0,0,1,.24,1A2.09,2.09,0,0,1,463.78,220.11ZM463,219a1.11,1.11,0,0,0-.49-.47,1.5,1.5,0,0,0-.67-.16,1.39,1.39,0,0,0-1,.36,1.45,1.45,0,0,0-.42,1.05h2.7A1.46,1.46,0,0,0,463,219Z"/><path d="M467.94,218.22a1.86,1.86,0,0,1,.65,1.16h-.74a1.07,1.07,0,0,0-.42-.71,1.47,1.47,0,0,0-1.52-.09,1.18,1.18,0,0,0-.49.52,2.06,2.06,0,0,0,0,1.73,1.13,1.13,0,0,0,.49.52,1.47,1.47,0,0,0,1.52-.09,1.09,1.09,0,0,0,.42-.72h.74a1.8,1.8,0,0,1-.65,1.16,2.05,2.05,0,0,1-1.34.43,2.21,2.21,0,0,1-1.08-.26,2,2,0,0,1-.74-.75,2.7,2.7,0,0,1,0-2.31,1.84,1.84,0,0,1,.74-.75,2.3,2.3,0,0,1,2.42.16Z"/><path d="M471.53,221.46v.62H471a1.35,1.35,0,0,1-1-.31,1.37,1.37,0,0,1-.32-1v-2.28h-.64v-.61h.64v-1.06h.7v1.06h1.1v.61h-1.1v2.29a.8.8,0,0,0,.15.56.73.73,0,0,0,.52.15Z"/><path d="M473.69,218a1.81,1.81,0,0,1,.95-.24v.76h-.21a1.5,1.5,0,0,0-1,.3,1.24,1.24,0,0,0-.38,1v2.23h-.7v-4.23h.7v.85A1.55,1.55,0,0,1,473.69,218Z"/><path d="M478.34,218.06a1.77,1.77,0,0,1,.76.75,2.61,2.61,0,0,1,0,2.31,1.89,1.89,0,0,1-.76.75,2.28,2.28,0,0,1-1.09.26,2.34,2.34,0,0,1-1.09-.26,1.93,1.93,0,0,1-.75-.75,2.52,2.52,0,0,1,0-2.31,1.81,1.81,0,0,1,.75-.75,2.23,2.23,0,0,1,1.09-.27A2.18,2.18,0,0,1,478.34,218.06Zm-1.78.52a1.24,1.24,0,0,0-.52.52,1.95,1.95,0,0,0,0,1.72,1.19,1.19,0,0,0,.52.52,1.51,1.51,0,0,0,1.39,0,1.24,1.24,0,0,0,.52-.52,2,2,0,0,0,0-1.72,1.3,1.3,0,0,0-.52-.52,1.51,1.51,0,0,0-1.39,0Z"/><path d="M483.71,218.25a1.92,1.92,0,0,1,.45,1.37v2.46h-.7v-2.4a1.38,1.38,0,0,0-.32-1,1.15,1.15,0,0,0-.88-.34,1.23,1.23,0,0,0-.92.37,1.57,1.57,0,0,0-.35,1.09v2.25h-.7v-4.23h.7v1a1.42,1.42,0,0,1,.57-.79,1.66,1.66,0,0,1,.95-.28A1.6,1.6,0,0,1,483.71,218.25Z"/><path d="M485.25,216.3a.49.49,0,0,1,.34-.12.5.5,0,0,1,.35.12.43.43,0,0,1,0,.62.5.5,0,0,1-.35.12.49.49,0,0,1-.34-.12.43.43,0,0,1,0-.62Zm.69,1.55v4.23h-.7v-4.23Z"/><path d="M490.28,218.22a1.86,1.86,0,0,1,.65,1.16h-.74a1.07,1.07,0,0,0-.42-.71,1.47,1.47,0,0,0-1.52-.09,1.18,1.18,0,0,0-.49.52,2.06,2.06,0,0,0,0,1.73,1.13,1.13,0,0,0,.49.52,1.47,1.47,0,0,0,1.52-.09,1.09,1.09,0,0,0,.42-.72h.74a1.8,1.8,0,0,1-.65,1.16,2.05,2.05,0,0,1-1.34.43,2.21,2.21,0,0,1-1.08-.26,2,2,0,0,1-.74-.75,2.7,2.7,0,0,1,0-2.31,1.84,1.84,0,0,1,.74-.75,2.3,2.3,0,0,1,2.42.16Z"/><path d="M494.62,218.1a1.58,1.58,0,0,1,.6.83v-1.08h.7v4.23h-.7V221a1.55,1.55,0,0,1-.6.82,1.69,1.69,0,0,1-1,.31,2,2,0,0,1-1-.26,1.92,1.92,0,0,1-.69-.75,2.79,2.79,0,0,1,0-2.31,1.8,1.8,0,0,1,.69-.75,1.87,1.87,0,0,1,1-.27A1.76,1.76,0,0,1,494.62,218.1Zm-1.88.73a1.89,1.89,0,0,0,0,2.27,1.35,1.35,0,0,0,1,.41,1.39,1.39,0,0,0,1.26-.73,1.8,1.8,0,0,0,.18-.82,1.76,1.76,0,0,0-.18-.81,1.29,1.29,0,0,0-.52-.54,1.41,1.41,0,0,0-.74-.19A1.35,1.35,0,0,0,492.74,218.83Z"/><path d="M497.74,216.38v5.7H497v-5.7Z"/><path d="M499.56,216.38v5.7h-.7v-5.7Z"/><path d="M501,217.85l1.37,3.32,1.27-3.32h.78l-2.51,6.23h-.79L502,222l-1.77-4.16Z"/><path d="M510.15,218.22a1.87,1.87,0,0,1,.66,1.16h-.74a1.07,1.07,0,0,0-.42-.71,1.39,1.39,0,0,0-.85-.26,1.43,1.43,0,0,0-.68.17,1.3,1.3,0,0,0-.49.52,2.17,2.17,0,0,0,0,1.73,1.24,1.24,0,0,0,.49.52,1.43,1.43,0,0,0,.68.17,1.39,1.39,0,0,0,.85-.26,1.09,1.09,0,0,0,.42-.72h.74a1.82,1.82,0,0,1-.66,1.16,2,2,0,0,1-1.34.43,2.27,2.27,0,0,1-1.08-.26,2,2,0,0,1-.73-.75,2.61,2.61,0,0,1,0-2.31,1.82,1.82,0,0,1,.73-.75,2.16,2.16,0,0,1,1.08-.27A2.09,2.09,0,0,1,510.15,218.22Z"/><path d="M514.73,218.06a1.89,1.89,0,0,1,.76.75,2.61,2.61,0,0,1,0,2.31,2,2,0,0,1-.76.75,2.28,2.28,0,0,1-1.09.26,2.31,2.31,0,0,1-1.09-.26,2,2,0,0,1-.76-.75,2.61,2.61,0,0,1,0-2.31,1.89,1.89,0,0,1,.76-.75,2.2,2.2,0,0,1,1.09-.27A2.18,2.18,0,0,1,514.73,218.06Zm-1.79.52a1.28,1.28,0,0,0-.51.52,1.95,1.95,0,0,0,0,1.72,1.22,1.22,0,0,0,.51.52,1.42,1.42,0,0,0,.7.17,1.4,1.4,0,0,0,.7-.17,1.22,1.22,0,0,0,.51-.52,1.95,1.95,0,0,0,0-1.72,1.28,1.28,0,0,0-.51-.52,1.51,1.51,0,0,0-.7-.17A1.54,1.54,0,0,0,512.94,218.58Z"/><path d="M520.09,218.25a1.88,1.88,0,0,1,.46,1.37v2.46h-.7v-2.4a1.34,1.34,0,0,0-.33-1,1.12,1.12,0,0,0-.87-.34,1.23,1.23,0,0,0-.93.37,1.57,1.57,0,0,0-.34,1.09v2.25h-.7v-4.23h.7v1a1.38,1.38,0,0,1,.57-.79,1.61,1.61,0,0,1,.95-.28A1.59,1.59,0,0,1,520.09,218.25Z"/><path d="M522.72,217a.88.88,0,0,0-.22.69v.12h1v.61h-1v3.62h-.7v-3.62h-.61v-.61h.61v-.17c0-1,.56-1.5,1.7-1.45v.62A1.11,1.11,0,0,0,522.72,217Z"/><path d="M524.27,216.3a.49.49,0,0,1,.34-.12.5.5,0,0,1,.35.12.43.43,0,0,1,0,.62.5.5,0,0,1-.35.12.49.49,0,0,1-.34-.12.43.43,0,0,1,0-.62Zm.69,1.55v4.23h-.7v-4.23Z"/><path d="M527.39,218a1.85,1.85,0,0,1,1-.24v.76h-.22a1.54,1.54,0,0,0-1,.3,1.24,1.24,0,0,0-.37,1v2.23h-.7v-4.23h.7v.85A1.59,1.59,0,0,1,527.39,218Z"/><path d="M535.43,218.25a1.92,1.92,0,0,1,.45,1.37v2.46h-.7v-2.4a1.35,1.35,0,0,0-.3-1,1.08,1.08,0,0,0-.84-.34,1.16,1.16,0,0,0-.89.37,1.54,1.54,0,0,0-.33,1.07v2.25h-.7v-2.4a1.36,1.36,0,0,0-.31-1,1.07,1.07,0,0,0-.83-.34,1.17,1.17,0,0,0-.9.37,1.54,1.54,0,0,0-.34,1.07v2.25H529v-4.23h.7v1a1.46,1.46,0,0,1,.55-.77,1.68,1.68,0,0,1,.92-.26,1.59,1.59,0,0,1,.93.27,1.44,1.44,0,0,1,.57.81,1.51,1.51,0,0,1,.59-.8,1.62,1.62,0,0,1,.94-.28A1.59,1.59,0,0,1,535.43,218.25Z"/><path d="M540.83,220.11h-3.38a1.47,1.47,0,0,0,.41,1.09,1.34,1.34,0,0,0,.95.36,1.39,1.39,0,0,0,.85-.26,1,1,0,0,0,.42-.69h.75a1.88,1.88,0,0,1-.35.79,1.7,1.7,0,0,1-.69.54,2.24,2.24,0,0,1-.95.19,2.21,2.21,0,0,1-1.08-.26,1.88,1.88,0,0,1-.73-.75,2.61,2.61,0,0,1,0-2.31,1.76,1.76,0,0,1,.73-.75,2.11,2.11,0,0,1,1.08-.27,2,2,0,0,1,1.07.27,1.69,1.69,0,0,1,.7.7,1.87,1.87,0,0,1,.25,1A2.09,2.09,0,0,1,540.83,220.11ZM540,219a1.09,1.09,0,0,0-.48-.47,1.54,1.54,0,0,0-.67-.16,1.37,1.37,0,0,0-1,.36,1.45,1.45,0,0,0-.42,1.05h2.7A1.45,1.45,0,0,0,540,219Z"/><path d="M544.55,218.1a1.69,1.69,0,0,1,.6.83v-2.55h.7v5.7h-.7V221a1.66,1.66,0,0,1-.6.82,1.71,1.71,0,0,1-1,.31,2,2,0,0,1-1-.26,1.92,1.92,0,0,1-.69-.75,2.79,2.79,0,0,1,0-2.31,1.8,1.8,0,0,1,.69-.75,1.91,1.91,0,0,1,1-.27A1.78,1.78,0,0,1,544.55,218.1Zm-1.88.73a1.85,1.85,0,0,0,0,2.27,1.33,1.33,0,0,0,1,.41,1.43,1.43,0,0,0,.74-.19,1.33,1.33,0,0,0,.51-.54,1.8,1.8,0,0,0,.19-.82,1.76,1.76,0,0,0-.19-.81,1.21,1.21,0,0,0-.51-.54,1.43,1.43,0,0,0-.74-.19A1.33,1.33,0,0,0,542.67,218.83Z"/><path d="M552.2,218.06a1.8,1.8,0,0,1,.69.75,2.79,2.79,0,0,1,0,2.31,1.92,1.92,0,0,1-.69.75,2,2,0,0,1-1,.26,1.69,1.69,0,0,1-1-.31,1.52,1.52,0,0,1-.59-.82v1.08h-.7v-5.7h.7v2.55a1.49,1.49,0,0,1,.59-.82,1.69,1.69,0,0,1,1-.32A1.87,1.87,0,0,1,552.2,218.06Zm-1.94.55a1.29,1.29,0,0,0-.52.54,1.76,1.76,0,0,0-.18.81,1.8,1.8,0,0,0,.18.82,1.39,1.39,0,0,0,1.26.73,1.35,1.35,0,0,0,1-.41,1.85,1.85,0,0,0,0-2.27,1.35,1.35,0,0,0-1-.41A1.43,1.43,0,0,0,550.26,218.61Z"/><path d="M554.35,217.85l1.37,3.32,1.27-3.32h.78l-2.51,6.23h-.8l.88-2.07-1.78-4.16Z"/><path d="M468.38,230.62a1.39,1.39,0,0,1-.56.54,1.88,1.88,0,0,1-.93.21,2.26,2.26,0,0,1-1-.2,1.64,1.64,0,0,1-.67-.54,1.4,1.4,0,0,1-.29-.78h.75a.93.93,0,0,0,.15.45,1.07,1.07,0,0,0,.39.37,1.27,1.27,0,0,0,.6.14.93.93,0,0,0,.71-.25.82.82,0,0,0,.25-.63.8.8,0,0,0-.18-.54,1.14,1.14,0,0,0-.42-.33,5.29,5.29,0,0,0-.7-.25,7.9,7.9,0,0,1-.82-.32,1.45,1.45,0,0,1-.54-.45,1.38,1.38,0,0,1-.22-.8,1.31,1.31,0,0,1,.21-.74,1.29,1.29,0,0,1,.58-.5,2.13,2.13,0,0,1,.9-.18,1.91,1.91,0,0,1,1.27.39,1.46,1.46,0,0,1,.55,1h-.76a1,1,0,0,0-.33-.57,1,1,0,0,0-.73-.25,1,1,0,0,0-.68.22.87.87,0,0,0-.08,1.13,1.17,1.17,0,0,0,.41.31,6.59,6.59,0,0,0,.68.25,7.22,7.22,0,0,1,.84.32,1.51,1.51,0,0,1,.54.47,1.38,1.38,0,0,1,.22.83A1.47,1.47,0,0,1,468.38,230.62Z"/><path d="M472.92,227.49a1.88,1.88,0,0,1,.46,1.37v2.46h-.7v-2.4a1.34,1.34,0,0,0-.33-1,1.17,1.17,0,0,0-.88-.34,1.2,1.2,0,0,0-.92.38,1.53,1.53,0,0,0-.35,1.09v2.24h-.7v-5.7h.7v2.47a1.42,1.42,0,0,1,.58-.79,1.61,1.61,0,0,1,1-.28A1.59,1.59,0,0,1,472.92,227.49Z"/><path d="M474.46,225.54a.57.57,0,0,1,.7,0,.43.43,0,0,1,0,.62.57.57,0,0,1-.7,0,.43.43,0,0,1,0-.62Zm.7,1.55v4.23h-.7v-4.23Z"/><path d="M479.62,227.3a1.71,1.71,0,0,1,.68.75,2.79,2.79,0,0,1,0,2.31,1.83,1.83,0,0,1-.68.75,2,2,0,0,1-1,.26,1.71,1.71,0,0,1-1-.31,1.63,1.63,0,0,1-.59-.82v3.08h-.7v-6.23h.7v1.08a1.59,1.59,0,0,1,.59-.82,1.71,1.71,0,0,1,1-.32A1.91,1.91,0,0,1,479.62,227.3Zm-1.94.55a1.18,1.18,0,0,0-.52.54,1.8,1.8,0,0,0-.19.82,1.76,1.76,0,0,0,.19.81,1.29,1.29,0,0,0,.52.54,1.4,1.4,0,0,0,.73.19,1.36,1.36,0,0,0,1-.41,1.85,1.85,0,0,0,0-2.27,1.53,1.53,0,0,0-1.78-.22Z"/><path d="M484.81,227.3a1.8,1.8,0,0,1,.69.75,2.79,2.79,0,0,1,0,2.31,1.92,1.92,0,0,1-.69.75,2,2,0,0,1-1,.26,1.71,1.71,0,0,1-1-.31,1.63,1.63,0,0,1-.59-.82v3.08h-.7v-6.23h.7v1.08a1.59,1.59,0,0,1,.59-.82,1.71,1.71,0,0,1,1-.32A1.91,1.91,0,0,1,484.81,227.3Zm-1.94.55a1.18,1.18,0,0,0-.52.54,1.8,1.8,0,0,0-.19.82,1.76,1.76,0,0,0,.19.81,1.29,1.29,0,0,0,.52.54,1.4,1.4,0,0,0,.73.19,1.36,1.36,0,0,0,1-.41,1.85,1.85,0,0,0,0-2.27,1.53,1.53,0,0,0-1.78-.22Z"/><path d="M490.52,229.35h-3.38a1.47,1.47,0,0,0,.41,1.09,1.47,1.47,0,0,0,1.8.1,1,1,0,0,0,.42-.69h.75a1.81,1.81,0,0,1-.34.79,1.85,1.85,0,0,1-.69.54,2.25,2.25,0,0,1-1,.19,2.2,2.2,0,0,1-1.07-.26,1.91,1.91,0,0,1-.74-.75,2.61,2.61,0,0,1,0-2.31,1.78,1.78,0,0,1,.74-.75,2.28,2.28,0,0,1,2.15,0,1.81,1.81,0,0,1,.7.7,2,2,0,0,1,.24,1A2,2,0,0,1,490.52,229.35Zm-.83-1.12a1.11,1.11,0,0,0-.49-.47,1.5,1.5,0,0,0-.67-.16,1.39,1.39,0,0,0-1,.36,1.45,1.45,0,0,0-.42,1h2.7A1.37,1.37,0,0,0,489.69,228.23Z"/><path d="M492.78,227.26a1.79,1.79,0,0,1,1-.24v.76h-.22a1.44,1.44,0,0,0-1,.31,1.18,1.18,0,0,0-.38,1v2.23h-.7v-4.23h.7v.85A1.55,1.55,0,0,1,492.78,227.26Z"/><path d="M499.33,227.3a1.83,1.83,0,0,1,.76.75,2.61,2.61,0,0,1,0,2.31,2,2,0,0,1-.76.75,2.28,2.28,0,0,1-1.09.26,2.31,2.31,0,0,1-1.09-.26,1.93,1.93,0,0,1-.75-.75,2.52,2.52,0,0,1,0-2.31,1.81,1.81,0,0,1,.75-.75,2.2,2.2,0,0,1,1.09-.27A2.18,2.18,0,0,1,499.33,227.3Zm-1.78.52a1.24,1.24,0,0,0-.52.52,1.75,1.75,0,0,0-.2.87,1.79,1.79,0,0,0,.2.86,1.22,1.22,0,0,0,.52.51,1.51,1.51,0,0,0,1.39,0,1.27,1.27,0,0,0,.52-.51,1.79,1.79,0,0,0,.19-.86,1.75,1.75,0,0,0-.19-.87,1.3,1.3,0,0,0-.52-.52,1.51,1.51,0,0,0-1.39,0Z"/><path d="M502.59,227.26a1.79,1.79,0,0,1,1-.24v.76h-.21a1.45,1.45,0,0,0-1,.31,1.18,1.18,0,0,0-.38,1v2.23h-.7v-4.23h.7v.85A1.55,1.55,0,0,1,502.59,227.26Z"/><path d="M510.18,226.32a2.48,2.48,0,0,1,.89,1.34h-.74a1.74,1.74,0,0,0-.67-.86,1.93,1.93,0,0,0-1.13-.32,1.81,1.81,0,0,0-.95.26,1.76,1.76,0,0,0-.66.74,2.48,2.48,0,0,0-.24,1.13,2.45,2.45,0,0,0,.24,1.11,1.76,1.76,0,0,0,.66.74,1.81,1.81,0,0,0,.95.26,1.93,1.93,0,0,0,1.13-.32,1.78,1.78,0,0,0,.67-.86h.74a2.45,2.45,0,0,1-.89,1.33,2.62,2.62,0,0,1-1.64.49,2.52,2.52,0,0,1-1.35-.35,2.4,2.4,0,0,1-.91-1,3,3,0,0,1-.33-1.42,3.06,3.06,0,0,1,.33-1.44,2.49,2.49,0,0,1,.91-1,2.61,2.61,0,0,1,1.35-.35A2.68,2.68,0,0,1,510.18,226.32Z"/><path d="M515,227.3a1.81,1.81,0,0,1,.75.75,2.52,2.52,0,0,1,0,2.31,1.93,1.93,0,0,1-.75.75,2.41,2.41,0,0,1-2.18,0,2,2,0,0,1-.76-.75,2.52,2.52,0,0,1,0-2.31,1.89,1.89,0,0,1,.76-.75,2.34,2.34,0,0,1,2.18,0Zm-1.79.52a1.28,1.28,0,0,0-.51.52,1.75,1.75,0,0,0-.2.87,1.79,1.79,0,0,0,.2.86,1.25,1.25,0,0,0,.51.51,1.53,1.53,0,0,0,1.4,0,1.25,1.25,0,0,0,.51-.51,1.79,1.79,0,0,0,.2-.86,1.75,1.75,0,0,0-.2-.87,1.28,1.28,0,0,0-.51-.52,1.53,1.53,0,0,0-1.4,0Z"/><path d="M520.38,227.49a1.88,1.88,0,0,1,.46,1.37v2.46h-.7v-2.4a1.34,1.34,0,0,0-.33-1,1.15,1.15,0,0,0-.87-.34,1.21,1.21,0,0,0-.93.38,1.53,1.53,0,0,0-.34,1.09v2.24H517v-4.23h.7v1a1.36,1.36,0,0,1,.57-.79,1.61,1.61,0,0,1,1-.28A1.59,1.59,0,0,1,520.38,227.49Z"/><path d="M524.39,227.41a1.56,1.56,0,0,1,.53,1h-.67a1,1,0,0,0-.31-.62,1,1,0,0,0-.72-.24.86.86,0,0,0-.58.18.6.6,0,0,0-.22.49.47.47,0,0,0,.15.37.84.84,0,0,0,.35.22c.14.05.34.1.58.16a4.51,4.51,0,0,1,.76.22,1.14,1.14,0,0,1,.49.35,1,1,0,0,1,.21.67,1.05,1.05,0,0,1-.39.84,1.61,1.61,0,0,1-1,.32,2,2,0,0,1-1.23-.36,1.45,1.45,0,0,1-.56-1h.68a.84.84,0,0,0,.33.62,1.21,1.21,0,0,0,.78.24.85.85,0,0,0,.57-.18.63.63,0,0,0,.2-.49.56.56,0,0,0-.14-.39,1,1,0,0,0-.36-.22,4.7,4.7,0,0,0-.6-.17,6.18,6.18,0,0,1-.75-.21,1.17,1.17,0,0,1-.48-.34,1,1,0,0,1-.19-.64,1.08,1.08,0,0,1,.39-.86,1.61,1.61,0,0,1,1.07-.33A1.7,1.7,0,0,1,524.39,227.41Z"/><path d="M525.91,225.54a.47.47,0,0,1,.34-.12.5.5,0,0,1,.35.12.43.43,0,0,1,0,.62.5.5,0,0,1-.35.12.47.47,0,0,1-.34-.12.41.41,0,0,1,0-.62Zm.69,1.55v4.23h-.7v-4.23Z"/><path d="M530.5,227.34a1.69,1.69,0,0,1,.6.83v-1.08h.7v4.3a2.22,2.22,0,0,1-.25,1,1.79,1.79,0,0,1-.69.7,2.08,2.08,0,0,1-1,.26,2.28,2.28,0,0,1-1.4-.41,1.84,1.84,0,0,1-.68-1.12h.69a1.17,1.17,0,0,0,.47.67,1.5,1.5,0,0,0,.88.24,1.3,1.3,0,0,0,.94-.36,1.38,1.38,0,0,0,.38-1v-1.15a1.66,1.66,0,0,1-.6.82,1.71,1.71,0,0,1-1,.31,2,2,0,0,1-1-.26,1.92,1.92,0,0,1-.69-.75,2.79,2.79,0,0,1,0-2.31,1.8,1.8,0,0,1,.69-.75,1.91,1.91,0,0,1,1-.27A1.78,1.78,0,0,1,530.5,227.34Zm-1.88.73a1.85,1.85,0,0,0,0,2.27,1.33,1.33,0,0,0,1,.41,1.43,1.43,0,0,0,.74-.19,1.33,1.33,0,0,0,.51-.54,1.76,1.76,0,0,0,.19-.81,1.8,1.8,0,0,0-.19-.82,1.21,1.21,0,0,0-.51-.54,1.43,1.43,0,0,0-.74-.19A1.37,1.37,0,0,0,528.62,228.07Z"/><path d="M536.33,227.49a1.88,1.88,0,0,1,.46,1.37v2.46h-.7v-2.4a1.34,1.34,0,0,0-.33-1,1.17,1.17,0,0,0-.88-.34,1.2,1.2,0,0,0-.92.38,1.53,1.53,0,0,0-.35,1.09v2.24h-.7v-4.23h.7v1a1.42,1.42,0,0,1,.58-.79,1.61,1.61,0,0,1,.95-.28A1.59,1.59,0,0,1,536.33,227.49Z"/><path d="M541.72,229.35h-3.38a1.55,1.55,0,0,0,.41,1.09,1.36,1.36,0,0,0,1,.36,1.41,1.41,0,0,0,.85-.26,1,1,0,0,0,.42-.69h.74a1.7,1.7,0,0,1-.34.79,1.85,1.85,0,0,1-.69.54,2.24,2.24,0,0,1-1,.19,2.21,2.21,0,0,1-1.08-.26,1.91,1.91,0,0,1-.74-.75,2.7,2.7,0,0,1,0-2.31,1.78,1.78,0,0,1,.74-.75,2.11,2.11,0,0,1,1.08-.27,2,2,0,0,1,1.07.27,1.75,1.75,0,0,1,.7.7,2,2,0,0,1,.24,1A2,2,0,0,1,541.72,229.35Zm-.83-1.12a1.14,1.14,0,0,0-.48-.47,1.54,1.54,0,0,0-.67-.16,1.37,1.37,0,0,0-1,.36,1.42,1.42,0,0,0-.43,1h2.71A1.45,1.45,0,0,0,540.89,228.23Z"/><path d="M546.53,229.35h-3.38a1.47,1.47,0,0,0,.41,1.09,1.36,1.36,0,0,0,1,.36,1.39,1.39,0,0,0,.85-.26,1,1,0,0,0,.42-.69h.75a1.81,1.81,0,0,1-.34.79,1.85,1.85,0,0,1-.69.54,2.44,2.44,0,0,1-2-.07,1.88,1.88,0,0,1-.73-.75,2.61,2.61,0,0,1,0-2.31,1.76,1.76,0,0,1,.73-.75,2.16,2.16,0,0,1,1.08-.27,2.11,2.11,0,0,1,1.08.27,1.88,1.88,0,0,1,.7.7,2,2,0,0,1,.24,1A2,2,0,0,1,546.53,229.35Zm-.83-1.12a1.11,1.11,0,0,0-.49-.47,1.5,1.5,0,0,0-.67-.16,1.39,1.39,0,0,0-1,.36,1.45,1.45,0,0,0-.42,1h2.7A1.46,1.46,0,0,0,545.7,228.23Z"/><path d="M697.36,202.36l-2.6,6h-1.82l2.63-5.82h-3.08v-1.51h4.87Z"/><path d="M699.66,206.63v1.75h-1.82v-1.75Z"/><path d="M704.38,205.84v2.54h-1.76v-7.26h2.85a2.75,2.75,0,0,1,2,.65,2.26,2.26,0,0,1,.68,1.73,2.28,2.28,0,0,1-.31,1.2,2,2,0,0,1-.89.83,3.08,3.08,0,0,1-1.45.31Zm2-2.34c0-.64-.35-1-1.06-1h-.89v1.89h.89C706,204.43,706.33,204.12,706.33,203.5Z"/><path d="M712.29,202.88a1.84,1.84,0,0,1,.7.81v-1h1.74v5.73H713v-1a1.84,1.84,0,0,1-.7.81,2.07,2.07,0,0,1-1.13.3,2.3,2.3,0,0,1-1.27-.36,2.39,2.39,0,0,1-.88-1,3.88,3.88,0,0,1,0-3.13,2.36,2.36,0,0,1,.88-1,2.3,2.3,0,0,1,1.27-.36A2.07,2.07,0,0,1,712.29,202.88Zm-1.48,1.61a1.73,1.73,0,0,0,0,2.06,1.22,1.22,0,0,0,.91.37,1.21,1.21,0,0,0,.91-.38,1.44,1.44,0,0,0,.36-1,1.41,1.41,0,0,0-.36-1,1.21,1.21,0,0,0-.91-.38A1.22,1.22,0,0,0,710.81,204.49Z"/><path d="M717.27,202.65l1.37,3.52,1.29-3.52h1.94l-3.58,8.47h-1.93l1.35-3-2.4-5.52Z"/><path d="M731.54,203.25a2.55,2.55,0,0,1,.61,1.81v3.32H730.4v-3.12a1.17,1.17,0,0,0-.29-.84,1.19,1.19,0,0,0-1.62,0,1.22,1.22,0,0,0-.31.9v3h-1.75v-3.12a1.17,1.17,0,0,0-.29-.84,1,1,0,0,0-.79-.31,1.1,1.1,0,0,0-.83.32,1.24,1.24,0,0,0-.31.91v3h-1.76v-5.73h1.76v1a1.69,1.69,0,0,1,.69-.76,2.07,2.07,0,0,1,1.1-.28,2.17,2.17,0,0,1,1.16.31,2,2,0,0,1,.76.86,2.28,2.28,0,0,1,.81-.85,2.19,2.19,0,0,1,1.15-.32A2.14,2.14,0,0,1,731.54,203.25Z"/><path d="M738.71,205.84h-4a1.33,1.33,0,0,0,.33.93,1.16,1.16,0,0,0,1.41.08.92.92,0,0,0,.34-.5h1.86a2.38,2.38,0,0,1-.5,1.08,2.55,2.55,0,0,1-1,.75,3,3,0,0,1-1.31.28,3,3,0,0,1-1.49-.36,2.45,2.45,0,0,1-1-1,3.16,3.16,0,0,1-.37-1.56,3.25,3.25,0,0,1,.36-1.57,2.54,2.54,0,0,1,1-1,3.08,3.08,0,0,1,1.5-.36,3.13,3.13,0,0,1,1.5.35,2.42,2.42,0,0,1,1,1,2.9,2.9,0,0,1,.36,1.46A2.79,2.79,0,0,1,738.71,205.84Zm-2-1.59a1.24,1.24,0,0,0-1.58,0,1.22,1.22,0,0,0-.36.84H737A1,1,0,0,0,736.68,204.25Z"/><path d="M744.87,203.25a2.63,2.63,0,0,1,.58,1.81v3.32H743.7v-3.12a1.25,1.25,0,0,0-.31-.9,1.06,1.06,0,0,0-.8-.32,1.09,1.09,0,0,0-.85.34,1.37,1.37,0,0,0-.31,1v3h-1.76v-5.73h1.76v1a1.9,1.9,0,0,1,.73-.81,2.17,2.17,0,0,1,1.15-.3A2,2,0,0,1,744.87,203.25Z"/><path d="M749.86,206.87v1.51h-.79a2.29,2.29,0,0,1-1.57-.49,2.15,2.15,0,0,1-.56-1.65v-2.11h-.77v-1.48h.77v-1.4h1.76v1.4h1.15v1.48H748.7v2.14a.62.62,0,0,0,.14.47.63.63,0,0,0,.46.13Z"/><path d="M756.62,208.38l-1.57-2.74h-.4v2.74H752.9v-7.26h3a3.19,3.19,0,0,1,1.46.3,2.06,2.06,0,0,1,.9.82,2.4,2.4,0,0,1,.29,1.18,2.12,2.12,0,0,1-.43,1.35,2.26,2.26,0,0,1-1.27.76l1.72,2.85Zm-2-3.94h1.09a1.11,1.11,0,0,0,.77-.23.86.86,0,0,0,.25-.68.93.93,0,0,0-.25-.68,1.05,1.05,0,0,0-.77-.25h-1.09Z"/><path d="M764.82,205.84h-4a1.33,1.33,0,0,0,.33.93,1.16,1.16,0,0,0,1.41.08.92.92,0,0,0,.34-.5h1.86a2.38,2.38,0,0,1-.5,1.08,2.55,2.55,0,0,1-1,.75,3,3,0,0,1-1.31.28,3,3,0,0,1-1.49-.36,2.57,2.57,0,0,1-1-1,3.16,3.16,0,0,1-.37-1.56,3.25,3.25,0,0,1,.36-1.57,2.5,2.5,0,0,1,1-1,3,3,0,0,1,1.49-.36,3.13,3.13,0,0,1,1.5.35,2.36,2.36,0,0,1,1,1,2.9,2.9,0,0,1,.36,1.46A2.79,2.79,0,0,1,764.82,205.84Zm-2-1.59A1.12,1.12,0,0,0,762,204a1.13,1.13,0,0,0-.8.29,1.22,1.22,0,0,0-.36.84h2.24A1,1,0,0,0,762.79,204.25Z"/><path d="M770.23,203.19a2.72,2.72,0,0,1,.94,1.68h-1.86a.94.94,0,0,0-.33-.57,1,1,0,0,0-.65-.21.92.92,0,0,0-.76.37,1.61,1.61,0,0,0-.3,1.06,1.63,1.63,0,0,0,.3,1.06.92.92,0,0,0,.76.37,1,1,0,0,0,.65-.21,1,1,0,0,0,.33-.57h1.86a2.67,2.67,0,0,1-.94,1.67,2.84,2.84,0,0,1-1.86.62,3,3,0,0,1-1.49-.36,2.53,2.53,0,0,1-1-1,3.49,3.49,0,0,1,0-3.13,2.42,2.42,0,0,1,1-1,3.08,3.08,0,0,1,1.5-.36A2.89,2.89,0,0,1,770.23,203.19Z"/><path d="M777.48,205.84h-4a1.33,1.33,0,0,0,.33.93,1.16,1.16,0,0,0,1.41.08.92.92,0,0,0,.34-.5h1.86a2.38,2.38,0,0,1-.5,1.08,2.55,2.55,0,0,1-1,.75,3,3,0,0,1-1.3.28,3.05,3.05,0,0,1-1.5-.36,2.57,2.57,0,0,1-1-1,3.16,3.16,0,0,1-.37-1.56,3.25,3.25,0,0,1,.36-1.57,2.5,2.5,0,0,1,1-1,3,3,0,0,1,1.5-.36,3.12,3.12,0,0,1,1.49.35,2.45,2.45,0,0,1,1,1,3,3,0,0,1,.35,1.46A2.79,2.79,0,0,1,777.48,205.84Zm-2-1.59a1.11,1.11,0,0,0-.77-.28,1.14,1.14,0,0,0-.81.29,1.22,1.22,0,0,0-.36.84h2.24A1,1,0,0,0,775.45,204.25Z"/><path d="M778.57,200.38a1.09,1.09,0,0,1,.76-.26,1.13,1.13,0,0,1,.76.26.85.85,0,0,1,.28.66.83.83,0,0,1-.28.65,1.09,1.09,0,0,1-.76.27,1.05,1.05,0,0,1-.76-.27.81.81,0,0,1-.29-.65A.83.83,0,0,1,778.57,200.38Zm1.63,2.27v5.73h-1.76v-5.73Z"/><path d="M784.06,206.67l1.24-4h1.87l-2,5.73H783l-2-5.73h1.87Z"/><path d="M793.29,205.84h-4a1.33,1.33,0,0,0,.33.93,1,1,0,0,0,.76.28,1,1,0,0,0,.64-.2.87.87,0,0,0,.34-.5h1.86a2.48,2.48,0,0,1-.49,1.08,2.67,2.67,0,0,1-1,.75,2.92,2.92,0,0,1-1.3.28,3.08,3.08,0,0,1-1.5-.36,2.57,2.57,0,0,1-1-1,3.27,3.27,0,0,1-.37-1.56A3.14,3.14,0,0,1,788,204a2.42,2.42,0,0,1,1-1,3.08,3.08,0,0,1,1.5-.36,3.13,3.13,0,0,1,1.5.35,2.48,2.48,0,0,1,1,1,3,3,0,0,1,.35,1.46A2.79,2.79,0,0,1,793.29,205.84Zm-2-1.59a1.09,1.09,0,0,0-.77-.28,1.11,1.11,0,0,0-.8.29,1.14,1.14,0,0,0-.36.84h2.24A1.08,1.08,0,0,0,791.26,204.25Z"/><path d="M797.56,202.88a1.7,1.7,0,0,1,.69.81v-2.9H800v7.59h-1.76v-1a1.7,1.7,0,0,1-.69.81,2,2,0,0,1-1.13.3,2.32,2.32,0,0,1-1.27-.36,2.46,2.46,0,0,1-.88-1,4,4,0,0,1,0-3.13,2.43,2.43,0,0,1,.88-1,2.32,2.32,0,0,1,1.27-.36A2,2,0,0,1,797.56,202.88Zm-1.47,1.61a1.69,1.69,0,0,0,0,2.06,1.29,1.29,0,0,0,1.82,0,1.49,1.49,0,0,0,.35-1,1.45,1.45,0,0,0-.35-1,1.29,1.29,0,0,0-1.82,0Z"/><path class="cls-14" d="M728.59,217.2H725.8V219a1.36,1.36,0,0,1,.56-.42,2,2,0,0,1,.79-.15,1.75,1.75,0,0,1,1,.24,1.44,1.44,0,0,1,.56.64,2.1,2.1,0,0,1,.18.88,2,2,0,0,1-.47,1.37,1.71,1.71,0,0,1-1.37.53,2,2,0,0,1-1.34-.44,1.67,1.67,0,0,1-.57-1.19h.69a1.2,1.2,0,0,0,.4.74,1.3,1.3,0,0,0,1.68-.08,1.41,1.41,0,0,0,.3-.94,1.17,1.17,0,0,0-.31-.87A1.15,1.15,0,0,0,727,219a1.42,1.42,0,0,0-.7.17,1.13,1.13,0,0,0-.45.47h-.68v-3.07h3.43Z"/><path class="cls-14" d="M733.72,221.46v.62h-.52a1.38,1.38,0,0,1-1-.31,1.41,1.41,0,0,1-.32-1v-2.28h-.63v-.61h.63v-1.06h.71v1.06h1.09v.61h-1.09v2.29a.8.8,0,0,0,.15.56.72.72,0,0,0,.52.15Z"/><path class="cls-14" d="M737.58,218.06a1.83,1.83,0,0,1,.76.75,2.61,2.61,0,0,1,0,2.31,2,2,0,0,1-.76.75,2.28,2.28,0,0,1-1.09.26,2.31,2.31,0,0,1-1.09-.26,1.93,1.93,0,0,1-.75-.75,2.52,2.52,0,0,1,0-2.31,1.81,1.81,0,0,1,.75-.75,2.2,2.2,0,0,1,1.09-.27A2.18,2.18,0,0,1,737.58,218.06Zm-1.78.52a1.24,1.24,0,0,0-.52.52,1.95,1.95,0,0,0,0,1.72,1.19,1.19,0,0,0,.52.52,1.51,1.51,0,0,0,1.39,0,1.24,1.24,0,0,0,.52-.52,2,2,0,0,0,0-1.72,1.3,1.3,0,0,0-.52-.52,1.51,1.51,0,0,0-1.39,0Z"/><path class="cls-14" d="M741,217.3v-.65h1.55v5.43h-.74V217.3Z"/><path class="cls-14" d="M743.52,219.33a4,4,0,0,1,.43-2,1.57,1.57,0,0,1,1.49-.73,1.6,1.6,0,0,1,1.5.73,4,4,0,0,1,.43,2,4,4,0,0,1-.43,2,1.62,1.62,0,0,1-1.5.73,1.59,1.59,0,0,1-1.49-.73A4,4,0,0,1,743.52,219.33Zm3.16,0a5.64,5.64,0,0,0-.09-1.11,1.46,1.46,0,0,0-.37-.72,1.29,1.29,0,0,0-1.55,0,1.37,1.37,0,0,0-.36.72,4.89,4.89,0,0,0-.1,1.11,5.1,5.1,0,0,0,.1,1.12,1.37,1.37,0,0,0,.36.72,1.25,1.25,0,0,0,1.55,0,1.46,1.46,0,0,0,.37-.72A5.89,5.89,0,0,0,746.68,219.33Z"/><path class="cls-14" d="M753.05,218.1a1.61,1.61,0,0,1,.59.83v-2.55h.7v5.7h-.7V221a1.59,1.59,0,0,1-.59.82,1.74,1.74,0,0,1-1,.31,2,2,0,0,1-1-.26,1.92,1.92,0,0,1-.69-.75,2.79,2.79,0,0,1,0-2.31,1.8,1.8,0,0,1,.69-.75,1.87,1.87,0,0,1,1-.27A1.81,1.81,0,0,1,753.05,218.1Zm-1.88.73a1.85,1.85,0,0,0,0,2.27,1.33,1.33,0,0,0,1,.41,1.44,1.44,0,0,0,.75-.19,1.4,1.4,0,0,0,.51-.54,1.8,1.8,0,0,0,.18-.82,1.76,1.76,0,0,0-.18-.81,1.27,1.27,0,0,0-.51-.54,1.44,1.44,0,0,0-.75-.19A1.33,1.33,0,0,0,751.17,218.83Z"/><path class="cls-14" d="M758.24,218.1a1.61,1.61,0,0,1,.59.83v-1.08h.7v4.23h-.7V221a1.59,1.59,0,0,1-.59.82,1.74,1.74,0,0,1-1,.31,2,2,0,0,1-1-.26,1.92,1.92,0,0,1-.69-.75,2.79,2.79,0,0,1,0-2.31,1.8,1.8,0,0,1,.69-.75,1.87,1.87,0,0,1,1-.27A1.81,1.81,0,0,1,758.24,218.1Zm-1.88.73a1.85,1.85,0,0,0,0,2.27,1.33,1.33,0,0,0,1,.41,1.44,1.44,0,0,0,.75-.19,1.4,1.4,0,0,0,.51-.54,1.8,1.8,0,0,0,.18-.82,1.76,1.76,0,0,0-.18-.81,1.27,1.27,0,0,0-.51-.54,1.44,1.44,0,0,0-.75-.19A1.33,1.33,0,0,0,756.36,218.83Z"/><path class="cls-14" d="M760.94,217.85l1.37,3.32,1.28-3.32h.77l-2.51,6.23h-.79l.88-2.07-1.78-4.16Z"/><path class="cls-14" d="M767.48,218.17a1.61,1.61,0,0,1,.53,1h-.67a1,1,0,0,0-1-.86.89.89,0,0,0-.59.18.61.61,0,0,0-.21.49.51.51,0,0,0,.14.37,1,1,0,0,0,.36.22c.14.05.33.1.58.16a5.15,5.15,0,0,1,.76.22,1.2,1.2,0,0,1,.49.35,1,1,0,0,1,.2.67,1.05,1.05,0,0,1-.39.84,1.57,1.57,0,0,1-1,.32,2,2,0,0,1-1.23-.36,1.46,1.46,0,0,1-.57-1h.68a.9.9,0,0,0,.34.62,1.21,1.21,0,0,0,.78.24.8.8,0,0,0,.56-.18.64.64,0,0,0,.21-.49.53.53,0,0,0-.15-.39,1,1,0,0,0-.36-.23c-.14-.05-.34-.1-.59-.16a5.27,5.27,0,0,1-.75-.21,1.11,1.11,0,0,1-.48-.35.93.93,0,0,1-.2-.63,1.06,1.06,0,0,1,.4-.86,1.59,1.59,0,0,1,1.07-.33A1.71,1.71,0,0,1,767.48,218.17Z"/><circle class="cls-15" cx="743.73" cy="160.62" r="31.3"/><circle class="cls-5" cx="741.82" cy="166.42" r="0.69"/><path class="cls-5" d="M746.63,158.14a7.58,7.58,0,1,0-7.58-7.58A7.59,7.59,0,0,0,746.63,158.14Zm0-13.78a6.2,6.2,0,1,1-6.2,6.2A6.21,6.21,0,0,1,746.63,144.36Z"/><path class="cls-5" d="M760.39,158.26a2.76,2.76,0,0,0-3.86.31l-4.07,4.17a2.77,2.77,0,0,0-2.14-1h-7.68a8.89,8.89,0,0,0-3.45-.69,8.52,8.52,0,0,0-7.77,4.4,2.05,2.05,0,0,0-1.84.58l-3.28,3.28a.68.68,0,0,0,0,1l7.73,7.8a.68.68,0,0,0,1,0l3.34-3.29a2.06,2.06,0,0,0,.49-2.13l.72-.7a2.09,2.09,0,0,1,1.44-.58h9.16a6.16,6.16,0,0,0,4.32-1.75l6.25-7.47A2.76,2.76,0,0,0,760.39,158.26Zm-23,15.54-2.84,2.8-6.77-6.82,2.79-2.8a.68.68,0,0,1,.85-.1c.12.07-.22-.24,6,5.94A.69.69,0,0,1,737.37,173.8Zm22.29-12.54-6.17,7.38a4.81,4.81,0,0,1-3.34,1.35H741a3.42,3.42,0,0,0-2.39,1l-.59.57-5.4-5.4a7.12,7.12,0,0,1,6.58-3.71,7.51,7.51,0,0,1,3,.63.67.67,0,0,0,.28.06h7.82a1.38,1.38,0,1,1,0,2.75H744.7a.69.69,0,1,0,0,1.38h5.62a2.76,2.76,0,0,0,2.75-2.76,2.17,2.17,0,0,0,0-.36l4.51-4.63a1.38,1.38,0,1,1,2.1,1.78Z"/><path class="cls-5" d="M746.49,152.62a1.24,1.24,0,0,1-.9-.52.69.69,0,1,0-1.05.89,2.9,2.9,0,0,0,1.26.9v.8a.69.69,0,0,0,1.38,0v-.81a2.06,2.06,0,0,0-.69-4,.69.69,0,1,1,0-1.38,1.12,1.12,0,0,1,.74.36.69.69,0,1,0,1-1,2.6,2.6,0,0,0-1-.63v-.81a.69.69,0,0,0-1.38,0v.81a2.07,2.07,0,0,0,.69,4,.69.69,0,0,1,.69.69A.68.68,0,0,1,746.49,152.62Z"/><path class="cls-5" d="M639.16,37.49h-1.34V31.32a2.69,2.69,0,0,0-2.69-2.68h-1.82l-1.86-3.35a1.6,1.6,0,0,0-1.4-.83,1.56,1.56,0,0,0-.79.21l-7.13,4h-8a2.68,2.68,0,0,0-2.68,2.68V49.75a2.69,2.69,0,0,0,2.68,2.69h21a2.7,2.7,0,0,0,2.69-2.69V44.34h1.34V37.49Zm-4-7.78a1.6,1.6,0,0,1,1.59,1.43h-2l-.8-1.43Zm-5.34-4.1a.54.54,0,0,1,.73.2l3,5.33H619.83Zm7,24.14a1.61,1.61,0,0,1-1.61,1.61h-21a1.61,1.61,0,0,1-1.61-1.61V31.32a1.61,1.61,0,0,1,1.61-1.61h6l-2.57,1.43h-3.13a.54.54,0,0,0,0,1.08h22.25V37.5h-3.92a3.31,3.31,0,0,0-3.31,3.3V41a3.31,3.31,0,0,0,3.31,3.31h3.92v5.41Zm1.34-6.48h-5.26A2.25,2.25,0,0,1,630.58,41V40.8a2.24,2.24,0,0,1,2.24-2.23h5.26ZM634.46,41a1.19,1.19,0,1,1-1.18-1.18A1.18,1.18,0,0,1,634.46,41Z"/><g id="surface1"><path class="cls-5" d="M161.1,36.22l-.76.84,3.47,3.18a4,4,0,0,1,1.28,2.92V57h1.13V43.16a5.12,5.12,0,0,0-1.65-3.76Z"/><path class="cls-5" d="M156.61,23.07H141.9a2.82,2.82,0,0,0-2.82,2.82V54.17A2.83,2.83,0,0,0,141.9,57H156V56a12.85,12.85,0,0,1,2.17-7.16.56.56,0,0,0-.07-.71l-4-4a1.84,1.84,0,0,1-.53-1.39,1.82,1.82,0,0,1,.67-1.33,1.9,1.9,0,0,1,2.53.2l5.58,5.58.8-.8-3.79-3.79V25.89A2.83,2.83,0,0,0,156.61,23.07Zm1.7,18.43-.66-.66a3,3,0,0,0-4.05-.27,3,3,0,0,0-.22,4.39L157,48.59a13.91,13.91,0,0,0-2.1,7.28h-13a1.7,1.7,0,0,1-1.69-1.7V52.48h14.14V51.34H140.21V27.59h18.1Zm0-15h-18.1v-.57a1.69,1.69,0,0,1,1.69-1.69h14.71a1.7,1.7,0,0,1,1.7,1.69Z"/><path class="cls-5" d="M142.47,33.25h2.26a1.13,1.13,0,0,0,1.13-1.13V29.85a1.13,1.13,0,0,0-1.13-1.13h-2.26a1.14,1.14,0,0,0-1.13,1.13v2.27A1.14,1.14,0,0,0,142.47,33.25Zm0-3.4h2.26v2.27h-2.26Z"/><path class="cls-5" d="M148.13,33.25h2.26a1.14,1.14,0,0,0,1.13-1.13V29.85a1.14,1.14,0,0,0-1.13-1.13h-2.26A1.14,1.14,0,0,0,147,29.85v2.27A1.14,1.14,0,0,0,148.13,33.25Zm0-3.4h2.26v2.27h-2.26Z"/><path class="cls-5" d="M153.78,33.25H156a1.13,1.13,0,0,0,1.13-1.13V29.85A1.13,1.13,0,0,0,156,28.72h-2.26a1.14,1.14,0,0,0-1.13,1.13v2.27A1.14,1.14,0,0,0,153.78,33.25Zm0-3.4H156v2.27h-2.26Z"/><path class="cls-5" d="M142.47,38.9h2.26a1.12,1.12,0,0,0,1.13-1.13V35.51a1.12,1.12,0,0,0-1.13-1.13h-2.26a1.13,1.13,0,0,0-1.13,1.13v2.26A1.13,1.13,0,0,0,142.47,38.9Zm0-3.39h2.26v2.26h-2.26Z"/><path class="cls-5" d="M142.47,44.56h2.26a1.13,1.13,0,0,0,1.13-1.13V41.16A1.13,1.13,0,0,0,144.73,40h-2.26a1.14,1.14,0,0,0-1.13,1.13v2.27A1.14,1.14,0,0,0,142.47,44.56Zm0-3.4h2.26v2.27h-2.26Z"/><path class="cls-5" d="M148.13,38.9h2.26a1.13,1.13,0,0,0,1.13-1.13V35.51a1.13,1.13,0,0,0-1.13-1.13h-2.26A1.13,1.13,0,0,0,147,35.51v2.26A1.13,1.13,0,0,0,148.13,38.9Zm0-3.39h2.26v2.26h-2.26Z"/><path class="cls-5" d="M153.78,38.9H156a1.12,1.12,0,0,0,1.13-1.13V35.51A1.12,1.12,0,0,0,156,34.38h-2.26a1.13,1.13,0,0,0-1.13,1.13v2.26A1.13,1.13,0,0,0,153.78,38.9Zm0-3.39H156v2.26h-2.26Z"/><path class="cls-5" d="M148.13,44.56h2.26a1.14,1.14,0,0,0,1.13-1.13V41.16A1.14,1.14,0,0,0,150.39,40h-2.26A1.14,1.14,0,0,0,147,41.16v2.27A1.14,1.14,0,0,0,148.13,44.56Zm0-3.4h2.26v2.27h-2.26Z"/><path class="cls-5" d="M142.47,50.21h2.26a1.12,1.12,0,0,0,1.13-1.13V46.82a1.13,1.13,0,0,0-1.13-1.13h-2.26a1.14,1.14,0,0,0-1.13,1.13v2.26A1.13,1.13,0,0,0,142.47,50.21Zm0-3.39h2.26v2.26h-2.26Z"/><path class="cls-5" d="M148.13,50.21h2.26a1.13,1.13,0,0,0,1.13-1.13V46.82a1.14,1.14,0,0,0-1.13-1.13h-2.26A1.14,1.14,0,0,0,147,46.82v2.26A1.13,1.13,0,0,0,148.13,50.21Zm0-3.39h2.26v2.26h-2.26Z"/><path class="cls-5" d="M148.69,53.61h1.13v1.13h-1.13Z"/></g><path class="cls-5" d="M269.5,145.39a15.11,15.11,0,1,0,15.11,15.11A15.13,15.13,0,0,0,269.5,145.39Zm0,27.74a12.63,12.63,0,1,1,12.63-12.63A12.64,12.64,0,0,1,269.5,173.13Z"/><path class="cls-5" d="M276,154.7l-9,9-4.11-4.1a1.24,1.24,0,0,0-1.75,1.75l5,5a1.24,1.24,0,0,0,1.75,0l9.85-9.85A1.24,1.24,0,0,0,276,154.7Z"/><circle class="cls-14" cx="388.31" cy="279.83" r="31.3"/><path class="cls-5" d="M399.21,283.59a.77.77,0,1,0,1.54,0V272a.76.76,0,0,0-.77-.77H376.63a.77.77,0,0,0-.77.77v11.64a.77.77,0,1,0,1.54,0V272.72h21.81Z"/><path class="cls-5" d="M405.52,286.35H404.1V270.16a2.33,2.33,0,0,0-2.33-2.33H374.84a2.33,2.33,0,0,0-2.33,2.33v16.19h-1.42a.69.69,0,0,0-.69.69v1.36a3.43,3.43,0,0,0,3.42,3.43h29a3.44,3.44,0,0,0,3.43-3.43V287A.69.69,0,0,0,405.52,286.35Zm-31.47-16.19a.79.79,0,0,1,.79-.79h26.93a.79.79,0,0,1,.79.79v16.19H392a.7.7,0,0,0-.56.68,1.06,1.06,0,0,1-1.06,1.06h-4.08A1.06,1.06,0,0,1,385.2,287a.69.69,0,0,0-.71-.69H374.05Zm30.78,18.24h0a2,2,0,0,1-2,2h-29a2,2,0,0,1-2-2v-.66h12.14a2.45,2.45,0,0,0,2.35,1.75h4.08a2.45,2.45,0,0,0,2.35-1.75h12.13Z"/><path class="cls-5" d="M389.45,276.75a.77.77,0,0,0-1.09-1.09l-4.85,4.85a.77.77,0,0,0,0,1.09.76.76,0,0,0,1.09,0Z"/><path class="cls-5" d="M391.23,278.47l-1.93,1.93a.77.77,0,0,0,0,1.09.76.76,0,0,0,1.09,0l1.93-1.93a.77.77,0,0,0-1.09-1.09Z"/><path class="cls-5" d="M524.11,151.89a24.36,24.36,0,0,0-9.61,1.62.76.76,0,0,0-.37,1c-1.17-.44-2.81-1.09-4.44-1.82-3.56-1.59-5.51-.54-8.3,2.25-1.06,1.06-2.5,3.2-2.13,4.78a1.92,1.92,0,0,0,1.34,1.39,3.87,3.87,0,0,0,4.55-1.56,3.82,3.82,0,0,0,1.17-.36c.14-.07.31-.15.54-.24.89.84,2.08,1.8,3.34,2.82,2.28,1.85,4.87,3.94,5.45,5.15a.9.9,0,0,1-.23,1.16.88.88,0,0,1-.93.21c-.57-.47-3-3-4.56-4.57a.76.76,0,0,0-1.09,0,.77.77,0,0,0,0,1.09c.36.38,3.26,3.4,4.42,4.46a1,1,0,0,1-.57.61,1.23,1.23,0,0,1-1.21,0l0-.05c-.93-.74-3.26-3.22-3.79-3.79a.78.78,0,0,0-1.1,0,.79.79,0,0,0,0,1.1s2.31,2.48,3.59,3.63a1.5,1.5,0,0,1-.82.84.82.82,0,0,1-.89-.14h0l0,0c-1.1-.94-3.37-3.35-3.81-3.82a.77.77,0,1,0-1.13,1.06c.52.56,2.09,2.22,3.26,3.33l-.37,0a4.44,4.44,0,0,1-1.9-.65c-.54-.36-4-2.91-6.91-5.37-.41-.35-1.13-1.1-1.76-1.76-.46-.48-.89-.93-1.18-1.2A64,64,0,0,0,497,152.73a.74.74,0,0,0-.24-.63c-1.33-1.26-6.64-1.67-8.24-1.76a.77.77,0,0,0-.82.77v14a.78.78,0,0,0,.78.78h4.65a.77.77,0,0,0,.73-.54c0-.05.09-.25.19-.57.17.19.37.39.57.6.69.72,1.41,1.47,1.89,1.88,2.88,2.41,6.36,5,7,5.48a6,6,0,0,0,2.75.9,2.64,2.64,0,0,0,1.76-.52,2.38,2.38,0,0,0,1.76,0,3,3,0,0,0,1.62-1.49,3,3,0,0,0,1.94-.28,4.14,4.14,0,0,1,3.08-2,2.43,2.43,0,0,0,.84-2.35l1.23-.82c.08.27.15.51.21.7a.77.77,0,0,0,.74.57h4.66a.78.78,0,0,0,.77-.78v-14A.77.77,0,0,0,524.11,151.89Zm-34.9,12.41V151.94a23.94,23.94,0,0,1,6.16,1.1,81.12,81.12,0,0,1-2.85,11.26Zm27.37,1.24a35.38,35.38,0,0,0-5.4-4.93c-1.41-1.14-2.74-2.22-3.59-3.06a.77.77,0,0,0-.81-.19c-.52.19-.84.34-1.1.45a2.45,2.45,0,0,1-1,.29.78.78,0,0,0-.57.34c-1.09,1.64-2.23,1.5-3,1.24-.24-.08-.28-.18-.3-.28-.17-.68.65-2.27,1.71-3.33,2.52-2.52,3.82-3.15,6.56-1.92s5.2,2.11,6,2.4c.91,2.21,2.14,5.65,2.94,8Zm6.75.31H520c-.73-2.4-2.9-8.64-4.11-11.22a25.34,25.34,0,0,1,7.41-1.18Z"/></svg>