<svg id="Objects" xmlns="http://www.w3.org/2000/svg" viewBox="0 0 443.18 378.89"><defs><style>.cls-1{fill:#b0221d;}.cls-2{opacity:0.1;}.cls-3{opacity:0.05;}.cls-4{fill:#dc5a58;}.cls-5{fill:#ecc19c;}.cls-6{fill:#f56462;}.cls-7{fill:#a76531;}.cls-11,.cls-8{fill:#fff;}.cls-9{fill:#cf9e76;}.cls-10{fill:#543319;}.cls-11{opacity:0.2;}.cls-12{fill:#d1d1d1;}.cls-13{fill:#e37b79;}.cls-14{fill:#7d4c25;}.cls-15{fill:#c1f1ff;}.cls-16{font-size:54.28px;font-family:Aller-Bold, Aller Bold;font-weight:700;}.cls-16,.cls-19{fill:#b5292a;}.cls-17{fill:#edf4d7;}.cls-18{fill:#b6d161;}</style></defs><title>Artboard 1stress</title><path class="cls-1" d="M398.79,275.25H361.34A7.23,7.23,0,0,1,363.11,261h23.8l0-.11A144.73,144.73,0,0,0,242.3,144a144.86,144.86,0,0,1,148,84.36c0-.95,0-1.91,0-2.86A144.74,144.74,0,0,0,149.62,140.2a144.75,144.75,0,0,1,185.52-24.08A144.7,144.7,0,0,0,128.7,144.46H96.26a7.24,7.24,0,1,0,0,14.48h53.55a7.23,7.23,0,0,1-.31,14.46H112.24a144.27,144.27,0,0,0-11.4,56.4c0,79.93,65.19,136.82,144.73,144.73,84.61,8.42,125.49-23.75,135.59-84.8h17.63a7.24,7.24,0,0,0,0-14.48Z"/><path class="cls-2" d="M340.45,180a144,144,0,0,0-81-35.29,20.25,20.25,0,0,0-2.87,2.74c-.2.24-.38.49-.56.73a3.9,3.9,0,0,0-.31.4c-.3.41-.56.83-.81,1.25-.17,0-13.06-3.9-22.79,12.53s-6,102,1.23,114.4a31.74,31.74,0,0,0,8.33,9l-.43.9a4.52,4.52,0,0,0-.84,1.61l-.09.32L214.83,341.5a11.16,11.16,0,0,0-4.52-1H193.58a11.14,11.14,0,0,0-10.68,14.27h-3.8a172.39,172.39,0,0,0,17.44,8h9.58a11.24,11.24,0,0,0,.89,3.74q8.27,2.65,16.89,4.56a11.07,11.07,0,0,0,3.36-4.09l2-4.07.79,9.38q7.67,1.43,15.56,2.21c30.13,3,54.71.85,74.33-5.92l.82-5.81h0l2.19-15.46h0l2.12,7.39c.1.37.23.73.36,1.08a11.17,11.17,0,0,0,4.93,5.59,10.87,10.87,0,0,0,3.48,1.22,85.94,85.94,0,0,0,12.68-8.17,10.37,10.37,0,0,0,.32-1.75h0v0c0-.31,0-.62,0-.94,0-.06,0-.11,0-.17v-83.5a11.14,11.14,0,0,0-7.73-10.6c2.95-5.92,2.39-9.57,2.39-9.57s5.71,2.57,6.8,1.38,1.36-1.94.13-8.26c-2.9-14.83,3.94-12.43,3.74-42.53a64.4,64.4,0,0,0-.53-7.44A144.06,144.06,0,0,0,340.45,180Z"/><path class="cls-2" d="M162.85,345l-24.66-72.76a9.19,9.19,0,0,0-8-6H105.63C114.51,298.92,135.17,326,162.85,345Z"/><path class="cls-2" d="M261.59,143.19a144,144,0,0,1,86,30.75c-5-13.41-14.3-26.44-29.3-32.07a83.89,83.89,0,0,0-30-5.13C277.75,136.85,268.12,139.05,261.59,143.19Z"/><path class="cls-2" d="M166.08,235.78a11,11,0,0,0-.87,2.15,10.82,10.82,0,0,0,20.26,7.43c3.46,1.63,9,2.4,13.36-.5,0,0-5.06-1.07-7.6-4.32a10.82,10.82,0,0,0-9.52-19.42,10.83,10.83,0,1,0-15.63,14.66Z"/><path class="cls-2" d="M204.45,102.65c2.56-1,5.15-1.9,7.77-2.75a7.7,7.7,0,0,0-1.67-.18A7.78,7.78,0,0,0,204.45,102.65Z"/><path class="cls-2" d="M210.55,115.37a7.79,7.79,0,0,0,7.51-10,144.79,144.79,0,0,0-15.13,3.95A7.84,7.84,0,0,0,210.55,115.37Z"/><path class="cls-2" d="M372,195.56a4.47,4.47,0,0,0-1.89.43c1.88,2.27,3.66,4.6,5.38,7a4.51,4.51,0,0,0-3.49-7.39Z"/><path class="cls-2" d="M221.09,122.61a4.53,4.53,0,1,0,4.52-4.53A4.52,4.52,0,0,0,221.09,122.61Z"/><g class="cls-3"><path d="M245.57,374.53c84.61,8.42,125.49-23.75,135.59-84.8h17.63a7.24,7.24,0,0,0,0-14.48H361.34A7.23,7.23,0,0,1,363.11,261h23.8l0-.11a144.62,144.62,0,0,0-15-41.57c-22.64,24.84-47.79,61.26-70.46,57.76-35.08-5.4-7.55-91.53-41.2-87.63s-39.86,70-67,77.92-4.3-57.23-36.53-70c-17-6.74-38.85,8.74-55.71,24.87q-.19,3.77-.19,7.57C100.84,309.73,166,366.62,245.57,374.53Z"/><path d="M390.28,228.39c0-.95,0-1.91,0-2.86a144,144,0,0,0-4.44-19.86c-1.72,1.43-3.47,3-5.23,4.71A145.77,145.77,0,0,1,390.28,228.39Z"/></g><path class="cls-4" d="M203.76,363.12h0a11.13,11.13,0,0,1-5.21-14.85L234.75,273a11.12,11.12,0,0,1,14.85-5.2h0a11.13,11.13,0,0,1,5.21,14.85l-36.19,75.25A11.13,11.13,0,0,1,203.76,363.12Z"/><path class="cls-5" d="M173.8,342.58h0a11.13,11.13,0,0,1,11.13-11.13h16.73a11.13,11.13,0,0,1,11.14,11.13h0a11.13,11.13,0,0,1-11.13,11.13H184.93A11.13,11.13,0,0,1,173.8,342.58Z"/><path class="cls-6" d="M290.45,288l-.39-.28h0Z"/><path class="cls-7" d="M246.22,140.76s-13-4-22.79,12.53-6,102,1.23,114.39S250,285.36,250,285.36s58.84-12.63,71.57-25.18,11.36-21.39,11.36-21.39,5.71,2.56,6.8,1.37,1.35-1.94.12-8.26c-2.89-14.83,3.95-12.43,3.74-42.53-.12-18.08-9.29-47.17-33.81-56.47S254.16,126.86,246.22,140.76Z"/><path class="cls-2" d="M321.52,260.18c12.74-12.55,11.36-21.39,11.36-21.39s5.71,2.56,6.8,1.37S334.27,235.42,334,229c-.26-5.16.75-18,2.35-33.81-7.34,11.92-17.28,9.14-12.84,5,4.79-4.47,4.88-8.51,4.88-8.51s-10.66,10.32-31.18,5.16-57.45-33.25-57.45-33.25S253.09,214.69,256,264.92A50.16,50.16,0,0,0,260.17,283C277.61,278.75,312.13,269.45,321.52,260.18Z"/><path class="cls-8" d="M277.06,368.47l15.2-103.56-42.68,16.14-8.06,5.18s-3.23,44.24-6.32,82.24Z"/><path class="cls-2" d="M269.4,280.66c8.27-13.7,13.3-30.16,11.05-39.67-5-21-40.74-77.43-40.74-77.43s-6.07,4.74-11.34,20.36c-4.87,14.43-6,33.58-5.68,51.85.26,16.48,7.78,31.39,14.63,39.14,9.49,10.72,12.63,10.45,12.63,10.45S258.31,283.57,269.4,280.66Z"/><path class="cls-6" d="M271.82,357l-1.2,11.51h41.05L310.9,362l10.73-114.2-15.91-1.69-9.62,4.21-18,46L277,307.51l-6.53,23.19a28.8,28.8,0,0,0-.76,12Z"/><path class="cls-5" d="M253,269.65l-1.61-24.18,34-26.66,8.14,38.75-1.89,11.24a24.16,24.16,0,0,1-25.4,20.09l-7.16-.47a8.11,8.11,0,0,1-7.49-9.24Z"/><path class="cls-9" d="M253.49,242.9l-2.15,2.57,1.16,17.47h0a44,44,0,0,0,23.55,2.89c14.12-2.1,8.18,10.58,14.83,9.59.08-.35.67-6.26.73-6.62l1.89-11.24-.94-18C282.48,238.22,264.23,239.64,253.49,242.9Z"/><path class="cls-6" d="M221.8,368.47h16.85l.23-1.91h0l2.06-14.15-1.83-12.12a28.85,28.85,0,0,1,.76-12.05l9.43-33.46L253,269.65l-.45-6.71-19,13.75a4.6,4.6,0,0,0-1.76,2.52l-11.85,42.05A28.71,28.71,0,0,0,219,332.4l-.23-.11Z"/><polygon class="cls-4" points="303.57 246.14 288.86 300.12 276.83 308.02 278.13 296.38 293.19 250.34 303.57 246.14"/><polygon class="cls-4" points="249.02 265.46 241.52 295.19 245.57 308.02 249.3 294.78 252.95 269.65 252.5 262.94 249.02 265.46"/><path class="cls-5" d="M275.9,192.3c-14.59-11.86-36.19-28.74-36.19-28.74s-7.74,8.19-11.36,55c-2.43,31.49,24.85,46.87,30.48,46.7,40.4,2.66,52.79-18.7,56.29-40.35l1.61-15.49C314.23,209.6,297.68,210,275.9,192.3Z"/><path class="cls-7" d="M263.12,188.14c2.08,1.05,4.11,2.12,6.17,3.11a50.33,50.33,0,0,0,6.21,2.62c2.13.62,4.34,1.22,6.53,1.64a31,31,0,0,0,3.33.48,11.78,11.78,0,0,0,3.4-.1,7.71,7.71,0,0,1-3.37,1.13,18.43,18.43,0,0,1-3.56.1,29.4,29.4,0,0,1-6.93-1.46,22,22,0,0,1-3.26-1.42,30.51,30.51,0,0,1-3-1.77A35.87,35.87,0,0,1,263.12,188.14Z"/><path class="cls-7" d="M249.75,187.59a10.93,10.93,0,0,1-3.61,3.77,10.6,10.6,0,0,1-5.14,1.69,17.52,17.52,0,0,1-2.66-.14,20.59,20.59,0,0,1-2.56-.48,11.84,11.84,0,0,1-2.49-.92,6.24,6.24,0,0,1-1.14-.75,1.83,1.83,0,0,1-.72-1.15,2,2,0,0,0,1,.61,9.63,9.63,0,0,0,1.18.28q1.2.19,2.43.3l2.46.21c.84.05,1.66.16,2.41.15a11.86,11.86,0,0,0,4.56-1A18.61,18.61,0,0,0,249.75,187.59Z"/><path class="cls-10" d="M249.05,202.68a9,9,0,0,1-2.74,4.9,8.63,8.63,0,0,1-5.4,2.29,11.52,11.52,0,0,1-5.7-.88,5.42,5.42,0,0,1-3.43-4.42,6.34,6.34,0,0,0,4,3,15.24,15.24,0,0,0,5,.41,8.83,8.83,0,0,0,4.61-1.5A13.84,13.84,0,0,0,249.05,202.68Z"/><path class="cls-10" d="M266.59,202.68a13.8,13.8,0,0,0,3.64,3.77,8.86,8.86,0,0,0,4.61,1.5,15.27,15.27,0,0,0,5-.41,6.36,6.36,0,0,0,4-3,5.45,5.45,0,0,1-3.44,4.42,11.51,11.51,0,0,1-5.7.88,8.68,8.68,0,0,1-5.4-2.29A9,9,0,0,1,266.59,202.68Z"/><path class="cls-3" d="M316.41,209.44H315.3a48,48,0,0,1-16.86-3.64h0s4.47,1.55,4.19,13.21c-.16,6.8-6.3,23.83-6.82,25.45-3.89,12-22.77,18.37-42.48,19a20,20,0,0,0,4.15,1.58l1.36.17c40.4,2.66,52.79-18.7,56.29-40.35l1.61-15.49Z"/><path class="cls-5" d="M313.38,231,315,209.62a11.46,11.46,0,0,1,3.52-.17,11.26,11.26,0,1,1-5.3,21.67Z"/><path class="cls-11" d="M309.6,132.78c20.26,7.59,30.11,28.68,33,46-1.78-7.55-10.31-22.78-17.53-30.41-4.6-4.87-12.3-8.72-20.85-11.27,14.89,7.59,23.58,22.62,23.58,22.62s-14.73-16.63-34.62-20.25c-29.07-5.27-45.9,8.57-45.9,8.57s-13.05-5.51-21.36,14.26c-5.21,12.39-8.21,38.58-8.29,39.29v-3.72l0-2.38c0-1.08,0-2.16,0-3.23l.06-2.55c0-.63.05-1.26.07-1.88s.05-1.48.08-2.21l.09-1.87q.06-1.06.12-2.1c0-.61.07-1.21.11-1.81s.1-1.39.15-2.07.09-1.12.13-1.66c.07-.74.13-1.46.2-2.17,0-.47.09-.94.14-1.4.11-1,.22-2,.34-2.92l.09-.7c.13-1,.27-1.94.42-2.87l.18-1c.11-.65.23-1.29.35-1.91.07-.36.15-.71.22-1.06.12-.56.24-1.11.37-1.63.08-.34.17-.66.25-1,.14-.51.28-1,.42-1.45.09-.29.18-.58.27-.85.16-.48.33-.92.5-1.35.08-.2.16-.43.25-.62a15.68,15.68,0,0,1,.81-1.64c.61-1,1.23-2,1.86-2.88,5-7,10.64-9.35,14.77-10a16.91,16.91,0,0,1,3.93-.13,11.86,11.86,0,0,1,1.6.22,4.3,4.3,0,0,1,.58.14C254,127,285.05,123.57,309.6,132.78Z"/><rect class="cls-4" x="310.5" y="247.83" width="22.26" height="105.76" rx="11.13" ry="11.13"/><path class="cls-12" d="M280.11,368.47,281.2,349l-8.78-17.56s-6.65-.72-10.79,4.5c-3.05,3.85-9,5.06-11.85,1.23s-7.16-6.9-11-6.39c-3.29.44-3.19,29.47-3.1,37.69Z"/><path class="cls-2" d="M313.27,322.28c4.64,17.33,11.13,25.6,16.19,28.08a11.08,11.08,0,0,0,3.3-7.91V330.06l-22.23-71.77,0,50.2A116.48,116.48,0,0,0,313.27,322.28Z"/><path class="cls-13" d="M285.47,241.4H242.8a9.5,9.5,0,0,1,9.5-9.5H276a9.5,9.5,0,0,1,9.5,9.5Z"/><path class="cls-4" d="M236.67,368.47h1.94l2.33-16.06-1.83-12.12a28.8,28.8,0,0,1,.76-12l5.7-20.23-2.93-9.29-10.49,17.06s-3.91,16-1.53,27.08C232.25,350.46,235.06,362,236.67,368.47Z"/><path class="cls-4" d="M271.82,357l-1.2,11.51H280.8c1.14-6.86.67-16.12.4-19.47-.2-2.51,2.27-12.11,4.32-19.53l2.64-9.25-2.81-17.79L276.83,308l-6.39,22.68a28.8,28.8,0,0,0-.76,12Z"/><polygon class="cls-2" points="305.04 305.96 308.09 353.58 312.08 353.71 314.27 338.24 315.18 330.16 305.04 305.96"/><rect class="cls-14" x="6.35" y="353.58" width="373.83" height="25.31" rx="4.83" ry="4.83"/><path class="cls-4" d="M332.33,339.51l-20.62-72.14L291,276l19.91,69.64a11.13,11.13,0,1,0,21.4-6.12Z"/><path class="cls-5" d="M309.3,258.93a11.13,11.13,0,0,0-13.76-7.65h0A11.13,11.13,0,0,0,287.89,265L291,276l20.69-8.62Z"/><path class="cls-8" d="M109.47,257.15h12.06a9.17,9.17,0,0,1,8,6l28.62,84.46c1.12,3.3-.65,6-4,6H142.14Z"/><path class="cls-12" d="M5.7,257.15H111.28c4.39,0,9.15,3.55,10.63,7.94l27.3,80.55c1.49,4.39-.87,7.94-5.25,7.94H38.37c-4.38,0-9.14-3.55-10.63-7.94L.45,265.09C-1,260.7,1.31,257.15,5.7,257.15Z"/><circle class="cls-8" cx="197.45" cy="63.79" r="31.5"/><circle class="cls-8" cx="411.68" cy="149.58" r="31.5"/><circle class="cls-8" cx="329.69" cy="38.39" r="38.39" transform="translate(69.41 244.37) rotate(-45)"/><path class="cls-8" d="M193.56,244.86s-5.06-1.07-7.6-4.32a10.82,10.82,0,0,0-9.52-19.42,10.83,10.83,0,1,0-15.64,14.66,11.62,11.62,0,0,0-.86,2.15,10.82,10.82,0,0,0,20.26,7.43C183.66,247,189.17,247.76,193.56,244.86Z"/><path class="cls-15" d="M317.74,43.31s-7.87-4.43-12-1.47-6.1,10-5.22,11.41,5.22-2,5.22-2-.49,3.54,2.26,3,5.52-4.14,5.52-4.14A2.1,2.1,0,0,0,316,52.66c2.95-.19,6.86-3.79,6.86-3.79Z"/><path class="cls-15" d="M340.77,33s-.19-7.77,5.32-9.15,11.91.88,10,3.44a4.62,4.62,0,0,1-4.53,2s3.25,2.17,1.48,3.74-4.46.69-4.46.69a3.14,3.14,0,0,1,1.66,2.66c-.06,1.77-7.71,1.33-7.71,1.33Z"/><text class="cls-16" transform="translate(181.19 81.16) rotate(10.07)">?</text><path class="cls-17" d="M307.11,19.49l24.21-8.66a87.87,87.87,0,0,0,9.26,21.46C347.07,42.92,358.89,52,358.89,52L335.26,65.76s-13.19-12.41-19.49-24.22A99.93,99.93,0,0,1,307.11,19.49Z"/><path class="cls-18" d="M330.54,13.29l-21.36,7.28S313.7,36.13,320.69,46A124.54,124.54,0,0,0,335.26,62.9l20.38-11.12s-12.16-8.52-18-20.67C331.23,17.82,330.54,13.29,330.54,13.29Z"/><path class="cls-17" d="M335.19,46.34c-3.06,2.31-8,.9-11.05-3.13s-3-9.19,0-11.49,8-.9,11.05,3.14S338.25,44,335.19,46.34Z"/><path class="cls-17" d="M312.23,19a4.06,4.06,0,0,1,.44,3.54,4.3,4.3,0,0,1-3,2.71l-1.38-5.12Z"/><path class="cls-17" d="M326.38,13.86a4.66,4.66,0,0,0,2.51,3.54,4.94,4.94,0,0,0,4.11.22l-2.27-5.39Z"/><path class="cls-17" d="M331.32,60.22a9.27,9.27,0,0,1,4.73-1.33,5.15,5.15,0,0,1,3.69,2.44s-4.36,3-4.65,3S331.32,60.22,331.32,60.22Z"/><path class="cls-17" d="M352.22,48.33a2.31,2.31,0,0,0-1.92,2.07c-.22,1.85,1.92,3.84,1.92,3.84l4.87-2.44Z"/><circle class="cls-8" cx="205.28" cy="107.54" r="7.83" transform="translate(53.59 282.74) rotate(-76.76)"/><circle class="cls-8" cx="344.46" cy="93.91" r="10.43" transform="translate(173.59 407.39) rotate(-76.66)"/><circle class="cls-8" cx="390.62" cy="193.11" r="10.43"/><circle class="cls-8" cx="327.19" cy="107.54" r="4.53"/><circle class="cls-8" cx="366.76" cy="200.09" r="4.53"/><path class="cls-8" d="M224.87,122.61a4.53,4.53,0,1,1-4.53-4.53A4.52,4.52,0,0,1,224.87,122.61Z"/><polygon class="cls-19" points="385.96 145.57 401.45 136.18 408.43 150.69 421 144.6 431.58 162.22 433.11 159.66 433.11 166.16 425.77 164 430.24 162.93 420.49 147.51 406.92 153.63 400.28 139.58 385.96 145.57"/><path class="cls-2" d="M287.89,265,291,276l19.91,69.64a11.11,11.11,0,0,0,17.64,5.64,20,20,0,0,1-8.28-4c-6.89-5.71-23-64.78-26-76.78s1.23-19.23,1.23-19.23A11.13,11.13,0,0,0,287.89,265Z"/><path class="cls-2" d="M208.23,333.6h0s.12,5.83-3.1,9c-2.43,2.37-21.86,1.17-31.31.44a11.13,11.13,0,0,0,11.11,10.7h16.74a11.12,11.12,0,0,0,6.56-20.1Z"/><path class="cls-8" d="M152.7,345.71h49.2a7.87,7.87,0,0,1,7.87,7.87H152.7Z"/><circle class="cls-1" cx="91.77" cy="177.47" r="9.07"/></svg>